<svg xmlns="http://www.w3.org/2000/svg" viewBox="0 0 64 64"> <defs> <style> .fill { fill: #ef4444; } </style> </defs> <g id="_2" data-name="2"> <path class="fill" d="M52,57H12a5.006,5.006,0,0,1-5-5V50a1,1,0,0,1,1-1H56a1,1,0,0,1,1,1v2A5.006,5.006,0,0,1,52,57ZM9,51v1a3,3,0,0,0,3,3H52a3,3,0,0,0,3-3V51Z" /> <path class="fill" d="M36,54H28a1,1,0,0,1-1-1V50a1,1,0,0,1,2,0v2h6V50a1,1,0,0,1,2,0v3A1,1,0,0,1,36,54Z" /> <path class="fill" d="M54,51H10a1,1,0,0,1-1-1V16a1,1,0,0,1,1-1h8a1,1,0,0,1,0,2H11V49H53V17H50a1,1,0,0,1,0-2h4a1,1,0,0,1,1,1V50A1,1,0,0,1,54,51Z" /> <path class="fill" d="M46,44H18a1,1,0,0,1-1-1V8a1,1,0,0,1,1-1H46a1,1,0,0,1,1,1V43A1,1,0,0,1,46,44ZM19,42H45V9H19Z" /> <path class="fill" d="M27,24a1,1,0,0,1-.707-.293l-4-4a1,1,0,0,1,0-1.414l4-4a1,1,0,0,1,1.414,1.414L24.414,19l3.293,3.293A1,1,0,0,1,27,24Z" /> <path class="fill" d="M37,24a1,1,0,0,1-.707-1.707L39.586,19l-3.293-3.293a1,1,0,0,1,1.414-1.414l4,4a1,1,0,0,1,0,1.414l-4,4A1,1,0,0,1,37,24Z" /> <path class="fill" d="M30,24a1,1,0,0,1-.894-1.447l4-8a1,1,0,1,1,1.79.894l-4,8A1,1,0,0,1,30,24Z" /> <path class="fill" d="M37,29H27a1,1,0,0,1,0-2H37a1,1,0,0,1,0,2Z" /> <path class="fill" d="M37,34H27a1,1,0,0,1,0-2H37a1,1,0,0,1,0,2Z" /> <path class="fill" d="M37,39H27a1,1,0,0,1,0-2H37a1,1,0,0,1,0,2Z" /> </g> </svg>
