<svg width="994.19" height="72.51" viewBox="0 0 994.19 72.51" xmlns="http://www.w3.org/2000/svg"><g stroke-linecap="round" fill-rule="evenodd" font-size="9pt" stroke="#000" stroke-width="0" fill="#ffffff" style="stroke:#000;stroke-width:0;fill:#ffffff"><path d="M 553.614 20.997 L 553.614 70.997 L 539.649 70.997 L 539.649 20.997 A 6.718 6.718 0 0 0 539.171 18.462 A 6.481 6.481 0 0 0 539.087 18.262 A 7.267 7.267 0 0 0 537.573 16.04 A 6.924 6.924 0 0 0 535.352 14.551 A 6.898 6.898 0 0 0 532.8 14.016 A 7.893 7.893 0 0 0 532.617 14.014 A 7.042 7.042 0 0 0 530.305 14.389 A 6.637 6.637 0 0 0 529.883 14.551 Q 528.614 15.088 527.661 16.04 A 6.924 6.924 0 0 0 526.172 18.262 A 6.898 6.898 0 0 0 525.637 20.814 A 7.893 7.893 0 0 0 525.635 20.997 L 525.635 70.997 L 511.621 70.997 L 511.621 20.997 A 7.042 7.042 0 0 0 511.246 18.684 A 6.637 6.637 0 0 0 511.084 18.262 Q 510.547 16.993 509.595 16.04 A 6.924 6.924 0 0 0 507.373 14.551 A 6.898 6.898 0 0 0 504.821 14.016 A 7.893 7.893 0 0 0 504.639 14.014 A 7.042 7.042 0 0 0 502.326 14.389 A 6.637 6.637 0 0 0 501.905 14.551 Q 500.635 15.088 499.683 16.04 A 6.924 6.924 0 0 0 498.194 18.262 A 6.898 6.898 0 0 0 497.659 20.814 A 7.893 7.893 0 0 0 497.656 20.997 L 497.656 70.997 L 483.643 70.997 L 483.643 20.997 A 20.617 20.617 0 0 1 485.279 12.818 Q 486.914 8.985 489.771 6.128 A 21.033 21.033 0 0 1 496.46 1.636 Q 500.293 0 504.639 0 Q 508.545 0 512.158 1.392 A 20.4 20.4 0 0 1 518.653 5.42 A 20.471 20.471 0 0 1 525.122 1.392 Q 528.711 0 532.617 0 A 20.617 20.617 0 0 1 540.796 1.636 Q 544.629 3.272 547.486 6.128 A 21.033 21.033 0 0 1 551.978 12.818 Q 553.614 16.651 553.614 20.997 Z M 792.09 0.977 L 792.09 70.997 L 777.1 70.997 L 750.098 24.903 L 750.098 70.997 L 736.084 70.997 L 736.084 0.977 L 751.074 0.977 L 778.076 47.12 L 778.076 0.977 L 792.09 0.977 Z M 154.59 0.977 L 186.719 0.977 L 186.719 14.991 L 154.59 14.991 A 7.042 7.042 0 0 0 152.278 15.366 A 6.637 6.637 0 0 0 151.856 15.528 Q 150.586 16.065 149.634 17.017 A 6.924 6.924 0 0 0 148.145 19.239 A 6.898 6.898 0 0 0 147.61 21.791 A 7.893 7.893 0 0 0 147.608 21.973 Q 147.608 23.438 148.145 24.732 Q 148.682 26.026 149.634 26.978 A 6.924 6.924 0 0 0 151.856 28.467 A 6.898 6.898 0 0 0 154.408 29.002 A 7.893 7.893 0 0 0 154.59 29.004 L 168.604 29.004 A 20.617 20.617 0 0 1 176.782 30.64 Q 180.615 32.276 183.472 35.132 A 21.033 21.033 0 0 1 187.964 41.822 Q 189.6 45.655 189.6 50 A 20.442 20.442 0 0 1 187.964 58.155 A 21.107 21.107 0 0 1 183.472 64.82 Q 180.615 67.676 176.782 69.336 A 20.355 20.355 0 0 1 168.604 70.997 L 137.5 70.997 L 137.5 56.983 L 168.604 56.983 A 7.042 7.042 0 0 0 170.916 56.608 A 6.637 6.637 0 0 0 171.338 56.446 Q 172.608 55.909 173.56 54.956 A 6.924 6.924 0 0 0 175.049 52.735 A 6.898 6.898 0 0 0 175.584 50.183 A 7.893 7.893 0 0 0 175.586 50 A 7.042 7.042 0 0 0 175.211 47.688 A 6.637 6.637 0 0 0 175.049 47.266 Q 174.512 45.997 173.56 45.044 A 6.924 6.924 0 0 0 171.338 43.555 A 6.898 6.898 0 0 0 168.786 43.02 A 7.893 7.893 0 0 0 168.604 43.018 L 154.59 43.018 Q 150.244 43.018 146.436 41.358 A 21.45 21.45 0 0 1 139.771 36.841 Q 136.914 33.985 135.254 30.152 A 20.355 20.355 0 0 1 133.594 21.973 Q 133.594 17.627 135.254 13.819 A 21.45 21.45 0 0 1 139.771 7.154 Q 142.627 4.297 146.436 2.637 Q 150.244 0.977 154.59 0.977 Z M 59.522 36.28 L 59.522 63.916 Q 54.639 68.067 48.633 70.288 A 35.743 35.743 0 0 1 36.133 72.51 A 35.367 35.367 0 0 1 26.538 71.216 Q 21.924 69.922 17.92 67.554 A 37.349 37.349 0 0 1 10.596 61.89 A 35.27 35.27 0 0 1 4.932 54.566 A 36.832 36.832 0 0 1 1.294 45.899 A 35.632 35.632 0 0 1 0 36.28 Q 0 31.299 1.294 26.709 A 37.052 37.052 0 0 1 4.932 18.091 A 35.27 35.27 0 0 1 10.596 10.767 A 36.617 36.617 0 0 1 17.92 5.127 A 36.472 36.472 0 0 1 26.538 1.49 A 35.367 35.367 0 0 1 36.133 0.196 A 35.743 35.743 0 0 1 48.633 2.417 Q 54.639 4.639 59.522 8.789 L 52.197 20.997 A 23.502 23.502 0 0 0 44.873 15.943 A 21.418 21.418 0 0 0 36.133 14.112 A 21.311 21.311 0 0 0 27.515 15.87 A 22.951 22.951 0 0 0 20.459 20.63 A 22.439 22.439 0 0 0 15.674 27.662 A 21.311 21.311 0 0 0 13.916 36.28 A 21.604 21.604 0 0 0 15.674 44.971 A 22.657 22.657 0 0 0 20.459 52.051 A 22.737 22.737 0 0 0 27.515 56.836 A 21.311 21.311 0 0 0 36.133 58.594 A 20.675 20.675 0 0 0 41.26 57.959 A 23.581 23.581 0 0 0 45.996 56.202 L 45.996 36.28 L 59.522 36.28 Z M 928.174 36.28 L 928.174 63.916 Q 923.291 68.067 917.285 70.288 A 35.743 35.743 0 0 1 904.785 72.51 A 35.367 35.367 0 0 1 895.191 71.216 Q 890.576 69.922 886.572 67.554 A 37.349 37.349 0 0 1 879.248 61.89 A 35.27 35.27 0 0 1 873.584 54.566 A 36.832 36.832 0 0 1 869.947 45.899 A 35.632 35.632 0 0 1 868.653 36.28 Q 868.653 31.299 869.947 26.709 A 37.052 37.052 0 0 1 873.584 18.091 A 35.27 35.27 0 0 1 879.248 10.767 A 36.617 36.617 0 0 1 886.572 5.127 A 36.472 36.472 0 0 1 895.191 1.49 A 35.367 35.367 0 0 1 904.785 0.196 A 35.743 35.743 0 0 1 917.285 2.417 Q 923.291 4.639 928.174 8.789 L 920.85 20.997 A 23.502 23.502 0 0 0 913.526 15.943 A 21.418 21.418 0 0 0 904.785 14.112 A 21.311 21.311 0 0 0 896.167 15.87 A 22.951 22.951 0 0 0 889.112 20.63 A 22.439 22.439 0 0 0 884.326 27.662 A 21.311 21.311 0 0 0 882.569 36.28 A 21.604 21.604 0 0 0 884.326 44.971 A 22.657 22.657 0 0 0 889.112 52.051 A 22.737 22.737 0 0 0 896.167 56.836 A 21.311 21.311 0 0 0 904.785 58.594 A 20.675 20.675 0 0 0 909.912 57.959 A 23.581 23.581 0 0 0 914.649 56.202 L 914.649 36.28 L 928.174 36.28 Z M 125.537 0.977 L 125.537 43.018 Q 125.537 48.829 123.34 53.931 Q 121.143 59.034 117.334 62.818 A 28.502 28.502 0 0 1 108.423 68.799 Q 103.321 70.997 97.51 70.997 Q 91.699 70.997 86.597 68.799 Q 81.494 66.602 77.71 62.818 A 28.206 28.206 0 0 1 71.729 53.931 Q 69.531 48.829 69.531 43.018 L 69.531 0.977 L 83.496 0.977 L 83.496 43.018 A 13.501 13.501 0 0 0 84.595 48.438 Q 85.694 50.977 87.598 52.881 Q 89.502 54.786 92.066 55.884 Q 94.629 56.983 97.51 56.983 Q 100.391 56.983 102.954 55.884 A 14.109 14.109 0 0 0 107.422 52.881 Q 109.326 50.977 110.425 48.438 Q 111.524 45.899 111.524 43.018 L 111.524 0.977 L 125.537 0.977 Z M 356.885 0.977 L 372.901 0.977 L 349.903 70.997 L 335.889 70.997 L 312.989 0.977 L 328.906 0.977 L 342.871 47.705 L 356.885 0.977 Z M 657.91 56.983 L 657.91 70.997 L 643.897 70.997 L 643.897 0.977 L 671.924 0.977 A 27.322 27.322 0 0 1 679.346 1.978 A 27.853 27.853 0 0 1 686.011 4.81 A 28.416 28.416 0 0 1 691.675 9.205 Q 694.239 11.768 696.07 14.893 Q 697.901 18.018 698.902 21.582 Q 699.903 25.147 699.903 29.004 A 27.401 27.401 0 0 1 698.999 36.036 Q 698.096 39.454 696.411 42.53 A 27.416 27.416 0 0 1 692.285 48.194 A 27.934 27.934 0 0 1 686.817 52.686 L 694.58 70.997 L 679.688 70.997 L 673.584 56.885 L 657.91 56.983 Z M 308.74 29.004 L 308.74 70.997 L 294.727 70.997 L 294.727 56.983 L 266.699 56.983 L 266.699 70.997 L 252.735 70.997 L 252.735 29.004 Q 252.735 23.194 254.932 18.091 A 28.502 28.502 0 0 1 260.913 9.18 A 28.002 28.002 0 0 1 269.8 3.174 Q 274.903 0.977 280.713 0.977 Q 286.524 0.977 291.626 3.174 Q 296.729 5.372 300.537 9.18 Q 304.346 12.989 306.543 18.091 Q 308.74 23.194 308.74 29.004 Z M 860.303 29.004 L 860.303 70.997 L 846.289 70.997 L 846.289 56.983 L 818.262 56.983 L 818.262 70.997 L 804.297 70.997 L 804.297 29.004 Q 804.297 23.194 806.494 18.091 A 28.502 28.502 0 0 1 812.476 9.18 A 28.002 28.002 0 0 1 821.363 3.174 Q 826.465 0.977 832.276 0.977 Q 838.086 0.977 843.189 3.174 Q 848.291 5.372 852.1 9.18 Q 855.908 12.989 858.106 18.091 Q 860.303 23.194 860.303 29.004 Z M 994.19 29.004 L 994.19 70.997 L 980.176 70.997 L 980.176 56.983 L 952.149 56.983 L 952.149 70.997 L 938.184 70.997 L 938.184 29.004 Q 938.184 23.194 940.381 18.091 A 28.502 28.502 0 0 1 946.363 9.18 A 28.002 28.002 0 0 1 955.249 3.174 Q 960.352 0.977 966.162 0.977 Q 971.973 0.977 977.075 3.174 Q 982.178 5.372 985.987 9.18 Q 989.795 12.989 991.992 18.091 Q 994.19 23.194 994.19 29.004 Z M 227.197 14.991 L 227.197 70.997 L 213.233 70.997 L 213.233 14.991 L 192.188 14.991 L 192.188 0.977 L 248.194 0.977 L 248.194 14.991 L 227.197 14.991 Z M 445.679 45.874 A 35.367 35.367 0 0 0 446.973 36.28 A 35.632 35.632 0 0 0 445.679 26.661 A 36.367 36.367 0 0 0 442.041 18.018 A 36.147 36.147 0 0 0 436.377 10.694 A 36.147 36.147 0 0 0 429.053 5.03 A 36.367 36.367 0 0 0 420.41 1.392 A 35.632 35.632 0 0 0 410.791 0.098 A 35.367 35.367 0 0 0 401.197 1.392 Q 396.582 2.686 392.554 5.03 A 35.85 35.85 0 0 0 385.205 10.694 Q 381.885 14.014 379.517 18.018 A 35.772 35.772 0 0 0 375.855 26.661 A 35.632 35.632 0 0 0 374.561 36.28 A 35.367 35.367 0 0 0 375.855 45.874 Q 377.149 50.489 379.517 54.517 A 36.547 36.547 0 0 0 385.205 61.866 A 36.547 36.547 0 0 0 392.554 67.554 A 36.328 36.328 0 0 0 401.197 71.216 A 35.367 35.367 0 0 0 410.791 72.51 A 35.632 35.632 0 0 0 420.41 71.216 Q 425.049 69.922 429.053 67.554 Q 433.057 65.186 436.377 61.866 A 35.85 35.85 0 0 0 442.041 54.517 A 36.94 36.94 0 0 0 445.679 45.874 Z M 633.423 45.874 A 35.367 35.367 0 0 0 634.717 36.28 A 35.632 35.632 0 0 0 633.423 26.661 A 36.367 36.367 0 0 0 629.785 18.018 A 36.147 36.147 0 0 0 624.121 10.694 A 36.147 36.147 0 0 0 616.797 5.03 A 36.367 36.367 0 0 0 608.155 1.392 A 35.632 35.632 0 0 0 598.535 0.098 A 35.367 35.367 0 0 0 588.941 1.392 Q 584.326 2.686 580.298 5.03 A 35.85 35.85 0 0 0 572.949 10.694 Q 569.629 14.014 567.261 18.018 A 35.772 35.772 0 0 0 563.599 26.661 A 35.632 35.632 0 0 0 562.305 36.28 A 35.367 35.367 0 0 0 563.599 45.874 Q 564.893 50.489 567.261 54.517 A 36.547 36.547 0 0 0 572.949 61.866 A 36.547 36.547 0 0 0 580.298 67.554 A 36.328 36.328 0 0 0 588.941 71.216 A 35.367 35.367 0 0 0 598.535 72.51 A 35.632 35.632 0 0 0 608.155 71.216 Q 612.793 69.922 616.797 67.554 Q 620.801 65.186 624.121 61.866 A 35.85 35.85 0 0 0 629.785 54.517 A 36.94 36.94 0 0 0 633.423 45.874 Z M 723.096 0.977 L 723.096 70.997 L 709.082 70.997 L 709.082 0.977 L 723.096 0.977 Z M 433.057 36.28 A 21.657 21.657 0 0 0 431.299 27.613 Q 429.541 23.536 426.538 20.533 Q 423.535 17.53 419.458 15.772 A 21.657 21.657 0 0 0 410.791 14.014 A 21.604 21.604 0 0 0 402.1 15.772 A 22.87 22.87 0 0 0 395.02 20.533 A 22.288 22.288 0 0 0 390.235 27.613 A 21.657 21.657 0 0 0 388.477 36.28 A 21.311 21.311 0 0 0 390.235 44.898 A 22.737 22.737 0 0 0 395.02 51.954 A 22.657 22.657 0 0 0 402.1 56.739 A 21.604 21.604 0 0 0 410.791 58.497 A 21.657 21.657 0 0 0 419.458 56.739 A 22.288 22.288 0 0 0 426.538 51.954 A 22.951 22.951 0 0 0 431.299 44.898 A 21.311 21.311 0 0 0 433.057 36.28 Z M 620.801 36.28 A 21.657 21.657 0 0 0 619.043 27.613 Q 617.285 23.536 614.282 20.533 Q 611.28 17.53 607.202 15.772 A 21.657 21.657 0 0 0 598.535 14.014 A 21.604 21.604 0 0 0 589.844 15.772 A 22.87 22.87 0 0 0 582.764 20.533 A 22.288 22.288 0 0 0 577.979 27.613 A 21.657 21.657 0 0 0 576.221 36.28 A 21.311 21.311 0 0 0 577.979 44.898 A 22.737 22.737 0 0 0 582.764 51.954 A 22.657 22.657 0 0 0 589.844 56.739 A 21.604 21.604 0 0 0 598.535 58.497 A 21.657 21.657 0 0 0 607.202 56.739 A 22.288 22.288 0 0 0 614.282 51.954 A 22.951 22.951 0 0 0 619.043 44.898 A 21.311 21.311 0 0 0 620.801 36.28 Z M 266.699 43.018 L 294.727 43.018 L 294.727 29.004 Q 294.727 26.123 293.628 23.56 A 14.109 14.109 0 0 0 290.625 19.092 Q 288.721 17.188 286.157 16.089 Q 283.594 14.991 280.713 14.991 Q 277.832 14.991 275.269 16.089 A 14.109 14.109 0 0 0 270.801 19.092 Q 268.897 20.997 267.798 23.56 Q 266.699 26.123 266.699 29.004 L 266.699 43.018 Z M 818.262 43.018 L 846.289 43.018 L 846.289 29.004 Q 846.289 26.123 845.191 23.56 A 14.109 14.109 0 0 0 842.188 19.092 Q 840.283 17.188 837.72 16.089 Q 835.156 14.991 832.276 14.991 Q 829.395 14.991 826.831 16.089 A 14.109 14.109 0 0 0 822.364 19.092 Q 820.459 20.997 819.361 23.56 Q 818.262 26.123 818.262 29.004 L 818.262 43.018 Z M 952.149 43.018 L 980.176 43.018 L 980.176 29.004 Q 980.176 26.123 979.077 23.56 A 14.109 14.109 0 0 0 976.074 19.092 Q 974.17 17.188 971.607 16.089 Q 969.043 14.991 966.162 14.991 Q 963.281 14.991 960.718 16.089 A 14.109 14.109 0 0 0 956.25 19.092 Q 954.346 20.997 953.247 23.56 Q 952.149 26.123 952.149 29.004 L 952.149 43.018 Z M 671.924 14.991 L 657.91 14.991 L 657.91 43.018 L 671.924 43.018 A 13.501 13.501 0 0 0 677.344 41.919 Q 679.883 40.821 681.787 38.916 Q 683.692 37.012 684.79 34.449 Q 685.889 31.885 685.889 29.004 Q 685.889 26.123 684.79 23.56 A 14.109 14.109 0 0 0 681.787 19.092 Q 679.883 17.188 677.344 16.089 Q 674.805 14.991 671.924 14.991 Z"/></g></svg>
