<?xml version="1.0" encoding="UTF-8"?> <svg xmlns="http://www.w3.org/2000/svg" xmlns:xlink="http://www.w3.org/1999/xlink" width="208px" height="15px" viewBox="0 0 204 15" version="1.1"> <g id="surface1"> <path style=" stroke:none;fill-rule:evenodd;fill:rgb(100%,100%,100%);fill-opacity:1;" d="M 113.617188 4.3125 L 113.617188 14.589844 L 110.753906 14.589844 L 110.753906 4.3125 C 110.753906 4.136719 110.722656 3.960938 110.65625 3.792969 C 110.648438 3.78125 110.644531 3.765625 110.636719 3.753906 C 110.5625 3.582031 110.457031 3.425781 110.328125 3.296875 C 110.195312 3.164062 110.042969 3.0625 109.871094 2.988281 C 109.703125 2.921875 109.527344 2.882812 109.347656 2.878906 C 109.335938 2.878906 109.320312 2.878906 109.308594 2.878906 C 109.148438 2.878906 108.988281 2.90625 108.835938 2.957031 C 108.804688 2.964844 108.777344 2.976562 108.75 2.988281 C 108.574219 3.0625 108.421875 3.164062 108.292969 3.296875 C 108.160156 3.425781 108.058594 3.582031 107.988281 3.753906 C 107.917969 3.917969 107.878906 4.097656 107.878906 4.277344 C 107.875 4.289062 107.875 4.300781 107.875 4.3125 L 107.875 14.589844 L 105 14.589844 L 105 4.3125 C 105 4.152344 104.976562 3.992188 104.921875 3.839844 C 104.914062 3.808594 104.902344 3.78125 104.890625 3.753906 C 104.816406 3.578125 104.714844 3.425781 104.585938 3.296875 C 104.453125 3.164062 104.300781 3.0625 104.128906 2.988281 C 103.960938 2.921875 103.785156 2.882812 103.605469 2.878906 C 103.59375 2.878906 103.582031 2.878906 103.566406 2.878906 C 103.40625 2.878906 103.246094 2.90625 103.09375 2.957031 C 103.0625 2.964844 103.035156 2.976562 103.007812 2.988281 C 102.832031 3.0625 102.679688 3.164062 102.550781 3.296875 C 102.421875 3.425781 102.316406 3.582031 102.246094 3.753906 C 102.175781 3.917969 102.136719 4.097656 102.136719 4.277344 C 102.136719 4.289062 102.132812 4.300781 102.132812 4.3125 L 102.132812 14.589844 L 99.257812 14.589844 L 99.257812 4.3125 C 99.253906 3.738281 99.371094 3.164062 99.59375 2.632812 C 99.816406 2.109375 100.125 1.652344 100.515625 1.257812 C 100.910156 0.867188 101.375 0.550781 101.890625 0.335938 C 102.414062 0.113281 102.972656 0 103.566406 0 C 104.101562 0 104.617188 0.09375 105.109375 0.285156 C 105.601562 0.476562 106.054688 0.757812 106.445312 1.113281 C 106.832031 0.757812 107.28125 0.476562 107.773438 0.285156 C 108.261719 0.09375 108.773438 0 109.308594 0 C 109.886719 -0.00390625 110.457031 0.109375 110.988281 0.335938 C 111.511719 0.558594 111.96875 0.867188 112.359375 1.257812 C 112.753906 1.652344 113.066406 2.121094 113.285156 2.632812 C 113.507812 3.160156 113.617188 3.71875 113.617188 4.3125 Z M 162.5625 0.199219 L 162.5625 14.589844 L 159.484375 14.589844 L 153.945312 5.117188 L 153.945312 14.589844 L 151.066406 14.589844 L 151.066406 0.199219 L 154.144531 0.199219 L 159.6875 9.683594 L 159.6875 0.199219 Z M 31.726562 0.199219 L 38.320312 0.199219 L 38.320312 3.082031 L 31.726562 3.082031 C 31.566406 3.078125 31.40625 3.105469 31.253906 3.15625 C 31.222656 3.167969 31.195312 3.179688 31.164062 3.191406 C 30.992188 3.265625 30.839844 3.367188 30.710938 3.496094 C 30.578125 3.628906 30.476562 3.78125 30.402344 3.953125 C 30.335938 4.121094 30.296875 4.296875 30.292969 4.476562 C 30.292969 4.488281 30.292969 4.503906 30.292969 4.515625 C 30.292969 4.714844 30.332031 4.90625 30.402344 5.082031 C 30.476562 5.257812 30.578125 5.414062 30.710938 5.542969 C 30.839844 5.675781 30.996094 5.777344 31.164062 5.847656 C 31.332031 5.917969 31.507812 5.957031 31.6875 5.960938 C 31.703125 5.960938 31.714844 5.960938 31.726562 5.960938 L 34.601562 5.960938 C 35.179688 5.957031 35.75 6.070312 36.28125 6.296875 C 36.804688 6.519531 37.261719 6.828125 37.652344 7.21875 C 38.046875 7.613281 38.359375 8.082031 38.574219 8.59375 C 38.800781 9.117188 38.910156 9.679688 38.910156 10.273438 C 38.914062 10.851562 38.800781 11.421875 38.574219 11.949219 C 38.359375 12.460938 38.046875 12.925781 37.652344 13.320312 C 37.261719 13.710938 36.804688 14.019531 36.28125 14.246094 C 35.75 14.476562 35.179688 14.59375 34.601562 14.589844 L 28.21875 14.589844 L 28.21875 11.707031 L 34.601562 11.707031 C 34.765625 11.710938 34.925781 11.683594 35.078125 11.632812 C 35.105469 11.621094 35.136719 11.609375 35.164062 11.597656 C 35.335938 11.523438 35.488281 11.421875 35.621094 11.292969 C 35.75 11.160156 35.855469 11.007812 35.925781 10.835938 C 35.996094 10.667969 36.03125 10.492188 36.035156 10.3125 C 36.035156 10.300781 36.035156 10.285156 36.035156 10.273438 C 36.035156 10.113281 36.011719 9.953125 35.957031 9.800781 C 35.949219 9.769531 35.9375 9.742188 35.925781 9.710938 C 35.851562 9.539062 35.75 9.386719 35.621094 9.253906 C 35.488281 9.125 35.335938 9.019531 35.164062 8.949219 C 34.996094 8.878906 34.820312 8.84375 34.640625 8.839844 C 34.628906 8.839844 34.617188 8.839844 34.601562 8.839844 L 31.726562 8.839844 C 31.132812 8.839844 30.574219 8.726562 30.054688 8.5 C 29.542969 8.277344 29.078125 7.964844 28.683594 7.570312 C 28.292969 7.179688 27.984375 6.71875 27.757812 6.195312 C 27.53125 5.664062 27.414062 5.09375 27.417969 4.515625 C 27.417969 3.917969 27.53125 3.359375 27.757812 2.839844 C 27.976562 2.328125 28.292969 1.863281 28.683594 1.46875 C 29.074219 1.078125 29.53125 0.769531 30.054688 0.542969 C 30.574219 0.3125 31.132812 0.199219 31.726562 0.199219 Z M 12.214844 7.453125 L 12.214844 13.132812 C 11.546875 13.703125 10.804688 14.136719 9.980469 14.441406 C 9.160156 14.746094 8.292969 14.902344 7.414062 14.898438 C 6.75 14.902344 6.085938 14.8125 5.445312 14.632812 C 4.816406 14.457031 4.226562 14.207031 3.679688 13.882812 C 3.128906 13.558594 2.625 13.164062 2.175781 12.71875 C 1.722656 12.269531 1.332031 11.761719 1.011719 11.210938 C 0.6875 10.652344 0.4375 10.054688 0.265625 9.429688 C 0.0859375 8.789062 0 8.121094 0 7.453125 C 0 6.773438 0.0898438 6.117188 0.265625 5.488281 C 0.4375 4.867188 0.691406 4.273438 1.011719 3.71875 C 1.332031 3.167969 1.722656 2.660156 2.175781 2.210938 C 2.625 1.765625 3.128906 1.375 3.679688 1.054688 C 4.234375 0.730469 4.828125 0.476562 5.445312 0.304688 C 6.085938 0.128906 6.75 0.0390625 7.414062 0.0390625 C 8.292969 0.0390625 9.160156 0.191406 9.980469 0.496094 C 10.804688 0.800781 11.546875 1.238281 12.214844 1.804688 L 10.710938 4.3125 C 10.28125 3.875 9.773438 3.523438 9.210938 3.277344 C 8.644531 3.027344 8.035156 2.898438 7.414062 2.898438 C 6.808594 2.894531 6.203125 3.019531 5.648438 3.261719 C 5.109375 3.492188 4.617188 3.824219 4.199219 4.238281 C 3.78125 4.652344 3.449219 5.144531 3.214844 5.683594 C 2.976562 6.242188 2.851562 6.847656 2.855469 7.453125 C 2.851562 8.070312 2.972656 8.675781 3.214844 9.242188 C 3.449219 9.785156 3.78125 10.277344 4.199219 10.695312 C 4.617188 11.113281 5.105469 11.445312 5.648438 11.679688 C 6.203125 11.921875 6.808594 12.042969 7.414062 12.039062 C 7.769531 12.039062 8.125 11.996094 8.46875 11.910156 C 8.804688 11.824219 9.128906 11.703125 9.441406 11.546875 L 9.441406 7.453125 Z M 190.492188 7.453125 L 190.492188 13.132812 C 189.824219 13.703125 189.078125 14.136719 188.253906 14.441406 C 187.433594 14.746094 186.566406 14.902344 185.691406 14.898438 C 185.023438 14.902344 184.363281 14.8125 183.722656 14.632812 C 183.089844 14.457031 182.5 14.207031 181.953125 13.882812 C 181.40625 13.558594 180.898438 13.164062 180.449219 12.71875 C 179.996094 12.269531 179.605469 11.761719 179.285156 11.210938 C 178.964844 10.652344 178.710938 10.054688 178.539062 9.429688 C 178.363281 8.789062 178.273438 8.121094 178.273438 7.453125 C 178.273438 6.773438 178.363281 6.117188 178.539062 5.488281 C 178.714844 4.867188 178.964844 4.273438 179.285156 3.71875 C 179.605469 3.167969 179.996094 2.660156 180.449219 2.210938 C 180.898438 1.765625 181.40625 1.375 181.953125 1.054688 C 182.507812 0.730469 183.101562 0.476562 183.722656 0.304688 C 184.363281 0.128906 185.023438 0.0390625 185.691406 0.0390625 C 186.566406 0.0390625 187.433594 0.191406 188.253906 0.496094 C 189.078125 0.800781 189.824219 1.238281 190.492188 1.804688 L 188.988281 4.3125 C 188.558594 3.875 188.046875 3.523438 187.484375 3.277344 C 186.917969 3.027344 186.308594 2.898438 185.691406 2.898438 C 185.082031 2.894531 184.480469 3.019531 183.921875 3.261719 C 183.382812 3.492188 182.890625 3.824219 182.472656 4.238281 C 182.058594 4.652344 181.722656 5.144531 181.492188 5.683594 C 181.25 6.242188 181.125 6.847656 181.132812 7.453125 C 181.125 8.070312 181.25 8.675781 181.492188 9.242188 C 181.722656 9.785156 182.058594 10.277344 182.472656 10.695312 C 182.890625 11.113281 183.382812 11.445312 183.921875 11.679688 C 184.480469 11.921875 185.082031 12.042969 185.691406 12.039062 C 186.046875 12.039062 186.398438 11.996094 186.742188 11.910156 C 187.078125 11.824219 187.40625 11.703125 187.714844 11.546875 L 187.714844 7.453125 Z M 25.765625 0.199219 L 25.765625 8.839844 C 25.765625 9.636719 25.613281 10.382812 25.3125 11.082031 C 25.011719 11.78125 24.601562 12.390625 24.082031 12.90625 C 23.554688 13.429688 22.933594 13.847656 22.25 14.136719 C 21.554688 14.4375 20.808594 14.589844 20.011719 14.589844 C 19.21875 14.589844 18.46875 14.4375 17.773438 14.136719 C 17.074219 13.835938 16.464844 13.425781 15.949219 12.90625 C 15.425781 12.382812 15.011719 11.761719 14.722656 11.082031 C 14.421875 10.382812 14.269531 9.636719 14.269531 8.839844 L 14.269531 0.199219 L 17.136719 0.199219 L 17.136719 8.839844 C 17.132812 9.222656 17.210938 9.601562 17.363281 9.953125 C 17.511719 10.300781 17.71875 10.605469 17.976562 10.867188 C 18.238281 11.125 18.542969 11.332031 18.894531 11.484375 C 19.246094 11.632812 19.617188 11.707031 20.011719 11.707031 C 20.40625 11.707031 20.777344 11.632812 21.128906 11.484375 C 21.472656 11.339844 21.78125 11.128906 22.046875 10.867188 C 22.308594 10.605469 22.511719 10.300781 22.664062 9.953125 C 22.8125 9.605469 22.886719 9.234375 22.886719 8.839844 L 22.886719 0.199219 Z M 73.242188 0.199219 L 76.53125 0.199219 L 71.8125 14.589844 L 68.933594 14.589844 L 64.234375 0.199219 L 67.5 0.199219 L 70.367188 9.800781 Z M 135.023438 11.707031 L 135.023438 14.589844 L 132.148438 14.589844 L 132.148438 0.199219 L 137.898438 0.199219 C 138.414062 0.199219 138.925781 0.269531 139.421875 0.40625 C 139.902344 0.539062 140.363281 0.734375 140.789062 0.988281 C 141.214844 1.238281 141.605469 1.542969 141.953125 1.890625 C 142.304688 2.242188 142.605469 2.632812 142.855469 3.058594 C 143.105469 3.488281 143.300781 3.945312 143.4375 4.433594 C 143.574219 4.921875 143.640625 5.429688 143.640625 5.960938 C 143.644531 6.449219 143.582031 6.933594 143.457031 7.40625 C 143.332031 7.871094 143.15625 8.316406 142.925781 8.738281 C 142.695312 9.160156 142.410156 9.554688 142.078125 9.902344 C 141.746094 10.257812 141.367188 10.566406 140.957031 10.824219 L 142.550781 14.589844 L 139.492188 14.589844 L 138.242188 11.6875 Z M 63.363281 5.960938 L 63.363281 14.589844 L 60.488281 14.589844 L 60.488281 11.707031 L 54.734375 11.707031 L 54.734375 14.589844 L 51.871094 14.589844 L 51.871094 5.960938 C 51.871094 5.164062 52.019531 4.417969 52.320312 3.71875 C 52.609375 3.035156 53.027344 2.414062 53.546875 1.886719 C 54.070312 1.359375 54.691406 0.941406 55.371094 0.652344 C 56.070312 0.351562 56.816406 0.199219 57.609375 0.199219 C 58.40625 0.199219 59.152344 0.351562 59.851562 0.652344 C 60.550781 0.953125 61.160156 1.363281 61.679688 1.886719 C 62.199219 2.40625 62.613281 3.019531 62.914062 3.71875 C 63.210938 4.417969 63.363281 5.164062 63.363281 5.960938 Z M 176.5625 5.960938 L 176.5625 14.589844 L 173.683594 14.589844 L 173.683594 11.707031 L 167.933594 11.707031 L 167.933594 14.589844 L 165.066406 14.589844 L 165.066406 5.960938 C 165.066406 5.164062 165.21875 4.417969 165.519531 3.71875 C 165.808594 3.035156 166.222656 2.414062 166.746094 1.886719 C 167.269531 1.359375 167.886719 0.941406 168.570312 0.652344 C 169.265625 0.351562 170.015625 0.199219 170.808594 0.199219 C 171.605469 0.199219 172.351562 0.351562 173.050781 0.652344 C 173.746094 0.953125 174.355469 1.363281 174.878906 1.886719 C 175.398438 2.40625 175.808594 3.019531 176.109375 3.71875 C 176.410156 4.417969 176.5625 5.164062 176.5625 5.960938 Z M 204.039062 5.960938 L 204.039062 14.589844 L 201.164062 14.589844 L 201.164062 11.707031 L 195.410156 11.707031 L 195.410156 14.589844 L 192.542969 14.589844 L 192.542969 5.960938 C 192.542969 5.164062 192.695312 4.417969 192.996094 3.71875 C 193.285156 3.035156 193.703125 2.414062 194.222656 1.886719 C 194.746094 1.359375 195.367188 0.941406 196.046875 0.652344 C 196.746094 0.351562 197.492188 0.199219 198.285156 0.199219 C 199.082031 0.199219 199.828125 0.351562 200.527344 0.652344 C 201.226562 0.953125 201.835938 1.363281 202.355469 1.886719 C 202.875 2.40625 203.289062 3.019531 203.589844 3.71875 C 203.886719 4.417969 204.039062 5.164062 204.039062 5.960938 Z M 46.628906 3.082031 L 46.628906 14.589844 L 43.761719 14.589844 L 43.761719 3.082031 L 39.441406 3.082031 L 39.441406 0.199219 L 50.9375 0.199219 L 50.9375 3.082031 Z M 91.46875 9.425781 C 91.644531 8.785156 91.734375 8.121094 91.734375 7.453125 C 91.734375 6.785156 91.644531 6.121094 91.46875 5.476562 C 91.296875 4.855469 91.046875 4.257812 90.71875 3.703125 C 90.398438 3.152344 90.007812 2.648438 89.558594 2.199219 C 89.109375 1.746094 88.605469 1.355469 88.054688 1.035156 C 87.5 0.707031 86.902344 0.457031 86.28125 0.285156 C 85.636719 0.109375 84.972656 0.0195312 84.308594 0.0195312 C 83.640625 0.0195312 82.980469 0.109375 82.339844 0.285156 C 81.707031 0.464844 81.117188 0.710938 80.5625 1.035156 C 80.011719 1.355469 79.507812 1.746094 79.054688 2.199219 C 78.601562 2.652344 78.210938 3.152344 77.890625 3.703125 C 77.5625 4.257812 77.308594 4.855469 77.136719 5.476562 C 76.960938 6.121094 76.871094 6.785156 76.871094 7.453125 C 76.871094 8.121094 76.957031 8.785156 77.136719 9.425781 C 77.3125 10.058594 77.566406 10.648438 77.890625 11.203125 C 78.210938 11.753906 78.605469 12.261719 79.054688 12.710938 C 79.507812 13.164062 80.015625 13.558594 80.5625 13.882812 C 81.121094 14.207031 81.71875 14.460938 82.339844 14.632812 C 82.980469 14.8125 83.640625 14.902344 84.308594 14.898438 C 84.972656 14.902344 85.636719 14.8125 86.28125 14.632812 C 86.917969 14.457031 87.507812 14.207031 88.054688 13.882812 C 88.601562 13.554688 89.105469 13.167969 89.558594 12.710938 C 90.007812 12.261719 90.398438 11.753906 90.71875 11.203125 C 91.042969 10.644531 91.292969 10.046875 91.46875 9.425781 Z M 130 9.425781 C 130.175781 8.785156 130.265625 8.121094 130.265625 7.453125 C 130.265625 6.785156 130.175781 6.121094 130 5.476562 C 129.828125 4.855469 129.574219 4.257812 129.25 3.703125 C 128.929688 3.152344 128.539062 2.648438 128.089844 2.199219 C 127.640625 1.746094 127.136719 1.355469 126.585938 1.035156 C 126.03125 0.707031 125.433594 0.457031 124.8125 0.285156 C 124.167969 0.109375 123.503906 0.0195312 122.839844 0.0195312 C 122.171875 0.0195312 121.511719 0.109375 120.871094 0.285156 C 120.238281 0.464844 119.644531 0.710938 119.09375 1.035156 C 118.542969 1.355469 118.039062 1.746094 117.585938 2.199219 C 117.132812 2.652344 116.742188 3.152344 116.417969 3.703125 C 116.09375 4.257812 115.839844 4.855469 115.667969 5.476562 C 115.488281 6.121094 115.402344 6.785156 115.402344 7.453125 C 115.402344 8.121094 115.488281 8.785156 115.667969 9.425781 C 115.84375 10.058594 116.097656 10.648438 116.417969 11.203125 C 116.742188 11.753906 117.136719 12.261719 117.585938 12.710938 C 118.039062 13.164062 118.546875 13.558594 119.09375 13.882812 C 119.652344 14.207031 120.246094 14.460938 120.871094 14.632812 C 121.511719 14.8125 122.171875 14.902344 122.839844 14.898438 C 123.503906 14.902344 124.167969 14.8125 124.8125 14.632812 C 125.445312 14.457031 126.039062 14.207031 126.585938 13.882812 C 127.132812 13.554688 127.636719 13.167969 128.089844 12.710938 C 128.539062 12.261719 128.929688 11.753906 129.25 11.203125 C 129.574219 10.644531 129.824219 10.046875 130 9.425781 Z M 148.402344 0.199219 L 148.402344 14.589844 L 145.527344 14.589844 L 145.527344 0.199219 Z M 88.875 7.453125 C 88.878906 6.84375 88.757812 6.238281 88.515625 5.675781 C 88.277344 5.117188 87.949219 4.628906 87.539062 4.21875 C 87.128906 3.808594 86.644531 3.480469 86.085938 3.242188 C 85.523438 3 84.917969 2.875 84.308594 2.878906 C 83.695312 2.875 83.085938 3 82.523438 3.242188 C 81.980469 3.472656 81.488281 3.804688 81.070312 4.21875 C 80.652344 4.636719 80.320312 5.128906 80.089844 5.675781 C 79.847656 6.238281 79.722656 6.84375 79.726562 7.453125 C 79.722656 8.0625 79.847656 8.667969 80.089844 9.226562 C 80.320312 9.765625 80.65625 10.257812 81.070312 10.675781 C 81.488281 11.09375 81.980469 11.425781 82.523438 11.660156 C 83.085938 11.902344 83.695312 12.023438 84.308594 12.019531 C 84.917969 12.023438 85.523438 11.898438 86.085938 11.660156 C 86.628906 11.429688 87.121094 11.09375 87.539062 10.675781 C 87.953125 10.257812 88.285156 9.765625 88.515625 9.226562 C 88.757812 8.667969 88.882812 8.0625 88.875 7.453125 Z M 127.40625 7.453125 C 127.410156 6.84375 127.289062 6.238281 127.046875 5.675781 C 126.804688 5.117188 126.480469 4.628906 126.070312 4.21875 C 125.660156 3.808594 125.175781 3.480469 124.617188 3.242188 C 124.054688 3 123.449219 2.875 122.839844 2.878906 C 122.226562 2.875 121.617188 3 121.054688 3.242188 C 120.511719 3.472656 120.019531 3.804688 119.601562 4.21875 C 119.183594 4.636719 118.851562 5.128906 118.621094 5.675781 C 118.378906 6.238281 118.253906 6.84375 118.257812 7.453125 C 118.253906 8.0625 118.378906 8.667969 118.621094 9.226562 C 118.851562 9.765625 119.1875 10.257812 119.601562 10.675781 C 120.019531 11.09375 120.511719 11.425781 121.054688 11.660156 C 121.617188 11.902344 122.226562 12.023438 122.839844 12.019531 C 123.449219 12.023438 124.054688 11.898438 124.617188 11.660156 C 125.160156 11.429688 125.652344 11.09375 126.070312 10.675781 C 126.484375 10.257812 126.816406 9.765625 127.046875 9.226562 C 127.289062 8.667969 127.410156 8.0625 127.40625 7.453125 Z M 54.734375 8.839844 L 60.488281 8.839844 L 60.488281 5.960938 C 60.488281 5.566406 60.410156 5.191406 60.261719 4.839844 C 60.117188 4.5 59.90625 4.1875 59.644531 3.921875 C 59.386719 3.664062 59.078125 3.457031 58.726562 3.304688 C 58.378906 3.15625 58.003906 3.082031 57.609375 3.082031 C 57.21875 3.082031 56.84375 3.15625 56.492188 3.304688 C 56.152344 3.449219 55.839844 3.660156 55.578125 3.921875 C 55.316406 4.183594 55.109375 4.488281 54.960938 4.839844 C 54.808594 5.191406 54.734375 5.566406 54.734375 5.960938 Z M 167.933594 8.839844 L 173.683594 8.839844 L 173.683594 5.960938 C 173.683594 5.566406 173.609375 5.191406 173.460938 4.839844 C 173.316406 4.5 173.105469 4.1875 172.84375 3.921875 C 172.582031 3.664062 172.277344 3.457031 171.925781 3.304688 C 171.574219 3.15625 171.203125 3.082031 170.808594 3.082031 C 170.414062 3.082031 170.042969 3.15625 169.691406 3.304688 C 169.347656 3.449219 169.039062 3.660156 168.773438 3.921875 C 168.515625 4.183594 168.308594 4.488281 168.160156 4.839844 C 168.007812 5.191406 167.933594 5.566406 167.933594 5.960938 Z M 195.410156 8.839844 L 201.164062 8.839844 L 201.164062 5.960938 C 201.164062 5.566406 201.085938 5.191406 200.9375 4.839844 C 200.792969 4.5 200.582031 4.1875 200.320312 3.921875 C 200.058594 3.664062 199.753906 3.457031 199.402344 3.304688 C 199.054688 3.15625 198.679688 3.082031 198.285156 3.082031 C 197.894531 3.082031 197.519531 3.15625 197.167969 3.304688 C 196.828125 3.449219 196.515625 3.660156 196.253906 3.921875 C 195.992188 4.183594 195.785156 4.488281 195.636719 4.839844 C 195.484375 5.191406 195.410156 5.566406 195.410156 5.960938 Z M 137.898438 3.082031 L 135.023438 3.082031 L 135.023438 8.839844 L 137.898438 8.839844 C 138.28125 8.839844 138.660156 8.765625 139.011719 8.613281 C 139.359375 8.464844 139.664062 8.257812 139.925781 7.996094 C 140.183594 7.734375 140.390625 7.429688 140.539062 7.078125 C 140.691406 6.726562 140.765625 6.355469 140.765625 5.960938 C 140.765625 5.566406 140.691406 5.191406 140.539062 4.839844 C 140.394531 4.5 140.1875 4.1875 139.925781 3.921875 C 139.664062 3.664062 139.359375 3.457031 139.011719 3.304688 C 138.664062 3.15625 138.292969 3.082031 137.898438 3.082031 Z M 137.898438 3.082031 "/> </g> </svg>
