<svg id="Layer_1" data-name="Layer 1" xmlns="http://www.w3.org/2000/svg" viewBox="0 0 64 64"> <defs> <style> .fill { fill: #ef4444; } </style> </defs> <path class="fill" d="M55.18,60.42a1,1,0,0,1-.71-.29l-29.7-29.7a1,1,0,0,1,0-1.42L29,24.77a1,1,0,0,1,1.42,0l29.7,29.7a1,1,0,0,1,0,1.41l-4.25,4.25A1,1,0,0,1,55.18,60.42ZM26.89,29.72,55.18,58,58,55.18,29.72,26.89Z" /> <path class="fill" d="M25.48,30.72a1,1,0,0,1-.71-.29L17.7,23.36a1,1,0,0,1,0-1.42l4.24-4.24a1,1,0,0,1,1.42,0l7.07,7.07a1,1,0,0,1,0,1.42l-4.24,4.24A1,1,0,0,1,25.48,30.72Zm-5.66-8.07,5.66,5.66,2.83-2.83-5.66-5.66Z" /> <path class="fill" d="M30,10H26a1,1,0,0,1,0-2h4a1,1,0,0,1,0,2Z" /> <path class="fill" d="M28,12a1,1,0,0,1-1-1V7a1,1,0,0,1,2,0v4A1,1,0,0,1,28,12Z" /> <path class="fill" d="M15,13H9a1,1,0,0,1,0-2h6a1,1,0,0,1,0,2Z" /> <path class="fill" d="M12,16a1,1,0,0,1-1-1V9a1,1,0,0,1,2,0v6A1,1,0,0,1,12,16Z" /> <path class="fill" d="M11,29H7a1,1,0,0,1,0-2h4a1,1,0,0,1,0,2Z" /> <path class="fill" d="M9,31a1,1,0,0,1-1-1V26a1,1,0,0,1,2,0v4A1,1,0,0,1,9,31Z" /> </svg>
