<svg xmlns="http://www.w3.org/2000/svg" viewBox="0 0 64 64"> <defs> <style> .fill { fill: #ef4444; } </style> </defs> <g id="_2" data-name="2"> <path class="fill" d="M56,57H8a1,1,0,0,1-1-1V8A1,1,0,0,1,8,7H56a1,1,0,0,1,1,1V56A1,1,0,0,1,56,57ZM9,55H55V9H9Z" /> <path class="fill" d="M56,15H8a1,1,0,0,1,0-2H56a1,1,0,0,1,0,2Z" /> <circle class="fill" cx="12" cy="11" r="1" /> <circle class="fill" cx="15" cy="11" r="1" /> <circle class="fill" cx="18" cy="11" r="1" /> <path class="fill" d="M26,31H20a1,1,0,0,1,0-2h5V26H20a1,1,0,0,1-1-1V20a1,1,0,0,1,1-1h6a1,1,0,0,1,0,2H21v3h5a1,1,0,0,1,1,1v5A1,1,0,0,1,26,31Z" /> <path class="fill" d="M30,31a1,1,0,0,1-1-1V20a1,1,0,0,1,2,0V30A1,1,0,0,1,30,31Z" /> <path class="fill" d="M35,21H30a1,1,0,0,1,0-2h5a1,1,0,0,1,0,2Z" /> <path class="fill" d="M35,26H30a1,1,0,0,1,0-2h5a1,1,0,0,1,0,2Z" /> <path class="fill" d="M35,31H30a1,1,0,0,1,0-2h5a1,1,0,0,1,0,2Z" /> <path class="fill" d="M44,31H38a1,1,0,0,1-1-1V20a1,1,0,0,1,1-1h6a1,1,0,0,1,1,1V30A1,1,0,0,1,44,31Zm-5-2h4V21H39Z" /> <path class="fill" d="M19,36H12a1,1,0,0,1,0-2h7a1,1,0,0,1,0,2Z" /> <path class="fill" d="M30,36H23a1,1,0,0,1,0-2h7a1,1,0,0,1,0,2Z" /> <path class="fill" d="M38,36H34a1,1,0,0,1,0-2h4a1,1,0,0,1,0,2Z" /> <path class="fill" d="M52,36H42a1,1,0,0,1,0-2H52a1,1,0,0,1,0,2Z" /> <path class="fill" d="M30,40H12a1,1,0,0,1,0-2H30a1,1,0,0,1,0,2Z" /> <path class="fill" d="M38,40H34a1,1,0,0,1,0-2h4a1,1,0,0,1,0,2Z" /> <path class="fill" d="M52,40H42a1,1,0,0,1,0-2H52a1,1,0,0,1,0,2Z" /> <path class="fill" d="M19,44H12a1,1,0,0,1,0-2h7a1,1,0,0,1,0,2Z" /> <path class="fill" d="M38,44H23a1,1,0,0,1,0-2H38a1,1,0,0,1,0,2Z" /> <path class="fill" d="M52,44H42a1,1,0,0,1,0-2H52a1,1,0,0,1,0,2Z" /> <path class="fill" d="M19,48H12a1,1,0,0,1,0-2h7a1,1,0,0,1,0,2Z" /> <path class="fill" d="M52,48H23a1,1,0,0,1,0-2H52a1,1,0,0,1,0,2Z" /> <path class="fill" d="M38,52H12a1,1,0,0,1,0-2H38a1,1,0,0,1,0,2Z" /> <path class="fill" d="M52,52H42a1,1,0,0,1,0-2H52a1,1,0,0,1,0,2Z" /> </g> </svg>
