<svg width="317.32" height="92.767" viewBox="0 0 317.32 92.767" xmlns="http://www.w3.org/2000/svg"><g stroke-linecap="round" fill-rule="evenodd" font-size="9pt" stroke="#000" stroke-width="0" fill="#EF4444" style="stroke:#000;stroke-width:0;fill:#EF4444"><path d="M 21.72 11.214 L 22.42 7.914 L 21.32 7.414 A 7.587 7.587 0 0 1 20.803 7.568 Q 20.091 7.75 19.621 7.691 A 1.499 1.499 0 0 1 19.47 7.664 Q 18.909 7.535 18.683 7.443 A 0.923 0.923 0 0 1 18.62 7.414 A 1.119 1.119 0 0 1 18.367 7.466 Q 17.833 7.514 17.006 7.153 A 6.541 6.541 0 0 1 16.92 7.114 Q 15.82 6.614 14.97 5.814 A 7.241 7.241 0 0 1 14.545 5.382 Q 14.15 4.942 13.982 4.572 A 1.634 1.634 0 0 1 13.92 4.414 A 2.024 2.024 0 0 1 13.784 4.056 Q 13.733 3.873 13.702 3.656 A 4.423 4.423 0 0 1 13.67 3.364 L 13.62 2.714 A 0.758 0.758 0 0 1 13.806 2.349 Q 14.137 1.962 15.036 1.598 A 8.363 8.363 0 0 1 15.12 1.564 A 12.969 12.969 0 0 1 16.236 1.188 Q 16.782 1.029 17.416 0.886 A 29.561 29.561 0 0 1 18.77 0.614 A 37.835 37.835 0 0 1 21.583 0.227 A 47.346 47.346 0 0 1 23.67 0.064 A 39.703 39.703 0 0 1 25.914 0 A 36.434 36.434 0 0 1 28.82 0.114 A 16.971 16.971 0 0 1 33.576 1.159 A 16.034 16.034 0 0 1 33.72 1.214 Q 36.02 2.114 38.72 3.114 Q 41.414 4.124 44.356 6.375 A 35.343 35.343 0 0 1 45.47 7.264 A 38.718 38.718 0 0 1 51.176 13.17 A 43.813 43.813 0 0 1 51.97 14.214 A 23.843 23.843 0 0 1 54.896 19.371 A 20.813 20.813 0 0 1 55.92 22.614 Q 56.15 23.533 56.379 25.038 A 62.075 62.075 0 0 1 56.52 26.014 Q 56.82 28.214 56.87 30.264 A 15.563 15.563 0 0 1 56.873 30.448 Q 56.891 31.837 56.639 32.516 A 1.359 1.359 0 0 1 56.42 32.914 A 2.285 2.285 0 0 0 56.25 33.382 Q 56.194 33.603 56.171 33.856 A 3.739 3.739 0 0 0 56.17 33.864 A 1.342 1.342 0 0 0 56.165 33.954 Q 56.153 34.431 56.52 34.614 Q 56.435 34.871 55.984 36.331 A 936.353 936.353 0 0 0 55.82 36.864 A 107.454 107.454 0 0 1 55.384 38.249 Q 55.033 39.339 54.72 40.214 A 19.447 19.447 0 0 1 54.113 43.713 A 23.843 23.843 0 0 1 53.52 45.614 Q 52.52 48.414 51.32 50.864 A 84.246 84.246 0 0 1 50.448 52.596 Q 49.745 53.952 49.12 55.014 Q 48.72 55.014 48.37 55.164 A 0.901 0.901 0 0 0 48.315 55.19 Q 48.076 55.312 48.364 55.399 A 1.205 1.205 0 0 0 48.42 55.414 Q 48.42 55.844 47.608 56.938 A 17.317 17.317 0 0 1 47.32 57.314 A 2.134 2.134 0 0 0 47.108 57.502 Q 46.721 57.884 46.07 58.764 Q 45.416 59.649 44.969 60.09 A 3.262 3.262 0 0 1 44.72 60.314 A 1.937 1.937 0 0 1 44.473 61.036 A 1.829 1.829 0 0 1 44.12 61.464 A 2.678 2.678 0 0 1 43.854 61.677 Q 43.546 61.89 43.28 61.912 A 0.733 0.733 0 0 1 43.22 61.914 L 43.07 61.914 A 0.105 0.105 0 0 0 42.978 61.972 Q 42.926 62.055 42.921 62.261 A 1.922 1.922 0 0 0 42.92 62.314 A 10.954 10.954 0 0 1 42.332 63.108 Q 41.638 63.969 40.573 65.015 A 35.917 35.917 0 0 1 40.42 65.164 A 53.294 53.294 0 0 1 38.365 67.052 A 67.413 67.413 0 0 1 36.57 68.564 Q 34.42 70.314 32.17 71.814 Q 30.069 73.215 28.187 74.005 A 17.042 17.042 0 0 1 27.92 74.114 Q 26.92 74.814 25.82 75.264 A 30.968 30.968 0 0 0 23.972 76.09 A 28.269 28.269 0 0 0 23.72 76.214 A 3.063 3.063 0 0 1 23.42 76.421 Q 22.822 76.79 21.52 77.364 A 52.789 52.789 0 0 1 19.064 78.372 A 62.107 62.107 0 0 1 17.87 78.814 Q 16.377 79.35 15.148 79.652 A 17.317 17.317 0 0 1 14.42 79.814 Q 12.52 80.114 10.92 80.164 A 6.195 6.195 0 0 1 10.727 80.167 Q 9.405 80.167 7.165 79.647 A 40.301 40.301 0 0 1 6.22 79.414 A 9.517 9.517 0 0 1 5.395 79.117 Q 4.579 78.777 4.12 78.361 A 2.39 2.39 0 0 1 3.97 78.214 A 15.761 15.761 0 0 1 3.595 77.793 Q 3.016 77.122 2.053 75.908 A 142.575 142.575 0 0 1 1.82 75.614 Q 0.72 74.014 0.27 72.664 A 6.492 6.492 0 0 1 0.116 72.133 Q -0.061 71.397 0.032 70.877 A 1.597 1.597 0 0 1 0.12 70.564 Q 0.405 69.852 1.32 70.086 A 2.523 2.523 0 0 1 1.42 70.114 A 1.063 1.063 0 0 1 1.589 70.191 Q 1.852 70.334 2.277 70.687 A 11.482 11.482 0 0 1 2.37 70.764 Q 3.02 71.314 3.62 72.114 Q 5.02 73.614 7.02 74.114 A 8.725 8.725 0 0 0 8.15 74.314 Q 9.812 74.503 12.132 74.236 A 29.434 29.434 0 0 0 12.32 74.214 A 43.896 43.896 0 0 0 13.454 73.954 Q 13.962 73.831 14.529 73.684 A 90.374 90.374 0 0 0 15.72 73.364 Q 17.72 72.814 19.62 72.014 A 22.642 22.642 0 0 0 20.832 71.464 Q 21.415 71.177 21.895 70.89 A 9.68 9.68 0 0 0 22.62 70.414 A 1154.315 1154.315 0 0 1 25.139 68.708 Q 27.601 67.045 29.505 65.781 A 360.694 360.694 0 0 1 31.12 64.714 L 34.32 62.614 A 1.182 1.182 0 0 1 34.618 62.243 Q 34.753 62.128 34.934 62.031 A 2.39 2.39 0 0 1 35.07 61.964 A 15.731 15.731 0 0 1 35.518 61.77 Q 35.719 61.686 35.944 61.597 A 30.929 30.929 0 0 1 36.42 61.414 Q 37.02 60.814 38.37 59.514 Q 39.72 58.214 40.97 56.914 A 66.115 66.115 0 0 1 41.405 56.465 Q 42.276 55.577 42.52 55.414 A 18.71 18.71 0 0 1 42.645 54.886 Q 42.783 54.342 42.92 53.964 Q 43.12 53.414 43.12 52.814 Q 43.92 52.014 45.27 49.464 Q 46.62 46.914 48.02 43.764 Q 49.42 40.614 50.02 38.014 A 53.419 53.419 0 0 0 50.654 34.151 Q 51.131 30.323 50.848 27.291 A 20.94 20.94 0 0 0 50.72 26.214 Q 50.02 21.414 47.87 17.964 Q 45.72 14.514 42.52 11.814 Q 41.42 10.914 39.47 9.864 Q 37.52 8.814 35.42 8.014 A 101.774 101.774 0 0 0 33.922 7.456 Q 33.183 7.188 32.527 6.965 A 51.769 51.769 0 0 0 31.77 6.714 A 23.063 23.063 0 0 0 31.316 6.573 Q 30.173 6.23 29.92 6.314 A 0.408 0.408 0 0 0 29.74 6.456 Q 29.365 6.893 28.609 8.655 A 53.235 53.235 0 0 0 28.27 9.464 Q 27.082 12.362 25.488 16.75 A 352.912 352.912 0 0 0 25.32 17.214 Q 23.62 21.914 21.67 27.214 Q 19.72 32.514 18.02 37.214 Q 17.42 39.114 16.72 41.214 Q 16.239 42.658 15.852 43.842 A 290.581 290.581 0 0 0 15.52 44.864 Q 15.02 46.414 15.02 46.914 A 10.379 10.379 0 0 0 14.201 48.477 Q 13.656 49.752 13.27 51.414 Q 12.62 54.214 11.82 60.714 A 334.458 334.458 0 0 0 11.401 62.311 Q 11.002 63.852 10.735 64.953 A 73.865 73.865 0 0 0 10.52 65.864 Q 10.12 67.614 9.72 67.514 L 9.67 67.564 L 9.32 67.914 A 0.63 0.63 0 0 1 9.264 68.191 Q 9.108 68.514 8.52 68.514 A 3.485 3.485 0 0 1 7.829 68.44 Q 7.494 68.372 7.125 68.242 A 7.345 7.345 0 0 1 6.67 68.064 A 6.899 6.899 0 0 1 5.918 67.69 Q 5.552 67.477 5.265 67.237 A 3.655 3.655 0 0 1 5.02 67.014 Q 4.72 65.914 4.67 64.914 A 2.48 2.48 0 0 1 4.667 64.794 Q 4.666 63.749 5.42 61.014 Q 5.764 59.708 6.226 58 A 797.37 797.37 0 0 1 6.67 56.364 Q 7.42 53.614 8.32 50.664 Q 9.22 47.714 10.02 45.214 Q 10.82 42.714 11.22 41.414 Q 11.869 39.839 13.033 35.687 A 200.251 200.251 0 0 0 13.22 35.014 Q 14.02 32.414 14.87 29.814 A 104.466 104.466 0 0 1 15.695 27.388 Q 16.114 26.205 16.52 25.164 Q 17.174 23.49 17.493 22.783 A 7.822 7.822 0 0 1 17.62 22.514 Q 18.12 21.214 19.12 18.114 Q 20.054 15.22 21.51 11.716 A 118.291 118.291 0 0 1 21.72 11.214 Z M 208.12 92.714 A 8.276 8.276 0 0 0 207.807 92.721 Q 207.656 92.727 207.484 92.737 A 18.458 18.458 0 0 0 207.12 92.764 A 0.757 0.757 0 0 1 207.057 92.767 Q 206.528 92.767 206.078 92.015 A 3.616 3.616 0 0 1 206.02 91.914 A 1.711 1.711 0 0 1 205.761 91.447 Q 205.6 91.024 205.57 90.414 A 3.726 3.726 0 0 1 205.566 90.27 Q 205.554 89.254 206.005 86.892 A 58.002 58.002 0 0 1 206.02 86.814 A 32.526 32.526 0 0 0 206.801 83.567 A 30.036 30.036 0 0 0 206.82 83.464 A 31.958 31.958 0 0 0 206.951 82.692 Q 207.073 81.916 207.107 81.388 A 5.859 5.859 0 0 0 207.12 81.014 Q 207.12 80.614 207.37 79.464 Q 207.62 78.314 207.62 77.814 Q 207.983 77.233 208.241 76.335 A 10.884 10.884 0 0 0 208.42 75.614 A 15.065 15.065 0 0 0 208.625 74.447 Q 208.72 73.733 208.72 73.114 A 2.438 2.438 0 0 1 209.177 71.709 Q 209.461 71.297 209.92 70.914 Q 209.92 70.114 210.27 68.914 A 21.995 21.995 0 0 0 210.406 68.428 Q 210.62 67.627 210.62 67.314 Q 210.92 65.914 211.97 62.364 A 156.317 156.317 0 0 1 212.984 59.076 Q 213.698 56.846 214.57 54.314 Q 216.12 49.814 217.62 45.514 A 241.663 241.663 0 0 1 218.703 42.472 Q 219.136 41.281 219.541 40.216 A 122.952 122.952 0 0 1 220.32 38.214 A 39.074 39.074 0 0 0 221.114 36.222 Q 221.689 34.647 221.97 33.364 Q 222.42 31.314 222.42 30.314 Q 222.42 29.914 222.62 29.664 A 8.53 8.53 0 0 1 222.731 29.529 Q 222.917 29.307 223.28 28.889 A 131.256 131.256 0 0 1 223.52 28.614 A 3.926 3.926 0 0 1 223.869 28.302 Q 224.381 27.9 224.821 27.9 A 0.941 0.941 0 0 1 225.27 28.014 A 9.978 9.978 0 0 1 225.773 28.303 Q 226.364 28.664 227.12 29.214 A 22.358 22.358 0 0 1 227.576 29.988 Q 228.029 30.796 228.27 31.414 A 2.111 2.111 0 0 1 228.376 31.802 Q 228.542 32.718 228.229 34.462 A 19.55 19.55 0 0 1 228.22 34.514 A 7.59 7.59 0 0 1 228.124 35.75 Q 228.007 36.461 227.746 37.056 A 4.73 4.73 0 0 1 227.72 37.114 A 17.279 17.279 0 0 1 227.425 37.734 Q 227.144 38.291 226.899 38.651 A 4.242 4.242 0 0 1 226.82 38.764 Q 226.42 39.314 226.62 39.214 A 28.322 28.322 0 0 1 229.444 38.075 Q 230.874 37.591 232.166 37.361 A 13.335 13.335 0 0 1 233.87 37.164 Q 237.02 37.014 239.17 38.264 Q 241.32 39.514 242.42 41.714 A 10.261 10.261 0 0 1 243.365 44.738 A 13.433 13.433 0 0 1 243.52 46.814 Q 243.52 48.014 243.02 49.664 A 16.193 16.193 0 0 1 242.256 51.701 A 13.759 13.759 0 0 1 241.77 52.664 Q 241.02 54.014 240.42 54.614 A 0.576 0.576 0 0 0 240.114 54.71 Q 239.867 54.863 239.62 55.264 A 17.026 17.026 0 0 0 239.17 56.043 A 21.585 21.585 0 0 0 238.82 56.714 A 7.517 7.517 0 0 1 238.193 57.397 Q 237.446 58.124 236.27 58.964 A 21.529 21.529 0 0 1 234.317 60.212 A 17.283 17.283 0 0 1 232.82 60.964 Q 231.12 61.714 230.32 61.414 L 230.07 61.464 Q 229.85 61.508 229.824 61.899 A 1.691 1.691 0 0 0 229.82 62.014 A 0.151 0.151 0 0 1 229.759 62.11 Q 229.508 62.341 228.22 62.864 Q 226.62 63.514 224.52 64.064 A 19.728 19.728 0 0 1 223.015 64.399 Q 221.82 64.614 220.82 64.614 Q 218.72 64.614 217.82 63.814 A 2.001 2.001 0 0 0 217.69 63.959 Q 217.542 64.139 217.37 64.414 Q 217.212 64.668 217.154 64.881 A 0.89 0.89 0 0 0 217.12 65.114 Q 217.12 65.714 216.67 67.364 A 29.225 29.225 0 0 1 215.694 70.326 A 26.9 26.9 0 0 1 215.62 70.514 A 8.667 8.667 0 0 1 215.399 71.024 Q 215.045 71.765 214.729 71.951 A 0.41 0.41 0 0 1 214.52 72.014 L 214.32 72.314 A 0.392 0.392 0 0 0 214.253 72.537 Q 214.253 72.755 214.467 73.046 A 2.187 2.187 0 0 0 214.52 73.114 L 214.47 74.264 A 4.765 4.765 0 0 1 214.34 75.204 A 3.463 3.463 0 0 1 213.92 76.214 Q 213.92 76.835 213.74 77.936 A 30.022 30.022 0 0 1 213.62 78.614 A 21.359 21.359 0 0 1 213.615 78.639 Q 213.347 80.062 212.999 80.847 A 3.996 3.996 0 0 1 212.92 81.014 Q 212.92 82.214 212.57 83.364 A 5.791 5.791 0 0 1 212.437 83.755 Q 212.216 84.329 211.977 84.469 A 0.307 0.307 0 0 1 211.82 84.514 A 0.391 0.391 0 0 0 211.6 84.678 Q 211.415 84.936 211.339 85.575 A 6.091 6.091 0 0 0 211.32 85.764 A 49.247 49.247 0 0 0 211.276 86.299 Q 211.226 86.961 211.221 87.331 A 5.81 5.81 0 0 0 211.22 87.414 Q 211.12 89.914 210.22 91.314 A 5.435 5.435 0 0 1 210.206 91.336 Q 209.643 92.202 208.964 92.524 A 1.948 1.948 0 0 1 208.12 92.714 Z M 162.276 70.423 A 4.373 4.373 0 0 0 162.82 70.314 A 2.164 2.164 0 0 0 163.137 70.123 A 1.381 1.381 0 0 0 163.72 69.164 A 5.477 5.477 0 0 0 163.746 68.922 Q 163.801 68.292 163.815 66.985 A 90.971 90.971 0 0 0 163.82 66.014 Q 163.82 64.084 164.462 61.298 A 47.156 47.156 0 0 1 165.17 58.614 Q 166.52 54.014 168.12 48.514 Q 169.395 45.088 169.654 43.757 A 2.996 2.996 0 0 0 169.72 43.214 L 169.77 42.664 A 1.282 1.282 0 0 1 169.788 42.535 Q 169.84 42.27 169.997 42.172 A 0.413 0.413 0 0 1 170.22 42.114 A 2.294 2.294 0 0 0 170.354 41.968 Q 170.472 41.829 170.546 41.689 A 1.076 1.076 0 0 0 170.67 41.314 Q 170.72 40.914 170.72 40.514 Q 170.72 40.314 171.22 39.064 A 94.149 94.149 0 0 1 171.557 38.234 Q 171.738 37.795 171.943 37.306 A 186.249 186.249 0 0 1 172.47 36.064 Q 173.22 34.314 173.92 32.764 A 138.005 138.005 0 0 1 174.232 32.079 Q 174.714 31.027 175.02 30.414 A 34.816 34.816 0 0 1 175.265 29.703 Q 175.385 29.367 175.5 29.071 A 16.904 16.904 0 0 1 175.77 28.414 A 7.947 7.947 0 0 0 175.896 28.11 Q 176.042 27.734 176.093 27.467 A 1.37 1.37 0 0 0 176.12 27.214 A 0.395 0.395 0 0 1 176.12 27.197 Q 176.139 26.777 177.02 25.064 A 39.409 39.409 0 0 0 177.464 24.174 A 45.132 45.132 0 0 0 178.72 21.314 A 13406.468 13406.468 0 0 0 178.789 21.17 Q 180.636 17.28 181.52 15.414 A 47.165 47.165 0 0 0 181.894 14.606 Q 182.272 13.767 182.504 13.148 A 10.185 10.185 0 0 0 182.72 12.514 A 5.891 5.891 0 0 0 182.74 12.448 Q 182.884 11.945 182.954 11.367 A 9.584 9.584 0 0 0 183.02 10.214 A 18.206 18.206 0 0 0 183.017 9.883 Q 183.008 9.394 182.973 8.959 A 10.22 10.22 0 0 0 182.87 8.114 Q 182.72 7.214 181.92 6.514 L 180.72 5.314 L 180.32 4.914 Q 179.92 4.914 179.47 5.014 Q 179.02 5.114 178.72 5.414 A 2.814 2.814 0 0 0 178.457 5.426 Q 177.851 5.483 177.52 5.814 Q 177.242 6.092 177.157 6.564 A 2.55 2.55 0 0 0 177.12 7.014 A 0.777 0.777 0 0 1 177.119 7.044 Q 177.103 7.477 176.625 9.048 A 63.125 63.125 0 0 1 176.37 9.864 A 136.841 136.841 0 0 1 175.857 11.436 Q 175.579 12.272 175.257 13.212 A 288.768 288.768 0 0 1 174.42 15.614 Q 173.22 19.014 171.87 22.514 Q 170.52 26.014 169.37 28.864 A 95.729 95.729 0 0 1 168.85 30.13 Q 168.054 32.023 167.52 33.014 A 1.345 1.345 0 0 1 167.445 33.452 A 1.758 1.758 0 0 1 167.27 33.814 A 1.83 1.83 0 0 0 167.128 34.089 A 1.374 1.374 0 0 0 167.02 34.614 A 1.372 1.372 0 0 1 167.019 34.675 Q 167.001 35.062 166.77 35.664 Q 166.52 36.314 166.52 36.814 Q 166.12 37.214 165.77 38.214 Q 165.579 38.761 165.492 39.248 A 4.376 4.376 0 0 0 165.42 40.014 A 3.292 3.292 0 0 1 165.391 40.452 A 3.678 3.678 0 0 1 165.12 41.414 A 2.743 2.743 0 0 1 165.049 41.567 Q 164.774 42.114 164.42 42.114 Q 164.258 42.439 163.798 43.589 A 127.923 127.923 0 0 0 163.57 44.164 A 53.742 53.742 0 0 0 163.528 44.271 Q 162.897 45.882 162.22 47.914 A 200.555 200.555 0 0 0 161.876 48.955 A 177.65 177.65 0 0 0 160.92 51.964 A 67.354 67.354 0 0 0 160.661 52.826 Q 160.273 54.149 160.12 54.914 A 3.502 3.502 0 0 1 160.118 55.018 Q 160.105 55.469 159.978 56.089 A 12.974 12.974 0 0 1 159.82 56.764 A 16.118 16.118 0 0 1 159.658 57.342 A 18.411 18.411 0 0 1 159.02 59.114 A 35.469 35.469 0 0 0 158.853 59.934 Q 158.371 62.445 158.38 64.467 A 15.071 15.071 0 0 0 158.42 65.514 A 11.327 11.327 0 0 0 158.607 66.917 Q 158.755 67.65 158.998 68.242 A 4.473 4.473 0 0 0 159.77 69.514 A 3.338 3.338 0 0 0 159.862 69.614 Q 160.821 70.613 162.276 70.423 Z M 78.32 66.814 Q 76.22 68.614 73.47 68.914 A 10.427 10.427 0 0 1 72.339 68.976 A 10.332 10.332 0 0 1 68.12 68.064 Q 65.52 66.914 63.82 64.514 Q 62.12 62.314 61.62 59.464 A 17.336 17.336 0 0 1 61.421 57.861 Q 61.224 55.416 61.52 52.014 A 17.712 17.712 0 0 1 62.732 46.874 A 22.496 22.496 0 0 1 64.02 44.164 Q 66.22 40.214 69.37 37.114 A 24.617 24.617 0 0 1 71.872 34.946 Q 73.255 33.911 74.628 33.246 A 13.317 13.317 0 0 1 75.62 32.814 A 8.375 8.375 0 0 1 76.391 32.354 Q 77.336 31.862 78.069 31.862 A 2.123 2.123 0 0 1 78.17 31.864 Q 79.201 31.913 81.341 32.107 A 213.46 213.46 0 0 1 81.42 32.114 A 19.603 19.603 0 0 1 82.623 32.307 Q 83.806 32.537 84.577 32.875 A 4.762 4.762 0 0 1 84.87 33.014 Q 86.02 33.614 86.72 34.614 Q 87.879 35.773 88.441 36.902 A 5.538 5.538 0 0 1 88.72 37.564 A 9.099 9.099 0 0 1 89.171 39.534 A 8.015 8.015 0 0 1 89.22 40.414 A 6.935 6.935 0 0 1 88.735 41.941 Q 88.098 43.397 86.735 45.174 A 28.413 28.413 0 0 1 86.27 45.764 A 18.328 18.328 0 0 1 81.689 49.771 A 22.557 22.557 0 0 1 79.62 50.914 A 13.155 13.155 0 0 1 76.493 51.493 Q 75.678 51.547 74.82 51.514 A 9.866 9.866 0 0 1 72.874 51.256 Q 71.536 50.931 70.52 50.214 A 5.898 5.898 0 0 0 70.054 50.039 Q 69.173 49.754 68.628 49.945 A 1.111 1.111 0 0 0 68.02 50.464 A 3.529 3.529 0 0 0 67.762 51.065 Q 67.412 52.092 67.099 54.201 A 57.347 57.347 0 0 0 66.92 55.514 A 21.932 21.932 0 0 0 66.835 56.543 Q 66.711 58.698 67.113 60.081 A 4.527 4.527 0 0 0 67.52 61.064 Q 68.52 62.814 70.22 63.114 Q 71.868 63.444 72.939 63.604 A 23.622 23.622 0 0 0 73.37 63.664 A 2.39 2.39 0 0 0 73.679 63.684 Q 74.72 63.684 76.161 62.849 A 10.777 10.777 0 0 0 76.22 62.814 A 66.796 66.796 0 0 1 76.778 62.469 Q 77.876 61.798 78.209 61.668 A 1.044 1.044 0 0 1 78.22 61.664 A 2.112 2.112 0 0 0 78.562 61.502 A 1.574 1.574 0 0 0 78.87 61.264 L 80.12 60.014 A 46.298 46.298 0 0 1 80.451 59.686 Q 80.92 59.227 81.22 58.964 A 1.426 1.426 0 0 1 81.666 58.694 A 1.301 1.301 0 0 1 82.12 58.614 A 1.084 1.084 0 0 1 82.787 58.847 A 1.619 1.619 0 0 1 83.02 59.064 Q 83.344 59.429 83.668 59.629 A 1.927 1.927 0 0 0 83.82 59.714 A 1.193 1.193 0 0 1 84.071 59.738 Q 84.697 59.874 84.329 60.778 A 3.41 3.41 0 0 1 84.27 60.914 A 6.107 6.107 0 0 1 83.824 61.708 Q 83.305 62.5 82.42 63.449 A 22.424 22.424 0 0 1 82.12 63.764 Q 80.52 65.414 78.32 66.814 Z M 143.92 66.814 Q 141.82 68.614 139.07 68.914 A 10.427 10.427 0 0 1 137.939 68.976 A 10.332 10.332 0 0 1 133.72 68.064 Q 131.12 66.914 129.42 64.514 Q 127.72 62.314 127.22 59.464 A 17.336 17.336 0 0 1 127.021 57.861 Q 126.824 55.416 127.12 52.014 A 17.712 17.712 0 0 1 128.332 46.874 A 22.496 22.496 0 0 1 129.62 44.164 Q 131.82 40.214 134.97 37.114 A 24.617 24.617 0 0 1 137.472 34.946 Q 138.855 33.911 140.228 33.246 A 13.317 13.317 0 0 1 141.22 32.814 A 8.375 8.375 0 0 1 141.991 32.354 Q 142.936 31.862 143.669 31.862 A 2.123 2.123 0 0 1 143.77 31.864 Q 144.801 31.913 146.941 32.107 A 213.46 213.46 0 0 1 147.02 32.114 A 19.603 19.603 0 0 1 148.223 32.307 Q 149.406 32.537 150.177 32.875 A 4.762 4.762 0 0 1 150.47 33.014 Q 151.62 33.614 152.32 34.614 Q 153.479 35.773 154.041 36.902 A 5.538 5.538 0 0 1 154.32 37.564 A 9.099 9.099 0 0 1 154.771 39.534 A 8.015 8.015 0 0 1 154.82 40.414 A 6.935 6.935 0 0 1 154.335 41.941 Q 153.698 43.397 152.335 45.174 A 28.413 28.413 0 0 1 151.87 45.764 A 18.328 18.328 0 0 1 147.289 49.771 A 22.557 22.557 0 0 1 145.22 50.914 A 13.155 13.155 0 0 1 142.093 51.493 Q 141.278 51.547 140.42 51.514 A 9.866 9.866 0 0 1 138.474 51.256 Q 137.136 50.931 136.12 50.214 A 5.898 5.898 0 0 0 135.654 50.039 Q 134.773 49.754 134.228 49.945 A 1.111 1.111 0 0 0 133.62 50.464 A 3.529 3.529 0 0 0 133.362 51.065 Q 133.012 52.092 132.699 54.201 A 57.347 57.347 0 0 0 132.52 55.514 A 21.932 21.932 0 0 0 132.435 56.543 Q 132.311 58.698 132.713 60.081 A 4.527 4.527 0 0 0 133.12 61.064 Q 134.12 62.814 135.82 63.114 Q 137.468 63.444 138.539 63.604 A 23.622 23.622 0 0 0 138.97 63.664 A 2.39 2.39 0 0 0 139.279 63.684 Q 140.32 63.684 141.761 62.849 A 10.777 10.777 0 0 0 141.82 62.814 A 66.796 66.796 0 0 1 142.378 62.469 Q 143.476 61.798 143.809 61.668 A 1.044 1.044 0 0 1 143.82 61.664 A 2.112 2.112 0 0 0 144.162 61.502 A 1.574 1.574 0 0 0 144.47 61.264 L 145.72 60.014 A 46.298 46.298 0 0 1 146.051 59.686 Q 146.52 59.227 146.82 58.964 A 1.426 1.426 0 0 1 147.266 58.694 A 1.301 1.301 0 0 1 147.72 58.614 A 1.084 1.084 0 0 1 148.387 58.847 A 1.619 1.619 0 0 1 148.62 59.064 Q 148.944 59.429 149.268 59.629 A 1.927 1.927 0 0 0 149.42 59.714 A 1.193 1.193 0 0 1 149.671 59.738 Q 150.297 59.874 149.929 60.778 A 3.41 3.41 0 0 1 149.87 60.914 A 6.107 6.107 0 0 1 149.424 61.708 Q 148.905 62.5 148.02 63.449 A 22.424 22.424 0 0 1 147.72 63.764 Q 146.12 65.414 143.92 66.814 Z M 267.42 66.814 Q 265.32 68.614 262.57 68.914 A 10.427 10.427 0 0 1 261.439 68.976 A 10.332 10.332 0 0 1 257.22 68.064 Q 254.62 66.914 252.92 64.514 Q 251.22 62.314 250.72 59.464 A 17.336 17.336 0 0 1 250.521 57.861 Q 250.324 55.416 250.62 52.014 A 17.712 17.712 0 0 1 251.832 46.874 A 22.496 22.496 0 0 1 253.12 44.164 Q 255.32 40.214 258.47 37.114 A 24.617 24.617 0 0 1 260.972 34.946 Q 262.355 33.911 263.728 33.246 A 13.317 13.317 0 0 1 264.72 32.814 A 8.375 8.375 0 0 1 265.491 32.354 Q 266.436 31.862 267.169 31.862 A 2.123 2.123 0 0 1 267.27 31.864 Q 268.301 31.913 270.441 32.107 A 213.46 213.46 0 0 1 270.52 32.114 A 19.603 19.603 0 0 1 271.723 32.307 Q 272.906 32.537 273.677 32.875 A 4.762 4.762 0 0 1 273.97 33.014 Q 275.12 33.614 275.82 34.614 Q 276.979 35.773 277.541 36.902 A 5.538 5.538 0 0 1 277.82 37.564 A 9.099 9.099 0 0 1 278.271 39.534 A 8.015 8.015 0 0 1 278.32 40.414 A 6.935 6.935 0 0 1 277.835 41.941 Q 277.198 43.397 275.835 45.174 A 28.413 28.413 0 0 1 275.37 45.764 A 18.328 18.328 0 0 1 270.789 49.771 A 22.557 22.557 0 0 1 268.72 50.914 A 13.155 13.155 0 0 1 265.593 51.493 Q 264.778 51.547 263.92 51.514 A 9.866 9.866 0 0 1 261.974 51.256 Q 260.636 50.931 259.62 50.214 A 5.898 5.898 0 0 0 259.154 50.039 Q 258.273 49.754 257.728 49.945 A 1.111 1.111 0 0 0 257.12 50.464 A 3.529 3.529 0 0 0 256.862 51.065 Q 256.512 52.092 256.199 54.201 A 57.347 57.347 0 0 0 256.02 55.514 A 21.932 21.932 0 0 0 255.935 56.543 Q 255.811 58.698 256.213 60.081 A 4.527 4.527 0 0 0 256.62 61.064 Q 257.62 62.814 259.32 63.114 Q 260.968 63.444 262.039 63.604 A 23.622 23.622 0 0 0 262.47 63.664 A 2.39 2.39 0 0 0 262.779 63.684 Q 263.82 63.684 265.261 62.849 A 10.777 10.777 0 0 0 265.32 62.814 A 66.796 66.796 0 0 1 265.878 62.469 Q 266.976 61.798 267.309 61.668 A 1.044 1.044 0 0 1 267.32 61.664 A 2.112 2.112 0 0 0 267.662 61.502 A 1.574 1.574 0 0 0 267.97 61.264 L 269.22 60.014 A 46.298 46.298 0 0 1 269.551 59.686 Q 270.02 59.227 270.32 58.964 A 1.426 1.426 0 0 1 270.766 58.694 A 1.301 1.301 0 0 1 271.22 58.614 A 1.084 1.084 0 0 1 271.887 58.847 A 1.619 1.619 0 0 1 272.12 59.064 Q 272.444 59.429 272.768 59.629 A 1.927 1.927 0 0 0 272.92 59.714 A 1.193 1.193 0 0 1 273.171 59.738 Q 273.797 59.874 273.429 60.778 A 3.41 3.41 0 0 1 273.37 60.914 A 6.107 6.107 0 0 1 272.924 61.708 Q 272.405 62.5 271.52 63.449 A 22.424 22.424 0 0 1 271.22 63.764 Q 269.62 65.414 267.42 66.814 Z M 284.22 66.814 Q 283.32 66.114 282.97 65.414 A 1.469 1.469 0 0 1 282.859 65.095 Q 282.678 64.327 282.92 62.714 A 50.962 50.962 0 0 1 283.221 60.389 Q 283.439 58.974 283.72 57.764 A 248.787 248.787 0 0 1 284.196 55.759 Q 284.444 54.732 284.727 53.589 A 435.485 435.485 0 0 1 284.92 52.814 Q 285.113 51.655 286.006 48.911 A 98.428 98.428 0 0 1 286.07 48.714 Q 287.02 45.814 288.42 42.414 Q 289.82 39.014 291.22 35.964 Q 292.374 33.45 293.256 31.99 A 15.264 15.264 0 0 1 293.62 31.414 A 2.572 2.572 0 0 1 294.989 30.91 Q 295.116 30.9 295.249 30.9 A 3.71 3.71 0 0 1 295.57 30.914 Q 296.72 31.014 297.52 31.814 A 1.742 1.742 0 0 1 298.136 32.899 Q 298.282 33.728 297.87 34.964 Q 297.12 37.214 294.82 42.014 L 293.02 46.064 Q 292.459 47.327 292.51 47.627 A 0.182 0.182 0 0 0 292.52 47.664 Q 292.608 47.884 293.235 47.526 A 5.499 5.499 0 0 0 293.42 47.414 A 5.904 5.904 0 0 1 293.893 46.693 Q 294.52 45.861 295.62 44.864 A 58.935 58.935 0 0 1 298.964 42.058 A 63.795 63.795 0 0 1 299.02 42.014 Q 300.82 40.614 302.42 39.514 A 64.917 64.917 0 0 1 303.072 39.071 Q 304.151 38.349 304.62 38.114 A 7.826 7.826 0 0 1 305.658 37.573 A 9.98 9.98 0 0 1 306.47 37.264 A 30.627 30.627 0 0 0 306.954 37.099 Q 307.605 36.87 307.907 36.721 A 2.659 2.659 0 0 0 307.92 36.714 A 8.697 8.697 0 0 1 310.55 35.918 Q 311.07 35.85 311.596 35.85 A 8.248 8.248 0 0 1 312.62 35.914 Q 315.02 36.214 315.62 37.714 A 2.118 2.118 0 0 0 315.75 38.238 A 1.508 1.508 0 0 0 316.27 38.914 L 316.82 39.314 A 0.799 0.799 0 0 1 316.978 39.329 Q 317.231 39.38 317.27 39.614 L 317.32 39.914 Q 317.32 40.491 316.607 40.694 A 2.543 2.543 0 0 1 316.27 40.764 Q 315.556 40.866 314.589 40.945 A 51.552 51.552 0 0 1 313.62 41.014 A 9.038 9.038 0 0 0 312.404 41.187 A 6.761 6.761 0 0 0 311.32 41.514 Q 310.32 41.914 308.92 42.514 A 395.991 395.991 0 0 0 303.417 45.758 A 349.008 349.008 0 0 0 301.67 46.814 A 27.911 27.911 0 0 0 297.661 49.802 A 35.718 35.718 0 0 0 295.02 52.414 Q 294.32 53.214 293.62 54.314 Q 292.92 55.414 292.12 56.714 A 1.859 1.859 0 0 0 291.862 57.052 Q 291.491 57.653 291.12 58.914 A 55.384 55.384 0 0 0 290.503 61.181 A 46.988 46.988 0 0 0 290.27 62.164 A 60.091 60.091 0 0 0 290.151 62.702 Q 289.92 63.771 289.92 64.014 L 289.62 64.964 A 5.542 5.542 0 0 1 289.036 66.218 A 6.887 6.887 0 0 1 288.62 66.814 A 9.664 9.664 0 0 1 288.119 67.433 Q 287.301 68.353 286.699 68.411 A 0.833 0.833 0 0 1 286.62 68.414 A 1.255 1.255 0 0 1 286.146 68.305 Q 285.474 68.026 284.445 67.035 A 16.682 16.682 0 0 1 284.22 66.814 Z M 101.185 63.819 A 2.021 2.021 0 0 0 101.52 64.214 Q 102.72 65.414 104.12 64.914 A 4.813 4.813 0 0 0 104.908 64.537 Q 106.139 63.821 107.92 62.114 A 16.297 16.297 0 0 1 108.999 60.742 A 12.424 12.424 0 0 1 110.47 59.314 A 87.077 87.077 0 0 0 110.933 58.935 Q 111.893 58.141 112.22 57.814 A 6.689 6.689 0 0 0 112.404 57.622 Q 113.04 56.933 114.42 55.164 Q 116.02 53.114 117.72 50.664 A 67.871 67.871 0 0 0 117.873 50.442 Q 119.457 48.141 120.22 46.614 A 1.978 1.978 0 0 0 120.39 46.417 Q 120.715 45.994 121.07 45.164 A 10.178 10.178 0 0 1 121.131 45.024 Q 121.351 44.531 121.647 44.006 A 17.074 17.074 0 0 1 122.32 42.914 A 19.172 19.172 0 0 0 123.077 41.777 Q 124.277 39.814 124.12 38.714 Q 123.937 37.431 121.905 37.66 A 7.363 7.363 0 0 0 121.52 37.714 A 1.836 1.836 0 0 0 121.369 37.759 Q 120.86 37.934 120.293 38.441 A 6.988 6.988 0 0 0 119.77 38.964 A 29.271 29.271 0 0 0 119.651 39.096 A 31.868 31.868 0 0 0 117.92 41.214 Q 117.02 42.414 116.32 43.414 Q 114.72 45.414 113.47 47.214 A 82.484 82.484 0 0 1 113.197 47.605 Q 111.999 49.31 110.12 51.814 A 49.393 49.393 0 0 1 109.819 52.211 A 44.867 44.867 0 0 1 107.67 54.814 A 180.492 180.492 0 0 1 107.241 55.293 Q 106.586 56.021 106.236 56.391 A 11.752 11.752 0 0 1 106.02 56.614 A 2.612 2.612 0 0 1 105.96 56.673 Q 105.313 57.279 104.833 56.848 A 1.202 1.202 0 0 1 104.67 56.664 Q 104.12 55.914 103.72 55.114 A 0.979 0.979 0 0 0 103.714 55.016 Q 103.66 54.494 103.12 52.514 A 27.382 27.382 0 0 1 102.85 51.434 Q 102.426 49.588 102.12 47.214 A 94.349 94.349 0 0 0 101.573 43.957 Q 100.992 40.848 100.32 38.664 A 20.682 20.682 0 0 0 100.18 38.226 Q 99.522 36.245 98.779 35.465 A 1.65 1.65 0 0 0 98.12 35.014 Q 97.806 34.936 97.277 35.011 A 5.591 5.591 0 0 0 96.97 35.064 A 5.699 5.699 0 0 0 96.811 35.098 Q 96.505 35.169 96.244 35.266 A 3.154 3.154 0 0 0 95.72 35.514 A 3.679 3.679 0 0 0 95.321 35.782 A 2.539 2.539 0 0 0 94.32 37.414 A 3.957 3.957 0 0 0 94.29 37.633 Q 94.165 38.775 94.62 40.414 A 118.219 118.219 0 0 1 94.65 40.505 Q 94.942 41.384 95.37 42.714 Q 95.82 44.114 96.22 46.114 Q 96.82 49.514 97.77 53.564 A 97.539 97.539 0 0 0 98.039 54.683 Q 98.868 58.036 99.77 60.614 A 35.672 35.672 0 0 0 100.124 61.584 Q 100.718 63.133 101.185 63.819 Z M 181.57 68.314 A 2.519 2.519 0 0 0 182.068 68.569 Q 182.709 68.814 183.62 68.814 Q 184.788 68.713 185.801 68.495 A 12.355 12.355 0 0 0 187.62 67.964 Q 188.683 67.558 189.901 66.859 A 26.706 26.706 0 0 0 191.42 65.914 A 43.421 43.421 0 0 0 194.12 64.202 A 31.822 31.822 0 0 0 196.42 62.464 Q 198.52 60.714 201.02 57.114 A 56.532 56.532 0 0 0 201.763 56.029 Q 203.941 52.767 204.984 50.151 A 14.55 14.55 0 0 0 205.77 47.564 A 31.019 31.019 0 0 0 206.155 45.081 Q 206.42 42.71 206.22 40.714 A 13.646 13.646 0 0 0 205.984 39.261 Q 205.616 37.609 204.87 36.614 A 5.544 5.544 0 0 0 204.193 35.87 Q 203.663 35.381 202.954 34.949 A 11.856 11.856 0 0 0 201.52 34.214 Q 200.436 33.058 199.692 32.737 A 1.332 1.332 0 0 0 199.17 32.614 A 3.289 3.289 0 0 0 199.071 32.616 Q 198.198 32.642 196.12 33.114 Q 193.92 33.614 192.02 34.614 Q 190.773 35.271 189.268 36.401 A 38.631 38.631 0 0 0 187.62 37.714 Q 186.42 38.714 184.97 40.364 Q 183.52 42.014 182.32 43.664 A 75.915 75.915 0 0 0 182.094 43.977 Q 181.062 45.411 180.52 46.314 Q 179.02 48.714 178.02 51.414 Q 177.114 53.861 177.193 54.748 A 1.09 1.09 0 0 0 177.22 54.914 Q 177.42 56.014 176.82 56.014 A 3.325 3.325 0 0 1 176.781 56.089 Q 176.601 56.429 176.42 56.564 A 0.136 0.136 0 0 0 176.363 56.679 Q 176.363 56.857 176.72 57.214 L 176.77 57.964 A 3.236 3.236 0 0 1 176.777 58.18 Q 176.777 58.829 176.52 59.514 Q 176.22 61.214 177.02 63.064 Q 177.52 64.221 178.45 65.435 A 18.341 18.341 0 0 0 179.72 66.914 A 38.06 38.06 0 0 0 180.404 67.462 Q 181.066 67.978 181.57 68.314 Z M 193.22 58.214 A 43.618 43.618 0 0 0 195.138 55.909 Q 196.254 54.464 197.07 53.114 A 24.488 24.488 0 0 0 198.223 50.95 Q 198.739 49.863 199.234 48.598 A 48.537 48.537 0 0 0 199.82 47.014 A 7.244 7.244 0 0 0 200.096 46.03 Q 200.261 45.244 200.32 44.264 A 21.301 21.301 0 0 0 200.36 42.979 Q 200.36 42.183 200.296 41.438 A 16.052 16.052 0 0 0 200.27 41.164 Q 200.123 39.742 199.543 39.522 A 0.602 0.602 0 0 0 199.52 39.514 A 3.795 3.795 0 0 0 198.007 39.027 Q 197.361 38.955 196.62 39.064 A 5.235 5.235 0 0 0 195.218 39.494 Q 194.602 39.774 193.952 40.22 A 12.671 12.671 0 0 0 192.92 41.014 Q 189.82 43.614 187.52 47.464 Q 185.22 51.314 183.02 56.214 A 15.643 15.643 0 0 0 182.485 57.692 Q 181.702 60.275 182.37 61.964 Q 183.22 64.114 186.07 63.464 A 6.938 6.938 0 0 0 187.839 62.758 Q 189.526 61.834 191.598 59.858 A 40.218 40.218 0 0 0 193.22 58.214 Z M 220.22 59.314 A 3.425 3.425 0 0 0 220.651 59.281 Q 221.361 59.188 222.695 58.838 A 51.576 51.576 0 0 0 223.52 58.614 Q 226.02 57.914 228.67 56.864 A 24.222 24.222 0 0 0 230.194 56.203 Q 231.726 55.471 232.62 54.714 A 17.055 17.055 0 0 0 236.46 49.876 A 16.352 16.352 0 0 0 236.67 49.464 A 6.798 6.798 0 0 0 237.171 48.12 Q 237.729 45.893 236.42 43.814 Q 235.62 42.414 233.52 42.664 A 9.781 9.781 0 0 0 231.606 43.103 Q 230.326 43.527 228.92 44.314 A 23.132 23.132 0 0 0 224.496 47.555 A 25.718 25.718 0 0 0 224.22 47.814 A 13.06 13.06 0 0 0 223.001 49.365 A 17.515 17.515 0 0 0 222.02 51.014 Q 221.02 52.914 220.37 54.814 Q 219.92 56.13 219.734 57.158 A 8.453 8.453 0 0 0 219.62 58.014 Q 219.543 59.014 219.939 59.245 A 0.547 0.547 0 0 0 220.22 59.314 Z M 78.22 45.614 A 9.396 9.396 0 0 0 79.309 45.024 Q 79.901 44.654 80.52 44.164 A 11.256 11.256 0 0 0 82.296 42.419 A 10.304 10.304 0 0 0 82.57 42.064 A 6.822 6.822 0 0 0 82.971 41.462 Q 83.343 40.827 83.407 40.319 A 1.644 1.644 0 0 0 83.42 40.114 A 2.684 2.684 0 0 0 82.545 38.12 A 4.04 4.04 0 0 0 82.12 37.764 A 2.746 2.746 0 0 0 81.079 37.308 Q 80.065 37.083 78.611 37.417 A 10.745 10.745 0 0 0 78.22 37.514 A 4.511 4.511 0 0 0 77.391 37.84 Q 77.004 38.034 76.586 38.315 A 11.414 11.414 0 0 0 75.72 38.964 Q 74.32 40.114 73.07 41.514 A 34.257 34.257 0 0 0 72.203 42.522 Q 71.539 43.327 71.07 44.014 Q 70.4 44.997 70.488 45.261 A 0.133 0.133 0 0 0 70.52 45.314 A 0.895 0.895 0 0 0 70.785 45.582 Q 71.225 45.887 72.22 46.064 Q 73.57 46.305 75.245 46.221 A 18.443 18.443 0 0 0 75.37 46.214 Q 76.63 46.142 77.552 45.863 A 5.372 5.372 0 0 0 78.22 45.614 Z M 143.82 45.614 A 9.396 9.396 0 0 0 144.909 45.024 Q 145.501 44.654 146.12 44.164 A 11.256 11.256 0 0 0 147.896 42.419 A 10.304 10.304 0 0 0 148.17 42.064 A 6.822 6.822 0 0 0 148.571 41.462 Q 148.943 40.827 149.007 40.319 A 1.644 1.644 0 0 0 149.02 40.114 A 2.684 2.684 0 0 0 148.145 38.12 A 4.04 4.04 0 0 0 147.72 37.764 A 2.746 2.746 0 0 0 146.679 37.308 Q 145.665 37.083 144.211 37.417 A 10.745 10.745 0 0 0 143.82 37.514 A 4.511 4.511 0 0 0 142.991 37.84 Q 142.604 38.034 142.186 38.315 A 11.414 11.414 0 0 0 141.32 38.964 Q 139.92 40.114 138.67 41.514 A 34.257 34.257 0 0 0 137.803 42.522 Q 137.139 43.327 136.67 44.014 Q 136 44.997 136.088 45.261 A 0.133 0.133 0 0 0 136.12 45.314 A 0.895 0.895 0 0 0 136.385 45.582 Q 136.825 45.887 137.82 46.064 Q 139.17 46.305 140.845 46.221 A 18.443 18.443 0 0 0 140.97 46.214 Q 142.23 46.142 143.152 45.863 A 5.372 5.372 0 0 0 143.82 45.614 Z M 267.32 45.614 A 9.396 9.396 0 0 0 268.409 45.024 Q 269.001 44.654 269.62 44.164 A 11.256 11.256 0 0 0 271.396 42.419 A 10.304 10.304 0 0 0 271.67 42.064 A 6.822 6.822 0 0 0 272.071 41.462 Q 272.443 40.827 272.507 40.319 A 1.644 1.644 0 0 0 272.52 40.114 A 2.684 2.684 0 0 0 271.645 38.12 A 4.04 4.04 0 0 0 271.22 37.764 A 2.746 2.746 0 0 0 270.179 37.308 Q 269.165 37.083 267.711 37.417 A 10.745 10.745 0 0 0 267.32 37.514 A 4.511 4.511 0 0 0 266.491 37.84 Q 266.104 38.034 265.686 38.315 A 11.414 11.414 0 0 0 264.82 38.964 Q 263.42 40.114 262.17 41.514 A 34.257 34.257 0 0 0 261.303 42.522 Q 260.639 43.327 260.17 44.014 Q 259.5 44.997 259.588 45.261 A 0.133 0.133 0 0 0 259.62 45.314 A 0.895 0.895 0 0 0 259.885 45.582 Q 260.325 45.887 261.32 46.064 Q 262.67 46.305 264.345 46.221 A 18.443 18.443 0 0 0 264.47 46.214 Q 265.73 46.142 266.652 45.863 A 5.372 5.372 0 0 0 267.32 45.614 Z"/></g></svg>
