<svg
	xmlns="http://www.w3.org/2000/svg"
	xmlns:xlink="http://www.w3.org/1999/xlink"
	style="margin: auto; background: #f1f2f3; display: block; z-index: 1; position: relative"
	width="1920"
	height="1080"
	preserveAspectRatio="xMidYMid"
	viewBox="0 0 1920 1080"
>
	<g transform="translate(960,540) scale(1,1) translate(-960,-540)">
		<defs>
			<linearGradient id="lg-0.6222887243670874" x1="0" x2="0" y1="0" y2="1">
				<stop stop-color="#000000" offset="0.3"></stop>
				<stop stop-color="#0d0000" offset="0.6499999999999999"></stop>
				<stop stop-color="#0d0000" offset="1"></stop>
			</linearGradient>
			<linearGradient id="fg-lg-0.6222887243670874" x1="0" x2="0" y1="0" y2="1">
				<stop stop-color="#000000" stop-opacity="1" offset="0.3"></stop>
				<stop stop-color="#0d0000" stop-opacity="0.66" offset="0.6499999999999999"></stop>
				<stop stop-color="#0d0000" stop-opacity="0" offset="1"></stop>
			</linearGradient>
			<style type="text/css">
				path {
					fill: none;
					stroke: #d53c3d;
					stroke-width: 2px;
				}
			</style>
		</defs>
		<rect x="0" y="0" width="1920" height="1080" fill="url(#lg-0.6222887243670874)"></rect>
		<path d="M0 324 L-13440 1080"></path>
		<path d="M14.76923076923077 324 L-13218.461538461539 1080"></path>
		<path d="M29.53846153846154 324 L-12996.923076923076 1080"></path>
		<path d="M44.30769230769231 324 L-12775.384615384615 1080"></path>
		<path d="M59.07692307692308 324 L-12553.846153846154 1080"></path>
		<path d="M73.84615384615384 324 L-12332.307692307691 1080"></path>
		<path d="M88.61538461538461 324 L-12110.76923076923 1080"></path>
		<path d="M103.38461538461539 324 L-11889.23076923077 1080"></path>
		<path d="M118.15384615384616 324 L-11667.692307692309 1080"></path>
		<path d="M132.92307692307693 324 L-11446.153846153846 1080"></path>
		<path d="M147.69230769230768 324 L-11224.615384615385 1080"></path>
		<path d="M162.46153846153845 324 L-11003.076923076922 1080"></path>
		<path d="M177.23076923076923 324 L-10781.538461538461 1080"></path>
		<path d="M192 324 L-10560 1080"></path>
		<path d="M206.76923076923077 324 L-10338.461538461539 1080"></path>
		<path d="M221.53846153846155 324 L-10116.923076923078 1080"></path>
		<path d="M236.30769230769232 324 L-9895.384615384615 1080"></path>
		<path d="M251.07692307692307 324 L-9673.846153846154 1080"></path>
		<path d="M265.84615384615387 324 L-9452.307692307691 1080"></path>
		<path d="M280.61538461538464 324 L-9230.76923076923 1080"></path>
		<path d="M295.38461538461536 324 L-9009.23076923077 1080"></path>
		<path d="M310.15384615384613 324 L-8787.692307692309 1080"></path>
		<path d="M324.9230769230769 324 L-8566.153846153846 1080"></path>
		<path d="M339.6923076923077 324 L-8344.615384615385 1080"></path>
		<path d="M354.46153846153845 324 L-8123.076923076923 1080"></path>
		<path d="M369.2307692307692 324 L-7901.538461538462 1080"></path>
		<path d="M384 324 L-7680 1080"></path>
		<path d="M398.7692307692308 324 L-7458.461538461538 1080"></path>
		<path d="M413.53846153846155 324 L-7236.923076923077 1080"></path>
		<path d="M428.3076923076923 324 L-7015.384615384615 1080"></path>
		<path d="M443.0769230769231 324 L-6793.846153846154 1080"></path>
		<path d="M457.84615384615387 324 L-6572.307692307692 1080"></path>
		<path d="M472.61538461538464 324 L-6350.7692307692305 1080"></path>
		<path d="M487.38461538461536 324 L-6129.2307692307695 1080"></path>
		<path d="M502.15384615384613 324 L-5907.692307692308 1080"></path>
		<path d="M516.9230769230769 324 L-5686.153846153846 1080"></path>
		<path d="M531.6923076923077 324 L-5464.615384615385 1080"></path>
		<path d="M546.4615384615385 324 L-5243.076923076924 1080"></path>
		<path d="M561.2307692307693 324 L-5021.538461538461 1080"></path>
		<path d="M576 324 L-4800 1080"></path>
		<path d="M590.7692307692307 324 L-4578.461538461539 1080"></path>
		<path d="M605.5384615384615 324 L-4356.923076923076 1080"></path>
		<path d="M620.3076923076923 324 L-4135.384615384615 1080"></path>
		<path d="M635.0769230769231 324 L-3913.8461538461543 1080"></path>
		<path d="M649.8461538461538 324 L-3692.3076923076915 1080"></path>
		<path d="M664.6153846153846 324 L-3470.7692307692305 1080"></path>
		<path d="M679.3846153846154 324 L-3249.2307692307695 1080"></path>
		<path d="M694.1538461538462 324 L-3027.6923076923085 1080"></path>
		<path d="M708.9230769230769 324 L-2806.1538461538457 1080"></path>
		<path d="M723.6923076923077 324 L-2584.6153846153848 1080"></path>
		<path d="M738.4615384615385 324 L-2363.076923076924 1080"></path>
		<path d="M753.2307692307693 324 L-2141.538461538461 1080"></path>
		<path d="M768 324 L-1920 1080"></path>
		<path d="M782.7692307692307 324 L-1698.461538461539 1080"></path>
		<path d="M797.5384615384615 324 L-1476.9230769230762 1080"></path>
		<path d="M812.3076923076923 324 L-1255.3846153846152 1080"></path>
		<path d="M827.0769230769231 324 L-1033.8461538461543 1080"></path>
		<path d="M841.8461538461538 324 L-812.3076923076915 1080"></path>
		<path d="M856.6153846153846 324 L-590.7692307692305 1080"></path>
		<path d="M871.3846153846154 324 L-369.2307692307695 1080"></path>
		<path d="M886.1538461538462 324 L-147.69230769230853 1080"></path>
		<path d="M900.9230769230769 324 L73.84615384615427 1080"></path>
		<path d="M915.6923076923077 324 L295.38461538461524 1080"></path>
		<path d="M930.4615384615385 324 L516.9230769230762 1080"></path>
		<path d="M945.2307692307693 324 L738.461538461539 1080"></path>
		<path d="M960 324 L960 1080"></path>
		<path d="M974.7692307692307 324 L1181.538461538461 1080"></path>
		<path d="M989.5384615384615 324 L1403.0769230769238 1080"></path>
		<path d="M1004.3076923076923 324 L1624.6153846153848 1080"></path>
		<path d="M1019.0769230769231 324 L1846.1538461538457 1080"></path>
		<path d="M1033.8461538461538 324 L2067.6923076923085 1080"></path>
		<path d="M1048.6153846153845 324 L2289.2307692307695 1080"></path>
		<path d="M1063.3846153846155 324 L2510.7692307692305 1080"></path>
		<path d="M1078.1538461538462 324 L2732.3076923076915 1080"></path>
		<path d="M1092.923076923077 324 L2953.8461538461524 1080"></path>
		<path d="M1107.6923076923076 324 L3175.384615384617 1080"></path>
		<path d="M1122.4615384615386 324 L3396.923076923078 1080"></path>
		<path d="M1137.2307692307693 324 L3618.461538461539 1080"></path>
		<path d="M1152 324 L3840 1080"></path>
		<path d="M1166.7692307692307 324 L4061.538461538461 1080"></path>
		<path d="M1181.5384615384614 324 L4283.076923076922 1080"></path>
		<path d="M1196.3076923076924 324 L4504.615384615383 1080"></path>
		<path d="M1211.076923076923 324 L4726.153846153848 1080"></path>
		<path d="M1225.8461538461538 324 L4947.6923076923085 1080"></path>
		<path d="M1240.6153846153845 324 L5169.2307692307695 1080"></path>
		<path d="M1255.3846153846155 324 L5390.7692307692305 1080"></path>
		<path d="M1270.1538461538462 324 L5612.3076923076915 1080"></path>
		<path d="M1284.923076923077 324 L5833.846153846152 1080"></path>
		<path d="M1299.6923076923076 324 L6055.384615384617 1080"></path>
		<path d="M1314.4615384615386 324 L6276.923076923078 1080"></path>
		<path d="M1329.2307692307693 324 L6498.461538461539 1080"></path>
		<path d="M1344 324 L6720 1080"></path>
		<path d="M1358.7692307692307 324 L6941.538461538461 1080"></path>
		<path d="M1373.5384615384614 324 L7163.076923076922 1080"></path>
		<path d="M1388.3076923076924 324 L7384.615384615383 1080"></path>
		<path d="M1403.076923076923 324 L7606.153846153848 1080"></path>
		<path d="M1417.8461538461538 324 L7827.6923076923085 1080"></path>
		<path d="M1432.6153846153845 324 L8049.2307692307695 1080"></path>
		<path d="M1447.3846153846155 324 L8270.76923076923 1080"></path>
		<path d="M1462.1538461538462 324 L8492.307692307691 1080"></path>
		<path d="M1476.923076923077 324 L8713.846153846152 1080"></path>
		<path d="M1491.6923076923076 324 L8935.384615384617 1080"></path>
		<path d="M1506.4615384615386 324 L9156.923076923078 1080"></path>
		<path d="M1521.2307692307693 324 L9378.461538461539 1080"></path>
		<path d="M1536 324 L9600 1080"></path>
		<path d="M1550.7692307692307 324 L9821.538461538461 1080"></path>
		<path d="M1565.5384615384614 324 L10043.076923076922 1080"></path>
		<path d="M1580.3076923076924 324 L10264.615384615383 1080"></path>
		<path d="M1595.076923076923 324 L10486.153846153848 1080"></path>
		<path d="M1609.8461538461538 324 L10707.692307692309 1080"></path>
		<path d="M1624.6153846153845 324 L10929.23076923077 1080"></path>
		<path d="M1639.3846153846155 324 L11150.76923076923 1080"></path>
		<path d="M1654.1538461538462 324 L11372.307692307691 1080"></path>
		<path d="M1668.923076923077 324 L11593.846153846152 1080"></path>
		<path d="M1683.6923076923076 324 L11815.384615384617 1080"></path>
		<path d="M1698.4615384615386 324 L12036.923076923078 1080"></path>
		<path d="M1713.2307692307693 324 L12258.461538461539 1080"></path>
		<path d="M1728 324 L12480 1080"></path>
		<path d="M1742.7692307692307 324 L12701.538461538461 1080"></path>
		<path d="M1757.5384615384614 324 L12923.076923076922 1080"></path>
		<path d="M1772.3076923076924 324 L13144.615384615383 1080"></path>
		<path d="M1787.076923076923 324 L13366.153846153848 1080"></path>
		<path d="M1801.8461538461538 324 L13587.692307692309 1080"></path>
		<path d="M1816.6153846153845 324 L13809.23076923077 1080"></path>
		<path d="M1831.3846153846155 324 L14030.76923076923 1080"></path>
		<path d="M1846.1538461538462 324 L14252.307692307691 1080"></path>
		<path d="M1860.923076923077 324 L14473.846153846152 1080"></path>
		<path d="M1875.6923076923076 324 L14695.384615384617 1080"></path>
		<path d="M1890.4615384615386 324 L14916.923076923078 1080"></path>
		<path d="M1905.2307692307693 324 L15138.461538461539 1080"></path>
		<path d="M1920 324 L15360 1080"></path>
		<g>
			<path d="M0 324 L1920 324"></path>
			<animateTransform
				attributeName="transform"
				type="translate"
				repeatCount="indefinite"
				calcMode="linear"
				keyTimes="0;1"
				values="0 0;0 5.725917159763314"
				begin="0s"
				dur="0.5714285714285714s"
			></animateTransform>
		</g>
		<g>
			<path d="M0 329.7259171597633 L1920 329.7259171597633"></path>
			<animateTransform
				attributeName="transform"
				type="translate"
				repeatCount="indefinite"
				calcMode="linear"
				keyTimes="0;1"
				values="0 0;0 11.451834319526629"
				begin="0s"
				dur="0.5714285714285714s"
			></animateTransform>
		</g>
		<g>
			<path d="M0 341.17775147928995 L1920 341.17775147928995"></path>
			<animateTransform
				attributeName="transform"
				type="translate"
				repeatCount="indefinite"
				calcMode="linear"
				keyTimes="0;1"
				values="0 0;0 17.17775147928994"
				begin="0s"
				dur="0.5714285714285714s"
			></animateTransform>
		</g>
		<g>
			<path d="M0 358.3555029585799 L1920 358.3555029585799"></path>
			<animateTransform
				attributeName="transform"
				type="translate"
				repeatCount="indefinite"
				calcMode="linear"
				keyTimes="0;1"
				values="0 0;0 22.903668639053254"
				begin="0s"
				dur="0.5714285714285714s"
			></animateTransform>
		</g>
		<g>
			<path d="M0 381.25917159763316 L1920 381.25917159763316"></path>
			<animateTransform
				attributeName="transform"
				type="translate"
				repeatCount="indefinite"
				calcMode="linear"
				keyTimes="0;1"
				values="0 0;0 28.62958579881657"
				begin="0s"
				dur="0.5714285714285714s"
			></animateTransform>
		</g>
		<g>
			<path d="M0 409.8887573964497 L1920 409.8887573964497"></path>
			<animateTransform
				attributeName="transform"
				type="translate"
				repeatCount="indefinite"
				calcMode="linear"
				keyTimes="0;1"
				values="0 0;0 34.35550295857988"
				begin="0s"
				dur="0.5714285714285714s"
			></animateTransform>
		</g>
		<g>
			<path d="M0 444.2442603550296 L1920 444.2442603550296"></path>
			<animateTransform
				attributeName="transform"
				type="translate"
				repeatCount="indefinite"
				calcMode="linear"
				keyTimes="0;1"
				values="0 0;0 40.081420118343196"
				begin="0s"
				dur="0.5714285714285714s"
			></animateTransform>
		</g>
		<g>
			<path d="M0 484.3256804733728 L1920 484.3256804733728"></path>
			<animateTransform
				attributeName="transform"
				type="translate"
				repeatCount="indefinite"
				calcMode="linear"
				keyTimes="0;1"
				values="0 0;0 45.80733727810651"
				begin="0s"
				dur="0.5714285714285714s"
			></animateTransform>
		</g>
		<g>
			<path d="M0 530.1330177514793 L1920 530.1330177514793"></path>
			<animateTransform
				attributeName="transform"
				type="translate"
				repeatCount="indefinite"
				calcMode="linear"
				keyTimes="0;1"
				values="0 0;0 51.53325443786982"
				begin="0s"
				dur="0.5714285714285714s"
			></animateTransform>
		</g>
		<g>
			<path d="M0 581.6662721893491 L1920 581.6662721893491"></path>
			<animateTransform
				attributeName="transform"
				type="translate"
				repeatCount="indefinite"
				calcMode="linear"
				keyTimes="0;1"
				values="0 0;0 57.259171597633134"
				begin="0s"
				dur="0.5714285714285714s"
			></animateTransform>
		</g>
		<g>
			<path d="M0 638.9254437869822 L1920 638.9254437869822"></path>
			<animateTransform
				attributeName="transform"
				type="translate"
				repeatCount="indefinite"
				calcMode="linear"
				keyTimes="0;1"
				values="0 0;0 62.985088757396454"
				begin="0s"
				dur="0.5714285714285714s"
			></animateTransform>
		</g>
		<g>
			<path d="M0 701.9105325443786 L1920 701.9105325443786"></path>
			<animateTransform
				attributeName="transform"
				type="translate"
				repeatCount="indefinite"
				calcMode="linear"
				keyTimes="0;1"
				values="0 0;0 68.71100591715977"
				begin="0s"
				dur="0.5714285714285714s"
			></animateTransform>
		</g>
		<g>
			<path d="M0 770.6215384615384 L1920 770.6215384615384"></path>
			<animateTransform
				attributeName="transform"
				type="translate"
				repeatCount="indefinite"
				calcMode="linear"
				keyTimes="0;1"
				values="0 0;0 74.43692307692308"
				begin="0s"
				dur="0.5714285714285714s"
			></animateTransform>
		</g>
		<g>
			<path d="M0 845.0584615384615 L1920 845.0584615384615"></path>
			<animateTransform
				attributeName="transform"
				type="translate"
				repeatCount="indefinite"
				calcMode="linear"
				keyTimes="0;1"
				values="0 0;0 80.16284023668639"
				begin="0s"
				dur="0.5714285714285714s"
			></animateTransform>
		</g>
		<g>
			<path d="M0 925.2213017751479 L1920 925.2213017751479"></path>
			<animateTransform
				attributeName="transform"
				type="translate"
				repeatCount="indefinite"
				calcMode="linear"
				keyTimes="0;1"
				values="0 0;0 85.8887573964497"
				begin="0s"
				dur="0.5714285714285714s"
			></animateTransform>
		</g>
		<g>
			<path d="M0 1011.1100591715976 L1920 1011.1100591715976"></path>
			<animateTransform
				attributeName="transform"
				type="translate"
				repeatCount="indefinite"
				calcMode="linear"
				keyTimes="0;1"
				values="0 0;0 91.61467455621302"
				begin="0s"
				dur="0.5714285714285714s"
			></animateTransform>
		</g>
		<g>
			<path d="M0 1102.7247337278106 L1920 1102.7247337278106"></path>
			<animateTransform
				attributeName="transform"
				type="translate"
				repeatCount="indefinite"
				calcMode="linear"
				keyTimes="0;1"
				values="0 0;0 97.34059171597633"
				begin="0s"
				dur="0.5714285714285714s"
			></animateTransform>
		</g>
		<rect x="0" y="0" width="1920" height="1080" fill="url(#fg-lg-0.6222887243670874)"></rect>
	</g>
</svg>
