<svg xmlns="http://www.w3.org/2000/svg" width="1024" height="450" preserveAspectRatio="none"><g fill="none" stroke="rgba(242, 63, 66, 0.1)" stroke-width="2" mask="url(&quot;#a&quot;)"><path d="M564.81 512.84c79.1-2.38 125.57-110.85 292.34-121.43 166.78-10.58 203.96-192.93 292.35-202.5"/><path d="M586.19 533.22c104.57-30.07 141-323.31 290.29-324.29 149.29-.98 204.64 176.91 290.29 184.5"/><path d="M133.4 527.62c131.79-4.11 227.59-199.17 486.13-204.58 258.54-5.41 359.06-146.86 486.13-148.5"/><path d="M559.01 466.62c91.01-8.92 124.46-185.88 304.81-202.22 180.36-16.34 215.47-181.54 304.82-189"/><path d="M272.06 522.05c130.39-9.16 224.22-261.11 452.82-261.41 228.61-.3 334.71 133.57 452.83 135"/></g><defs><mask id="a"><path fill="#fff" d="M0 0h1024v450H0z"/></mask></defs></svg>