<svg xmlns="http://www.w3.org/2000/svg" version="1.1" xmlns:xlink="http://www.w3.org/1999/xlink" xmlns:svgjs="http://svgjs.com/svgjs" width="1024" height="450" preserveAspectRatio="none" viewBox="0 0 1024 450"><g mask="url(&quot;#SvgjsMask1494&quot;)" fill="none"><path d="M564.81 512.84C643.91 510.46 690.38 401.99 857.15 391.41 1023.93 380.83 1061.11 198.48 1149.5 188.91" stroke="rgba(242, 63, 66, 0.1)" stroke-width="2"></path><path d="M586.19 533.22C690.76 503.15 727.19 209.91 876.48 208.93 1025.77 207.95 1081.12 385.84 1166.77 393.43" stroke="rgba(242, 63, 66, 0.1)" stroke-width="2"></path><path d="M133.4 527.62C265.19 523.51 360.99 328.45 619.53 323.04 878.07 317.63 978.59 176.18 1105.66 174.54" stroke="rgba(242, 63, 66, 0.1)" stroke-width="2"></path><path d="M559.01 466.62C650.02 457.7 683.47 280.74 863.82 264.4 1044.18 248.06 1079.29 82.86 1168.64 75.4" stroke="rgba(242, 63, 66, 0.1)" stroke-width="2"></path><path d="M272.06 522.05C402.45 512.89 496.28 260.94 724.88 260.64 953.49 260.34 1059.59 394.21 1177.71 395.64" stroke="rgba(242, 63, 66, 0.1)" stroke-width="2"></path></g><defs><mask id="SvgjsMask1494"><rect width="1024" height="450" fill="#ffffff"></rect></mask></defs></svg>