<svg id="visual" viewBox="0 0 960 540" width="960" height="540" xmlns="http://www.w3.org/2000/svg" xmlns:xlink="http://www.w3.org/1999/xlink" version="1.1"><g stroke-width="1" stroke-linejoin="bevel"><path d="M431.7 280L388.7 218L321 272Z" fill="#171311" stroke="#171311"></path><path d="M335 382L421.7 374L431.7 280Z" fill="#191513" stroke="#191513"></path><path d="M321 272L335 382L431.7 280Z" fill="#191513" stroke="#191513"></path><path d="M438.7 74L359 139L388.7 218Z" fill="#1a1715" stroke="#1a1715"></path><path d="M388.7 218L359 139L321 272Z" fill="#000000" stroke="#000000"></path><path d="M359 139L247.3 229L321 272Z" fill="#191513" stroke="#191513"></path><path d="M321 272L245.3 376L335 382Z" fill="#130f0c" stroke="#130f0c"></path><path d="M421.7 374L519.3 350L431.7 280Z" fill="#110c09" stroke="#110c09"></path><path d="M431.7 280L557.3 223L388.7 218Z" fill="#000000" stroke="#000000"></path><path d="M335 382L388.7 435L421.7 374Z" fill="#0e0905" stroke="#0e0905"></path><path d="M421.7 374L517.3 478L519.3 350Z" fill="#080200" stroke="#080200"></path><path d="M519.3 350L541.3 265L431.7 280Z" fill="#0b0602" stroke="#0b0602"></path><path d="M247.3 229L245.3 376L321 272Z" fill="#080200" stroke="#080200"></path><path d="M335 382L349 475L388.7 435Z" fill="#0e0905" stroke="#0e0905"></path><path d="M359 139L280 125L247.3 229Z" fill="#191513" stroke="#191513"></path><path d="M280 125L232.3 153L247.3 229Z" fill="#0e0905" stroke="#0e0905"></path><path d="M247.3 229L130.7 373L245.3 376Z" fill="#15110f" stroke="#15110f"></path><path d="M648 297L557.3 223L541.3 265Z" fill="#191513" stroke="#191513"></path><path d="M541.3 265L557.3 223L431.7 280Z" fill="#0e0905" stroke="#0e0905"></path><path d="M230.3 453L349 475L335 382Z" fill="#0b0602" stroke="#0b0602"></path><path d="M388.7 435L517.3 478L421.7 374Z" fill="#0b0602" stroke="#0b0602"></path><path d="M515.3 81L438.7 74L388.7 218Z" fill="#1c1917" stroke="#1c1917"></path><path d="M333 0L246.3 46L280 125Z" fill="#0b0602" stroke="#0b0602"></path><path d="M245.3 376L230.3 453L335 382Z" fill="#1c1917" stroke="#1c1917"></path><path d="M130.7 373L230.3 453L245.3 376Z" fill="#1c1917" stroke="#1c1917"></path><path d="M557.3 223L515.3 81L388.7 218Z" fill="#110c09" stroke="#110c09"></path><path d="M438.7 540L517.3 478L388.7 435Z" fill="#0b0602" stroke="#0b0602"></path><path d="M519.3 350L648 297L541.3 265Z" fill="#15110f" stroke="#15110f"></path><path d="M280 125L246.3 46L232.3 153Z" fill="#0e0905" stroke="#0e0905"></path><path d="M333 0L280 125L359 139Z" fill="#110c09" stroke="#110c09"></path><path d="M333 0L359 139L438.7 74Z" fill="#0b0602" stroke="#0b0602"></path><path d="M132.7 144L247.3 229L232.3 153Z" fill="#0b0602" stroke="#0b0602"></path><path d="M71.7 313L130.7 373L247.3 229Z" fill="#000000" stroke="#000000"></path><path d="M662 346L648 297L519.3 350Z" fill="#171311" stroke="#171311"></path><path d="M557.3 223L650 140L515.3 81Z" fill="#130f0c" stroke="#130f0c"></path><path d="M281 540L438.7 540L349 475Z" fill="#191513" stroke="#191513"></path><path d="M349 475L438.7 540L388.7 435Z" fill="#171311" stroke="#171311"></path><path d="M246.3 46L132.7 144L232.3 153Z" fill="#15110f" stroke="#15110f"></path><path d="M449.7 0L333 0L438.7 74Z" fill="#000000" stroke="#000000"></path><path d="M509.3 0L449.7 0L438.7 74Z" fill="#1a1715" stroke="#1a1715"></path><path d="M256.3 540L281 540L230.3 453Z" fill="#130f0c" stroke="#130f0c"></path><path d="M230.3 453L281 540L349 475Z" fill="#1a1715" stroke="#1a1715"></path><path d="M662 540L618 426L517.3 478Z" fill="#191513" stroke="#191513"></path><path d="M517.3 478L618 426L519.3 350Z" fill="#0e0905" stroke="#0e0905"></path><path d="M71.7 313L120.7 409L130.7 373Z" fill="#110c09" stroke="#110c09"></path><path d="M130.7 373L120.7 409L230.3 453Z" fill="#080200" stroke="#080200"></path><path d="M73.7 540L256.3 540L230.3 453Z" fill="#0b0602" stroke="#0b0602"></path><path d="M438.7 540L498.3 540L517.3 478Z" fill="#110c09" stroke="#110c09"></path><path d="M618 426L662 346L519.3 350Z" fill="#0e0905" stroke="#0e0905"></path><path d="M515.3 81L509.3 0L438.7 74Z" fill="#0e0905" stroke="#0e0905"></path><path d="M668 0L509.3 0L515.3 81Z" fill="#1a1715" stroke="#1a1715"></path><path d="M679 103L650 140L782.7 174Z" fill="#000000" stroke="#000000"></path><path d="M648 297L650 140L557.3 223Z" fill="#130f0c" stroke="#130f0c"></path><path d="M132.7 144L71.7 313L247.3 229Z" fill="#110c09" stroke="#110c09"></path><path d="M246.3 46L111.7 90L132.7 144Z" fill="#110c09" stroke="#110c09"></path><path d="M132.7 144L0 236L71.7 313Z" fill="#171311" stroke="#171311"></path><path d="M173.3 0L111.7 90L246.3 46Z" fill="#0e0905" stroke="#0e0905"></path><path d="M333 0L173.3 0L246.3 46Z" fill="#080200" stroke="#080200"></path><path d="M736.7 252L650 140L648 297Z" fill="#0b0602" stroke="#0b0602"></path><path d="M650 140L679 103L515.3 81Z" fill="#0e0905" stroke="#0e0905"></path><path d="M745.7 324L648 297L662 346Z" fill="#15110f" stroke="#15110f"></path><path d="M745.7 324L736.7 252L648 297Z" fill="#1a1715" stroke="#1a1715"></path><path d="M173.3 0L134.7 0L111.7 90Z" fill="#1a1715" stroke="#1a1715"></path><path d="M744.7 411L745.7 324L662 346Z" fill="#15110f" stroke="#15110f"></path><path d="M744.7 411L662 346L618 426Z" fill="#171311" stroke="#171311"></path><path d="M0 211L132.7 144L0 129Z" fill="#15110f" stroke="#15110f"></path><path d="M0 211L0 236L132.7 144Z" fill="#080200" stroke="#080200"></path><path d="M71.7 313L0 356L120.7 409Z" fill="#1a1715" stroke="#1a1715"></path><path d="M0 129L132.7 144L111.7 90Z" fill="#080200" stroke="#080200"></path><path d="M0 236L0 356L71.7 313Z" fill="#171311" stroke="#171311"></path><path d="M120.7 409L73.7 540L230.3 453Z" fill="#171311" stroke="#171311"></path><path d="M498.3 540L662 540L517.3 478Z" fill="#110c09" stroke="#110c09"></path><path d="M702.7 540L744.7 411L618 426Z" fill="#130f0c" stroke="#130f0c"></path><path d="M740.7 0L668 0L679 103Z" fill="#1a1715" stroke="#1a1715"></path><path d="M679 103L668 0L515.3 81Z" fill="#171311" stroke="#171311"></path><path d="M0 0L0 129L111.7 90Z" fill="#0b0602" stroke="#0b0602"></path><path d="M0 422L73.7 540L120.7 409Z" fill="#110c09" stroke="#110c09"></path><path d="M0 356L0 422L120.7 409Z" fill="#080200" stroke="#080200"></path><path d="M823.3 244L782.7 174L736.7 252Z" fill="#1a1715" stroke="#1a1715"></path><path d="M736.7 252L782.7 174L650 140Z" fill="#1a1715" stroke="#1a1715"></path><path d="M823.3 244L736.7 252L745.7 324Z" fill="#191513" stroke="#191513"></path><path d="M662 540L702.7 540L618 426Z" fill="#000000" stroke="#000000"></path><path d="M840.3 382L823.3 244L745.7 324Z" fill="#0e0905" stroke="#0e0905"></path><path d="M840.3 382L745.7 324L744.7 411Z" fill="#000000" stroke="#000000"></path><path d="M773.7 49L740.7 0L679 103Z" fill="#1a1715" stroke="#1a1715"></path><path d="M773.7 49L679 103L809.3 83Z" fill="#1a1715" stroke="#1a1715"></path><path d="M809.3 83L679 103L782.7 174Z" fill="#1a1715" stroke="#1a1715"></path><path d="M0 422L0 540L73.7 540Z" fill="#15110f" stroke="#15110f"></path><path d="M134.7 0L0 0L111.7 90Z" fill="#080200" stroke="#080200"></path><path d="M865.3 161L809.3 83L782.7 174Z" fill="#000000" stroke="#000000"></path><path d="M773.7 49L889.3 0L740.7 0Z" fill="#0e0905" stroke="#0e0905"></path><path d="M850.3 426L840.3 382L744.7 411Z" fill="#130f0c" stroke="#130f0c"></path><path d="M823.3 244L865.3 161L782.7 174Z" fill="#15110f" stroke="#15110f"></path><path d="M862.3 540L850.3 426L744.7 411Z" fill="#080200" stroke="#080200"></path><path d="M960 279L865.3 161L823.3 244Z" fill="#000000" stroke="#000000"></path><path d="M960 279L823.3 244L960 321Z" fill="#080200" stroke="#080200"></path><path d="M702.7 540L862.3 540L744.7 411Z" fill="#080200" stroke="#080200"></path><path d="M960 321L823.3 244L840.3 382Z" fill="#1c1917" stroke="#1c1917"></path><path d="M960 77L889.3 0L809.3 83Z" fill="#0b0602" stroke="#0b0602"></path><path d="M809.3 83L889.3 0L773.7 49Z" fill="#110c09" stroke="#110c09"></path><path d="M960 77L809.3 83L865.3 161Z" fill="#110c09" stroke="#110c09"></path><path d="M960 321L840.3 382L850.3 426Z" fill="#191513" stroke="#191513"></path><path d="M960 487L960 321L850.3 426Z" fill="#1a1715" stroke="#1a1715"></path><path d="M960 279L960 180L865.3 161Z" fill="#1c1917" stroke="#1c1917"></path><path d="M960 180L960 77L865.3 161Z" fill="#1a1715" stroke="#1a1715"></path><path d="M862.3 540L960 487L850.3 426Z" fill="#1c1917" stroke="#1c1917"></path><path d="M862.3 540L960 540L960 487Z" fill="#080200" stroke="#080200"></path><path d="M960 77L960 0L889.3 0Z" fill="#0b0602" stroke="#0b0602"></path></g></svg>