<svg id="visual" viewBox="0 0 1024 256" width="1024" height="256" xmlns="http://www.w3.org/2000/svg" xmlns:xlink="http://www.w3.org/1999/xlink" version="1.1"><g><g transform="translate(965 158)"><path d="M0 -102.4L88.7 -51.2L88.7 51.2L0 102.4L-88.7 51.2L-88.7 -51.2Z" fill="none" stroke="#535353" stroke-opacity="0.4" stroke-width="2"></path></g><g transform="translate(232 162)"><path d="M0 -77L66.7 -38.5L66.7 38.5L0 77L-66.7 38.5L-66.7 -38.5Z" fill="none" stroke="#535353" stroke-opacity="0.4" stroke-width="2"></path></g><g transform="translate(552 57)"><path d="M0 -78L67.5 -39L67.5 39L0 78L-67.5 39L-67.5 -39Z" fill="none" stroke="#535353" stroke-opacity="0.4" stroke-width="2"></path></g><g transform="translate(19 114)"><path d="M0 -84L72.7 -42L72.7 42L0 84L-72.7 42L-72.7 -42Z" fill="none" stroke="#535353" stroke-opacity="0.4" stroke-width="2"></path></g><g transform="translate(758 131)"><path d="M0 -85L73.6 -42.5L73.6 42.5L0 85L-73.6 42.5L-73.6 -42.5Z" fill="none" stroke="#535353" stroke-opacity="0.4" stroke-width="2"></path></g><g transform="translate(433 237)"><path d="M0 -62L53.7 -31L53.7 31L0 62L-53.7 31L-53.7 -31Z" fill="none" stroke="#535353" stroke-opacity="0.4" stroke-width="2"></path></g></g></svg>
