<svg xmlns="http://www.w3.org/2000/svg" width="64" height="64"><path d="M48.89 40.156H23.165a3.35 3.35 0 0 1-3.348-3.351V10.078c0-1.844 1.5-3.344 3.348-3.344h25.727c1.847 0 3.351 1.5 3.351 3.344v26.73a3.355 3.355 0 0 1-3.351 3.348ZM23.165 7.93c-1.184 0-2.148.96-2.148 2.144v26.73c0 1.184.964 2.145 2.148 2.145h25.727c1.183 0 2.148-.96 2.148-2.144V10.082a2.152 2.152 0 0 0-2.148-2.148H23.164Zm0 0" style="stroke:none;fill-rule:evenodd;fill:#ef4444;fill-opacity:1"/><path d="M36.027 36.543c-7.218 0-13.097-5.875-13.097-13.102 0-7.222 5.875-13.097 13.097-13.097 7.223 0 13.102 5.875 13.102 13.097 0 7.227-5.879 13.102-13.102 13.102Zm0-24.996c-6.558 0-11.898 5.336-11.898 11.898 0 6.563 5.336 11.903 11.898 11.903 6.567 0 11.899-5.34 11.899-11.903 0-6.562-5.34-11.898-11.899-11.898Zm0 0" style="stroke:none;fill-rule:evenodd;fill:#ef4444;fill-opacity:1"/><path d="M36.027 27.695a4.259 4.259 0 0 1-4.254-4.254c0-2.343 1.91-4.25 4.254-4.25a4.261 4.261 0 0 1 4.258 4.25 4.267 4.267 0 0 1-4.258 4.254Zm0-7.304a3.057 3.057 0 0 0-3.05 3.05c0 1.68 1.367 3.051 3.05 3.051a3.055 3.055 0 0 0 3.051-3.05c0-1.68-1.367-3.051-3.05-3.051Zm0 0" style="stroke:none;fill-rule:evenodd;fill:#ef4444;fill-opacity:1"/><path d="M35.074 20.516a.593.593 0 0 1-.504-.274c-1.668-2.59-2.277-4.89-1.82-6.86.41-1.753 2.16-3.75 2.785-2.702.531.898-1.117.765-1.625 3.008-.37 1.632.192 3.617 1.664 5.902a.601.601 0 0 1-.5.926ZM36.965 20.512a.6.6 0 0 1-.598-.57c-.156-3.075.469-5.38 1.852-6.848 1.238-1.317 3.754-2.176 3.77-.953.011 1.046-1.348.101-2.915 1.793-1.136 1.23-1.644 3.23-1.508 5.945a.607.607 0 0 1-.601.633ZM38.605 21.453a.6.6 0 0 1-.535-.875c1.403-2.734 3.094-4.418 5.032-5.004 1.757-.531 4.324.012 3.73 1.063-.516.914-1.215-.586-3.414.097-1.598.496-3.04 1.973-4.281 4.395a.586.586 0 0 1-.535.324ZM39.555 23.094c-.598 0-.828-.785-.325-1.106 2.586-1.668 4.891-2.285 6.856-1.82 1.762.414 3.75 2.16 2.707 2.781-.902.54-.758-1.113-3.012-1.625-2.965-.672-5.633 1.77-6.226 1.77ZM47.32 29.398c-1.035 0-.093-1.343-1.78-2.906-1.231-1.137-3.231-1.64-5.95-1.508-.8.032-.84-1.164-.055-1.203 3.074-.148 5.38.473 6.848 1.856 1.5 1.41 1.543 3.086 1.543 3.16.004.469-.469.648-.606.601ZM43.125 34.328a.598.598 0 0 1-.523-.887c.027-.05.59-1.129.136-2.605-.496-1.594-1.976-3.035-4.398-4.277-.703-.36-.153-1.43.55-1.067 2.739 1.403 4.422 3.094 5.005 5.028.472 1.562.117 3.808-.77 3.808ZM37.031 36.5a.6.6 0 0 1-.308-1.113c.047-.032 1.078-.684 1.418-2.188.37-1.633-.192-3.617-1.664-5.902-.43-.668.582-1.313 1.007-.652 4.27 6.644.29 9.855-.453 9.855ZM30.668 35.332c-.793 0-.785-1.187-.012-1.2.055 0 1.274-.05 2.324-1.183 1.137-1.226 1.645-3.226 1.508-5.945-.039-.785 1.16-.852 1.2-.059.156 3.075-.47 5.38-1.856 6.852-1.406 1.5-3.086 1.543-3.156 1.543 0-.008-.004-.008-.008-.008ZM27.492 31.527c-1.265 0-2.742-.453-2.277-1.277.52-.914 1.215.586 3.418-.098 1.597-.496 3.039-1.972 4.281-4.394.356-.703 1.43-.153 1.066.55-1.601 3.09-3.757 5.22-6.488 5.22ZM27.281 26.867c-2.722 0-5.148-2.265-4.02-2.937.9-.535.759 1.113 3.009 1.625 1.628.37 3.617-.192 5.906-1.668.664-.426 1.312.582.648 1.008-2.027 1.312-3.886 1.972-5.543 1.972ZM31.64 23.125c-2.632 0-4.636-.629-5.964-1.875-1.336-1.254-2.16-3.766-.942-3.766 1.036 0 .09 1.344 1.782 2.91 1.23 1.137 3.23 1.645 5.945 1.508.8-.043.84 1.164.059 1.203-.297.012-.59.02-.88.02ZM33.441 21.46a.576.576 0 0 1-.273-.065c-2.738-1.403-4.422-3.094-5.004-5.028-.531-1.758.012-4.328 1.063-3.734.91.515-.586 1.215.093 3.418.496 1.594 1.977 3.039 4.399 4.277.558.29.343 1.137-.278 1.137ZM33.621 7.93h-9.246a.596.596 0 0 1-.598-.602V5.645a2.284 2.284 0 0 1 2.282-2.282h5.882a2.287 2.287 0 0 1 2.286 2.282v1.683a.605.605 0 0 1-.606.602Zm-8.644-1.2h8.043c0-.757.195-2.168-1.083-2.168H26.06c-1.278 0-1.082 1.41-1.082 2.168ZM47.68 7.93h-9.246a.602.602 0 0 1-.602-.602V5.645a2.287 2.287 0 0 1 2.285-2.282h5.88a2.287 2.287 0 0 1 2.284 2.282v1.683a.6.6 0 0 1-.601.602Zm-8.645-1.2h8.043c0-.757.192-2.168-1.082-2.168h-5.879c-1.277 0-1.082 1.41-1.082 2.168Zm0 0" style="stroke:none;fill-rule:evenodd;fill:#ef4444;fill-opacity:1"/><path d="M40.648 4.566a.599.599 0 0 1-.597-.601v-1.68c0-.598-.489-1.086-1.082-1.086h-5.883c-.594 0-1.082.488-1.082 1.086v1.68c0 .793-1.2.793-1.2 0v-1.68A2.285 2.285 0 0 1 33.087 0h5.883a2.285 2.285 0 0 1 2.281 2.285v1.68a.6.6 0 0 1-.602.601ZM45.816 49.742H35.52a.604.604 0 0 1-.598-.601v-5.434a.6.6 0 0 1 .598-.598h4.257v-3.46c0-.329.274-.598.602-.598h5.437c.329 0 .602.27.602.597v9.493c0 .332-.27.601-.602.601Zm-9.695-1.199h9.094V40.25h-4.23v3.457a.604.604 0 0 1-.602.602H36.12Zm-2.535 1.2h-15.84a5.997 5.997 0 0 1-5.988-5.99V28.235c0-.328.265-.601.601-.601h8.102c.336 0 .602.273.602.601v5.434a.599.599 0 0 1-.602.598h-2.066v8.84H33.59c.332 0 .601.269.601.597v5.434c0 .332-.27.605-.605.605ZM12.96 28.831v14.922a4.797 4.797 0 0 0 4.789 4.789h15.242v-4.234H17.797a.599.599 0 0 1-.602-.598V33.668c0-.328.266-.602.602-.602h2.066v-4.23Zm0 0" style="stroke:none;fill-rule:evenodd;fill:#ef4444;fill-opacity:1"/><path d="M34.555 51.2a1.569 1.569 0 0 1-1.567-1.567V43.21c0-2.059 3.133-2.059 3.133 0v6.422c0 .863-.7 1.566-1.566 1.566Zm0-8.352c-.2 0-.367.164-.367.363v6.422c0 .48.734.48.734 0V43.21c0-.2-.168-.363-.367-.363Zm0 0" style="stroke:none;fill-rule:evenodd;fill:#ef4444;fill-opacity:1"/></svg>