<svg xmlns="http://www.w3.org/2000/svg" width="64" height="64"><path d="M50.453 36.52H31.516a.598.598 0 0 1-.598-.598v-3.32c0-.329.266-.602.598-.602h18.941c.332 0 .602.273.602.602v3.32a.604.604 0 0 1-.606.598Zm-18.336-1.2h17.735V33.2H32.117Zm0 0" style="stroke:none;fill-rule:evenodd;fill:#ef4444;fill-opacity:1"/><path d="M48.957 33.195c-.793 0-.598-1.05-.598-1.898 0-.79 1.2-.79 1.2 0 0 .86.191 1.898-.602 1.898ZM46.3 33.195c-.792 0-.6-1.05-.6-1.898 0-.79 1.198-.79 1.198 0 0 .86.196 1.898-.597 1.898ZM43.64 33.195c-.792 0-.597-1.05-.597-1.898 0-.79 1.2-.79 1.2 0 0 .86.19 1.898-.602 1.898ZM40.984 33.195c-.793 0-.601-1.05-.601-1.898 0-.79 1.199-.79 1.199 0 0 .86.195 1.898-.598 1.898ZM38.324 33.195c-.793 0-.597-1.05-.597-1.898 0-.79 1.199-.79 1.199 0 0 .86.191 1.898-.602 1.898ZM35.668 33.195c-.793 0-.602-1.05-.602-1.898 0-.79 1.2-.79 1.2 0 0 .86.195 1.898-.598 1.898ZM33.008 33.195c-.793 0-.598-1.05-.598-1.898 0-.79 1.2-.79 1.2 0 0 .86.19 1.898-.602 1.898ZM48.957 37.82c-.793 0-.598-1.054-.598-1.898 0-.79 1.2-.79 1.2 0 0 .86.191 1.898-.602 1.898ZM46.3 37.82c-.792 0-.6-1.054-.6-1.898 0-.79 1.198-.79 1.198 0 0 .86.196 1.898-.597 1.898ZM43.64 37.82c-.792 0-.597-1.054-.597-1.898 0-.79 1.2-.79 1.2 0 0 .86.19 1.898-.602 1.898ZM40.984 37.82c-.793 0-.601-1.054-.601-1.898 0-.79 1.199-.79 1.199 0 0 .86.195 1.898-.598 1.898ZM38.324 37.82c-.793 0-.597-1.054-.597-1.898 0-.79 1.199-.79 1.199 0 0 .86.191 1.898-.602 1.898ZM35.668 37.82c-.793 0-.602-1.054-.602-1.898 0-.79 1.2-.79 1.2 0 0 .86.195 1.898-.598 1.898ZM33.008 37.82c-.793 0-.598-1.054-.598-1.898 0-.79 1.2-.79 1.2 0 0 .86.19 1.898-.602 1.898Zm0 0" style="stroke:none;fill-rule:evenodd;fill:#ef4444;fill-opacity:1"/><path d="M53.762 43.18H21.504a.6.6 0 0 1-.582-.461l-1.067-4.38h-8.062a.601.601 0 0 1-.602-.597V9.797a.6.6 0 0 1 .602-.602h41.969c.328 0 .601.266.601.602v32.781a.604.604 0 0 1-.601.602Zm-31.785-1.2h31.187V10.395H12.391V37.14h7.937c.277 0 .52.191.586.46Zm0 0" style="stroke:none;fill-rule:evenodd;fill:#ef4444;fill-opacity:1"/><path d="M11.79 43.914a.602.602 0 0 1-.602-.602V5.984H7c-.79 0-.79-1.203 0-1.203h4.79c.331 0 .597.27.597.602v37.93a.598.598 0 0 1-.598.597ZM39.2 25.742c-.34 0-4.005-2.086-4.606-2.41a.592.592 0 0 1-.32-.527V17.19c0-.222.12-.425.32-.53l4.324-2.337a.598.598 0 0 1 .883.531v10.286a.6.6 0 0 1-.602.601Zm-3.723-3.297 3.125 1.688v-8.274l-3.125 1.688Zm0 0" style="stroke:none;fill-rule:evenodd;fill:#ef4444;fill-opacity:1"/><path d="M34.875 23.402h-2.656a.596.596 0 0 1-.602-.597V17.19a.6.6 0 0 1 .602-.601h2.656c.328 0 .602.27.602.601v5.614c0 .328-.27.597-.602.597Zm-2.059-1.199h1.457v-4.41h-1.457ZM43.875 25.508a.6.6 0 0 1-.426-1.024 6.34 6.34 0 0 0 0-8.976c-.554-.555.285-1.41.852-.848 2.926 2.899 2.969 7.64 0 10.664a.587.587 0 0 1-.426.184Zm0 0" style="stroke:none;fill-rule:evenodd;fill:#ef4444;fill-opacity:1"/><path d="M41.922 23.555c-.535 0-.8-.649-.426-1.028a3.577 3.577 0 0 0 0-5.066c-.555-.555.285-1.406.852-.848 1.859 1.844 1.87 4.89 0 6.766a.604.604 0 0 1-.426.176ZM19.477 18.523h-3.16a.598.598 0 0 1-.602-.597v-4.094c0-.332.27-.598.601-.598h3.16c.333 0 .598.266.598.598v4.094c0 .332-.27.597-.597.597Zm-2.559-1.199h1.957v-2.89h-1.957ZM19.477 26.418h-3.16a.604.604 0 0 1-.602-.602v-4.09a.6.6 0 0 1 .601-.601h3.16c.333 0 .598.266.598.602v4.09c0 .328-.27.601-.597.601Zm-2.559-1.203h1.957v-2.89h-1.957ZM19.477 34.309h-3.16a.602.602 0 0 1-.602-.602v-4.09c0-.328.27-.601.601-.601h3.16c.333 0 .598.273.598.601v4.09c0 .332-.27.602-.597.602Zm-2.559-1.2h1.957v-2.894h-1.957ZM27.016 18.523h-3.157a.596.596 0 0 1-.601-.597v-4.094c0-.332.265-.598.601-.598h3.157c.336 0 .601.266.601.598v4.094c0 .332-.27.597-.601.597Zm-2.559-1.199h1.961v-2.89h-1.961ZM27.016 26.418h-3.157a.602.602 0 0 1-.601-.602v-4.09c0-.335.265-.601.601-.601h3.157c.336 0 .601.266.601.602v4.09c0 .328-.27.601-.601.601Zm-2.559-1.203h1.961v-2.89h-1.961ZM27.016 34.309h-3.157a.6.6 0 0 1-.601-.602v-4.09c0-.328.265-.601.601-.601h3.157c.336 0 .601.273.601.601v4.09c0 .332-.27.602-.601.602Zm-2.559-1.2h1.961v-2.894h-1.961ZM57 20.941h-3.238a.599.599 0 0 1-.598-.601v-5.488c0-.336.27-.602.598-.602H57c.328 0 .602.266.602.602v5.492a.601.601 0 0 1-.602.597Zm-2.637-1.199h2.035V15.45h-2.035ZM57 29.535h-3.238a.6.6 0 0 1-.598-.598v-5.496c0-.332.27-.601.598-.601H57c.328 0 .602.27.602.601v5.497a.604.604 0 0 1-.602.597Zm-2.637-1.2h2.035v-4.292h-2.035ZM57 38.129h-3.238a.6.6 0 0 1-.598-.598v-5.496c0-.332.27-.601.598-.601H57c.328 0 .602.27.602.601v5.496a.604.604 0 0 1-.602.598Zm-2.637-1.2h2.035v-4.296h-2.035ZM43.32 46.418H26.781a.602.602 0 0 1-.601-.602v-3.238c0-.328.265-.598.601-.598h16.54c.327 0 .6.27.6.598v3.238c0 .332-.269.602-.6.602ZM27.38 45.215h15.344V43.18H27.379Zm0 0" style="stroke:none;fill-rule:evenodd;fill:#ef4444;fill-opacity:1"/></svg>