<?xml version="1.0" encoding="UTF-8"?> <svg xmlns="http://www.w3.org/2000/svg" xmlns:xlink="http://www.w3.org/1999/xlink" width="64px" height="64px" viewBox="0 0 64 64" version="1.1"> <g id="surface1"> <path style=" stroke:none;fill-rule:evenodd;fill:rgb(93.72549%,26.666667%,26.666667%);fill-opacity:1;" d="M 50.265625 48.570312 L 13.570312 48.570312 C 12.347656 48.570312 11.351562 47.574219 11.351562 46.347656 L 11.351562 28.039062 C 10.617188 27.945312 10.046875 27.316406 10.046875 26.5625 L 10.046875 19.929688 C 10.046875 19.171875 10.617188 18.546875 11.351562 18.453125 L 11.351562 15.726562 C 10.617188 15.632812 10.046875 15.003906 10.046875 14.25 L 10.046875 7.613281 C 10.046875 6.851562 10.617188 6.230469 11.351562 6.136719 L 11.351562 2.21875 C 11.351562 0.996094 12.34375 0 13.570312 0 L 50.265625 0 C 51.492188 0 52.488281 0.996094 52.488281 2.21875 L 52.488281 8.0625 C 53.210938 8.296875 53.953125 8.375 53.953125 8.96875 L 53.953125 24.484375 C 53.953125 25.078125 53.222656 25.15625 52.488281 25.390625 L 52.488281 46.34375 C 52.488281 47.574219 51.492188 48.570312 50.265625 48.570312 Z M 11.535156 19.640625 C 11.375 19.640625 11.246094 19.773438 11.246094 19.929688 L 11.246094 26.5625 C 11.246094 27.167969 12.546875 26.472656 12.546875 27.449219 L 12.546875 46.351562 C 12.546875 46.914062 13.003906 47.371094 13.566406 47.371094 L 50.261719 47.371094 C 50.824219 47.371094 51.285156 46.914062 51.285156 46.351562 L 51.285156 24.957031 C 51.285156 24.363281 52.015625 24.285156 52.75 24.050781 L 52.75 9.410156 C 52.027344 9.175781 51.285156 9.09375 51.285156 8.5 L 51.285156 2.21875 C 51.285156 1.65625 50.824219 1.199219 50.261719 1.199219 L 13.570312 1.199219 C 13.007812 1.199219 12.550781 1.65625 12.550781 2.21875 L 12.550781 6.71875 C 12.550781 7.699219 11.25 7.003906 11.25 7.609375 L 11.25 14.242188 C 11.25 14.847656 12.550781 14.148438 12.550781 15.128906 L 12.550781 19.039062 C 12.550781 19.699219 11.875 19.636719 11.53125 19.636719 L 11.53125 19.640625 Z M 11.535156 19.640625 "/> <path style=" stroke:none;fill-rule:evenodd;fill:rgb(93.72549%,26.666667%,26.666667%);fill-opacity:1;" d="M 34.816406 44.488281 L 33.195312 44.488281 C 32.46875 44.488281 32.671875 43.457031 31.882812 43.457031 L 27.292969 43.457031 C 26.503906 43.457031 26.707031 44.488281 25.980469 44.488281 L 21.25 44.488281 C 20.96875 44.488281 20.726562 44.292969 20.664062 44.015625 L 20.269531 42.257812 L 17.164062 42.257812 C 16.828125 42.257812 16.5625 41.988281 16.5625 41.660156 L 16.5625 28.789062 C 16.5625 28.457031 16.828125 28.1875 17.164062 28.1875 L 34.816406 28.1875 C 35.144531 28.1875 35.417969 28.457031 35.417969 28.789062 L 35.417969 43.886719 C 35.417969 44.21875 35.144531 44.488281 34.816406 44.488281 Z M 33.566406 43.289062 L 34.214844 43.289062 L 34.214844 29.386719 L 17.765625 29.386719 L 17.765625 41.058594 L 20.753906 41.058594 C 21.035156 41.058594 21.28125 41.253906 21.34375 41.527344 L 21.734375 43.289062 L 25.605469 43.289062 C 25.984375 42.648438 26.613281 42.253906 27.292969 42.253906 L 31.878906 42.253906 C 32.558594 42.253906 33.1875 42.648438 33.566406 43.289062 Z M 33.566406 43.289062 "/> <path style=" stroke:none;fill-rule:evenodd;fill:rgb(93.72549%,26.666667%,26.666667%);fill-opacity:1;" d="M 17.167969 44.824219 C 16.832031 44.824219 16.566406 44.554688 16.566406 44.226562 L 16.566406 27.355469 L 14.960938 27.355469 C 14.171875 27.355469 14.171875 26.152344 14.960938 26.152344 L 17.167969 26.152344 C 17.5 26.152344 17.765625 26.425781 17.765625 26.753906 L 17.765625 44.226562 C 17.765625 44.554688 17.5 44.824219 17.167969 44.824219 Z M 17.167969 44.824219 "/> <path style=" stroke:none;fill-rule:evenodd;fill:rgb(93.72549%,26.666667%,26.666667%);fill-opacity:1;" d="M 24.050781 40.203125 C 21.449219 40.203125 19.335938 38.085938 19.335938 35.488281 C 19.335938 32.886719 21.453125 30.773438 24.050781 30.773438 C 26.644531 30.773438 28.761719 32.890625 28.761719 35.488281 C 28.765625 38.085938 26.648438 40.203125 24.050781 40.203125 Z M 24.050781 31.976562 C 22.113281 31.976562 20.535156 33.550781 20.535156 35.488281 C 20.535156 37.425781 22.109375 39 24.050781 39 C 25.992188 39 27.566406 37.425781 27.566406 35.488281 C 27.566406 33.550781 25.988281 31.976562 24.050781 31.976562 Z M 24.050781 31.976562 "/> <path style=" stroke:none;fill-rule:evenodd;fill:rgb(93.72549%,26.666667%,26.666667%);fill-opacity:1;" d="M 24.050781 37.292969 C 21.679688 37.292969 21.671875 33.683594 24.050781 33.683594 C 26.425781 33.683594 26.425781 37.292969 24.050781 37.292969 Z M 24.050781 34.886719 C 23.253906 34.886719 23.257812 36.09375 24.050781 36.09375 C 24.84375 36.09375 24.847656 34.886719 24.050781 34.886719 Z M 24.050781 34.886719 "/> <path style=" stroke:none;fill-rule:evenodd;fill:rgb(93.72549%,26.666667%,26.666667%);fill-opacity:1;" d="M 23.738281 34.929688 C 23.542969 34.929688 23.347656 34.832031 23.234375 34.65625 C 21.425781 31.820312 23.648438 30.09375 24.234375 31.082031 C 24.398438 31.363281 24.3125 31.726562 24.035156 31.898438 C 23.941406 31.960938 23.261719 32.492188 24.238281 34.003906 C 24.496094 34.40625 24.203125 34.929688 23.738281 34.929688 Z M 23.738281 34.929688 "/> <path style=" stroke:none;fill-rule:evenodd;fill:rgb(93.72549%,26.666667%,26.666667%);fill-opacity:1;" d="M 25.214844 35.773438 C 24.617188 35.773438 24.386719 34.992188 24.886719 34.671875 C 27.6875 32.867188 29.460938 35.078125 28.460938 35.671875 C 28.179688 35.839844 27.816406 35.75 27.644531 35.472656 C 27.582031 35.378906 27.046875 34.699219 25.539062 35.675781 C 25.4375 35.746094 25.324219 35.777344 25.214844 35.777344 Z M 25.214844 35.773438 "/> <path style=" stroke:none;fill-rule:evenodd;fill:rgb(93.72549%,26.666667%,26.666667%);fill-opacity:1;" d="M 24.382812 40.191406 C 23.796875 40.191406 23.542969 39.425781 24.066406 39.082031 C 24.15625 39.019531 24.835938 38.492188 23.863281 36.980469 C 23.433594 36.3125 24.441406 35.664062 24.871094 36.328125 C 26.429688 38.746094 25 40.191406 24.382812 40.191406 Z M 24.382812 40.191406 "/> <path style=" stroke:none;fill-rule:evenodd;fill:rgb(93.72549%,26.666667%,26.666667%);fill-opacity:1;" d="M 21.171875 37.019531 C 19.796875 37.019531 18.835938 35.78125 19.640625 35.308594 C 19.925781 35.140625 20.28125 35.226562 20.457031 35.507812 C 20.519531 35.597656 21.054688 36.277344 22.5625 35.304688 C 23.226562 34.875 23.875 35.886719 23.210938 36.3125 C 22.480469 36.777344 21.796875 37.019531 21.171875 37.019531 Z M 21.171875 37.019531 "/> <path style=" stroke:none;fill-rule:evenodd;fill:rgb(93.72549%,26.666667%,26.666667%);fill-opacity:1;" d="M 29.671875 19.726562 L 22.179688 19.726562 C 20.910156 19.726562 19.875 18.691406 19.875 17.421875 L 19.875 9.933594 C 19.875 8.664062 20.910156 7.628906 22.179688 7.628906 L 29.671875 7.628906 C 30.941406 7.628906 31.976562 8.660156 31.976562 9.933594 L 31.976562 17.425781 C 31.972656 18.691406 30.9375 19.726562 29.671875 19.726562 Z M 22.179688 8.828125 C 21.570312 8.828125 21.074219 9.324219 21.074219 9.933594 L 21.074219 17.425781 C 21.074219 18.035156 21.570312 18.53125 22.179688 18.53125 L 29.671875 18.53125 C 30.28125 18.53125 30.777344 18.035156 30.777344 17.425781 L 30.777344 9.933594 C 30.777344 9.324219 30.28125 8.828125 29.671875 8.828125 Z M 22.179688 8.828125 "/> <path style=" stroke:none;fill-rule:evenodd;fill:rgb(93.72549%,26.666667%,26.666667%);fill-opacity:1;" d="M 27.554688 16.644531 L 24.296875 16.644531 C 23.558594 16.644531 22.953125 16.046875 22.953125 15.304688 L 22.953125 12.046875 C 22.953125 11.308594 23.554688 10.703125 24.296875 10.703125 L 27.554688 10.703125 C 28.292969 10.703125 28.894531 11.304688 28.894531 12.046875 L 28.894531 15.304688 C 28.890625 16.046875 28.292969 16.644531 27.554688 16.644531 Z M 24.296875 11.910156 C 24.222656 11.910156 24.15625 11.972656 24.15625 12.050781 L 24.15625 15.308594 C 24.15625 15.382812 24.21875 15.449219 24.296875 15.449219 L 27.554688 15.449219 C 27.628906 15.449219 27.695312 15.386719 27.695312 15.308594 L 27.695312 12.050781 C 27.695312 11.976562 27.632812 11.910156 27.554688 11.910156 Z M 24.296875 11.910156 "/> <path style=" stroke:none;fill-rule:evenodd;fill:rgb(93.72549%,26.666667%,26.666667%);fill-opacity:1;" d="M 23.378906 8.828125 C 23.046875 8.828125 22.777344 8.5625 22.777344 8.230469 L 22.777344 6.363281 C 22.777344 5.570312 23.980469 5.570312 23.980469 6.363281 L 23.980469 8.230469 C 23.980469 8.5625 23.707031 8.828125 23.378906 8.828125 Z M 23.378906 8.828125 "/> <path style=" stroke:none;fill-rule:evenodd;fill:rgb(93.72549%,26.666667%,26.666667%);fill-opacity:1;" d="M 25.925781 8.828125 C 25.589844 8.828125 25.324219 8.5625 25.324219 8.230469 L 25.324219 6.363281 C 25.324219 5.570312 26.523438 5.570312 26.523438 6.363281 L 26.523438 8.230469 C 26.523438 8.5625 26.253906 8.828125 25.925781 8.828125 Z M 25.925781 8.828125 "/> <path style=" stroke:none;fill-rule:evenodd;fill:rgb(93.72549%,26.666667%,26.666667%);fill-opacity:1;" d="M 28.472656 8.828125 C 28.136719 8.828125 27.871094 8.5625 27.871094 8.230469 L 27.871094 6.363281 C 27.871094 5.570312 29.070312 5.570312 29.070312 6.363281 L 29.070312 8.230469 C 29.070312 8.5625 28.804688 8.828125 28.472656 8.828125 Z M 28.472656 8.828125 "/> <path style=" stroke:none;fill-rule:evenodd;fill:rgb(93.72549%,26.666667%,26.666667%);fill-opacity:1;" d="M 33.238281 11.730469 L 31.371094 11.730469 C 30.582031 11.730469 30.582031 10.53125 31.371094 10.53125 L 33.238281 10.53125 C 34.027344 10.53125 34.027344 11.730469 33.238281 11.730469 Z M 33.238281 11.730469 "/> <path style=" stroke:none;fill-rule:evenodd;fill:rgb(93.72549%,26.666667%,26.666667%);fill-opacity:1;" d="M 33.238281 14.28125 L 31.371094 14.28125 C 30.582031 14.28125 30.582031 13.078125 31.371094 13.078125 L 33.238281 13.078125 C 34.027344 13.078125 34.027344 14.28125 33.238281 14.28125 Z M 33.238281 14.28125 "/> <path style=" stroke:none;fill-rule:evenodd;fill:rgb(93.72549%,26.666667%,26.666667%);fill-opacity:1;" d="M 33.238281 16.824219 L 31.371094 16.824219 C 30.582031 16.824219 30.582031 15.625 31.371094 15.625 L 33.238281 15.625 C 34.027344 15.625 34.027344 16.824219 33.238281 16.824219 Z M 33.238281 16.824219 "/> <path style=" stroke:none;fill-rule:evenodd;fill:rgb(93.72549%,26.666667%,26.666667%);fill-opacity:1;" d="M 28.472656 21.589844 C 28.136719 21.589844 27.871094 21.324219 27.871094 20.992188 L 27.871094 19.125 C 27.871094 18.335938 29.070312 18.335938 29.070312 19.125 L 29.070312 20.992188 C 29.070312 21.320312 28.804688 21.589844 28.472656 21.589844 Z M 28.472656 21.589844 "/> <path style=" stroke:none;fill-rule:evenodd;fill:rgb(93.72549%,26.666667%,26.666667%);fill-opacity:1;" d="M 25.925781 21.589844 C 25.589844 21.589844 25.324219 21.324219 25.324219 20.992188 L 25.324219 19.125 C 25.324219 18.335938 26.523438 18.335938 26.523438 19.125 L 26.523438 20.992188 C 26.523438 21.320312 26.253906 21.589844 25.925781 21.589844 Z M 25.925781 21.589844 "/> <path style=" stroke:none;fill-rule:evenodd;fill:rgb(93.72549%,26.666667%,26.666667%);fill-opacity:1;" d="M 23.378906 21.589844 C 23.046875 21.589844 22.777344 21.324219 22.777344 20.992188 L 22.777344 19.125 C 22.777344 18.335938 23.980469 18.335938 23.980469 19.125 L 23.980469 20.992188 C 23.980469 21.320312 23.707031 21.589844 23.378906 21.589844 Z M 23.378906 21.589844 "/> <path style=" stroke:none;fill-rule:evenodd;fill:rgb(93.72549%,26.666667%,26.666667%);fill-opacity:1;" d="M 20.476562 16.824219 L 18.609375 16.824219 C 17.816406 16.824219 17.816406 15.625 18.609375 15.625 L 20.476562 15.625 C 21.265625 15.625 21.265625 16.824219 20.476562 16.824219 Z M 20.476562 16.824219 "/> <path style=" stroke:none;fill-rule:evenodd;fill:rgb(93.72549%,26.666667%,26.666667%);fill-opacity:1;" d="M 20.476562 14.28125 L 18.609375 14.28125 C 17.816406 14.28125 17.816406 13.078125 18.609375 13.078125 L 20.476562 13.078125 C 21.265625 13.078125 21.265625 14.28125 20.476562 14.28125 Z M 20.476562 14.28125 "/> <path style=" stroke:none;fill-rule:evenodd;fill:rgb(93.72549%,26.666667%,26.666667%);fill-opacity:1;" d="M 20.476562 11.730469 L 18.609375 11.730469 C 17.816406 11.730469 17.816406 10.53125 18.609375 10.53125 L 20.476562 10.53125 C 21.265625 10.53125 21.265625 11.730469 20.476562 11.730469 Z M 20.476562 11.730469 "/> <path style=" stroke:none;fill-rule:evenodd;fill:rgb(93.72549%,26.666667%,26.666667%);fill-opacity:1;" d="M 46.175781 27.273438 L 42.621094 27.273438 C 42.292969 27.273438 42.019531 27.003906 42.019531 26.675781 L 42.019531 6.425781 C 42.019531 6.09375 42.292969 5.824219 42.621094 5.824219 L 46.175781 5.824219 C 46.503906 5.824219 46.773438 6.09375 46.773438 6.425781 L 46.773438 26.675781 C 46.773438 27.007812 46.507812 27.273438 46.175781 27.273438 Z M 43.226562 26.074219 L 45.578125 26.074219 L 45.578125 7.023438 L 43.226562 7.023438 Z M 43.226562 26.074219 "/> <path style=" stroke:none;fill-rule:evenodd;fill:rgb(93.72549%,26.666667%,26.666667%);fill-opacity:1;" d="M 42.621094 8.625 C 41.710938 8.625 40.628906 8.828125 40.628906 8.023438 C 40.628906 7.222656 41.710938 7.425781 42.621094 7.425781 C 43.410156 7.425781 43.414062 8.625 42.621094 8.625 Z M 42.621094 8.625 "/> <path style=" stroke:none;fill-rule:evenodd;fill:rgb(93.72549%,26.666667%,26.666667%);fill-opacity:1;" d="M 42.621094 11.46875 C 41.710938 11.46875 40.628906 11.667969 40.628906 10.867188 C 40.628906 10.066406 41.710938 10.265625 42.621094 10.265625 C 43.410156 10.265625 43.414062 11.46875 42.621094 11.46875 Z M 42.621094 11.46875 "/> <path style=" stroke:none;fill-rule:evenodd;fill:rgb(93.72549%,26.666667%,26.666667%);fill-opacity:1;" d="M 42.621094 14.308594 C 41.710938 14.308594 40.628906 14.511719 40.628906 13.707031 C 40.628906 12.90625 41.710938 13.109375 42.621094 13.109375 C 43.410156 13.109375 43.414062 14.308594 42.621094 14.308594 Z M 42.621094 14.308594 "/> <path style=" stroke:none;fill-rule:evenodd;fill:rgb(93.72549%,26.666667%,26.666667%);fill-opacity:1;" d="M 42.621094 17.148438 C 41.710938 17.148438 40.628906 17.351562 40.628906 16.550781 C 40.628906 15.746094 41.710938 15.949219 42.621094 15.949219 C 43.410156 15.949219 43.414062 17.148438 42.621094 17.148438 Z M 42.621094 17.148438 "/> <path style=" stroke:none;fill-rule:evenodd;fill:rgb(93.72549%,26.666667%,26.666667%);fill-opacity:1;" d="M 42.621094 19.992188 C 41.710938 19.992188 40.628906 20.195312 40.628906 19.390625 C 40.628906 18.589844 41.710938 18.792969 42.621094 18.792969 C 43.410156 18.792969 43.414062 19.992188 42.621094 19.992188 Z M 42.621094 19.992188 "/> <path style=" stroke:none;fill-rule:evenodd;fill:rgb(93.72549%,26.666667%,26.666667%);fill-opacity:1;" d="M 42.621094 22.839844 C 41.710938 22.839844 40.628906 23.039062 40.628906 22.238281 C 40.628906 21.433594 41.710938 21.636719 42.621094 21.636719 C 43.410156 21.636719 43.414062 22.839844 42.621094 22.839844 Z M 42.621094 22.839844 "/> <path style=" stroke:none;fill-rule:evenodd;fill:rgb(93.72549%,26.666667%,26.666667%);fill-opacity:1;" d="M 42.621094 25.679688 C 41.71875 25.679688 40.628906 25.878906 40.628906 25.078125 C 40.628906 24.277344 41.71875 24.480469 42.621094 24.480469 C 43.410156 24.480469 43.414062 25.679688 42.621094 25.679688 Z M 42.621094 25.679688 "/> <path style=" stroke:none;fill-rule:evenodd;fill:rgb(93.72549%,26.666667%,26.666667%);fill-opacity:1;" d="M 47.566406 8.625 C 46.65625 8.625 45.574219 8.828125 45.574219 8.023438 C 45.574219 7.222656 46.65625 7.425781 47.566406 7.425781 C 48.355469 7.425781 48.359375 8.625 47.566406 8.625 Z M 47.566406 8.625 "/> <path style=" stroke:none;fill-rule:evenodd;fill:rgb(93.72549%,26.666667%,26.666667%);fill-opacity:1;" d="M 47.566406 11.46875 C 46.65625 11.46875 45.574219 11.667969 45.574219 10.867188 C 45.574219 10.066406 46.65625 10.265625 47.566406 10.265625 C 48.355469 10.265625 48.359375 11.46875 47.566406 11.46875 Z M 47.566406 11.46875 "/> <path style=" stroke:none;fill-rule:evenodd;fill:rgb(93.72549%,26.666667%,26.666667%);fill-opacity:1;" d="M 47.566406 14.308594 C 46.65625 14.308594 45.574219 14.511719 45.574219 13.707031 C 45.574219 12.90625 46.65625 13.109375 47.566406 13.109375 C 48.355469 13.109375 48.359375 14.308594 47.566406 14.308594 Z M 47.566406 14.308594 "/> <path style=" stroke:none;fill-rule:evenodd;fill:rgb(93.72549%,26.666667%,26.666667%);fill-opacity:1;" d="M 47.566406 17.148438 C 46.65625 17.148438 45.574219 17.351562 45.574219 16.550781 C 45.574219 15.746094 46.65625 15.949219 47.566406 15.949219 C 48.355469 15.949219 48.359375 17.148438 47.566406 17.148438 Z M 47.566406 17.148438 "/> <path style=" stroke:none;fill-rule:evenodd;fill:rgb(93.72549%,26.666667%,26.666667%);fill-opacity:1;" d="M 47.566406 19.992188 C 46.65625 19.992188 45.574219 20.195312 45.574219 19.390625 C 45.574219 18.589844 46.65625 18.792969 47.566406 18.792969 C 48.355469 18.792969 48.359375 19.992188 47.566406 19.992188 Z M 47.566406 19.992188 "/> <path style=" stroke:none;fill-rule:evenodd;fill:rgb(93.72549%,26.666667%,26.666667%);fill-opacity:1;" d="M 47.566406 22.839844 C 46.65625 22.839844 45.574219 23.039062 45.574219 22.238281 C 45.574219 21.4375 46.65625 21.636719 47.566406 21.636719 C 48.355469 21.636719 48.359375 22.839844 47.566406 22.839844 Z M 47.566406 22.839844 "/> <path style=" stroke:none;fill-rule:evenodd;fill:rgb(93.72549%,26.666667%,26.666667%);fill-opacity:1;" d="M 47.566406 25.679688 C 46.664062 25.679688 45.574219 25.878906 45.574219 25.078125 C 45.574219 24.277344 46.664062 24.480469 47.566406 24.480469 C 48.355469 24.480469 48.359375 25.679688 47.566406 25.679688 Z M 47.566406 25.679688 "/> <path style=" stroke:none;fill-rule:evenodd;fill:rgb(93.72549%,26.666667%,26.666667%);fill-opacity:1;" d="M 40.789062 48.570312 C 40.457031 48.570312 40.1875 48.300781 40.1875 47.96875 L 40.1875 33.726562 C 40.1875 33.394531 40.457031 33.125 40.789062 33.125 L 51.207031 33.125 C 51.996094 33.125 51.996094 34.324219 51.207031 34.324219 L 41.386719 34.324219 L 41.386719 47.972656 C 41.386719 48.304688 41.117188 48.570312 40.789062 48.570312 Z M 40.789062 48.570312 "/> <path style=" stroke:none;fill-rule:evenodd;fill:rgb(93.72549%,26.666667%,26.666667%);fill-opacity:1;" d="M 23.164062 51.199219 L 19.671875 51.199219 C 19.335938 51.199219 19.070312 50.929688 19.070312 50.601562 L 19.070312 47.96875 C 19.070312 47.640625 19.335938 47.371094 19.671875 47.371094 L 23.164062 47.371094 C 23.496094 47.371094 23.761719 47.640625 23.761719 47.96875 L 23.761719 50.601562 C 23.761719 50.929688 23.492188 51.199219 23.164062 51.199219 Z M 20.269531 50 L 22.5625 50 L 22.5625 48.570312 L 20.269531 48.570312 Z M 20.269531 50 "/> <path style=" stroke:none;fill-rule:evenodd;fill:rgb(93.72549%,26.666667%,26.666667%);fill-opacity:1;" d="M 45.632812 51.199219 L 42.140625 51.199219 C 41.8125 51.199219 41.542969 50.929688 41.542969 50.601562 L 41.542969 47.96875 C 41.542969 47.640625 41.8125 47.371094 42.140625 47.371094 L 45.632812 47.371094 C 45.960938 47.371094 46.234375 47.640625 46.234375 47.96875 L 46.234375 50.601562 C 46.234375 50.929688 45.96875 51.199219 45.632812 51.199219 Z M 42.742188 50 L 45.035156 50 L 45.035156 48.570312 L 42.742188 48.570312 Z M 42.742188 50 "/> <path style=" stroke:none;fill-rule:evenodd;fill:rgb(93.72549%,26.666667%,26.666667%);fill-opacity:1;" d="M 47.746094 38.546875 L 44.253906 38.546875 C 43.464844 38.546875 43.464844 37.34375 44.253906 37.34375 L 47.746094 37.34375 C 48.535156 37.34375 48.535156 38.546875 47.746094 38.546875 Z M 47.746094 38.546875 "/> <path style=" stroke:none;fill-rule:evenodd;fill:rgb(93.72549%,26.666667%,26.666667%);fill-opacity:1;" d="M 47.746094 41.445312 L 44.253906 41.445312 C 43.464844 41.445312 43.464844 40.246094 44.253906 40.246094 L 47.746094 40.246094 C 48.535156 40.246094 48.535156 41.445312 47.746094 41.445312 Z M 47.746094 41.445312 "/> <path style=" stroke:none;fill-rule:evenodd;fill:rgb(93.72549%,26.666667%,26.666667%);fill-opacity:1;" d="M 47.746094 44.351562 L 44.253906 44.351562 C 43.464844 44.351562 43.464844 43.148438 44.253906 43.148438 L 47.746094 43.148438 C 48.535156 43.148438 48.535156 44.351562 47.746094 44.351562 Z M 47.746094 44.351562 "/> <path style=" stroke:none;fill-rule:evenodd;fill:rgb(93.72549%,26.666667%,26.666667%);fill-opacity:1;" d="M 31.359375 39.808594 C 31.023438 39.808594 30.757812 39.535156 30.757812 39.207031 L 30.757812 31.769531 C 30.757812 30.980469 31.957031 30.980469 31.957031 31.769531 L 31.957031 39.207031 C 31.957031 39.542969 31.691406 39.808594 31.359375 39.808594 Z M 31.359375 39.808594 "/> </g> </svg>
