<svg xmlns="http://www.w3.org/2000/svg" width="64" height="px" viewBox="0 0 64 64"><path d="M55.18 60.422c-.266 0-.52-.106-.711-.293l-29.7-29.7a1.005 1.005 0 0 1-.296-.71c0-.266.109-.52.297-.707L29 24.77c.188-.188.445-.297.71-.297.267 0 .52.109.712.297l29.7 29.699c.386.39.386 1.02 0 1.41l-4.25 4.25c-.184.184-.434.289-.692.293ZM26.89 29.719 55.18 58 58 55.18 29.719 26.89Zm0 0" style="stroke:none;fill-rule:nonzero;fill:#ef4444;fill-opacity:1"/><path d="M25.48 30.719a.988.988 0 0 1-.71-.29l-7.07-7.07a1.005 1.005 0 0 1-.298-.71c0-.266.11-.52.297-.708l4.242-4.242c.188-.187.442-.297.707-.297.27 0 .524.11.711.297l7.07 7.07a.996.996 0 0 1 0 1.422l-4.238 4.239a.995.995 0 0 1-.71.289Zm-5.66-8.07 5.66 5.66 2.829-2.829-5.66-5.66ZM30 10h-4c-.55 0-1-.45-1-1s.45-1 1-1h4c.55 0 1 .45 1 1s-.45 1-1 1Zm0 0" style="stroke:none;fill-rule:nonzero;fill:#ef4444;fill-opacity:1"/><path d="M28 12c-.55 0-1-.45-1-1V7c0-.55.45-1 1-1s1 .45 1 1v4c0 .55-.45 1-1 1ZM15 13H9c-.55 0-1-.45-1-1s.45-1 1-1h6c.55 0 1 .45 1 1s-.45 1-1 1Zm0 0" style="stroke:none;fill-rule:nonzero;fill:#ef4444;fill-opacity:1"/><path d="M12 16c-.55 0-1-.45-1-1V9c0-.55.45-1 1-1s1 .45 1 1v6c0 .55-.45 1-1 1ZM11 29H7c-.55 0-1-.45-1-1s.45-1 1-1h4c.55 0 1 .45 1 1s-.45 1-1 1Zm0 0" style="stroke:none;fill-rule:nonzero;fill:#ef4444;fill-opacity:1"/><path d="M9 31c-.55 0-1-.45-1-1v-4c0-.55.45-1 1-1s1 .45 1 1v4c0 .55-.45 1-1 1Zm0 0" style="stroke:none;fill-rule:nonzero;fill:#ef4444;fill-opacity:1"/></svg>