<svg xmlns="http://www.w3.org/2000/svg" width="64" height="64"><path d="M50.266 48.57H13.57a2.223 2.223 0 0 1-2.218-2.222V28.039a1.496 1.496 0 0 1-1.305-1.477V19.93c0-.758.57-1.383 1.305-1.477v-2.726a1.496 1.496 0 0 1-1.305-1.477V7.613c0-.761.57-1.383 1.305-1.476V2.219A2.22 2.22 0 0 1 13.57 0h36.696c1.226 0 2.222.996 2.222 2.219v5.844c.723.234 1.465.312 1.465.906v15.515c0 .594-.73.672-1.465.907v20.953c0 1.23-.996 2.226-2.222 2.226Zm-38.73-28.93a.29.29 0 0 0-.29.29v6.633c0 .605 1.3-.09 1.3.886v18.903c0 .562.458 1.02 1.02 1.02h36.696c.562 0 1.023-.458 1.023-1.02V24.957c0-.594.73-.672 1.465-.906V9.41c-.723-.235-1.465-.317-1.465-.911V2.219c0-.563-.46-1.02-1.023-1.02H13.57a1.02 1.02 0 0 0-1.02 1.02v4.5c0 .98-1.3.285-1.3.89v6.633c0 .606 1.3-.094 1.3.887v3.91c0 .66-.675.598-1.019.598v.004Zm0 0" style="stroke:none;fill-rule:evenodd;fill:#ef4444;fill-opacity:1"/><path d="M34.816 44.488h-1.62c-.727 0-.524-1.031-1.313-1.031h-4.59c-.79 0-.586 1.031-1.313 1.031h-4.73a.601.601 0 0 1-.586-.472l-.394-1.758h-3.106a.599.599 0 0 1-.602-.598V28.79a.6.6 0 0 1 .602-.602h17.652c.329 0 .602.269.602.601v15.098a.604.604 0 0 1-.602.601Zm-1.25-1.199h.649V29.387h-16.45v11.672h2.989c.281 0 .527.195.59.468l.39 1.762h3.871c.38-.64 1.008-1.035 1.688-1.035h4.586c.68 0 1.308.394 1.687 1.035Zm0 0" style="stroke:none;fill-rule:evenodd;fill:#ef4444;fill-opacity:1"/><path d="M17.168 44.824a.599.599 0 0 1-.602-.597V27.355h-1.605c-.79 0-.79-1.203 0-1.203h2.207c.332 0 .598.274.598.602v17.473a.598.598 0 0 1-.598.597ZM24.05 40.203a4.72 4.72 0 0 1-4.714-4.715 4.72 4.72 0 0 1 4.715-4.715 4.722 4.722 0 0 1 4.71 4.715 4.717 4.717 0 0 1-4.71 4.715Zm0-8.226a3.518 3.518 0 0 0-3.515 3.511 3.515 3.515 0 0 0 7.031 0 3.518 3.518 0 0 0-3.515-3.511Zm0 0" style="stroke:none;fill-rule:evenodd;fill:#ef4444;fill-opacity:1"/><path d="M24.05 37.293c-2.37 0-2.378-3.61 0-3.61 2.376 0 2.376 3.61 0 3.61Zm0-2.406c-.796 0-.792 1.207 0 1.207.794 0 .798-1.207 0-1.207Zm0 0" style="stroke:none;fill-rule:evenodd;fill:#ef4444;fill-opacity:1"/><path d="M23.738 34.93a.602.602 0 0 1-.504-.274c-1.808-2.836.414-4.562 1-3.574a.603.603 0 0 1-.199.816c-.094.063-.773.594.203 2.106a.601.601 0 0 1-.5.926ZM25.215 35.773c-.598 0-.828-.78-.328-1.101 2.8-1.805 4.574.406 3.574 1a.6.6 0 0 1-.816-.2c-.063-.093-.598-.773-2.106.204a.567.567 0 0 1-.324.101ZM24.383 40.191a.6.6 0 0 1-.317-1.109c.09-.062.77-.59-.203-2.102-.43-.667.578-1.316 1.008-.652 1.559 2.418.129 3.863-.488 3.863ZM21.172 37.02c-1.375 0-2.336-1.239-1.531-1.711a.596.596 0 0 1 .816.199c.063.09.598.77 2.105-.203.665-.43 1.313.582.649 1.008-.73.464-1.414.707-2.04.707ZM29.672 19.727H22.18a2.309 2.309 0 0 1-2.305-2.305V9.934a2.309 2.309 0 0 1 2.305-2.305h7.492a2.306 2.306 0 0 1 2.305 2.305v7.492a2.313 2.313 0 0 1-2.305 2.3ZM22.18 8.828c-.61 0-1.106.496-1.106 1.106v7.492c0 .61.496 1.105 1.106 1.105h7.492c.61 0 1.105-.496 1.105-1.105V9.934c0-.61-.496-1.106-1.105-1.106Zm0 0" style="stroke:none;fill-rule:evenodd;fill:#ef4444;fill-opacity:1"/><path d="M27.555 16.645h-3.258a1.343 1.343 0 0 1-1.344-1.34v-3.258c0-.738.602-1.344 1.344-1.344h3.258c.738 0 1.34.602 1.34 1.344v3.258a1.342 1.342 0 0 1-1.34 1.34Zm-3.258-4.735a.143.143 0 0 0-.14.14v3.259c0 .074.062.14.14.14h3.258c.074 0 .14-.062.14-.14V12.05a.143.143 0 0 0-.14-.14ZM23.379 8.828a.598.598 0 0 1-.602-.598V6.363c0-.793 1.203-.793 1.203 0V8.23a.601.601 0 0 1-.601.598ZM25.926 8.828a.596.596 0 0 1-.602-.598V6.363c0-.793 1.2-.793 1.2 0V8.23c0 .332-.27.598-.598.598ZM28.473 8.828a.596.596 0 0 1-.602-.598V6.363c0-.793 1.2-.793 1.2 0V8.23a.595.595 0 0 1-.598.598ZM33.238 11.73h-1.867c-.789 0-.789-1.199 0-1.199h1.867c.79 0 .79 1.2 0 1.2ZM33.238 14.281h-1.867c-.789 0-.789-1.203 0-1.203h1.867c.79 0 .79 1.203 0 1.203ZM33.238 16.824h-1.867c-.789 0-.789-1.199 0-1.199h1.867c.79 0 .79 1.2 0 1.2ZM28.473 21.59a.596.596 0 0 1-.602-.598v-1.867c0-.79 1.2-.79 1.2 0v1.867a.598.598 0 0 1-.598.598ZM25.926 21.59a.596.596 0 0 1-.602-.598v-1.867c0-.79 1.2-.79 1.2 0v1.867a.6.6 0 0 1-.598.598ZM23.379 21.59a.598.598 0 0 1-.602-.598v-1.867c0-.79 1.203-.79 1.203 0v1.867a.604.604 0 0 1-.601.598ZM20.477 16.824h-1.868c-.793 0-.793-1.199 0-1.199h1.868c.789 0 .789 1.2 0 1.2ZM20.477 14.281h-1.868c-.793 0-.793-1.203 0-1.203h1.868c.789 0 .789 1.203 0 1.203ZM20.477 11.73h-1.868c-.793 0-.793-1.199 0-1.199h1.868c.789 0 .789 1.2 0 1.2ZM46.176 27.273H42.62a.604.604 0 0 1-.601-.597V6.426c0-.332.273-.602.601-.602h3.555c.328 0 .597.27.597.602v20.25a.595.595 0 0 1-.597.597Zm-2.95-1.199h2.352V7.024h-2.351Zm0 0" style="stroke:none;fill-rule:evenodd;fill:#ef4444;fill-opacity:1"/><path d="M42.621 8.625c-.91 0-1.992.203-1.992-.602 0-.8 1.082-.597 1.992-.597.79 0 .793 1.199 0 1.199ZM42.621 11.469c-.91 0-1.992.199-1.992-.602 0-.8 1.082-.601 1.992-.601.79 0 .793 1.203 0 1.203ZM42.621 14.309c-.91 0-1.992.203-1.992-.602 0-.8 1.082-.598 1.992-.598.79 0 .793 1.2 0 1.2ZM42.621 17.148c-.91 0-1.992.204-1.992-.597 0-.805 1.082-.602 1.992-.602.79 0 .793 1.2 0 1.2ZM42.621 19.992c-.91 0-1.992.203-1.992-.601 0-.801 1.082-.598 1.992-.598.79 0 .793 1.2 0 1.2ZM42.621 22.84c-.91 0-1.992.2-1.992-.602 0-.804 1.082-.601 1.992-.601.79 0 .793 1.203 0 1.203ZM42.621 25.68c-.902 0-1.992.199-1.992-.602 0-.8 1.09-.598 1.992-.598.79 0 .793 1.2 0 1.2ZM47.566 8.625c-.91 0-1.992.203-1.992-.602 0-.8 1.082-.597 1.992-.597.79 0 .793 1.199 0 1.199ZM47.566 11.469c-.91 0-1.992.199-1.992-.602 0-.8 1.082-.601 1.992-.601.79 0 .793 1.203 0 1.203ZM47.566 14.309c-.91 0-1.992.203-1.992-.602 0-.8 1.082-.598 1.992-.598.79 0 .793 1.2 0 1.2ZM47.566 17.148c-.91 0-1.992.204-1.992-.597 0-.805 1.082-.602 1.992-.602.79 0 .793 1.2 0 1.2ZM47.566 19.992c-.91 0-1.992.203-1.992-.601 0-.801 1.082-.598 1.992-.598.79 0 .793 1.2 0 1.2ZM47.566 22.84c-.91 0-1.992.2-1.992-.602 0-.8 1.082-.601 1.992-.601.79 0 .793 1.203 0 1.203ZM47.566 25.68c-.902 0-1.992.199-1.992-.602 0-.8 1.09-.598 1.992-.598.79 0 .793 1.2 0 1.2ZM40.79 48.57a.602.602 0 0 1-.602-.601V33.727c0-.332.269-.602.601-.602h10.418c.79 0 .79 1.2 0 1.2h-9.82v13.648c0 .332-.27.597-.598.597ZM23.164 51.2h-3.492a.599.599 0 0 1-.602-.598v-2.633c0-.328.266-.598.602-.598h3.492c.332 0 .598.27.598.598v2.633a.6.6 0 0 1-.598.597ZM20.27 50h2.293v-1.43H20.27Zm0 0" style="stroke:none;fill-rule:evenodd;fill:#ef4444;fill-opacity:1"/><path d="M45.633 51.2H42.14a.6.6 0 0 1-.598-.598v-2.633a.6.6 0 0 1 .598-.598h3.492c.328 0 .601.27.601.598v2.633a.599.599 0 0 1-.601.597Zm-2.89-1.2h2.292v-1.43h-2.293ZM47.746 38.547h-3.492c-.79 0-.79-1.203 0-1.203h3.492c.79 0 .79 1.203 0 1.203ZM47.746 41.445h-3.492c-.79 0-.79-1.199 0-1.199h3.492c.79 0 .79 1.2 0 1.2ZM47.746 44.352h-3.492c-.79 0-.79-1.204 0-1.204h3.492c.79 0 .79 1.204 0 1.204ZM31.36 39.809a.602.602 0 0 1-.602-.602V31.77c0-.79 1.199-.79 1.199 0v7.437a.596.596 0 0 1-.598.602Zm0 0" style="stroke:none;fill-rule:evenodd;fill:#ef4444;fill-opacity:1"/></svg>