<svg xmlns="http://www.w3.org/2000/svg" width="64" height="64"><path d="M56.46 40.93h-8.933a.57.57 0 0 1-.57-.567l.004-.312a1.13 1.13 0 0 0-.344-.82 1.143 1.143 0 0 0-.82-.344c-.64 0-1.164.523-1.164 1.164v.312a.567.567 0 0 1-.567.567H33.73a.567.567 0 0 1-.566-.567v-.312a1.13 1.13 0 0 0-.344-.82 1.143 1.143 0 0 0-.82-.344c-.64 0-1.164.523-1.164 1.164v.312a.567.567 0 0 1-.566.567H19.934a.567.567 0 0 1-.567-.567v-.312a1.13 1.13 0 0 0-.344-.82 1.143 1.143 0 0 0-.82-.344c-.64 0-1.164.523-1.164 1.164v.312a.567.567 0 0 1-.566.567H7.539a.568.568 0 0 1-.57-.567V29.191c0-.312.254-.57.57-.57h.309a1.158 1.158 0 0 0 1.164-1.16c0-.645-.52-1.164-1.164-1.164h-.309a.568.568 0 0 1-.57-.57v-10.59c0-.317.254-.57.57-.57h48.922c.316 0 .57.253.57.57v10.59c0 .316-.254.57-.57.57h-.313a1.158 1.158 0 0 0-1.16 1.164c0 .64.52 1.16 1.16 1.16h.313c.316 0 .57.258.57.57v11.172a.568.568 0 0 1-.57.567Zm-8.378-1.137h7.813V29.746a2.308 2.308 0 0 1-2.047-2.289c0-.613.242-1.191.675-1.625a2.253 2.253 0 0 1 1.372-.66v-9.469H8.105v9.469a2.304 2.304 0 0 1 1.372 3.914 2.296 2.296 0 0 1-1.372.66v10.047h7.813a2.307 2.307 0 0 1 2.285-2.047 2.29 2.29 0 0 1 1.629.676c.371.371.602.851.656 1.367h9.227A2.304 2.304 0 0 1 32 37.746c.613 0 1.191.238 1.625.676.375.371.605.851.66 1.367h9.227a2.304 2.304 0 0 1 2.285-2.043c.613 0 1.191.238 1.629.676.37.371.601.851.66 1.371Zm6.844-13.559Zm0 0" style="stroke:none;fill-rule:nonzero;fill:#ef4444;fill-opacity:1"/><path d="M54.242 15.703a.571.571 0 0 1-.57-.57v-3.727H10.328v3.727a.568.568 0 1 1-1.137 0V10.84c0-.317.254-.57.567-.57h44.484c.313 0 .57.253.57.57v4.293a.574.574 0 0 1-.57.57Zm0 0" style="stroke:none;fill-rule:nonzero;fill:#ef4444;fill-opacity:1"/><path d="M15.621 13.305a.571.571 0 0 1-.57-.57V10.84a.568.568 0 1 1 1.136 0v1.894a.57.57 0 0 1-.566.57ZM21.078 13.305a.57.57 0 0 1-.566-.57V10.84a.568.568 0 1 1 1.136 0v1.894c0 .313-.253.57-.57.57ZM26.54 13.305a.57.57 0 0 1-.567-.57V10.84a.568.568 0 1 1 1.136 0v1.894c0 .313-.254.57-.57.57ZM32 13.305a.574.574 0 0 1-.57-.57V10.84a.571.571 0 0 1 1.14 0v1.894c0 .313-.258.57-.57.57ZM37.46 13.305a.571.571 0 0 1-.57-.57V10.84a.568.568 0 1 1 1.137 0v1.894a.57.57 0 0 1-.566.57ZM42.922 13.305a.571.571 0 0 1-.57-.57V10.84a.568.568 0 1 1 1.136 0v1.894a.57.57 0 0 1-.566.57ZM48.379 13.305a.57.57 0 0 1-.566-.57V10.84a.568.568 0 1 1 1.136 0v1.894c0 .313-.254.57-.57.57ZM21.809 35.672h-7.207a.571.571 0 0 1-.57-.57V20.395c0-.317.253-.57.57-.57h7.207c.312 0 .566.253.566.57v14.707a.57.57 0 0 1-.566.57Zm-6.641-1.14h6.07V20.964h-6.07Zm0 0" style="stroke:none;fill-rule:nonzero;fill:#ef4444;fill-opacity:1"/><path d="M23.773 23.293H21.81a.568.568 0 1 1 0-1.137h1.964a.568.568 0 1 1 0 1.137ZM14.602 23.293h-2.114a.571.571 0 0 1-.57-.57.57.57 0 0 1 .57-.567h2.114a.568.568 0 0 1 0 1.137ZM23.773 28.316H21.81a.568.568 0 1 1 0-1.136h1.964a.568.568 0 1 1 0 1.137ZM14.602 28.316h-2.114a.57.57 0 0 1-.57-.566c0-.316.258-.57.57-.57h2.114a.568.568 0 0 1 0 1.136ZM23.773 33.34H21.81a.568.568 0 1 1 0-1.137h1.964a.568.568 0 1 1 0 1.137ZM14.602 33.34h-2.114a.571.571 0 0 1-.57-.57.57.57 0 0 1 .57-.567h2.114a.568.568 0 0 1 0 1.137ZM35.676 35.672h-7.207a.574.574 0 0 1-.57-.57V20.395c0-.317.257-.57.57-.57h7.207c.316 0 .57.253.57.57v14.707c0 .312-.254.57-.57.57Zm-6.637-1.14h6.07V20.964h-6.07Zm0 0" style="stroke:none;fill-rule:nonzero;fill:#ef4444;fill-opacity:1"/><path d="M37.64 23.293h-1.964a.571.571 0 0 1-.57-.57.57.57 0 0 1 .57-.567h1.965a.568.568 0 1 1 0 1.137ZM28.469 23.293h-2.11a.568.568 0 1 1 0-1.137h2.11a.568.568 0 1 1 0 1.137ZM37.64 28.316h-1.964a.57.57 0 0 1-.57-.566c0-.316.257-.57.57-.57h1.965a.568.568 0 1 1 0 1.136ZM28.469 28.316h-2.11a.568.568 0 1 1 0-1.136h2.11a.568.568 0 1 1 0 1.136ZM37.64 33.34h-1.964a.571.571 0 0 1-.57-.57.57.57 0 0 1 .57-.567h1.965a.568.568 0 1 1 0 1.137ZM28.469 33.34h-2.11a.568.568 0 1 1 0-1.137h2.11a.568.568 0 1 1 0 1.137ZM49.547 35.672H42.34a.571.571 0 0 1-.57-.57V20.395c0-.317.253-.57.57-.57h7.207c.312 0 .566.253.566.57v14.707a.57.57 0 0 1-.566.57Zm-6.64-1.14h6.07V20.964h-6.07Zm0 0" style="stroke:none;fill-rule:nonzero;fill:#ef4444;fill-opacity:1"/><path d="M51.512 23.293h-1.965a.568.568 0 1 1 0-1.137h1.965a.57.57 0 0 1 .57.567c0 .316-.258.57-.57.57ZM42.336 23.293h-2.11a.568.568 0 1 1 0-1.137h2.11a.568.568 0 1 1 0 1.137ZM51.512 28.316h-1.965a.568.568 0 1 1 0-1.136h1.965c.312 0 .57.254.57.57a.57.57 0 0 1-.57.566ZM42.336 28.316h-2.11a.568.568 0 1 1 0-1.136h2.11a.568.568 0 1 1 0 1.136ZM51.512 33.34h-1.965a.568.568 0 1 1 0-1.137h1.965a.57.57 0 0 1 .57.567c0 .316-.258.57-.57.57ZM42.336 33.34h-2.11a.568.568 0 1 1 0-1.137h2.11a.568.568 0 1 1 0 1.137Zm0 0" style="stroke:none;fill-rule:nonzero;fill:#ef4444;fill-opacity:1"/></svg>