<svg xmlns="http://www.w3.org/2000/svg" width="64" height="px" viewBox="0 0 64 64"><path d="M58.559 35.84H56.96c-.3-9.848-5.934-18.086-14.332-21.762H53.12v1.602a.96.96 0 1 0 1.918 0v-5.121a.96.96 0 0 0-1.918 0v1.601H35.84V10.56a.96.96 0 0 0-.961-.957h-5.117a.96.96 0 0 0-.961.957v1.601H11.52V10.56a.96.96 0 0 0-1.918 0v5.12a.96.96 0 1 0 1.918 0v-1.6h10.457A24.584 24.584 0 0 0 7.039 36.48H5.441a.96.96 0 0 0-.96.961v5.118c0 .53.43.96.96.96h5.118a.96.96 0 0 0 .96-.96V37.44a.96.96 0 0 0-.96-.96H8.96c.133-11.34 8.59-20.856 19.84-22.313v1.512c0 .53.43.96.96.96h1.65l-9.966 25.286a.98.98 0 0 0 0 .683l3.575 9.723-.06 6.223a.96.96 0 0 0 .278.683c.18.18.426.282.684.282h12.156a.96.96 0 0 0 .961-.961v-6.196l4.36-9.695a.952.952 0 0 0 0-.746L33.23 16.64h1.649a.96.96 0 0 0 .96-.961v-1.512c10.88 1.492 18.81 10.434 19.2 21.672h-1.598a.96.96 0 0 0-.96.96v5.122c0 .527.43.957.96.957h5.118a.96.96 0 0 0 .96-.957V36.8a.96.96 0 0 0-.96-.961ZM9.602 41.602H6.398v-3.204h3.204Zm17.277 16 .039-4.48h10.203v4.48Zm10.582-6.403H26.645l-3.278-8.906 7.992-20.285v17.351a.96.96 0 1 0 1.922 0V21.914l8.196 20.324Zm-3.54-36.48H30.72v-3.2h3.203Zm23.68 26.242h-3.203v-3.2h3.204Zm0 0" style="stroke:none;fill-rule:nonzero;fill:#ef4444;fill-opacity:1"/></svg>