<svg xmlns="http://www.w3.org/2000/svg" width="64" height="64"><path d="M49.266 50.633H14.734a1.666 1.666 0 0 1-1.664-1.668V2.235c0-.919.746-1.665 1.664-1.665h34.532c.918 0 1.664.746 1.664 1.664v46.73c0 .919-.746 1.669-1.664 1.669ZM14.734 1.707a.53.53 0 0 0-.527.527v46.73c0 .294.238.528.527.528h34.532c.289 0 .527-.234.527-.527V2.235a.53.53 0 0 0-.527-.528Zm0 0" style="stroke:none;fill-rule:nonzero;fill:#ef4444;fill-opacity:1"/><path d="m33.648 34.059-.132-1.13c6.527-.761 11.445-6.296 11.445-12.874C44.96 12.906 39.148 7.09 32 7.09c-7.148 0-12.965 5.816-12.965 12.965 0 6.582 4.922 12.113 11.45 12.875l-.133 1.129c-7.098-.829-12.454-6.848-12.454-14.004 0-7.778 6.329-14.102 14.102-14.102 7.773 0 14.102 6.324 14.102 14.102 0 7.156-5.356 13.175-12.454 14.004Zm0 0" style="stroke:none;fill-rule:nonzero;fill:#ef4444;fill-opacity:1"/><path d="M32 25.016a4.968 4.968 0 0 1-4.96-4.961A4.965 4.965 0 0 1 32 15.094a4.965 4.965 0 0 1 4.96 4.96A4.968 4.968 0 0 1 32 25.017Zm0-8.786a3.828 3.828 0 0 0-3.824 3.825A3.827 3.827 0 0 0 32 23.875a3.827 3.827 0 0 0 3.824-3.82A3.828 3.828 0 0 0 32 16.23Zm0 0" style="stroke:none;fill-rule:nonzero;fill:#ef4444;fill-opacity:1"/><path d="M32 22.082a2.03 2.03 0 0 1 0-4.059 2.03 2.03 0 0 1 0 4.059Zm0-2.918a.89.89 0 1 0 0 1.78.89.89 0 0 0 0-1.78ZM32 42.79a3.453 3.453 0 0 1-2.742-1.337 3.45 3.45 0 0 1-.645-2.98l2.832-11.586a.572.572 0 0 1 1.11 0l2.832 11.586a3.45 3.45 0 0 1-.645 2.98A3.453 3.453 0 0 1 32 42.79Zm0-13.372-2.281 9.328a2.321 2.321 0 0 0 .433 2.008c.446.57 1.121.898 1.848.898.727 0 1.398-.328 1.848-.898.449-.57.605-1.305.433-2.008Zm0 0" style="stroke:none;fill-rule:nonzero;fill:#ef4444;fill-opacity:1"/><path d="M32 40.906a1.57 1.57 0 1 1 0-3.14 1.57 1.57 0 0 1 0 3.14Zm0-2.004a.435.435 0 0 0-.434.434c0 .238.196.434.434.434a.435.435 0 0 0 .434-.434.435.435 0 0 0-.434-.434ZM18.492 7.898a1.936 1.936 0 0 1-1.933-1.933c0-1.067.867-1.934 1.933-1.934 1.067 0 1.934.867 1.934 1.934a1.936 1.936 0 0 1-1.934 1.933Zm0-2.73a.798.798 0 1 0 .002 1.592.798.798 0 0 0-.002-1.592ZM45.508 7.898a1.936 1.936 0 0 1-1.934-1.933c0-1.067.867-1.934 1.934-1.934 1.066 0 1.933.867 1.933 1.934a1.936 1.936 0 0 1-1.933 1.933Zm0-2.73a.798.798 0 1 0 .001 1.595.798.798 0 0 0-.001-1.595ZM45.508 47.168a1.936 1.936 0 0 1 0-3.871 1.936 1.936 0 0 1 0 3.871Zm0-2.73a.797.797 0 0 0-.797.792.798.798 0 0 0 1.594 0 .794.794 0 0 0-.797-.792ZM18.5 47.168a1.936 1.936 0 0 1 0-3.871 1.936 1.936 0 0 1 0 3.871Zm0-2.73a.797.797 0 0 0-.797.792.798.798 0 0 0 1.594 0 .794.794 0 0 0-.797-.792ZM20.547 40.496h-6.91a.568.568 0 0 1 0-1.137h6.91a.57.57 0 0 1 .57.567c0 .316-.258.57-.57.57ZM50.363 40.496h-6.91a.571.571 0 0 1-.57-.57.57.57 0 0 1 .57-.567h6.91a.568.568 0 0 1 0 1.137Zm0 0" style="stroke:none;fill-rule:nonzero;fill:#ef4444;fill-opacity:1"/><path d="M43.855 39.527a.568.568 0 0 0-.804 0l-4.422 4.418H25.367l-4.418-4.422a.568.568 0 1 0-.805.805l4.586 4.59c.176.172.47.164.704.164h13.132c.23 0 .532.008.704-.168l4.585-4.586a.563.563 0 0 0 0-.8Zm0 0" style="stroke:none;fill-rule:nonzero;fill:#ef4444;fill-opacity:1"/></svg>