<svg xmlns="http://www.w3.org/2000/svg" width="64" height="px" viewBox="0 0 64 64"><path d="M56 57H8c-.55 0-1-.45-1-1V8c0-.55.45-1 1-1h48c.55 0 1 .45 1 1v48c0 .55-.45 1-1 1ZM9 55h46V9H9Zm0 0" style="stroke:none;fill-rule:nonzero;fill:#ef4444;fill-opacity:1"/><path d="M56 15H8c-.55 0-1-.45-1-1s.45-1 1-1h48c.55 0 1 .45 1 1s-.45 1-1 1ZM13 11c0 .55-.45 1-1 1s-1-.45-1-1 .45-1 1-1 1 .45 1 1ZM16 11c0 .55-.45 1-1 1s-1-.45-1-1 .45-1 1-1 1 .45 1 1ZM19 11c0 .55-.45 1-1 1s-1-.45-1-1 .45-1 1-1 1 .45 1 1ZM26 31h-6c-.55 0-1-.45-1-1s.45-1 1-1h5v-3h-5c-.55 0-1-.45-1-1v-5c0-.55.45-1 1-1h6c.55 0 1 .45 1 1s-.45 1-1 1h-5v3h5c.55 0 1 .45 1 1v5c0 .55-.45 1-1 1ZM30 31c-.55 0-1-.45-1-1V20c0-.55.45-1 1-1s1 .45 1 1v10c0 .55-.45 1-1 1Zm0 0" style="stroke:none;fill-rule:nonzero;fill:#ef4444;fill-opacity:1"/><path d="M35 21h-5c-.55 0-1-.45-1-1s.45-1 1-1h5c.55 0 1 .45 1 1s-.45 1-1 1ZM35 26h-5c-.55 0-1-.45-1-1s.45-1 1-1h5c.55 0 1 .45 1 1s-.45 1-1 1ZM35 31h-5c-.55 0-1-.45-1-1s.45-1 1-1h5c.55 0 1 .45 1 1s-.45 1-1 1ZM44 31h-6c-.55 0-1-.45-1-1V20c0-.55.45-1 1-1h6c.55 0 1 .45 1 1v10c0 .55-.45 1-1 1Zm-5-2h4v-8h-4ZM19 36h-7c-.55 0-1-.45-1-1s.45-1 1-1h7c.55 0 1 .45 1 1s-.45 1-1 1ZM30 36h-7c-.55 0-1-.45-1-1s.45-1 1-1h7c.55 0 1 .45 1 1s-.45 1-1 1ZM38 36h-4c-.55 0-1-.45-1-1s.45-1 1-1h4c.55 0 1 .45 1 1s-.45 1-1 1ZM52 36H42c-.55 0-1-.45-1-1s.45-1 1-1h10c.55 0 1 .45 1 1s-.45 1-1 1ZM30 40H12c-.55 0-1-.45-1-1s.45-1 1-1h18c.55 0 1 .45 1 1s-.45 1-1 1ZM38 40h-4c-.55 0-1-.45-1-1s.45-1 1-1h4c.55 0 1 .45 1 1s-.45 1-1 1ZM52 40H42c-.55 0-1-.45-1-1s.45-1 1-1h10c.55 0 1 .45 1 1s-.45 1-1 1ZM19 44h-7c-.55 0-1-.45-1-1s.45-1 1-1h7c.55 0 1 .45 1 1s-.45 1-1 1ZM38 44H23c-.55 0-1-.45-1-1s.45-1 1-1h15c.55 0 1 .45 1 1s-.45 1-1 1ZM52 44H42c-.55 0-1-.45-1-1s.45-1 1-1h10c.55 0 1 .45 1 1s-.45 1-1 1ZM19 48h-7c-.55 0-1-.45-1-1s.45-1 1-1h7c.55 0 1 .45 1 1s-.45 1-1 1ZM52 48H23c-.55 0-1-.45-1-1s.45-1 1-1h29c.55 0 1 .45 1 1s-.45 1-1 1ZM38 52H12c-.55 0-1-.45-1-1s.45-1 1-1h26c.55 0 1 .45 1 1s-.45 1-1 1ZM52 52H42c-.55 0-1-.45-1-1s.45-1 1-1h10c.55 0 1 .45 1 1s-.45 1-1 1Zm0 0" style="stroke:none;fill-rule:nonzero;fill:#ef4444;fill-opacity:1"/></svg>