<svg xmlns="http://www.w3.org/2000/svg" width="64" height="64"><path d="M45.133 29.688c-4.828 0-8.754-3.926-8.754-8.754V9.32c0-4.199-3.414-7.613-7.613-7.613-4.196 0-7.614 3.414-7.614 7.613v7.84a.568.568 0 0 1-1.137 0V9.32c0-4.824 3.926-8.75 8.75-8.75 4.829 0 8.755 3.926 8.755 8.75v11.614c0 4.199 3.414 7.617 7.613 7.617 4.117 0 7.531-3.348 7.61-7.461a.571.571 0 0 1 .57-.559h.011a.574.574 0 0 1 .559.582c-.094 4.727-4.02 8.575-8.75 8.575Zm0 0" style="stroke:none;fill-rule:nonzero;fill:#ef4444;fill-opacity:1"/><path d="M20.586 25.828a2.428 2.428 0 0 1-2.426-2.426v-4.39a2.427 2.427 0 0 1 2.426-2.422 2.426 2.426 0 0 1 2.422 2.422v4.39c0 1.34-1.09 2.426-2.422 2.426Zm0-8.101c-.711 0-1.285.578-1.285 1.285v4.394a1.283 1.283 0 0 0 2.566 0v-4.394c0-.707-.574-1.285-1.281-1.285Zm0 0" style="stroke:none;fill-rule:nonzero;fill:#ef4444;fill-opacity:1"/><path d="M20.586 28.766a.568.568 0 0 1-.57-.57v-2.938a.568.568 0 1 1 1.136 0v2.937c0 .317-.254.57-.566.57Zm0 0" style="stroke:none;fill-rule:nonzero;fill:#ef4444;fill-opacity:1"/><path d="M20.586 50.633c-6.746 0-12.344-5.274-12.742-12.008L7.09 25.98a11.53 11.53 0 0 1 3.148-8.671 11.527 11.527 0 0 1 8.469-3.66h3.75c3.242 0 6.25 1.3 8.473 3.66a11.53 11.53 0 0 1 3.148 8.671l-.754 12.645c-.398 6.734-5.996 12.008-12.738 12.008ZM18.71 14.789c-2.926 0-5.64 1.172-7.645 3.297a10.39 10.39 0 0 0-2.84 7.828L8.98 38.56c.364 6.132 5.461 10.937 11.602 10.937 6.145 0 11.242-4.805 11.605-10.937l.754-12.645c.176-2.918-.836-5.7-2.84-7.828a10.408 10.408 0 0 0-7.644-3.297Zm0 0" style="stroke:none;fill-rule:nonzero;fill:#ef4444;fill-opacity:1"/><path d="M20.586 28.766a13.88 13.88 0 0 1-7.445-2.153 13.992 13.992 0 0 1-5.047-5.593.567.567 0 0 1-.063-.254c0-.313.258-.57.57-.57.235 0 .434.14.524.34 2.184 4.374 6.57 7.093 11.46 7.093 4.9 0 9.294-2.727 11.474-7.117a.571.571 0 0 1 .761-.258c.282.14.395.484.258.766a13.992 13.992 0 0 1-5.047 5.593 13.889 13.889 0 0 1-7.445 2.153ZM56.36 21.672h-6.094a.574.574 0 0 1-.57-.57v-5.305c0-.317.257-.57.57-.57h6.093c.317 0 .57.253.57.57v5.305c0 .312-.253.57-.57.57Zm-5.524-1.14h4.957v-4.169h-4.957Zm0 0" style="stroke:none;fill-rule:nonzero;fill:#ef4444;fill-opacity:1"/><path d="M55.004 16.363H51.62a.568.568 0 0 1-.57-.566V12.41c0-.312.254-.57.57-.57h3.383c.316 0 .57.258.57.57v3.387a.568.568 0 0 1-.57.566Zm-2.816-1.136h2.25V12.98h-2.25Zm0 0" style="stroke:none;fill-rule:nonzero;fill:#ef4444;fill-opacity:1"/></svg>