<?xml version="1.0" encoding="UTF-8"?> <svg xmlns="http://www.w3.org/2000/svg" xmlns:xlink="http://www.w3.org/1999/xlink" width="64px" height="64px" viewBox="0 0 64 64" version="1.1"> <g id="surface1"> <path style=" stroke:none;fill-rule:evenodd;fill:rgb(93.72549%,26.666667%,26.666667%);fill-opacity:1;" d="M 48.890625 40.15625 L 23.164062 40.15625 C 21.316406 40.15625 19.816406 38.65625 19.816406 36.804688 L 19.816406 10.078125 C 19.816406 8.234375 21.316406 6.734375 23.164062 6.734375 L 48.890625 6.734375 C 50.738281 6.734375 52.242188 8.234375 52.242188 10.078125 L 52.242188 36.808594 C 52.238281 38.65625 50.738281 40.15625 48.890625 40.15625 Z M 23.164062 7.929688 C 21.980469 7.929688 21.015625 8.890625 21.015625 10.074219 L 21.015625 36.804688 C 21.015625 37.988281 21.980469 38.949219 23.164062 38.949219 L 48.890625 38.949219 C 50.074219 38.949219 51.039062 37.988281 51.039062 36.804688 L 51.039062 10.082031 C 51.039062 8.898438 50.074219 7.933594 48.890625 7.933594 L 23.164062 7.933594 Z M 23.164062 7.929688 "/> <path style=" stroke:none;fill-rule:evenodd;fill:rgb(93.72549%,26.666667%,26.666667%);fill-opacity:1;" d="M 36.027344 36.542969 C 28.808594 36.542969 22.929688 30.667969 22.929688 23.441406 C 22.929688 16.21875 28.804688 10.34375 36.027344 10.34375 C 43.25 10.34375 49.128906 16.21875 49.128906 23.441406 C 49.128906 30.667969 43.25 36.542969 36.027344 36.542969 Z M 36.027344 11.546875 C 29.46875 11.546875 24.128906 16.882812 24.128906 23.445312 C 24.128906 30.007812 29.464844 35.347656 36.027344 35.347656 C 42.59375 35.347656 47.925781 30.007812 47.925781 23.445312 C 47.925781 16.882812 42.585938 11.546875 36.027344 11.546875 Z M 36.027344 11.546875 "/> <path style=" stroke:none;fill-rule:evenodd;fill:rgb(93.72549%,26.666667%,26.666667%);fill-opacity:1;" d="M 36.027344 27.695312 C 33.683594 27.695312 31.773438 25.789062 31.773438 23.441406 C 31.773438 21.097656 33.683594 19.191406 36.027344 19.191406 C 38.375 19.191406 40.285156 21.101562 40.285156 23.441406 C 40.277344 25.789062 38.371094 27.695312 36.027344 27.695312 Z M 36.027344 20.390625 C 34.347656 20.390625 32.976562 21.761719 32.976562 23.441406 C 32.976562 25.121094 34.34375 26.492188 36.027344 26.492188 C 37.710938 26.492188 39.078125 25.121094 39.078125 23.441406 C 39.078125 21.761719 37.710938 20.390625 36.027344 20.390625 Z M 36.027344 20.390625 "/> <path style=" stroke:none;fill-rule:evenodd;fill:rgb(93.72549%,26.666667%,26.666667%);fill-opacity:1;" d="M 35.074219 20.515625 C 34.878906 20.515625 34.683594 20.421875 34.570312 20.242188 C 32.902344 17.652344 32.292969 15.351562 32.75 13.382812 C 33.160156 11.628906 34.910156 9.632812 35.535156 10.679688 C 36.066406 11.578125 34.417969 11.445312 33.910156 13.6875 C 33.539062 15.320312 34.101562 17.304688 35.574219 19.589844 C 35.832031 19.992188 35.539062 20.515625 35.074219 20.515625 Z M 35.074219 20.515625 "/> <path style=" stroke:none;fill-rule:evenodd;fill:rgb(93.72549%,26.666667%,26.666667%);fill-opacity:1;" d="M 36.964844 20.511719 C 36.648438 20.511719 36.382812 20.261719 36.367188 19.941406 C 36.210938 16.867188 36.835938 14.5625 38.21875 13.09375 C 39.457031 11.777344 41.972656 10.917969 41.988281 12.140625 C 42 13.1875 40.640625 12.242188 39.074219 13.933594 C 37.9375 15.164062 37.429688 17.164062 37.566406 19.878906 C 37.585938 20.226562 37.296875 20.511719 36.964844 20.511719 Z M 36.964844 20.511719 "/> <path style=" stroke:none;fill-rule:evenodd;fill:rgb(93.72549%,26.666667%,26.666667%);fill-opacity:1;" d="M 38.605469 21.453125 C 38.164062 21.453125 37.859375 20.988281 38.070312 20.578125 C 39.472656 17.84375 41.164062 16.160156 43.101562 15.574219 C 44.859375 15.042969 47.425781 15.585938 46.832031 16.636719 C 46.316406 17.550781 45.617188 16.050781 43.417969 16.734375 C 41.820312 17.230469 40.378906 18.707031 39.136719 21.128906 C 39.03125 21.339844 38.824219 21.453125 38.601562 21.453125 Z M 38.605469 21.453125 "/> <path style=" stroke:none;fill-rule:evenodd;fill:rgb(93.72549%,26.666667%,26.666667%);fill-opacity:1;" d="M 39.554688 23.09375 C 38.957031 23.09375 38.726562 22.308594 39.230469 21.988281 C 41.816406 20.320312 44.121094 19.703125 46.085938 20.167969 C 47.847656 20.582031 49.835938 22.328125 48.792969 22.949219 C 47.890625 23.488281 48.035156 21.835938 45.78125 21.324219 C 42.816406 20.652344 40.148438 23.09375 39.554688 23.09375 Z M 39.554688 23.09375 "/> <path style=" stroke:none;fill-rule:evenodd;fill:rgb(93.72549%,26.666667%,26.666667%);fill-opacity:1;" d="M 47.320312 29.398438 C 46.285156 29.398438 47.226562 28.054688 45.539062 26.492188 C 44.308594 25.355469 42.308594 24.851562 39.589844 24.984375 C 38.789062 25.015625 38.75 23.820312 39.535156 23.78125 C 42.609375 23.632812 44.914062 24.253906 46.382812 25.636719 C 47.882812 27.046875 47.925781 28.722656 47.925781 28.796875 C 47.929688 29.265625 47.457031 29.445312 47.320312 29.398438 Z M 47.320312 29.398438 "/> <path style=" stroke:none;fill-rule:evenodd;fill:rgb(93.72549%,26.666667%,26.666667%);fill-opacity:1;" d="M 43.125 34.328125 C 42.660156 34.328125 42.382812 33.824219 42.601562 33.441406 C 42.628906 33.390625 43.191406 32.3125 42.738281 30.835938 C 42.242188 29.242188 40.761719 27.800781 38.339844 26.558594 C 37.636719 26.199219 38.1875 25.128906 38.890625 25.492188 C 41.628906 26.894531 43.3125 28.585938 43.894531 30.519531 C 44.367188 32.082031 44.011719 34.328125 43.125 34.328125 Z M 43.125 34.328125 "/> <path style=" stroke:none;fill-rule:evenodd;fill:rgb(93.72549%,26.666667%,26.666667%);fill-opacity:1;" d="M 37.03125 36.5 C 36.445312 36.5 36.191406 35.726562 36.722656 35.386719 C 36.769531 35.355469 37.800781 34.703125 38.140625 33.199219 C 38.511719 31.566406 37.949219 29.582031 36.476562 27.296875 C 36.046875 26.628906 37.058594 25.984375 37.484375 26.644531 C 41.753906 33.289062 37.773438 36.5 37.03125 36.5 Z M 37.03125 36.5 "/> <path style=" stroke:none;fill-rule:evenodd;fill:rgb(93.72549%,26.666667%,26.666667%);fill-opacity:1;" d="M 30.667969 35.332031 C 29.875 35.332031 29.882812 34.144531 30.65625 34.132812 C 30.710938 34.132812 31.929688 34.082031 32.980469 32.949219 C 34.117188 31.722656 34.625 29.722656 34.488281 27.003906 C 34.449219 26.21875 35.648438 26.152344 35.6875 26.945312 C 35.84375 30.019531 35.21875 32.324219 33.832031 33.796875 C 32.425781 35.296875 30.746094 35.339844 30.675781 35.339844 C 30.675781 35.332031 30.671875 35.332031 30.667969 35.332031 Z M 30.667969 35.332031 "/> <path style=" stroke:none;fill-rule:evenodd;fill:rgb(93.72549%,26.666667%,26.666667%);fill-opacity:1;" d="M 27.492188 31.527344 C 26.226562 31.527344 24.75 31.074219 25.214844 30.25 C 25.734375 29.335938 26.429688 30.835938 28.632812 30.152344 C 30.230469 29.65625 31.671875 28.179688 32.914062 25.757812 C 33.269531 25.054688 34.34375 25.605469 33.980469 26.308594 C 32.378906 29.398438 30.222656 31.527344 27.492188 31.527344 Z M 27.492188 31.527344 "/> <path style=" stroke:none;fill-rule:evenodd;fill:rgb(93.72549%,26.666667%,26.666667%);fill-opacity:1;" d="M 27.28125 26.867188 C 24.558594 26.867188 22.132812 24.601562 23.261719 23.929688 C 24.160156 23.394531 24.019531 25.042969 26.269531 25.554688 C 27.898438 25.925781 29.886719 25.363281 32.175781 23.886719 C 32.839844 23.460938 33.488281 24.46875 32.824219 24.894531 C 30.796875 26.207031 28.9375 26.867188 27.28125 26.867188 Z M 27.28125 26.867188 "/> <path style=" stroke:none;fill-rule:evenodd;fill:rgb(93.72549%,26.666667%,26.666667%);fill-opacity:1;" d="M 31.640625 23.125 C 29.007812 23.125 27.003906 22.496094 25.675781 21.25 C 24.339844 19.996094 23.515625 17.484375 24.734375 17.484375 C 25.769531 17.484375 24.824219 18.828125 26.515625 20.394531 C 27.746094 21.53125 29.746094 22.039062 32.460938 21.902344 C 33.261719 21.859375 33.300781 23.066406 32.519531 23.105469 C 32.222656 23.117188 31.929688 23.125 31.640625 23.125 Z M 31.640625 23.125 "/> <path style=" stroke:none;fill-rule:evenodd;fill:rgb(93.72549%,26.666667%,26.666667%);fill-opacity:1;" d="M 33.441406 21.460938 C 33.351562 21.460938 33.253906 21.441406 33.167969 21.394531 C 30.429688 19.992188 28.746094 18.300781 28.164062 16.367188 C 27.632812 14.609375 28.175781 12.039062 29.226562 12.632812 C 30.136719 13.148438 28.640625 13.847656 29.320312 16.050781 C 29.816406 17.644531 31.296875 19.089844 33.71875 20.328125 C 34.277344 20.617188 34.0625 21.464844 33.441406 21.464844 Z M 33.441406 21.460938 "/> <path style=" stroke:none;fill-rule:evenodd;fill:rgb(93.72549%,26.666667%,26.666667%);fill-opacity:1;" d="M 33.621094 7.929688 L 24.375 7.929688 C 24.042969 7.929688 23.777344 7.664062 23.777344 7.328125 L 23.777344 5.644531 C 23.777344 4.386719 24.800781 3.363281 26.058594 3.363281 L 31.941406 3.363281 C 33.199219 3.363281 34.226562 4.386719 34.226562 5.644531 L 34.226562 7.328125 C 34.222656 7.664062 33.953125 7.929688 33.621094 7.929688 Z M 24.976562 6.730469 L 33.019531 6.730469 C 33.019531 5.972656 33.214844 4.5625 31.9375 4.5625 L 26.058594 4.5625 C 24.78125 4.5625 24.976562 5.972656 24.976562 6.730469 Z M 24.976562 6.730469 "/> <path style=" stroke:none;fill-rule:evenodd;fill:rgb(93.72549%,26.666667%,26.666667%);fill-opacity:1;" d="M 47.679688 7.929688 L 38.433594 7.929688 C 38.105469 7.929688 37.832031 7.664062 37.832031 7.328125 L 37.832031 5.644531 C 37.832031 4.386719 38.859375 3.363281 40.117188 3.363281 L 45.996094 3.363281 C 47.253906 3.363281 48.28125 4.386719 48.28125 5.644531 L 48.28125 7.328125 C 48.28125 7.664062 48.011719 7.929688 47.679688 7.929688 Z M 39.035156 6.730469 L 47.078125 6.730469 C 47.078125 5.972656 47.269531 4.5625 45.996094 4.5625 L 40.117188 4.5625 C 38.839844 4.5625 39.035156 5.972656 39.035156 6.730469 Z M 39.035156 6.730469 "/> <path style=" stroke:none;fill-rule:evenodd;fill:rgb(93.72549%,26.666667%,26.666667%);fill-opacity:1;" d="M 40.648438 4.566406 C 40.320312 4.566406 40.050781 4.300781 40.050781 3.964844 L 40.050781 2.285156 C 40.050781 1.6875 39.5625 1.199219 38.96875 1.199219 L 33.085938 1.199219 C 32.492188 1.199219 32.003906 1.6875 32.003906 2.285156 L 32.003906 3.964844 C 32.003906 4.757812 30.804688 4.757812 30.804688 3.964844 L 30.804688 2.285156 C 30.804688 1.023438 31.828125 0 33.085938 0 L 38.96875 0 C 40.226562 0 41.25 1.023438 41.25 2.285156 L 41.25 3.964844 C 41.25 4.296875 40.984375 4.566406 40.648438 4.566406 Z M 40.648438 4.566406 "/> <path style=" stroke:none;fill-rule:evenodd;fill:rgb(93.72549%,26.666667%,26.666667%);fill-opacity:1;" d="M 45.816406 49.742188 L 35.519531 49.742188 C 35.191406 49.742188 34.921875 49.46875 34.921875 49.140625 L 34.921875 43.707031 C 34.921875 43.378906 35.191406 43.109375 35.519531 43.109375 L 39.777344 43.109375 L 39.777344 39.648438 C 39.777344 39.320312 40.050781 39.050781 40.378906 39.050781 L 45.816406 39.050781 C 46.144531 39.050781 46.417969 39.320312 46.417969 39.648438 L 46.417969 49.140625 C 46.417969 49.472656 46.148438 49.742188 45.816406 49.742188 Z M 36.121094 48.542969 L 45.214844 48.542969 L 45.214844 40.25 L 40.984375 40.25 L 40.984375 43.707031 C 40.984375 44.039062 40.710938 44.308594 40.382812 44.308594 L 36.121094 44.308594 Z M 33.585938 49.742188 L 17.746094 49.742188 C 14.445312 49.742188 11.757812 47.054688 11.757812 43.753906 L 11.757812 28.234375 C 11.757812 27.90625 12.023438 27.632812 12.359375 27.632812 L 20.460938 27.632812 C 20.796875 27.632812 21.0625 27.90625 21.0625 28.234375 L 21.0625 33.667969 C 21.0625 33.996094 20.796875 34.265625 20.460938 34.265625 L 18.394531 34.265625 L 18.394531 43.105469 L 33.589844 43.105469 C 33.921875 43.105469 34.191406 43.375 34.191406 43.703125 L 34.191406 49.136719 C 34.191406 49.46875 33.921875 49.742188 33.585938 49.742188 Z M 12.960938 28.832031 L 12.960938 43.753906 C 12.960938 46.390625 15.109375 48.542969 17.75 48.542969 L 32.992188 48.542969 L 32.992188 44.308594 L 17.796875 44.308594 C 17.460938 44.308594 17.195312 44.039062 17.195312 43.710938 L 17.195312 33.667969 C 17.195312 33.339844 17.460938 33.066406 17.796875 33.066406 L 19.863281 33.066406 L 19.863281 28.835938 Z M 12.960938 28.832031 "/> <path style=" stroke:none;fill-rule:evenodd;fill:rgb(93.72549%,26.666667%,26.666667%);fill-opacity:1;" d="M 34.554688 51.199219 C 33.691406 51.199219 32.988281 50.496094 32.988281 49.632812 L 32.988281 43.210938 C 32.988281 41.152344 36.121094 41.152344 36.121094 43.210938 L 36.121094 49.632812 C 36.121094 50.496094 35.421875 51.199219 34.554688 51.199219 Z M 34.554688 42.847656 C 34.355469 42.847656 34.1875 43.011719 34.1875 43.210938 L 34.1875 49.632812 C 34.1875 50.113281 34.921875 50.113281 34.921875 49.632812 L 34.921875 43.210938 C 34.921875 43.011719 34.753906 42.847656 34.554688 42.847656 Z M 34.554688 42.847656 "/> </g> </svg>
