<svg xmlns="http://www.w3.org/2000/svg" width="64" height="64"><path d="M44.477 33.95c-5.168 0-9.368-4.2-9.368-9.368 0-5.164 4.2-9.367 9.368-9.367 5.164 0 9.367 4.203 9.367 9.367 0 5.168-4.203 9.367-9.367 9.367Zm0-17.595c-4.54 0-8.23 3.692-8.23 8.227 0 4.54 3.69 8.23 8.23 8.23 4.535 0 8.23-3.69 8.23-8.23 0-4.535-3.691-8.227-8.23-8.227Zm0 0" style="stroke:none;fill-rule:nonzero;fill:#ef4444;fill-opacity:1"/><path d="M44.477 27.563a2.982 2.982 0 0 1-2.98-2.981 2.982 2.982 0 0 1 2.98-2.98 2.982 2.982 0 0 1 2.98 2.98 2.982 2.982 0 0 1-2.98 2.98Zm0-4.825a1.847 1.847 0 0 0-1.844 1.844c0 1.016.828 1.844 1.844 1.844a1.847 1.847 0 0 0 1.843-1.844 1.847 1.847 0 0 0-1.843-1.844Zm0 0" style="stroke:none;fill-rule:nonzero;fill:#ef4444;fill-opacity:1"/><path d="M45.832 23.16a.569.569 0 0 1-.262-1.074 3.593 3.593 0 0 0 1.93-3.191c0-.864-.309-1.7-.875-2.352a.57.57 0 0 1 .86-.746 4.724 4.724 0 0 1 1.152 3.098c0 1.77-.973 3.378-2.54 4.199a.547.547 0 0 1-.265.066ZM48.094 24.895a4.81 4.81 0 0 1-1.418-.22.569.569 0 1 1 .34-1.085 3.591 3.591 0 0 0 3.62-.89 3.585 3.585 0 0 0 1.048-2.282.572.572 0 0 1 .609-.527.566.566 0 0 1 .523.609 4.713 4.713 0 0 1-1.375 3.004 4.74 4.74 0 0 1-3.347 1.39ZM50.164 28.746a4.73 4.73 0 0 1-4.2-2.543.57.57 0 0 1 1.008-.527 3.597 3.597 0 0 0 5.548 1.054.565.565 0 0 1 .8.06.565.565 0 0 1-.058.8 4.727 4.727 0 0 1-3.098 1.156ZM48.602 32.926h-.04a4.727 4.727 0 0 1-3.007-1.38 4.73 4.73 0 0 1-1.172-4.765.566.566 0 0 1 .71-.37c.302.093.47.41.376.71a3.598 3.598 0 0 0 3.172 4.668c.312.023.55.297.527.61a.568.568 0 0 1-.566.527ZM41.898 33.566a.554.554 0 0 1-.43-.199 4.734 4.734 0 0 1 1.387-7.297.566.566 0 0 1 .766.242.564.564 0 0 1-.238.766 3.597 3.597 0 0 0-1.055 5.547.568.568 0 0 1-.43.941ZM36.703 29.277h-.039a.572.572 0 0 1-.527-.609 4.743 4.743 0 0 1 1.375-3.008 4.73 4.73 0 0 1 4.765-1.172.569.569 0 1 1-.34 1.086 3.591 3.591 0 0 0-3.62.89 3.594 3.594 0 0 0-1.047 2.282c-.02.3-.27.531-.567.531ZM42.484 23.793a.567.567 0 0 1-.504-.305 3.593 3.593 0 0 0-3.19-1.93c-.868 0-1.704.31-2.356.876a.568.568 0 0 1-.742-.86 4.724 4.724 0 0 1 3.097-1.152c1.77 0 3.379.973 4.2 2.539a.573.573 0 0 1-.239.77.589.589 0 0 1-.266.062ZM44.027 22.781a.622.622 0 0 1-.168-.023.571.571 0 0 1-.375-.715 3.591 3.591 0 0 0-.89-3.621 3.595 3.595 0 0 0-2.285-1.047.565.565 0 0 1-.524-.605.565.565 0 0 1 .606-.528 4.743 4.743 0 0 1 4.183 6.14.575.575 0 0 1-.547.4Zm0 0" style="stroke:none;fill-rule:nonzero;fill:#ef4444;fill-opacity:1"/><path d="M40.258 17.43a.571.571 0 0 1 0-1.14.57.57 0 0 1 0 1.14Zm0 0" style="stroke:none;fill-rule:nonzero;fill:#ef4444;fill-opacity:1"/><path d="M56.46 37.102H13.04a.57.57 0 0 1-.567-.57v-23.9c0-.312.254-.566.566-.566h43.422c.316 0 .57.254.57.567V36.53c0 .313-.254.57-.57.57ZM13.61 35.96h42.28V13.203H13.61Zm0 0" style="stroke:none;fill-rule:nonzero;fill:#ef4444;fill-opacity:1"/><path d="M29.625 20.29a.565.565 0 0 1-.402-.169.563.563 0 0 1 0-.8l7.082-7.083a.568.568 0 1 1 .804.805l-7.082 7.078a.559.559 0 0 1-.402.168ZM36.707 37.102a.575.575 0 0 1-.402-.168l-7.082-7.082a.568.568 0 1 1 .804-.805l7.082 7.082a.575.575 0 0 1 0 .805.582.582 0 0 1-.402.168Zm0 0" style="stroke:none;fill-rule:nonzero;fill:#ef4444;fill-opacity:1"/><path d="M49.79 43.129H19.71a.567.567 0 0 1-.565-.566V36.53a.57.57 0 0 1 .566-.57h30.078c.316 0 .57.258.57.57v6.032a.568.568 0 0 1-.57.566ZM20.28 41.992h28.942v-4.89H20.28Zm0 0" style="stroke:none;fill-rule:nonzero;fill:#ef4444;fill-opacity:1"/><path d="M24.133 43.129a.567.567 0 0 1-.567-.566v-2.086a.568.568 0 0 1 1.137 0v2.086a.568.568 0 0 1-.57.566ZM27.676 43.129a.568.568 0 0 1-.57-.566v-2.086a.568.568 0 0 1 1.136 0v2.086a.567.567 0 0 1-.566.566ZM31.21 43.129a.567.567 0 0 1-.565-.566v-2.086a.568.568 0 0 1 1.137 0v2.086a.568.568 0 0 1-.571.566ZM34.75 43.129a.567.567 0 0 1-.566-.566v-2.086a.568.568 0 0 1 1.137 0v2.086a.568.568 0 0 1-.571.566ZM38.29 43.129a.567.567 0 0 1-.567-.566v-2.086a.568.568 0 0 1 1.137 0v2.086a.568.568 0 0 1-.57.566ZM41.828 43.129a.567.567 0 0 1-.566-.566v-2.086a.568.568 0 0 1 1.137 0v2.086a.568.568 0 0 1-.57.566ZM45.367 43.129a.567.567 0 0 1-.566-.566v-2.086a.568.568 0 0 1 1.137 0v2.086a.568.568 0 0 1-.57.566ZM13.043 22.098h-3.77a.568.568 0 0 1-.57-.567v-3.77c0-.316.254-.57.57-.57h3.77c.312 0 .566.254.566.57v3.77a.567.567 0 0 1-.566.567ZM9.84 20.96h2.633v-2.633H9.84ZM13.043 31.902h-3.77a.568.568 0 0 1-.57-.57v-3.77c0-.312.254-.566.57-.566h3.77c.312 0 .566.254.566.567v3.769c0 .316-.254.57-.566.57ZM9.84 30.766h2.633v-2.633H9.84ZM13.043 13.203h-3.77a.568.568 0 1 1 0-1.137h3.2V9.207H7.539a.568.568 0 1 1 0-1.137h5.504c.312 0 .566.254.566.567v3.996c0 .316-.254.57-.566.57ZM25.676 26.766h-8.684a.568.568 0 0 1-.57-.567v-3.226c0-.317.254-.57.57-.57h8.684c.312 0 .566.253.566.57v3.226a.567.567 0 0 1-.566.567Zm-8.117-1.137h7.546v-2.09H17.56Zm0 0" style="stroke:none;fill-rule:nonzero;fill:#ef4444;fill-opacity:1"/><path d="M18.895 27.746a.57.57 0 0 1-.57-.566v-.98a.571.571 0 0 1 1.14 0v.98a.568.568 0 0 1-.57.566ZM18.895 23.54a.571.571 0 0 1-.57-.571v-.977a.571.571 0 0 1 1.14 0v.977c0 .316-.254.57-.57.57ZM21.332 27.746a.567.567 0 0 1-.566-.566v-.98a.568.568 0 1 1 1.136 0v.98a.568.568 0 0 1-.57.566ZM21.332 23.54a.568.568 0 0 1-.566-.571v-.977a.568.568 0 1 1 1.136 0v.977c0 .316-.254.57-.57.57ZM23.77 27.746a.567.567 0 0 1-.567-.566v-.98a.568.568 0 1 1 1.137 0v.98a.568.568 0 0 1-.57.566ZM23.77 23.54a.568.568 0 0 1-.567-.571v-.977a.568.568 0 1 1 1.137 0v.977c0 .316-.254.57-.57.57Zm0 0" style="stroke:none;fill-rule:nonzero;fill:#ef4444;fill-opacity:1"/><path d="M29.625 30.02H13.043a.571.571 0 0 1-.57-.57v-9.731c0-.313.254-.567.57-.567h16.582c.316 0 .57.254.57.567v9.73c0 .313-.254.57-.57.57Zm-16.016-1.141h15.45v-8.59h-15.45Zm0 0" style="stroke:none;fill-rule:nonzero;fill:#ef4444;fill-opacity:1"/></svg>