<svg xmlns="http://www.w3.org/2000/svg" width="64" height="64"><path d="M53.406 28.652h-.035c-1.73 0-3.21-1.3-3.445-3.023C48.719 16.715 41.012 9.992 32 9.992c-9.012 0-16.719 6.723-17.926 15.637-.234 1.723-1.715 3.023-3.445 3.023h-.035a3.483 3.483 0 0 1-3.445-3.941 25.032 25.032 0 0 1 7.12-14.36c2.301-2.3 4.985-4.109 7.97-5.37A24.953 24.953 0 0 1 32 3.007c3.383 0 6.668.664 9.766 1.972a24.942 24.942 0 0 1 7.968 5.372c2.301 2.3 4.11 4.98 5.371 7.968a24.83 24.83 0 0 1 1.75 6.39 3.478 3.478 0 0 1-3.45 3.941ZM32 8.855c4.68 0 9.191 1.7 12.703 4.79a19.213 19.213 0 0 1 6.352 11.832 2.357 2.357 0 0 0 2.32 2.039h.035a2.337 2.337 0 0 0 2.317-2.649 23.779 23.779 0 0 0-1.672-6.101 23.792 23.792 0 0 0-5.125-7.606 23.863 23.863 0 0 0-7.61-5.129A23.796 23.796 0 0 0 32 4.148c-3.23 0-6.363.633-9.32 1.883a23.792 23.792 0 0 0-7.606 5.125 23.863 23.863 0 0 0-5.129 7.61 23.587 23.587 0 0 0-1.668 6.097c-.09.668.114 1.344.555 1.852.445.508 1.086.8 1.762.8h.031a2.358 2.358 0 0 0 2.32-2.038 19.198 19.198 0 0 1 6.356-11.832A19.2 19.2 0 0 1 32 8.855ZM14.02 45.809H9.027A2.059 2.059 0 0 1 6.97 43.75v-7.52c0-1.136.922-2.058 2.058-2.058h4.996c.313 0 .567.254.567.566v10.504a.568.568 0 0 1-.57.567Zm-4.993-10.5a.924.924 0 0 0-.922.921v7.52c0 .508.415.922.922.922h4.426v-9.363Zm0 0" style="stroke:none;fill-rule:nonzero;fill:#ef4444;fill-opacity:1"/><path d="M18.684 48.191H15.16a1.709 1.709 0 0 1-1.707-1.707V33.492c0-.937.766-1.703 1.707-1.703h3.524c.941 0 1.707.766 1.707 1.703v12.992c0 .942-.766 1.707-1.707 1.707ZM15.16 32.926a.568.568 0 0 0-.57.57v12.988c0 .317.254.57.57.57h3.524c.312 0 .57-.253.57-.57V33.496a.571.571 0 0 0-.57-.57ZM54.973 45.809h-4.996a.568.568 0 0 1-.567-.57v-10.5c0-.313.254-.567.567-.567h4.996c1.136 0 2.058.922 2.058 2.055v7.523a2.059 2.059 0 0 1-2.058 2.059Zm-4.426-1.137h4.43a.923.923 0 0 0 .918-.922v-7.523a.922.922 0 0 0-.918-.918h-4.43Zm0 0" style="stroke:none;fill-rule:nonzero;fill:#ef4444;fill-opacity:1"/><path d="M48.84 48.191h-3.524a1.709 1.709 0 0 1-1.707-1.707V33.492c0-.937.766-1.703 1.707-1.703h3.524c.941 0 1.707.766 1.707 1.703v12.992c0 .942-.766 1.707-1.707 1.707Zm-3.524-15.265a.568.568 0 0 0-.57.57v12.988c0 .317.254.57.57.57h3.524c.312 0 .57-.253.57-.57V33.496a.571.571 0 0 0-.57-.57ZM11.66 35.309a.568.568 0 0 1-.566-.57v-6.77a.568.568 0 0 1 1.137 0v6.77c0 .316-.254.57-.57.57ZM9.441 35.309a.568.568 0 0 1-.566-.57v-6.891a.57.57 0 0 1 .566-.57c.317 0 .57.257.57.57v6.89c0 .317-.253.57-.57.57ZM54.559 35.309a.568.568 0 0 1-.57-.57v-6.77a.568.568 0 0 1 1.136 0v6.77c0 .316-.254.57-.566.57ZM52.34 35.309a.568.568 0 0 1-.57-.57v-6.77a.568.568 0 0 1 1.136 0v6.77c0 .316-.254.57-.566.57Zm0 0" style="stroke:none;fill-rule:nonzero;fill:#ef4444;fill-opacity:1"/></svg>