<?xml version="1.0" encoding="UTF-8"?> <svg xmlns="http://www.w3.org/2000/svg" xmlns:xlink="http://www.w3.org/1999/xlink" width="64px" height="64px" viewBox="0 0 64 64" version="1.1"> <g id="surface1"> <path style=" stroke:none;fill-rule:nonzero;fill:rgb(93.72549%,26.666667%,26.666667%);fill-opacity:1;" d="M 49.265625 50.632812 L 14.734375 50.632812 C 13.816406 50.632812 13.070312 49.886719 13.070312 48.964844 L 13.070312 2.234375 C 13.070312 1.316406 13.816406 0.570312 14.734375 0.570312 L 49.265625 0.570312 C 50.183594 0.570312 50.929688 1.316406 50.929688 2.234375 L 50.929688 48.964844 C 50.929688 49.882812 50.183594 50.632812 49.265625 50.632812 Z M 14.734375 1.707031 C 14.445312 1.707031 14.207031 1.945312 14.207031 2.234375 L 14.207031 48.964844 C 14.207031 49.257812 14.445312 49.492188 14.734375 49.492188 L 49.265625 49.492188 C 49.554688 49.492188 49.792969 49.257812 49.792969 48.964844 L 49.792969 2.234375 C 49.792969 1.945312 49.554688 1.707031 49.265625 1.707031 Z M 14.734375 1.707031 "/> <path style=" stroke:none;fill-rule:nonzero;fill:rgb(93.72549%,26.666667%,26.666667%);fill-opacity:1;" d="M 33.648438 34.058594 L 33.515625 32.929688 C 40.042969 32.167969 44.960938 26.632812 44.960938 20.054688 C 44.960938 12.90625 39.148438 7.089844 32 7.089844 C 24.851562 7.089844 19.035156 12.90625 19.035156 20.054688 C 19.035156 26.636719 23.957031 32.167969 30.484375 32.929688 L 30.351562 34.058594 C 23.253906 33.230469 17.898438 27.210938 17.898438 20.054688 C 17.898438 12.277344 24.226562 5.953125 32 5.953125 C 39.773438 5.953125 46.101562 12.277344 46.101562 20.054688 C 46.101562 27.210938 40.746094 33.230469 33.648438 34.058594 Z M 33.648438 34.058594 "/> <path style=" stroke:none;fill-rule:nonzero;fill:rgb(93.72549%,26.666667%,26.666667%);fill-opacity:1;" d="M 32 25.015625 C 29.265625 25.015625 27.039062 22.789062 27.039062 20.054688 C 27.039062 17.316406 29.265625 15.09375 32 15.09375 C 34.734375 15.09375 36.960938 17.316406 36.960938 20.054688 C 36.960938 22.789062 34.734375 25.015625 32 25.015625 Z M 32 16.230469 C 29.890625 16.230469 28.175781 17.945312 28.175781 20.054688 C 28.175781 22.160156 29.890625 23.875 32 23.875 C 34.109375 23.875 35.824219 22.160156 35.824219 20.054688 C 35.824219 17.945312 34.109375 16.230469 32 16.230469 Z M 32 16.230469 "/> <path style=" stroke:none;fill-rule:nonzero;fill:rgb(93.72549%,26.666667%,26.666667%);fill-opacity:1;" d="M 32 22.082031 C 30.882812 22.082031 29.972656 21.171875 29.972656 20.054688 C 29.972656 18.933594 30.882812 18.023438 32 18.023438 C 33.117188 18.023438 34.027344 18.933594 34.027344 20.054688 C 34.027344 21.171875 33.117188 22.082031 32 22.082031 Z M 32 19.164062 C 31.507812 19.164062 31.109375 19.5625 31.109375 20.054688 C 31.109375 20.542969 31.507812 20.945312 32 20.945312 C 32.492188 20.945312 32.890625 20.542969 32.890625 20.054688 C 32.890625 19.5625 32.492188 19.164062 32 19.164062 Z M 32 19.164062 "/> <path style=" stroke:none;fill-rule:nonzero;fill:rgb(93.72549%,26.666667%,26.666667%);fill-opacity:1;" d="M 32 42.789062 C 30.921875 42.789062 29.921875 42.304688 29.257812 41.453125 C 28.589844 40.605469 28.355469 39.519531 28.613281 38.472656 L 31.445312 26.886719 C 31.507812 26.632812 31.738281 26.453125 32 26.453125 C 32.261719 26.453125 32.492188 26.632812 32.554688 26.886719 L 35.386719 38.472656 C 35.644531 39.519531 35.410156 40.605469 34.742188 41.453125 C 34.078125 42.304688 33.078125 42.789062 32 42.789062 Z M 32 29.417969 L 29.71875 38.746094 C 29.542969 39.449219 29.703125 40.183594 30.152344 40.753906 C 30.597656 41.324219 31.273438 41.652344 32 41.652344 C 32.726562 41.652344 33.398438 41.324219 33.847656 40.753906 C 34.296875 40.183594 34.453125 39.449219 34.28125 38.746094 Z M 32 29.417969 "/> <path style=" stroke:none;fill-rule:nonzero;fill:rgb(93.72549%,26.666667%,26.666667%);fill-opacity:1;" d="M 32 40.90625 C 31.132812 40.90625 30.429688 40.203125 30.429688 39.335938 C 30.429688 38.46875 31.132812 37.765625 32 37.765625 C 32.867188 37.765625 33.570312 38.46875 33.570312 39.335938 C 33.570312 40.203125 32.867188 40.90625 32 40.90625 Z M 32 38.902344 C 31.761719 38.902344 31.566406 39.097656 31.566406 39.335938 C 31.566406 39.574219 31.761719 39.769531 32 39.769531 C 32.238281 39.769531 32.433594 39.574219 32.433594 39.335938 C 32.433594 39.097656 32.238281 38.902344 32 38.902344 Z M 32 38.902344 "/> <path style=" stroke:none;fill-rule:nonzero;fill:rgb(93.72549%,26.666667%,26.666667%);fill-opacity:1;" d="M 18.492188 7.898438 C 17.425781 7.898438 16.558594 7.03125 16.558594 5.964844 C 16.558594 4.898438 17.425781 4.03125 18.492188 4.03125 C 19.558594 4.03125 20.425781 4.898438 20.425781 5.964844 C 20.425781 7.03125 19.558594 7.898438 18.492188 7.898438 Z M 18.492188 5.167969 C 18.050781 5.167969 17.695312 5.523438 17.695312 5.964844 C 17.695312 6.402344 18.050781 6.761719 18.492188 6.761719 C 18.929688 6.761719 19.289062 6.402344 19.289062 5.964844 C 19.289062 5.523438 18.929688 5.167969 18.492188 5.167969 Z M 18.492188 5.167969 "/> <path style=" stroke:none;fill-rule:nonzero;fill:rgb(93.72549%,26.666667%,26.666667%);fill-opacity:1;" d="M 45.507812 7.898438 C 44.441406 7.898438 43.574219 7.03125 43.574219 5.964844 C 43.574219 4.898438 44.441406 4.03125 45.507812 4.03125 C 46.574219 4.03125 47.441406 4.898438 47.441406 5.964844 C 47.441406 7.03125 46.574219 7.898438 45.507812 7.898438 Z M 45.507812 5.167969 C 45.070312 5.167969 44.710938 5.523438 44.710938 5.964844 C 44.710938 6.402344 45.070312 6.761719 45.507812 6.761719 C 45.949219 6.761719 46.304688 6.402344 46.304688 5.964844 C 46.304688 5.523438 45.949219 5.167969 45.507812 5.167969 Z M 45.507812 5.167969 "/> <path style=" stroke:none;fill-rule:nonzero;fill:rgb(93.72549%,26.666667%,26.666667%);fill-opacity:1;" d="M 45.507812 47.167969 C 44.441406 47.167969 43.574219 46.296875 43.574219 45.230469 C 43.574219 44.164062 44.441406 43.296875 45.507812 43.296875 C 46.574219 43.296875 47.441406 44.164062 47.441406 45.230469 C 47.441406 46.296875 46.574219 47.167969 45.507812 47.167969 Z M 45.507812 44.4375 C 45.070312 44.4375 44.710938 44.792969 44.710938 45.230469 C 44.710938 45.671875 45.070312 46.027344 45.507812 46.027344 C 45.949219 46.027344 46.304688 45.671875 46.304688 45.230469 C 46.304688 44.792969 45.949219 44.4375 45.507812 44.4375 Z M 45.507812 44.4375 "/> <path style=" stroke:none;fill-rule:nonzero;fill:rgb(93.72549%,26.666667%,26.666667%);fill-opacity:1;" d="M 18.5 47.167969 C 17.433594 47.167969 16.566406 46.296875 16.566406 45.230469 C 16.566406 44.164062 17.433594 43.296875 18.5 43.296875 C 19.566406 43.296875 20.433594 44.164062 20.433594 45.230469 C 20.433594 46.296875 19.566406 47.167969 18.5 47.167969 Z M 18.5 44.4375 C 18.0625 44.4375 17.703125 44.792969 17.703125 45.230469 C 17.703125 45.671875 18.0625 46.027344 18.5 46.027344 C 18.941406 46.027344 19.296875 45.671875 19.296875 45.230469 C 19.296875 44.792969 18.941406 44.4375 18.5 44.4375 Z M 18.5 44.4375 "/> <path style=" stroke:none;fill-rule:nonzero;fill:rgb(93.72549%,26.666667%,26.666667%);fill-opacity:1;" d="M 20.546875 40.496094 L 13.636719 40.496094 C 13.324219 40.496094 13.070312 40.242188 13.070312 39.925781 C 13.070312 39.613281 13.324219 39.359375 13.636719 39.359375 L 20.546875 39.359375 C 20.859375 39.359375 21.117188 39.613281 21.117188 39.925781 C 21.117188 40.242188 20.859375 40.496094 20.546875 40.496094 Z M 20.546875 40.496094 "/> <path style=" stroke:none;fill-rule:nonzero;fill:rgb(93.72549%,26.666667%,26.666667%);fill-opacity:1;" d="M 50.363281 40.496094 L 43.453125 40.496094 C 43.140625 40.496094 42.882812 40.242188 42.882812 39.925781 C 42.882812 39.613281 43.140625 39.359375 43.453125 39.359375 L 50.363281 39.359375 C 50.675781 39.359375 50.929688 39.613281 50.929688 39.925781 C 50.929688 40.242188 50.675781 40.496094 50.363281 40.496094 Z M 50.363281 40.496094 "/> <path style=" stroke:none;fill-rule:nonzero;fill:rgb(93.72549%,26.666667%,26.666667%);fill-opacity:1;" d="M 43.855469 39.527344 C 43.632812 39.304688 43.273438 39.304688 43.050781 39.527344 L 38.628906 43.945312 L 25.367188 43.945312 L 20.949219 39.523438 C 20.726562 39.304688 20.367188 39.304688 20.144531 39.523438 C 19.921875 39.746094 19.921875 40.109375 20.144531 40.328125 L 24.730469 44.917969 C 24.90625 45.089844 25.199219 45.082031 25.433594 45.082031 L 38.566406 45.082031 C 38.796875 45.082031 39.097656 45.089844 39.269531 44.914062 L 43.855469 40.328125 C 44.078125 40.109375 44.078125 39.746094 43.855469 39.527344 Z M 43.855469 39.527344 "/> </g> </svg>
