<svg xmlns="http://www.w3.org/2000/svg" width="64" height="64"><path d="M55.098 44.016H8.906a2.506 2.506 0 0 1-2.504-2.504V9.692a2.507 2.507 0 0 1 2.504-2.508h46.188a2.507 2.507 0 0 1 2.504 2.507v31.817a2.504 2.504 0 0 1-2.5 2.508ZM8.906 8.383c-.722 0-1.304.586-1.304 1.3v31.82c0 .72.59 1.302 1.304 1.302h46.188c.718 0 1.304-.586 1.304-1.301V9.69c0-.722-.59-1.304-1.304-1.304H8.906Zm0 0" style="stroke:none;fill-rule:evenodd;fill:#ef4444;fill-opacity:1"/><path d="M21.887 34.402c-4.598 0-8.336-3.738-8.336-8.336 0-4.593 3.738-8.332 8.336-8.332 4.593 0 8.332 3.739 8.332 8.332 0 4.598-3.739 8.336-8.332 8.336Zm0-15.472c-3.934 0-7.137 3.203-7.137 7.136 0 3.93 3.203 7.133 7.137 7.133 3.933 0 7.133-3.203 7.133-7.133s-3.2-7.136-7.133-7.136Zm0 0" style="stroke:none;fill-rule:evenodd;fill:#ef4444;fill-opacity:1"/><path d="M21.887 28.926a2.858 2.858 0 1 1-.003-5.717 2.858 2.858 0 0 1 .003 5.717Zm0-4.52c-2.184 0-2.184 3.317 0 3.317 2.18 0 2.18-3.317 0-3.317Zm0 0" style="stroke:none;fill-rule:evenodd;fill:#ef4444;fill-opacity:1"/><path d="M22.465 24.484a.604.604 0 0 1-.602-.57c-.093-1.965.309-3.45 1.211-4.406.977-1.047 2.711-1.442 2.723-.434.012.89-.961.281-1.871 1.274-.645.703-.946 1.918-.867 3.504a.603.603 0 0 1-.594.632ZM29.488 28.066c-.765 0-.347-.875-1.554-1.5-.844-.441-2.094-.418-3.606.07-.754.243-1.121-.902-.367-1.144 1.875-.601 3.41-.594 4.57.028 1.559.832 2.04 2.546.957 2.546ZM22.508 34.379c-.602 0-.832-.797-.313-1.113.032-.024.594-.387.778-1.223.207-.934-.141-2.133-1.004-3.465-.43-.664.582-1.316 1.008-.652 2.726 4.238.21 6.453-.47 6.453ZM16.293 29.867c-1.344 0-2.824-.898-2.125-1.625.617-.637.89.477 2.227.422.953-.039 2.02-.687 3.09-1.867.53-.586 1.417.219.886.805-1.332 1.476-2.73 2.265-4.078 2.265ZM20.281 25.074a.643.643 0 0 1-.277-.066c-1.75-.903-2.832-1.992-3.211-3.25-.41-1.363.102-3.078.988-2.578.782.441-.238.972.172 2.261.285.91 1.188 1.774 2.602 2.5.562.286.347 1.133-.274 1.133Zm0 0" style="stroke:none;fill-rule:evenodd;fill:#ef4444;fill-opacity:1"/><path d="M21.887 37.262c-6.172 0-11.196-5.024-11.196-11.196 0-6.175 5.02-11.191 11.196-11.191 6.168 0 11.195 5.02 11.195 11.195 0 6.172-5.027 11.192-11.195 11.192Zm0-21.188c-5.516 0-9.996 4.485-9.996 9.996 0 5.512 4.48 9.996 9.996 9.996 5.511 0 9.996-4.484 9.996-9.996 0-5.511-4.488-9.996-9.996-9.996ZM52.715 22.121h-12.02a.602.602 0 0 1-.601-.601v-6.946a.6.6 0 0 1 .601-.601h12.02c.328 0 .601.265.601.601v6.942c0 .332-.27.605-.601.605Zm-11.422-1.203h10.82v-5.746h-10.82ZM52.715 37.219h-12.02a.602.602 0 0 1-.601-.602v-9.699c0-.328.27-.598.601-.598h12.02c.328 0 .601.27.601.598v9.707c0 .328-.27.594-.601.594Zm-11.422-1.2h10.82v-8.5h-10.82Zm0 0" style="stroke:none;fill-rule:evenodd;fill:#ef4444;fill-opacity:1"/><path d="M47.328 29.953c-.816 0-1.851.188-1.851-.601 0-.79 1.035-.598 1.851-.598.785 0 .79 1.2 0 1.2ZM43.578 34.328c-.797 0-.601-1.058-.601-1.914 0-.789 1.199-.789 1.199 0 0 .871.195 1.914-.598 1.914ZM49.828 34.328c-.797 0-.601-1.058-.601-1.914 0-.789 1.199-.789 1.199 0 0 .871.195 1.914-.598 1.914ZM43.578 19.16c-.797 0-.601-1.05-.601-1.91 0-.793 1.199-.793 1.199 0 0 .867.195 1.91-.598 1.91ZM49.828 19.16c-.797 0-.601-1.05-.601-1.91 0-.793 1.199-.793 1.199 0 0 .867.195 1.91-.598 1.91ZM36.984 40.574H34.11a.607.607 0 0 1-.601-.601v-5c0-.328.273-.598.601-.598h2.875c.328 0 .602.27.602.598v5a.607.607 0 0 1-.602.601Zm-2.273-1.199h1.672v-3.8H34.71Zm0 0" style="stroke:none;fill-rule:evenodd;fill:#ef4444;fill-opacity:1"/></svg>