<svg xmlns="http://www.w3.org/2000/svg" width="64" height="64"><path d="M54.715 46.89H9.28a2.317 2.317 0 0 1-2.312-2.312v-17.71A2.318 2.318 0 0 1 9.28 24.55h45.434a2.319 2.319 0 0 1 2.316 2.316v17.707a2.319 2.319 0 0 1-2.316 2.317ZM9.28 25.692c-.648 0-1.176.528-1.176 1.176v17.707c0 .649.528 1.18 1.176 1.18h45.434c.648 0 1.18-.531 1.18-1.18V26.867a1.18 1.18 0 0 0-1.18-1.176Zm0 0" style="stroke:none;fill-rule:nonzero;fill:#ef4444;fill-opacity:1"/><path d="M46.938 25.691a.574.574 0 0 1-.57-.57v-2.308a2.219 2.219 0 0 0-2.216-2.22H14.051a3.358 3.358 0 0 1-3.356-3.355 3.358 3.358 0 0 1 3.356-3.355h30.101a2.219 2.219 0 0 0 2.215-2.219V9.902a.571.571 0 0 1 1.14 0v1.766a3.36 3.36 0 0 1-3.355 3.355H14.051a2.217 2.217 0 1 0 0 4.434h30.101a3.36 3.36 0 0 1 3.356 3.355v2.31c0 .312-.258.57-.57.57Zm0 0" style="stroke:none;fill-rule:nonzero;fill:#ef4444;fill-opacity:1"/><path d="M49.21 10.469h-4.546a.57.57 0 0 1-.57-.567V6.953a.57.57 0 0 1 .57-.566h4.547c.316 0 .57.254.57.566v2.95a.568.568 0 0 1-.57.566Zm-3.976-1.137h3.41V7.523h-3.41Zm0 0" style="stroke:none;fill-rule:nonzero;fill:#ef4444;fill-opacity:1"/><path d="M48.203 7.523h-2.527a.571.571 0 0 1-.57-.57V4.88c0-.316.253-.57.57-.57h2.527c.313 0 .567.253.567.57v2.074a.57.57 0 0 1-.567.57Zm-1.96-1.14h1.39v-.938h-1.39ZM41.473 33.844h-30.68a.57.57 0 0 1 0-1.14h30.68a.571.571 0 0 1 0 1.14Zm0 0" style="stroke:none;fill-rule:nonzero;fill:#ef4444;fill-opacity:1"/><path d="M36.36 43.637a.57.57 0 0 1-.567-.57V28.378a.568.568 0 1 1 1.137 0v14.687c0 .313-.254.57-.57.57ZM31.246 43.637a.574.574 0 0 1-.57-.57V28.378a.571.571 0 0 1 1.14 0v14.687c0 .313-.253.57-.57.57ZM26.133 38.738a.567.567 0 0 1-.567-.566v-9.793a.568.568 0 1 1 1.137 0v9.793a.568.568 0 0 1-.57.566ZM21.02 38.738a.567.567 0 0 1-.567-.566v-9.793a.568.568 0 1 1 1.137 0v9.793a.568.568 0 0 1-.57.566ZM15.906 43.637a.574.574 0 0 1-.57-.57V28.378a.571.571 0 0 1 1.14 0v14.687c0 .313-.253.57-.57.57Zm0 0" style="stroke:none;fill-rule:nonzero;fill:#ef4444;fill-opacity:1"/><path d="M36.36 38.738H10.792a.568.568 0 0 1 0-1.137h25.566c.313 0 .57.254.57.57a.57.57 0 0 1-.57.567Zm0 0" style="stroke:none;fill-rule:nonzero;fill:#ef4444;fill-opacity:1"/><path d="M41.473 43.637h-30.68a.57.57 0 0 1-.566-.57V28.378c0-.317.253-.57.566-.57h30.68c.312 0 .57.253.57.57v14.687c0 .313-.254.57-.57.57Zm-30.11-1.14h29.54V28.944h-29.54ZM53.098 43.637h-8.051a.574.574 0 0 1-.57-.57V28.378c0-.317.257-.57.57-.57h8.05c.317 0 .571.253.571.57v14.687c0 .313-.254.57-.57.57Zm-7.48-1.14h6.913V28.944h-6.914Zm0 0" style="stroke:none;fill-rule:nonzero;fill:#ef4444;fill-opacity:1"/><path d="M49.074 43.637a.571.571 0 0 1-.57-.57V28.378a.568.568 0 1 1 1.137 0v14.687a.57.57 0 0 1-.567.57Zm0 0" style="stroke:none;fill-rule:nonzero;fill:#ef4444;fill-opacity:1"/><path d="M53.098 33.844h-8.051a.574.574 0 0 1-.57-.57c0-.313.257-.57.57-.57h8.05a.571.571 0 0 1 0 1.14ZM53.098 38.738h-8.051a.57.57 0 0 1-.57-.566c0-.317.257-.57.57-.57h8.05a.568.568 0 1 1 0 1.136Zm0 0" style="stroke:none;fill-rule:nonzero;fill:#ef4444;fill-opacity:1"/></svg>