<svg xmlns="http://www.w3.org/2000/svg" width="64" height="64"><path d="M38.027 42.496a.57.57 0 0 1-.566-.57V37.19a.568.568 0 0 1 1.137 0v4.735c0 .312-.254.57-.57.57ZM25.973 42.496a.571.571 0 0 1-.57-.57V37.19a.568.568 0 0 1 1.136 0v4.735a.57.57 0 0 1-.566.57ZM38.027 45.836H25.973a.568.568 0 1 1 0-1.137h12.054a.568.568 0 0 1 .004 1.137Zm0 0" style="stroke:none;fill-rule:nonzero;fill:#ef4444;fill-opacity:1"/><path d="M44.902 48.531H19.098a.574.574 0 0 1-.57-.57v-.242a3.025 3.025 0 0 1 3.023-3.02h20.898a3.025 3.025 0 0 1 3.024 3.02v.242c0 .312-.254.57-.57.57Zm-25.207-1.14h24.61a1.888 1.888 0 0 0-1.856-1.555H21.547c-.926 0-1.695.672-1.852 1.555Zm0 0" style="stroke:none;fill-rule:nonzero;fill:#ef4444;fill-opacity:1"/><path d="M41.45 45.836h-18.9a.567.567 0 0 1-.566-.566 3.918 3.918 0 0 1 3.91-3.915h12.208a3.919 3.919 0 0 1 3.914 3.915.567.567 0 0 1-.567.566Zm-18.27-1.137h17.636a2.774 2.774 0 0 0-2.714-2.203H25.895A2.774 2.774 0 0 0 23.18 44.7ZM54.012 37.762H9.984a3.022 3.022 0 0 1-3.015-3.016V5.687a3.02 3.02 0 0 1 3.015-3.015h44.028a3.02 3.02 0 0 1 3.02 3.015v29.06a3.023 3.023 0 0 1-3.02 3.015ZM9.984 3.809a1.882 1.882 0 0 0-1.879 1.878v29.055c0 1.04.844 1.883 1.88 1.883h44.027a1.883 1.883 0 0 0 1.879-1.883V5.688a1.882 1.882 0 0 0-1.88-1.88Zm0 0" style="stroke:none;fill-rule:nonzero;fill:#ef4444;fill-opacity:1"/><path d="M52.809 34.11H11.19a.568.568 0 0 1-.57-.567V6.891c0-.313.254-.567.57-.567H52.81c.316 0 .57.254.57.567v26.652a.568.568 0 0 1-.57.566Zm-41.051-1.137h40.484V7.46H11.758Zm0 0" style="stroke:none;fill-rule:nonzero;fill:#ef4444;fill-opacity:1"/></svg>