<?xml version="1.0" encoding="UTF-8"?> <svg xmlns="http://www.w3.org/2000/svg" xmlns:xlink="http://www.w3.org/1999/xlink" width="64px" height="64px" viewBox="0 0 64 64" version="1.1"> <g id="surface1"> <path style=" stroke:none;fill-rule:nonzero;fill:rgb(93.72549%,26.666667%,26.666667%);fill-opacity:1;" d="M 9.59375 35.640625 C 9.28125 35.640625 9.023438 35.386719 9.023438 35.070312 L 9.023438 30.636719 C 9.023438 30.320312 9.28125 30.066406 9.59375 30.066406 C 9.90625 30.066406 10.164062 30.320312 10.164062 30.636719 L 10.164062 35.070312 C 10.164062 35.386719 9.90625 35.640625 9.59375 35.640625 Z M 9.59375 35.640625 "/> <path style=" stroke:none;fill-rule:nonzero;fill:rgb(93.72549%,26.666667%,26.666667%);fill-opacity:1;" d="M 56.460938 49.605469 L 9.59375 49.605469 C 9.28125 49.605469 9.023438 49.347656 9.023438 49.035156 L 9.023438 39.183594 C 9.023438 38.867188 9.28125 38.613281 9.59375 38.613281 C 9.90625 38.613281 10.164062 38.867188 10.164062 39.183594 L 10.164062 48.464844 L 55.894531 48.464844 L 55.894531 2.734375 L 10.164062 2.734375 L 10.164062 12.015625 C 10.164062 12.332031 9.90625 12.585938 9.59375 12.585938 C 9.28125 12.585938 9.023438 12.332031 9.023438 12.015625 L 9.023438 2.167969 C 9.023438 1.851562 9.28125 1.597656 9.59375 1.597656 L 56.460938 1.597656 C 56.777344 1.597656 57.03125 1.851562 57.03125 2.167969 L 57.03125 49.035156 C 57.03125 49.351562 56.777344 49.605469 56.460938 49.605469 Z M 56.460938 49.605469 "/> <path style=" stroke:none;fill-rule:nonzero;fill:rgb(93.72549%,26.666667%,26.666667%);fill-opacity:1;" d="M 9.59375 21.03125 C 9.28125 21.03125 9.023438 20.773438 9.023438 20.460938 L 9.023438 16.128906 C 9.023438 15.816406 9.28125 15.558594 9.59375 15.558594 C 9.90625 15.558594 10.164062 15.816406 10.164062 16.128906 L 10.164062 20.460938 C 10.164062 20.773438 9.90625 21.03125 9.59375 21.03125 Z M 9.59375 21.03125 "/> <path style=" stroke:none;fill-rule:nonzero;fill:rgb(93.72549%,26.666667%,26.666667%);fill-opacity:1;" d="M 11.648438 16.699219 L 7.539062 16.699219 C 7.222656 16.699219 6.96875 16.441406 6.96875 16.128906 L 6.96875 12.015625 C 6.96875 11.703125 7.222656 11.449219 7.539062 11.449219 L 11.648438 11.449219 C 11.964844 11.449219 12.21875 11.703125 12.21875 12.015625 L 12.21875 16.128906 C 12.21875 16.441406 11.964844 16.699219 11.648438 16.699219 Z M 8.105469 15.558594 L 11.082031 15.558594 L 11.082031 12.585938 L 8.105469 12.585938 Z M 8.105469 15.558594 "/> <path style=" stroke:none;fill-rule:nonzero;fill:rgb(93.72549%,26.666667%,26.666667%);fill-opacity:1;" d="M 11.648438 31.203125 L 7.539062 31.203125 C 7.222656 31.203125 6.96875 30.949219 6.96875 30.636719 L 6.96875 20.460938 C 6.96875 20.148438 7.222656 19.890625 7.539062 19.890625 L 11.648438 19.890625 C 11.964844 19.890625 12.21875 20.148438 12.21875 20.460938 L 12.21875 30.636719 C 12.21875 30.949219 11.964844 31.203125 11.648438 31.203125 Z M 8.105469 30.066406 L 11.082031 30.066406 L 11.082031 21.027344 L 8.105469 21.03125 Z M 8.105469 30.066406 "/> <path style=" stroke:none;fill-rule:nonzero;fill:rgb(93.72549%,26.666667%,26.666667%);fill-opacity:1;" d="M 11.648438 39.753906 L 7.539062 39.753906 C 7.222656 39.753906 6.96875 39.496094 6.96875 39.183594 L 6.96875 35.070312 C 6.96875 34.757812 7.222656 34.503906 7.539062 34.503906 L 11.648438 34.503906 C 11.964844 34.503906 12.21875 34.757812 12.21875 35.070312 L 12.21875 39.183594 C 12.21875 39.496094 11.964844 39.753906 11.648438 39.753906 Z M 8.105469 38.613281 L 11.082031 38.613281 L 11.082031 35.640625 L 8.105469 35.640625 Z M 8.105469 38.613281 "/> <path style=" stroke:none;fill-rule:nonzero;fill:rgb(93.72549%,26.666667%,26.666667%);fill-opacity:1;" d="M 51.597656 17.140625 L 16.277344 17.140625 C 15.964844 17.140625 15.710938 16.886719 15.710938 16.570312 L 15.710938 8.347656 C 15.710938 8.035156 15.964844 7.777344 16.277344 7.777344 L 51.597656 7.777344 C 51.910156 7.777344 52.164062 8.035156 52.164062 8.347656 L 52.164062 16.570312 C 52.164062 16.886719 51.910156 17.140625 51.597656 17.140625 Z M 16.847656 16.003906 L 51.027344 16.003906 L 51.027344 8.917969 L 16.847656 8.917969 Z M 16.847656 16.003906 "/> <path style=" stroke:none;fill-rule:nonzero;fill:rgb(93.72549%,26.666667%,26.666667%);fill-opacity:1;" d="M 19.085938 19.484375 C 18.773438 19.484375 18.515625 19.230469 18.515625 18.917969 L 18.515625 16.570312 C 18.515625 16.257812 18.773438 16.003906 19.085938 16.003906 C 19.398438 16.003906 19.65625 16.257812 19.65625 16.570312 L 19.65625 18.917969 C 19.65625 19.230469 19.398438 19.484375 19.085938 19.484375 Z M 19.085938 19.484375 "/> <path style=" stroke:none;fill-rule:nonzero;fill:rgb(93.72549%,26.666667%,26.666667%);fill-opacity:1;" d="M 22.058594 19.484375 C 21.742188 19.484375 21.488281 19.230469 21.488281 18.917969 L 21.488281 16.570312 C 21.488281 16.257812 21.742188 16.003906 22.058594 16.003906 C 22.371094 16.003906 22.625 16.257812 22.625 16.570312 L 22.625 18.917969 C 22.625 19.230469 22.371094 19.484375 22.058594 19.484375 Z M 22.058594 19.484375 "/> <path style=" stroke:none;fill-rule:nonzero;fill:rgb(93.72549%,26.666667%,26.666667%);fill-opacity:1;" d="M 25.027344 19.484375 C 24.710938 19.484375 24.457031 19.230469 24.457031 18.917969 L 24.457031 16.570312 C 24.457031 16.257812 24.710938 16.003906 25.027344 16.003906 C 25.339844 16.003906 25.59375 16.257812 25.59375 16.570312 L 25.59375 18.917969 C 25.59375 19.230469 25.34375 19.484375 25.027344 19.484375 Z M 25.027344 19.484375 "/> <path style=" stroke:none;fill-rule:nonzero;fill:rgb(93.72549%,26.666667%,26.666667%);fill-opacity:1;" d="M 27.996094 19.484375 C 27.683594 19.484375 27.429688 19.230469 27.429688 18.917969 L 27.429688 16.570312 C 27.429688 16.257812 27.683594 16.003906 27.996094 16.003906 C 28.3125 16.003906 28.566406 16.257812 28.566406 16.570312 L 28.566406 18.917969 C 28.566406 19.230469 28.3125 19.484375 27.996094 19.484375 Z M 27.996094 19.484375 "/> <path style=" stroke:none;fill-rule:nonzero;fill:rgb(93.72549%,26.666667%,26.666667%);fill-opacity:1;" d="M 30.96875 19.484375 C 30.652344 19.484375 30.398438 19.230469 30.398438 18.917969 L 30.398438 16.570312 C 30.398438 16.257812 30.652344 16.003906 30.96875 16.003906 C 31.28125 16.003906 31.535156 16.257812 31.535156 16.570312 L 31.535156 18.917969 C 31.535156 19.230469 31.28125 19.484375 30.96875 19.484375 Z M 30.96875 19.484375 "/> <path style=" stroke:none;fill-rule:nonzero;fill:rgb(93.72549%,26.666667%,26.666667%);fill-opacity:1;" d="M 33.9375 19.484375 C 33.625 19.484375 33.367188 19.230469 33.367188 18.917969 L 33.367188 16.570312 C 33.367188 16.257812 33.625 16.003906 33.9375 16.003906 C 34.25 16.003906 34.507812 16.257812 34.507812 16.570312 L 34.507812 18.917969 C 34.507812 19.230469 34.253906 19.484375 33.9375 19.484375 Z M 33.9375 19.484375 "/> <path style=" stroke:none;fill-rule:nonzero;fill:rgb(93.72549%,26.666667%,26.666667%);fill-opacity:1;" d="M 36.90625 19.484375 C 36.59375 19.484375 36.339844 19.230469 36.339844 18.917969 L 36.339844 16.570312 C 36.339844 16.257812 36.59375 16.003906 36.90625 16.003906 C 37.222656 16.003906 37.476562 16.257812 37.476562 16.570312 L 37.476562 18.917969 C 37.476562 19.230469 37.222656 19.484375 36.90625 19.484375 Z M 36.90625 19.484375 "/> <path style=" stroke:none;fill-rule:nonzero;fill:rgb(93.72549%,26.666667%,26.666667%);fill-opacity:1;" d="M 39.878906 19.484375 C 39.566406 19.484375 39.308594 19.230469 39.308594 18.917969 L 39.308594 16.570312 C 39.308594 16.257812 39.566406 16.003906 39.878906 16.003906 C 40.191406 16.003906 40.449219 16.257812 40.449219 16.570312 L 40.449219 18.917969 C 40.449219 19.230469 40.191406 19.484375 39.878906 19.484375 Z M 39.878906 19.484375 "/> <path style=" stroke:none;fill-rule:nonzero;fill:rgb(93.72549%,26.666667%,26.666667%);fill-opacity:1;" d="M 42.851562 19.484375 C 42.535156 19.484375 42.28125 19.230469 42.28125 18.917969 L 42.28125 16.570312 C 42.28125 16.257812 42.535156 16.003906 42.851562 16.003906 C 43.164062 16.003906 43.417969 16.257812 43.417969 16.570312 L 43.417969 18.917969 C 43.417969 19.230469 43.164062 19.484375 42.851562 19.484375 Z M 42.851562 19.484375 "/> <path style=" stroke:none;fill-rule:nonzero;fill:rgb(93.72549%,26.666667%,26.666667%);fill-opacity:1;" d="M 45.820312 19.484375 C 45.503906 19.484375 45.25 19.230469 45.25 18.917969 L 45.25 16.570312 C 45.25 16.257812 45.503906 16.003906 45.820312 16.003906 C 46.132812 16.003906 46.386719 16.257812 46.386719 16.570312 L 46.386719 18.917969 C 46.386719 19.230469 46.132812 19.484375 45.820312 19.484375 Z M 45.820312 19.484375 "/> <path style=" stroke:none;fill-rule:nonzero;fill:rgb(93.72549%,26.666667%,26.666667%);fill-opacity:1;" d="M 48.789062 19.484375 C 48.476562 19.484375 48.222656 19.230469 48.222656 18.917969 L 48.222656 16.570312 C 48.222656 16.257812 48.476562 16.003906 48.789062 16.003906 C 49.105469 16.003906 49.359375 16.257812 49.359375 16.570312 L 49.359375 18.917969 C 49.359375 19.230469 49.105469 19.484375 48.789062 19.484375 Z M 48.789062 19.484375 "/> <path style=" stroke:none;fill-rule:nonzero;fill:rgb(93.72549%,26.666667%,26.666667%);fill-opacity:1;" d="M 19.085938 8.917969 C 18.773438 8.917969 18.515625 8.660156 18.515625 8.347656 L 18.515625 6.003906 C 18.515625 5.6875 18.773438 5.433594 19.085938 5.433594 C 19.398438 5.433594 19.65625 5.6875 19.65625 6.003906 L 19.65625 8.347656 C 19.65625 8.660156 19.398438 8.917969 19.085938 8.917969 Z M 19.085938 8.917969 "/> <path style=" stroke:none;fill-rule:nonzero;fill:rgb(93.72549%,26.666667%,26.666667%);fill-opacity:1;" d="M 22.058594 8.917969 C 21.742188 8.917969 21.488281 8.660156 21.488281 8.347656 L 21.488281 6.003906 C 21.488281 5.6875 21.742188 5.433594 22.058594 5.433594 C 22.371094 5.433594 22.625 5.6875 22.625 6.003906 L 22.625 8.347656 C 22.625 8.660156 22.371094 8.917969 22.058594 8.917969 Z M 22.058594 8.917969 "/> <path style=" stroke:none;fill-rule:nonzero;fill:rgb(93.72549%,26.666667%,26.666667%);fill-opacity:1;" d="M 25.027344 8.917969 C 24.710938 8.917969 24.457031 8.660156 24.457031 8.347656 L 24.457031 6.003906 C 24.457031 5.6875 24.710938 5.433594 25.027344 5.433594 C 25.339844 5.433594 25.59375 5.6875 25.59375 6.003906 L 25.59375 8.347656 C 25.59375 8.660156 25.34375 8.917969 25.027344 8.917969 Z M 25.027344 8.917969 "/> <path style=" stroke:none;fill-rule:nonzero;fill:rgb(93.72549%,26.666667%,26.666667%);fill-opacity:1;" d="M 27.996094 8.917969 C 27.683594 8.917969 27.429688 8.660156 27.429688 8.347656 L 27.429688 6.003906 C 27.429688 5.6875 27.683594 5.433594 27.996094 5.433594 C 28.3125 5.433594 28.566406 5.6875 28.566406 6.003906 L 28.566406 8.347656 C 28.566406 8.660156 28.3125 8.917969 27.996094 8.917969 Z M 27.996094 8.917969 "/> <path style=" stroke:none;fill-rule:nonzero;fill:rgb(93.72549%,26.666667%,26.666667%);fill-opacity:1;" d="M 30.96875 8.917969 C 30.652344 8.917969 30.398438 8.660156 30.398438 8.347656 L 30.398438 6.003906 C 30.398438 5.6875 30.652344 5.433594 30.96875 5.433594 C 31.28125 5.433594 31.535156 5.6875 31.535156 6.003906 L 31.535156 8.347656 C 31.535156 8.660156 31.28125 8.917969 30.96875 8.917969 Z M 30.96875 8.917969 "/> <path style=" stroke:none;fill-rule:nonzero;fill:rgb(93.72549%,26.666667%,26.666667%);fill-opacity:1;" d="M 33.9375 8.917969 C 33.625 8.917969 33.367188 8.660156 33.367188 8.347656 L 33.367188 6.003906 C 33.367188 5.6875 33.625 5.433594 33.9375 5.433594 C 34.25 5.433594 34.507812 5.6875 34.507812 6.003906 L 34.507812 8.347656 C 34.507812 8.660156 34.253906 8.917969 33.9375 8.917969 Z M 33.9375 8.917969 "/> <path style=" stroke:none;fill-rule:nonzero;fill:rgb(93.72549%,26.666667%,26.666667%);fill-opacity:1;" d="M 36.90625 8.917969 C 36.59375 8.917969 36.339844 8.660156 36.339844 8.347656 L 36.339844 6.003906 C 36.339844 5.6875 36.59375 5.433594 36.910156 5.433594 C 37.222656 5.433594 37.476562 5.6875 37.476562 6.003906 L 37.476562 8.347656 C 37.476562 8.660156 37.222656 8.917969 36.90625 8.917969 Z M 36.90625 8.917969 "/> <path style=" stroke:none;fill-rule:nonzero;fill:rgb(93.72549%,26.666667%,26.666667%);fill-opacity:1;" d="M 39.878906 8.917969 C 39.566406 8.917969 39.308594 8.660156 39.308594 8.347656 L 39.308594 6.003906 C 39.308594 5.6875 39.566406 5.433594 39.878906 5.433594 C 40.191406 5.433594 40.449219 5.6875 40.449219 6.003906 L 40.449219 8.347656 C 40.449219 8.660156 40.191406 8.917969 39.878906 8.917969 Z M 39.878906 8.917969 "/> <path style=" stroke:none;fill-rule:nonzero;fill:rgb(93.72549%,26.666667%,26.666667%);fill-opacity:1;" d="M 42.851562 8.917969 C 42.535156 8.917969 42.28125 8.660156 42.28125 8.347656 L 42.28125 6.003906 C 42.28125 5.6875 42.535156 5.433594 42.851562 5.433594 C 43.164062 5.433594 43.417969 5.6875 43.417969 6.003906 L 43.417969 8.347656 C 43.417969 8.660156 43.164062 8.917969 42.851562 8.917969 Z M 42.851562 8.917969 "/> <path style=" stroke:none;fill-rule:nonzero;fill:rgb(93.72549%,26.666667%,26.666667%);fill-opacity:1;" d="M 45.820312 8.917969 C 45.503906 8.917969 45.25 8.660156 45.25 8.347656 L 45.25 6.003906 C 45.25 5.6875 45.503906 5.433594 45.820312 5.433594 C 46.132812 5.433594 46.390625 5.6875 46.390625 6.003906 L 46.390625 8.347656 C 46.386719 8.660156 46.132812 8.917969 45.820312 8.917969 Z M 45.820312 8.917969 "/> <path style=" stroke:none;fill-rule:nonzero;fill:rgb(93.72549%,26.666667%,26.666667%);fill-opacity:1;" d="M 48.789062 8.917969 C 48.476562 8.917969 48.222656 8.660156 48.222656 8.347656 L 48.222656 6.003906 C 48.222656 5.6875 48.476562 5.433594 48.789062 5.433594 C 49.105469 5.433594 49.359375 5.6875 49.359375 6.003906 L 49.359375 8.347656 C 49.359375 8.660156 49.105469 8.917969 48.789062 8.917969 Z M 48.789062 8.917969 "/> <path style=" stroke:none;fill-rule:nonzero;fill:rgb(93.72549%,26.666667%,26.666667%);fill-opacity:1;" d="M 51.597656 27.757812 L 48.265625 27.757812 C 47.953125 27.757812 47.699219 27.5 47.699219 27.1875 L 47.699219 22.191406 C 47.699219 21.878906 47.953125 21.621094 48.265625 21.621094 L 51.597656 21.621094 C 51.910156 21.621094 52.164062 21.878906 52.164062 22.191406 L 52.164062 27.1875 C 52.164062 27.503906 51.910156 27.757812 51.597656 27.757812 Z M 48.835938 26.617188 L 51.027344 26.617188 L 51.027344 22.761719 L 48.835938 22.761719 Z M 48.835938 26.617188 "/> <path style=" stroke:none;fill-rule:nonzero;fill:rgb(93.72549%,26.666667%,26.666667%);fill-opacity:1;" d="M 44.332031 27.757812 L 41 27.757812 C 40.6875 27.757812 40.433594 27.5 40.433594 27.1875 L 40.433594 22.191406 C 40.433594 21.878906 40.6875 21.621094 41 21.621094 L 44.332031 21.621094 C 44.644531 21.621094 44.898438 21.878906 44.898438 22.191406 L 44.898438 27.1875 C 44.898438 27.503906 44.644531 27.757812 44.332031 27.757812 Z M 41.570312 26.617188 L 43.761719 26.617188 L 43.761719 22.761719 L 41.570312 22.761719 Z M 41.570312 26.617188 "/> <path style=" stroke:none;fill-rule:nonzero;fill:rgb(93.72549%,26.666667%,26.666667%);fill-opacity:1;" d="M 36.558594 36.015625 L 33.230469 36.015625 C 32.914062 36.015625 32.660156 35.761719 32.660156 35.445312 L 32.660156 26.496094 C 32.660156 26.179688 32.914062 25.925781 33.230469 25.925781 L 36.558594 25.925781 C 36.871094 25.925781 37.128906 26.179688 37.128906 26.496094 L 37.128906 35.445312 C 37.128906 35.761719 36.871094 36.015625 36.558594 36.015625 Z M 33.796875 34.878906 L 35.988281 34.878906 L 35.988281 27.0625 L 33.796875 27.0625 Z M 33.796875 34.878906 "/> <path style=" stroke:none;fill-rule:nonzero;fill:rgb(93.72549%,26.666667%,26.666667%);fill-opacity:1;" d="M 38.640625 28.730469 L 36.558594 28.730469 C 36.246094 28.730469 35.992188 28.472656 35.992188 28.160156 C 35.992188 27.847656 36.246094 27.589844 36.558594 27.589844 L 38.640625 27.589844 C 38.957031 27.589844 39.210938 27.847656 39.210938 28.160156 C 39.210938 28.472656 38.957031 28.730469 38.640625 28.730469 Z M 38.640625 28.730469 "/> <path style=" stroke:none;fill-rule:nonzero;fill:rgb(93.72549%,26.666667%,26.666667%);fill-opacity:1;" d="M 38.640625 31.539062 L 36.558594 31.539062 C 36.246094 31.539062 35.992188 31.285156 35.992188 30.96875 C 35.992188 30.65625 36.246094 30.402344 36.558594 30.402344 L 38.640625 30.402344 C 38.957031 30.402344 39.210938 30.65625 39.210938 30.96875 C 39.210938 31.285156 38.957031 31.539062 38.640625 31.539062 Z M 38.640625 31.539062 "/> <path style=" stroke:none;fill-rule:nonzero;fill:rgb(93.72549%,26.666667%,26.666667%);fill-opacity:1;" d="M 38.640625 34.351562 L 36.558594 34.351562 C 36.246094 34.351562 35.992188 34.09375 35.992188 33.78125 C 35.992188 33.46875 36.246094 33.210938 36.558594 33.210938 L 38.640625 33.210938 C 38.957031 33.210938 39.210938 33.46875 39.210938 33.78125 C 39.210938 34.09375 38.957031 34.351562 38.640625 34.351562 Z M 38.640625 34.351562 "/> <path style=" stroke:none;fill-rule:nonzero;fill:rgb(93.72549%,26.666667%,26.666667%);fill-opacity:1;" d="M 33.230469 28.730469 L 31.148438 28.730469 C 30.832031 28.730469 30.578125 28.472656 30.578125 28.160156 C 30.578125 27.847656 30.832031 27.589844 31.148438 27.589844 L 33.230469 27.589844 C 33.542969 27.589844 33.796875 27.847656 33.796875 28.160156 C 33.796875 28.472656 33.542969 28.730469 33.230469 28.730469 Z M 33.230469 28.730469 "/> <path style=" stroke:none;fill-rule:nonzero;fill:rgb(93.72549%,26.666667%,26.666667%);fill-opacity:1;" d="M 33.230469 31.539062 L 31.148438 31.539062 C 30.832031 31.539062 30.578125 31.285156 30.578125 30.96875 C 30.578125 30.65625 30.832031 30.402344 31.148438 30.402344 L 33.230469 30.402344 C 33.542969 30.402344 33.796875 30.65625 33.796875 30.96875 C 33.796875 31.285156 33.542969 31.539062 33.230469 31.539062 Z M 33.230469 31.539062 "/> <path style=" stroke:none;fill-rule:nonzero;fill:rgb(93.72549%,26.666667%,26.666667%);fill-opacity:1;" d="M 33.230469 34.351562 L 31.148438 34.351562 C 30.832031 34.351562 30.578125 34.09375 30.578125 33.78125 C 30.578125 33.46875 30.832031 33.210938 31.148438 33.210938 L 33.230469 33.210938 C 33.542969 33.210938 33.796875 33.46875 33.796875 33.78125 C 33.796875 34.09375 33.542969 34.351562 33.230469 34.351562 Z M 33.230469 34.351562 "/> <path style=" stroke:none;fill-rule:nonzero;fill:rgb(93.72549%,26.666667%,26.666667%);fill-opacity:1;" d="M 27.675781 23.109375 L 25.59375 23.109375 C 25.28125 23.109375 25.023438 22.855469 25.023438 22.539062 C 25.023438 22.226562 25.28125 21.972656 25.59375 21.972656 L 27.675781 21.972656 C 27.992188 21.972656 28.246094 22.226562 28.246094 22.539062 C 28.246094 22.855469 27.992188 23.109375 27.675781 23.109375 Z M 27.675781 23.109375 "/> <path style=" stroke:none;fill-rule:nonzero;fill:rgb(93.72549%,26.666667%,26.666667%);fill-opacity:1;" d="M 27.675781 25.917969 L 25.59375 25.917969 C 25.28125 25.917969 25.023438 25.664062 25.023438 25.347656 C 25.023438 25.035156 25.28125 24.78125 25.59375 24.78125 L 27.675781 24.78125 C 27.992188 24.78125 28.246094 25.035156 28.246094 25.347656 C 28.246094 25.664062 27.992188 25.917969 27.675781 25.917969 Z M 27.675781 25.917969 "/> <path style=" stroke:none;fill-rule:nonzero;fill:rgb(93.72549%,26.666667%,26.666667%);fill-opacity:1;" d="M 27.675781 28.730469 L 25.59375 28.730469 C 25.28125 28.730469 25.023438 28.472656 25.023438 28.160156 C 25.023438 27.847656 25.28125 27.589844 25.59375 27.589844 L 27.675781 27.589844 C 27.992188 27.589844 28.246094 27.847656 28.246094 28.160156 C 28.246094 28.472656 27.992188 28.730469 27.675781 28.730469 Z M 27.675781 28.730469 "/> <path style=" stroke:none;fill-rule:nonzero;fill:rgb(93.72549%,26.666667%,26.666667%);fill-opacity:1;" d="M 18.5 35.980469 C 16.960938 35.980469 15.710938 34.730469 15.710938 33.191406 C 15.710938 31.652344 16.960938 30.402344 18.5 30.402344 C 20.039062 30.402344 21.289062 31.652344 21.289062 33.191406 C 21.289062 34.730469 20.039062 35.980469 18.5 35.980469 Z M 18.5 31.539062 C 17.589844 31.539062 16.847656 32.28125 16.847656 33.191406 C 16.847656 34.101562 17.589844 34.84375 18.5 34.84375 C 19.410156 34.84375 20.152344 34.101562 20.152344 33.191406 C 20.152344 32.28125 19.410156 31.539062 18.5 31.539062 Z M 18.5 31.539062 "/> <path style=" stroke:none;fill-rule:nonzero;fill:rgb(93.72549%,26.666667%,26.666667%);fill-opacity:1;" d="M 18.5 27.203125 C 16.960938 27.203125 15.710938 25.949219 15.710938 24.410156 C 15.710938 22.875 16.960938 21.621094 18.5 21.621094 C 20.039062 21.621094 21.289062 22.875 21.289062 24.410156 C 21.289062 25.949219 20.039062 27.203125 18.5 27.203125 Z M 18.5 22.761719 C 17.589844 22.761719 16.847656 23.5 16.847656 24.414062 C 16.847656 25.324219 17.589844 26.066406 18.5 26.066406 C 19.410156 26.066406 20.152344 25.324219 20.152344 24.414062 C 20.152344 23.5 19.410156 22.761719 18.5 22.761719 Z M 18.5 22.761719 "/> <path style=" stroke:none;fill-rule:nonzero;fill:rgb(93.72549%,26.666667%,26.666667%);fill-opacity:1;" d="M 50.503906 39.664062 L 42.96875 39.664062 C 42.652344 39.664062 42.398438 39.40625 42.398438 39.09375 L 42.398438 31.558594 C 42.398438 31.246094 42.652344 30.988281 42.96875 30.988281 L 50.503906 30.988281 C 50.816406 30.988281 51.070312 31.246094 51.070312 31.558594 L 51.070312 39.09375 C 51.070312 39.410156 50.816406 39.664062 50.503906 39.664062 Z M 43.535156 38.523438 L 49.933594 38.523438 L 49.933594 32.125 L 43.535156 32.125 Z M 43.535156 38.523438 "/> <path style=" stroke:none;fill-rule:nonzero;fill:rgb(93.72549%,26.666667%,26.666667%);fill-opacity:1;" d="M 44.902344 40.757812 C 44.589844 40.757812 44.335938 40.503906 44.335938 40.191406 L 44.335938 39.09375 C 44.335938 38.78125 44.589844 38.527344 44.902344 38.527344 C 45.21875 38.527344 45.472656 38.78125 45.472656 39.09375 L 45.472656 40.191406 C 45.472656 40.503906 45.21875 40.757812 44.902344 40.757812 Z M 44.902344 40.757812 "/> <path style=" stroke:none;fill-rule:nonzero;fill:rgb(93.72549%,26.666667%,26.666667%);fill-opacity:1;" d="M 44.902344 32.128906 C 44.589844 32.128906 44.335938 31.875 44.335938 31.558594 L 44.335938 30.464844 C 44.335938 30.152344 44.589844 29.894531 44.902344 29.894531 C 45.21875 29.894531 45.472656 30.152344 45.472656 30.464844 L 45.472656 31.558594 C 45.472656 31.875 45.21875 32.128906 44.902344 32.128906 Z M 44.902344 32.128906 "/> <path style=" stroke:none;fill-rule:nonzero;fill:rgb(93.72549%,26.666667%,26.666667%);fill-opacity:1;" d="M 46.734375 40.757812 C 46.421875 40.757812 46.167969 40.503906 46.167969 40.191406 L 46.167969 39.09375 C 46.167969 38.78125 46.421875 38.527344 46.734375 38.527344 C 47.050781 38.527344 47.304688 38.78125 47.304688 39.09375 L 47.304688 40.191406 C 47.304688 40.503906 47.050781 40.757812 46.734375 40.757812 Z M 46.734375 40.757812 "/> <path style=" stroke:none;fill-rule:nonzero;fill:rgb(93.72549%,26.666667%,26.666667%);fill-opacity:1;" d="M 46.734375 32.128906 C 46.421875 32.128906 46.167969 31.875 46.167969 31.558594 L 46.167969 30.464844 C 46.167969 30.152344 46.421875 29.894531 46.734375 29.894531 C 47.050781 29.894531 47.304688 30.152344 47.304688 30.464844 L 47.304688 31.558594 C 47.304688 31.875 47.050781 32.128906 46.734375 32.128906 Z M 46.734375 32.128906 "/> <path style=" stroke:none;fill-rule:nonzero;fill:rgb(93.72549%,26.666667%,26.666667%);fill-opacity:1;" d="M 48.566406 40.757812 C 48.253906 40.757812 47.996094 40.503906 47.996094 40.191406 L 47.996094 39.09375 C 47.996094 38.78125 48.253906 38.527344 48.566406 38.527344 C 48.878906 38.527344 49.136719 38.78125 49.136719 39.09375 L 49.136719 40.191406 C 49.136719 40.503906 48.878906 40.757812 48.566406 40.757812 Z M 48.566406 40.757812 "/> <path style=" stroke:none;fill-rule:nonzero;fill:rgb(93.72549%,26.666667%,26.666667%);fill-opacity:1;" d="M 48.566406 32.128906 C 48.253906 32.128906 47.996094 31.875 47.996094 31.558594 L 47.996094 30.464844 C 47.996094 30.152344 48.253906 29.894531 48.566406 29.894531 C 48.878906 29.894531 49.136719 30.152344 49.136719 30.464844 L 49.136719 31.558594 C 49.136719 31.875 48.878906 32.128906 48.566406 32.128906 Z M 48.566406 32.128906 "/> <path style=" stroke:none;fill-rule:nonzero;fill:rgb(93.72549%,26.666667%,26.666667%);fill-opacity:1;" d="M 42.96875 34.0625 L 41.871094 34.0625 C 41.558594 34.0625 41.304688 33.808594 41.304688 33.496094 C 41.304688 33.179688 41.558594 32.925781 41.871094 32.925781 L 42.96875 32.925781 C 43.28125 32.925781 43.535156 33.179688 43.535156 33.496094 C 43.535156 33.808594 43.28125 34.0625 42.96875 34.0625 Z M 42.96875 34.0625 "/> <path style=" stroke:none;fill-rule:nonzero;fill:rgb(93.72549%,26.666667%,26.666667%);fill-opacity:1;" d="M 51.597656 34.0625 L 50.503906 34.0625 C 50.1875 34.0625 49.933594 33.808594 49.933594 33.496094 C 49.933594 33.179688 50.1875 32.925781 50.503906 32.925781 L 51.597656 32.925781 C 51.910156 32.925781 52.164062 33.179688 52.164062 33.496094 C 52.164062 33.808594 51.910156 34.0625 51.597656 34.0625 Z M 51.597656 34.0625 "/> <path style=" stroke:none;fill-rule:nonzero;fill:rgb(93.72549%,26.666667%,26.666667%);fill-opacity:1;" d="M 42.96875 35.894531 L 41.871094 35.894531 C 41.558594 35.894531 41.304688 35.640625 41.304688 35.328125 C 41.304688 35.011719 41.558594 34.757812 41.871094 34.757812 L 42.96875 34.757812 C 43.28125 34.757812 43.535156 35.011719 43.535156 35.328125 C 43.535156 35.640625 43.28125 35.894531 42.96875 35.894531 Z M 42.96875 35.894531 "/> <path style=" stroke:none;fill-rule:nonzero;fill:rgb(93.72549%,26.666667%,26.666667%);fill-opacity:1;" d="M 51.597656 35.894531 L 50.503906 35.894531 C 50.1875 35.894531 49.933594 35.640625 49.933594 35.328125 C 49.933594 35.011719 50.1875 34.757812 50.503906 34.757812 L 51.597656 34.757812 C 51.910156 34.757812 52.164062 35.011719 52.164062 35.328125 C 52.164062 35.640625 51.910156 35.894531 51.597656 35.894531 Z M 51.597656 35.894531 "/> <path style=" stroke:none;fill-rule:nonzero;fill:rgb(93.72549%,26.666667%,26.666667%);fill-opacity:1;" d="M 42.96875 37.726562 L 41.871094 37.726562 C 41.558594 37.726562 41.304688 37.472656 41.304688 37.15625 C 41.304688 36.84375 41.558594 36.589844 41.871094 36.589844 L 42.96875 36.589844 C 43.28125 36.589844 43.535156 36.84375 43.535156 37.15625 C 43.535156 37.472656 43.28125 37.726562 42.96875 37.726562 Z M 42.96875 37.726562 "/> <path style=" stroke:none;fill-rule:nonzero;fill:rgb(93.72549%,26.666667%,26.666667%);fill-opacity:1;" d="M 51.597656 37.726562 L 50.503906 37.726562 C 50.1875 37.726562 49.933594 37.472656 49.933594 37.15625 C 49.933594 36.84375 50.1875 36.589844 50.503906 36.589844 L 51.597656 36.589844 C 51.910156 36.589844 52.164062 36.84375 52.164062 37.15625 C 52.164062 37.472656 51.910156 37.726562 51.597656 37.726562 Z M 51.597656 37.726562 "/> <path style=" stroke:none;fill-rule:nonzero;fill:rgb(93.72549%,26.666667%,26.666667%);fill-opacity:1;" d="M 45.304688 37.371094 C 44.992188 37.371094 44.738281 37.117188 44.738281 36.800781 L 44.738281 33.851562 C 44.738281 33.539062 44.992188 33.285156 45.304688 33.285156 C 45.621094 33.285156 45.875 33.539062 45.875 33.851562 L 45.875 36.800781 C 45.875 37.117188 45.621094 37.371094 45.304688 37.371094 Z M 45.304688 37.371094 "/> <path style=" stroke:none;fill-rule:nonzero;fill:rgb(93.72549%,26.666667%,26.666667%);fill-opacity:1;" d="M 48.164062 37.371094 C 47.851562 37.371094 47.59375 37.117188 47.59375 36.800781 L 47.59375 33.851562 C 47.59375 33.539062 47.851562 33.285156 48.164062 33.285156 C 48.476562 33.285156 48.734375 33.539062 48.734375 33.851562 L 48.734375 36.800781 C 48.734375 37.117188 48.480469 37.371094 48.164062 37.371094 Z M 48.164062 37.371094 "/> <path style=" stroke:none;fill-rule:nonzero;fill:rgb(93.72549%,26.666667%,26.666667%);fill-opacity:1;" d="M 48.320312 44.429688 L 44.277344 44.429688 C 43.960938 44.429688 43.707031 44.175781 43.707031 43.863281 C 43.707031 43.546875 43.960938 43.292969 44.277344 43.292969 L 48.320312 43.292969 C 48.632812 43.292969 48.890625 43.546875 48.890625 43.863281 C 48.890625 44.175781 48.632812 44.429688 48.320312 44.429688 Z M 48.320312 44.429688 "/> <path style=" stroke:none;fill-rule:nonzero;fill:rgb(93.72549%,26.666667%,26.666667%);fill-opacity:1;" d="M 32.828125 45.765625 L 20.167969 45.765625 C 19.855469 45.765625 19.597656 45.511719 19.597656 45.199219 L 19.597656 42.527344 C 19.597656 42.214844 19.855469 41.960938 20.167969 41.960938 L 32.828125 41.960938 C 33.144531 41.960938 33.398438 42.214844 33.398438 42.527344 L 33.398438 45.199219 C 33.398438 45.511719 33.144531 45.765625 32.828125 45.765625 Z M 20.738281 44.628906 L 32.261719 44.628906 L 32.261719 43.097656 L 20.738281 43.097656 Z M 20.738281 44.628906 "/> <path style=" stroke:none;fill-rule:nonzero;fill:rgb(93.72549%,26.666667%,26.666667%);fill-opacity:1;" d="M 34.28125 44.429688 L 32.828125 44.429688 C 32.515625 44.429688 32.261719 44.175781 32.261719 43.863281 C 32.261719 43.546875 32.515625 43.292969 32.828125 43.292969 L 34.28125 43.292969 C 34.59375 43.292969 34.851562 43.546875 34.851562 43.863281 C 34.851562 44.175781 34.59375 44.429688 34.28125 44.429688 Z M 34.28125 44.429688 "/> <path style=" stroke:none;fill-rule:nonzero;fill:rgb(93.72549%,26.666667%,26.666667%);fill-opacity:1;" d="M 20.167969 44.429688 L 18.992188 44.429688 C 18.675781 44.429688 18.421875 44.175781 18.421875 43.863281 C 18.421875 43.546875 18.675781 43.292969 18.992188 43.292969 L 20.167969 43.292969 C 20.480469 43.292969 20.738281 43.546875 20.738281 43.863281 C 20.738281 44.175781 20.480469 44.429688 20.167969 44.429688 Z M 20.167969 44.429688 "/> <path style=" stroke:none;fill-rule:nonzero;fill:rgb(93.72549%,26.666667%,26.666667%);fill-opacity:1;" d="M 27.75 35.980469 L 25.523438 35.980469 C 25.210938 35.980469 24.957031 35.726562 24.957031 35.410156 L 24.957031 33.1875 C 24.957031 32.875 25.210938 32.617188 25.523438 32.617188 L 27.75 32.617188 C 28.0625 32.617188 28.316406 32.875 28.316406 33.1875 L 28.316406 35.410156 C 28.316406 35.726562 28.0625 35.980469 27.75 35.980469 Z M 26.09375 34.84375 L 27.179688 34.84375 L 27.179688 33.757812 L 26.09375 33.757812 Z M 26.09375 34.84375 "/> </g> </svg>
