<svg xmlns="http://www.w3.org/2000/svg" width="64" height="px" viewBox="0 0 64 64"><path d="M52 57H12a5.005 5.005 0 0 1-5-5v-2c0-.55.45-1 1-1h48c.55 0 1 .45 1 1v2a5.005 5.005 0 0 1-5 5ZM9 51v1a3 3 0 0 0 3 3h40a3 3 0 0 0 3-3v-1Zm0 0" style="stroke:none;fill-rule:nonzero;fill:#ef4444;fill-opacity:1"/><path d="M36 54h-8c-.55 0-1-.45-1-1v-3c0-.55.45-1 1-1s1 .45 1 1v2h6v-2c0-.55.45-1 1-1s1 .45 1 1v3c0 .55-.45 1-1 1Zm0 0" style="stroke:none;fill-rule:nonzero;fill:#ef4444;fill-opacity:1"/><path d="M54 51H10c-.55 0-1-.45-1-1V16c0-.55.45-1 1-1h8c.55 0 1 .45 1 1s-.45 1-1 1h-7v32h42V17h-3c-.55 0-1-.45-1-1s.45-1 1-1h4c.55 0 1 .45 1 1v34c0 .55-.45 1-1 1Zm0 0" style="stroke:none;fill-rule:nonzero;fill:#ef4444;fill-opacity:1"/><path d="M46 44H18c-.55 0-1-.45-1-1V8c0-.55.45-1 1-1h28c.55 0 1 .45 1 1v35c0 .55-.45 1-1 1Zm-27-2h26V9H19Zm0 0" style="stroke:none;fill-rule:nonzero;fill:#ef4444;fill-opacity:1"/><path d="M27 24a1 1 0 0 1-.707-.293l-4-4a1 1 0 0 1 0-1.414l4-4a1 1 0 0 1 1.414 1.414L24.414 19l3.293 3.293a.998.998 0 0 1 .215 1.09A.99.99 0 0 1 27 24ZM37 24a.99.99 0 0 1-.922-.617.998.998 0 0 1 .215-1.09L39.586 19l-3.293-3.293a1 1 0 0 1 1.414-1.414l4 4a1 1 0 0 1 0 1.414l-4 4A1 1 0 0 1 37 24ZM30 24c-.348 0-.668-.18-.852-.473-.18-.297-.199-.664-.043-.972l4-8a1.001 1.001 0 0 1 1.344-.45.996.996 0 0 1 .446 1.34l-4 8A.998.998 0 0 1 30 24ZM37 29H27c-.55 0-1-.45-1-1s.45-1 1-1h10c.55 0 1 .45 1 1s-.45 1-1 1ZM37 34H27c-.55 0-1-.45-1-1s.45-1 1-1h10c.55 0 1 .45 1 1s-.45 1-1 1ZM37 39H27c-.55 0-1-.45-1-1s.45-1 1-1h10c.55 0 1 .45 1 1s-.45 1-1 1Zm0 0" style="stroke:none;fill-rule:nonzero;fill:#ef4444;fill-opacity:1"/></svg>