<svg xmlns="http://www.w3.org/2000/svg" width="64" height="64"><path d="M45.414 4.355a5.266 5.266 0 0 0-3.719-1.535c-1.394 0-2.73.551-3.718 1.535l-6.247 6.25a1.71 1.71 0 0 0 0 2.422l.891.891-2.652 2.648c-.043-.05-.078-.105-.13-.156l-1.276-1.281v.004a2.463 2.463 0 0 0-1.778-.746 2.49 2.49 0 0 0-1.898.863 2.575 2.575 0 0 0 .203 3.512l1.2 1.199c.05.05.105.086.155.129l-1.25 1.262a3.985 3.985 0 0 0-1.175 2.824c0 1.058.425 2.074 1.175 2.824l.297.293-3.445 3.457h-.004a11.633 11.633 0 0 0-3.39 8.18v.293a2.593 2.593 0 0 0-1.606 2.398c0 .57.191 1.121.543 1.57h-1.371a2.933 2.933 0 0 0-2.059.856 2.916 2.916 0 0 0-.855 2.058v1.766a.512.512 0 0 0 .511.512h32.489a.525.525 0 0 0 .363-.149.525.525 0 0 0 .148-.363v-1.766c0-.77-.308-1.511-.855-2.058a2.926 2.926 0 0 0-2.059-.856h-1.367c.348-.449.54-1 .543-1.57 0-.687-.273-1.348-.762-1.836a2.606 2.606 0 0 0-1.836-.762h-8.566l-.008-1.808 3.063-3.074.18.18c.199.199.523.199.722 0l4.203-4.196v-.004c.457-.465.715-1.09.715-1.738 0-.653-.258-1.278-.715-1.742l-2.972-2.98c-.047-.048-.102-.083-.153-.126l2.645-2.644.89.89a1.715 1.715 0 0 0 2.422 0l6.246-6.246a5.263 5.263 0 0 0 0-7.438ZM25.816 18.04a1.576 1.576 0 0 1-.16-2.113 1.5 1.5 0 0 1 1.125-.512c.395-.004.774.156 1.047.438l1.285 1.285c.36.379.492.918.356 1.422-.14.5-.532.894-1.035 1.035a1.496 1.496 0 0 1-1.422-.356Zm-3.05 13.434 3.449-3.457.297.3a3.985 3.985 0 0 0 2.828 1.176h.012a3.924 3.924 0 0 0 2.804-1.176l1.266-1.253c.043.05.082.109.129.152l1.168 1.172-2.387 2.398c-.2.2-.2.524 0 .723l.172.172-3.059 3.066a3.378 3.378 0 0 0-1.015 2.434v1.843h-8.758v-.093a10.61 10.61 0 0 1 3.094-7.457Zm23.027 14.632v1.254H14.328v-1.254c.004-.5.203-.98.555-1.335a1.906 1.906 0 0 1 1.336-.555h27.683c.5.004.98.203 1.336.555.356.355.555.835.555 1.335Zm-3.738-4.484c0 .414-.164.816-.461 1.11a1.56 1.56 0 0 1-1.11.46H19.641c-.563 0-1.082-.3-1.364-.785a1.573 1.573 0 0 1 1.363-2.36h20.84c.418 0 .817.169 1.114.462.293.297.457.695.46 1.113ZM31.18 36.488a.983.983 0 0 0-.29.692v1.843h-1.437V37.18a2.377 2.377 0 0 1 .711-1.707l3.063-3.07 1.015 1.015Zm8.168-9.12c.27.269.418.636.418 1.019 0 .379-.149.746-.418 1.015l-3.84 3.836-2.09-2.09 2.39-2.398c.2-.2.2-.523 0-.723l-1.535-1.53v-.005a1.485 1.485 0 0 1 .668-2.484 1.48 1.48 0 0 1 1.438.383Zm-3.344-4.333a2.473 2.473 0 0 0-1.738.117 2.468 2.468 0 0 0-1.23 1.23 2.485 2.485 0 0 0-.118 1.735l-1.484 1.477c-.551.558-1.301.87-2.086.87h-.008c-.79 0-1.547-.312-2.102-.874l-1.316-1.317a2.947 2.947 0 0 1-.875-2.097c0-.79.312-1.547.875-2.102l1.469-1.48a2.475 2.475 0 0 0 2.96-1.352c.25-.543.29-1.16.122-1.73l2.867-2.867 5.531 5.527Zm12.426-8.223-6.25 6.25a.693.693 0 0 1-.973 0l-1.242-1.246c-.004-.003-.004-.007-.008-.011l-6.254-6.25c0-.004-.008-.008-.012-.008L32.45 12.3a.69.69 0 0 1-.203-.485c0-.183.074-.359.203-.488l6.25-6.246a4.236 4.236 0 0 1 5.989 0L48.43 8.82a4.243 4.243 0 0 1 0 5.992Zm0 0" style="stroke:none;fill-rule:nonzero;fill:#ef4444;fill-opacity:1"/></svg>