<svg xmlns="http://www.w3.org/2000/svg" width="64" height="64"><path d="M49.305 43.086H14.69a.567.567 0 0 1-.566-.566V7.906c0-.316.254-.57.566-.57h34.614c.316 0 .57.254.57.57V42.52c0 .312-.254.57-.57.57Zm-34.043-1.137h33.476V8.473H15.262Zm0 0" style="stroke:none;fill-rule:nonzero;fill:#ef4444;fill-opacity:1"/><path d="M39.906 33.688H24.094a.568.568 0 0 1-.57-.567V17.305c0-.313.253-.57.57-.57h15.812c.317 0 .57.257.57.57V33.12a.568.568 0 0 1-.57.566ZM24.66 32.55h14.68V17.87H24.66ZM20.906 50.633a.571.571 0 0 1-.57-.57V39.19a.568.568 0 1 1 1.137 0v10.871a.57.57 0 0 1-.567.57ZM20.906 11.8a.568.568 0 0 1-.57-.566V1.137a.568.568 0 0 1 1.137 0v10.097a.567.567 0 0 1-.567.567ZM26.453 50.633a.574.574 0 0 1-.57-.57V39.19a.571.571 0 0 1 1.14 0v10.871c0 .313-.257.57-.57.57ZM26.453 11.8a.57.57 0 0 1-.57-.566V1.137a.57.57 0 0 1 1.14 0v10.097a.57.57 0 0 1-.57.567ZM32 50.633a.574.574 0 0 1-.57-.57V39.19a.571.571 0 0 1 1.14 0v10.871c0 .313-.258.57-.57.57ZM32 11.8a.57.57 0 0 1-.57-.566V1.137a.57.57 0 0 1 1.14 0v10.097a.57.57 0 0 1-.57.567ZM37.547 50.633a.574.574 0 0 1-.57-.57V39.19a.571.571 0 0 1 1.14 0v10.871c0 .313-.254.57-.57.57ZM37.547 11.8a.57.57 0 0 1-.57-.566V1.137a.57.57 0 0 1 1.14 0v10.097a.568.568 0 0 1-.57.567ZM43.094 50.633a.57.57 0 0 1-.567-.57V39.19a.568.568 0 1 1 1.137 0v10.871c0 .313-.254.57-.57.57ZM43.094 11.8a.567.567 0 0 1-.567-.566V1.137a.568.568 0 0 1 1.137 0v10.097a.568.568 0 0 1-.57.567ZM18.41 14.688H7.54a.571.571 0 0 1 0-1.141h10.87c.313 0 .57.258.57.57 0 .313-.257.57-.57.57ZM56.46 14.688H46.368a.571.571 0 0 1 0-1.141h10.094a.571.571 0 0 1 0 1.14ZM18.41 20.234H7.54a.571.571 0 0 1 0-1.14h10.87c.313 0 .57.258.57.57 0 .313-.257.57-.57.57ZM56.46 20.234H46.368a.571.571 0 0 1 0-1.14h10.094a.571.571 0 0 1 0 1.14ZM18.41 25.781H7.54a.568.568 0 1 1 0-1.136h10.87a.57.57 0 0 1 .57.566c0 .316-.257.57-.57.57ZM56.46 25.781H46.368a.568.568 0 1 1 0-1.136h10.094a.568.568 0 1 1 0 1.136ZM18.41 31.328H7.54a.571.571 0 0 1 0-1.14h10.87a.571.571 0 0 1 0 1.14ZM56.46 31.328H46.368a.571.571 0 0 1 0-1.14h10.094a.571.571 0 0 1 0 1.14ZM18.41 36.875H7.54a.571.571 0 0 1 0-1.14h10.87c.313 0 .57.257.57.57 0 .312-.257.57-.57.57ZM56.46 36.875H46.368a.571.571 0 0 1 0-1.14h10.094a.571.571 0 0 1 0 1.14Zm0 0" style="stroke:none;fill-rule:nonzero;fill:#ef4444;fill-opacity:1"/><path d="M6.781 52.883a.173.173 0 0 1-.062.023c-.02.008-.043.008-.067.008a.244.244 0 0 1-.164-.055.218.218 0 0 1-.058-.16.21.21 0 0 1 .058-.156.228.228 0 0 1 .164-.059c.024 0 .047.004.067.008a.173.173 0 0 1 .062.024v.086a.133.133 0 0 0-.058-.028.162.162 0 0 0-.063-.011.113.113 0 0 0-.09.039.146.146 0 0 0-.03.097c0 .043.01.078.03.102a.124.124 0 0 0 .09.035c.024 0 .043-.004.063-.008.02-.008.039-.016.058-.031ZM7.098 52.68c-.012-.004-.02-.008-.028-.008-.008-.004-.015-.004-.027-.004a.07.07 0 0 0-.059.027.116.116 0 0 0-.02.07v.141h-.1v-.312h.1v.054c.013-.023.028-.035.044-.046a.13.13 0 0 1 .058-.012h.032ZM7.457 52.75v.027h-.234c.004.024.011.043.027.055a.094.094 0 0 0 .059.016c.023 0 .043-.004.066-.008.02-.008.043-.016.066-.028v.075c-.023.011-.046.015-.07.023-.023.004-.047.004-.07.004-.055 0-.102-.012-.133-.043-.031-.027-.047-.066-.047-.121 0-.05.016-.09.047-.117.031-.031.074-.043.129-.043.047 0 .086.012.117.043.027.031.043.07.043.117Zm-.102-.035a.063.063 0 0 0-.02-.043.056.056 0 0 0-.042-.02.065.065 0 0 0-.047.02c-.012.012-.02.023-.02.043ZM7.672 52.766c-.024 0-.04.004-.047.011a.036.036 0 0 0-.016.032c0 .011.004.023.012.03.008.005.02.009.035.009.02 0 .035-.008.047-.02a.074.074 0 0 0 .02-.05v-.012Zm.152-.036v.176h-.101v-.047c-.016.02-.028.036-.047.043a.13.13 0 0 1-.059.012.106.106 0 0 1-.078-.027.1.1 0 0 1-.031-.075c0-.035.012-.062.039-.078.023-.02.062-.027.117-.027h.059v-.008a.041.041 0 0 0-.02-.035c-.012-.008-.031-.012-.058-.012a.271.271 0 0 0-.11.027v-.074a.182.182 0 0 1 .067-.011c.02-.004.043-.004.062-.004.055 0 .098.012.121.031.024.024.04.059.04.11ZM8.023 52.508v.086h.102v.074h-.102v.129c0 .016.004.027.008.031.008.004.02.008.035.008h.051v.07h-.086c-.039 0-.066-.008-.082-.023-.015-.016-.023-.043-.023-.086v-.129h-.051v-.074h.05v-.086ZM8.5 52.75v.027h-.234c.004.024.011.043.027.055.012.012.031.016.059.016.02 0 .043-.004.062-.008.024-.008.047-.016.07-.028v.075c-.023.011-.046.015-.07.023-.027.004-.047.004-.07.004-.059 0-.102-.012-.133-.043-.031-.027-.047-.066-.047-.121 0-.05.016-.09.047-.117.027-.031.07-.043.125-.043.05 0 .09.012.117.043.031.031.047.07.047.117Zm-.105-.035a.059.059 0 0 0-.016-.043.063.063 0 0 0-.043-.02.065.065 0 0 0-.047.02.077.077 0 0 0-.023.043ZM8.785 52.64v-.163h.098v.43h-.098v-.044c-.015.016-.027.032-.047.04a.125.125 0 0 1-.054.011.119.119 0 0 1-.094-.043.174.174 0 0 1-.04-.121.17.17 0 0 1 .04-.117.119.119 0 0 1 .094-.043c.02 0 .039.004.054.012a.207.207 0 0 1 .047.039Zm-.066.204c.023 0 .039-.008.05-.024.012-.015.016-.039.016-.07 0-.027-.004-.05-.015-.066-.012-.016-.028-.024-.051-.024-.02 0-.04.008-.047.024a.112.112 0 0 0-.02.066c0 .031.008.055.02.07.008.016.027.024.047.024ZM9.344 52.844c.023 0 .039-.008.047-.024a.116.116 0 0 0 .02-.07.112.112 0 0 0-.02-.066c-.008-.016-.024-.024-.047-.024-.02 0-.04.008-.047.024a.112.112 0 0 0-.02.066c0 .031.008.055.02.07.008.016.027.024.047.024Zm-.067-.203c.016-.016.028-.032.043-.04a.157.157 0 0 1 .059-.011c.039 0 .07.015.098.043a.19.19 0 0 1 .035.117c0 .05-.012.09-.035.121a.133.133 0 0 1-.098.043.157.157 0 0 1-.059-.012c-.015-.007-.027-.023-.043-.039v.043H9.18v-.43h.097ZM9.547 52.594h.098l.082.215.074-.215h.097l-.128.343a.18.18 0 0 1-.047.07.11.11 0 0 1-.07.024h-.06v-.066h.032c.02 0 .031-.004.04-.008a.059.059 0 0 0 .015-.031l.004-.008ZM10.445 52.504v.09a.204.204 0 0 0-.062-.024c-.024-.004-.043-.008-.063-.008-.027 0-.047.004-.058.012-.012.008-.02.016-.02.031 0 .012.008.02.016.028a.17.17 0 0 0 .043.015l.047.008c.047.012.078.024.097.043.02.02.028.047.028.082 0 .043-.012.078-.04.102-.027.023-.066.031-.124.031-.028 0-.051 0-.079-.008a.457.457 0 0 1-.078-.02v-.09c.024.013.051.024.075.032.027.004.05.008.074.008.023 0 .039-.004.05-.012.012-.008.02-.015.02-.031s-.004-.023-.012-.031a.478.478 0 0 0-.05-.02l-.043-.008a.176.176 0 0 1-.09-.043.106.106 0 0 1-.028-.078c0-.043.012-.074.04-.093a.17.17 0 0 1 .113-.036.43.43 0 0 1 .07.008c.024 0 .05.008.074.012ZM10.82 52.832h-.168l-.027.074h-.105l.152-.414h.129l.152.414h-.105Zm-.14-.078h.113l-.055-.164ZM11.008 52.492h.137l.093.223.094-.223h.137v.414h-.098v-.3l-.098.222h-.066l-.098-.223v.301h-.101ZM11.879 52.574v.25h.039c.043 0 .078-.008.102-.031.023-.02.03-.05.03-.094 0-.043-.007-.074-.03-.094-.024-.023-.06-.03-.102-.03Zm-.106-.082h.114c.062 0 .11.004.14.016a.191.191 0 0 1 .078.043c.02.02.036.043.043.066.012.024.016.051.016.082a.181.181 0 0 1-.016.082.15.15 0 0 1-.043.067.189.189 0 0 1-.082.047.564.564 0 0 1-.136.011h-.114ZM12.55 52.75v.027h-.23a.08.08 0 0 0 .024.055c.015.012.035.016.062.016.02 0 .04-.004.063-.008a.476.476 0 0 0 .066-.028v.075c-.023.011-.047.015-.07.023-.024.004-.047.004-.07.004-.055 0-.098-.012-.13-.043-.03-.027-.046-.066-.046-.121 0-.05.015-.09.043-.117.031-.031.074-.043.129-.043.046 0 .086.012.117.043.027.031.043.07.043.117Zm-.1-.035a.082.082 0 0 0-.016-.043.063.063 0 0 0-.043-.02.082.082 0 0 0-.051.02.11.11 0 0 0-.02.043ZM12.871 52.605v.075c-.023-.008-.043-.012-.062-.02-.02-.004-.04-.008-.055-.008a.105.105 0 0 0-.043.008c-.012.008-.016.012-.016.024 0 .007.004.015.012.02.008.003.02.007.035.007l.02.004c.05.008.086.015.101.031.02.016.028.04.028.07 0 .032-.012.059-.036.075a.217.217 0 0 1-.109.023c-.023 0-.043 0-.066-.004-.02-.004-.043-.008-.067-.015v-.075c.02.008.04.016.059.02.023.008.043.008.066.008.02 0 .032 0 .043-.008.012-.004.016-.012.016-.024a.021.021 0 0 0-.012-.02.115.115 0 0 0-.039-.01h-.02c-.042-.009-.074-.016-.09-.032-.019-.016-.027-.04-.027-.07 0-.032.012-.055.032-.07a.192.192 0 0 1 .105-.024c.02 0 .04 0 .059.004.02 0 .043.008.066.011ZM12.965 52.594h.101v.312h-.101Zm0-.117h.101v.078h-.101ZM13.371 52.855a.135.135 0 0 1-.043.04.13.13 0 0 1-.058.011.119.119 0 0 1-.094-.043.189.189 0 0 1 0-.23.119.119 0 0 1 .094-.043.13.13 0 0 1 .058.012.135.135 0 0 1 .043.039v-.047h.102v.281c0 .05-.016.09-.047.113a.204.204 0 0 1-.137.043c-.02 0-.039-.004-.059-.008-.015 0-.035-.007-.054-.011v-.078a.19.19 0 0 0 .05.023c.02.004.036.008.051.008.032 0 .059-.008.075-.024.011-.011.02-.035.02-.066Zm-.062-.195c-.024 0-.04.008-.051.024-.012.015-.016.035-.016.066 0 .027.004.047.016.063.012.015.027.019.05.019.02 0 .036-.004.047-.02.012-.015.016-.035.016-.062 0-.031-.004-.05-.016-.066a.056.056 0 0 0-.046-.024ZM13.879 52.715v.191h-.098v-.144c0-.028-.004-.047-.004-.055 0-.012 0-.02-.004-.023-.003-.008-.011-.012-.015-.016-.008 0-.016-.004-.024-.004-.02 0-.039.008-.05.023-.012.016-.016.04-.016.067v.152h-.102v-.312h.102v.047c.016-.016.031-.032.047-.04a.125.125 0 0 1 .055-.011c.035 0 .062.008.082.031.02.024.027.055.027.098ZM14.215 52.605v.075c-.02-.008-.043-.012-.063-.02-.02-.004-.035-.008-.054-.008a.105.105 0 0 0-.043.008c-.008.008-.012.012-.012.024a.03.03 0 0 0 .008.02c.008.003.02.007.039.007l.02.004c.05.008.081.015.1.031.017.016.028.04.028.07a.089.089 0 0 1-.039.075.198.198 0 0 1-.11.023c-.019 0-.042 0-.062-.004a.33.33 0 0 1-.066-.015v-.075c.02.008.039.016.059.02.02.008.043.008.062.008.02 0 .035 0 .043-.008.012-.004.016-.012.016-.024a.03.03 0 0 0-.008-.02.158.158 0 0 0-.04-.01h-.019a.218.218 0 0 1-.094-.032.097.097 0 0 1-.027-.07c0-.032.012-.055.035-.07a.192.192 0 0 1 .106-.024c.015 0 .035 0 .054.004.024 0 .043.008.067.011ZM6.652 53.043v.066h-.054a.06.06 0 0 0-.032.008c-.003.004-.007.012-.007.028v.02h.086v.07h-.086v.242H6.46v-.243h-.05v-.07h.05v-.02c0-.035.008-.058.027-.074.02-.02.047-.027.086-.027ZM6.926 53.25a.19.19 0 0 0-.028-.012h-.023c-.027 0-.047.008-.059.024-.015.015-.023.039-.023.07v.145h-.098v-.313h.098v.05c.016-.019.027-.034.043-.042a.164.164 0 0 1 .062-.016c.004 0 .008 0 .012.004h.016ZM7.125 53.23c-.023 0-.04.008-.05.024-.013.016-.016.035-.016.066 0 .032.003.055.015.07.012.016.028.024.051.024.02 0 .04-.008.05-.023a.156.156 0 0 0 0-.137.063.063 0 0 0-.05-.024Zm0-.074c.05 0 .094.016.125.047a.16.16 0 0 1 .043.117.17.17 0 0 1-.043.121.186.186 0 0 1-.125.043c-.055 0-.098-.015-.125-.043-.031-.027-.047-.07-.047-.12 0-.051.016-.09.047-.118.027-.031.07-.047.125-.047ZM7.656 53.215c.012-.02.028-.031.043-.043a.13.13 0 0 1 .059-.016c.035 0 .062.012.078.035.02.02.031.051.031.094v.192h-.101v-.184c0-.02 0-.035-.008-.047-.008-.008-.016-.012-.031-.012-.02 0-.036.008-.043.02-.012.016-.016.039-.016.07v.153h-.102v-.164a.212.212 0 0 0-.007-.067c-.008-.008-.016-.012-.032-.012a.065.065 0 0 0-.047.02.156.156 0 0 0-.015.07v.153h-.098v-.313h.098v.047a.101.101 0 0 1 .043-.04.127.127 0 0 1 .05-.015.13.13 0 0 1 .06.016c.015.012.027.027.038.043ZM8.266 53.078v.086h.101v.07h-.101v.133a.06.06 0 0 0 .007.031c.008.004.02.004.036.004h.05v.075h-.086c-.039 0-.066-.008-.082-.024-.015-.02-.023-.047-.023-.086v-.133h-.05v-.07h.05v-.086ZM8.742 53.285v.192h-.101V53.277c0-.011-.004-.02-.008-.023a.03.03 0 0 0-.016-.016c-.004-.004-.012-.004-.02-.004-.023 0-.038.008-.05.024a.103.103 0 0 0-.02.066v.153H8.43v-.434h.097v.168a.138.138 0 0 1 .047-.04.11.11 0 0 1 .059-.015.1.1 0 0 1 .082.035c.015.02.027.051.027.094ZM9.145 53.32v.028h-.23c0 .023.01.039.023.05a.1.1 0 0 0 .062.02c.02 0 .04-.004.063-.008.023-.008.042-.02.066-.031v.078a.472.472 0 0 1-.14.027.19.19 0 0 1-.13-.043c-.03-.027-.046-.07-.046-.12 0-.051.011-.09.042-.118a.174.174 0 0 1 .13-.047c.046 0 .085.016.117.047a.16.16 0 0 1 .043.117Zm-.102-.035a.063.063 0 0 0-.02-.043.048.048 0 0 0-.039-.02c-.02 0-.035.008-.05.016a.13.13 0 0 0-.02.047ZM9.422 53.063h.121l.152.285v-.285h.102v.414h-.121l-.153-.286v.286h-.101ZM10.043 53.23c-.023 0-.04.008-.05.024-.013.016-.016.035-.016.066 0 .032.003.055.015.07.012.016.028.024.051.024.02 0 .039-.008.05-.023.012-.016.016-.04.016-.07 0-.032-.004-.051-.015-.067a.063.063 0 0 0-.051-.024Zm0-.074c.055 0 .094.016.125.047a.16.16 0 0 1 .043.117.17.17 0 0 1-.043.121.18.18 0 0 1-.125.043c-.055 0-.098-.015-.125-.043-.031-.027-.047-.07-.047-.12 0-.051.016-.09.047-.118.027-.031.07-.047.125-.047ZM10.281 53.355v-.19h.102V53.362c0 .012.004.02.008.024.004.008.007.015.015.015a.056.056 0 0 0 .024.008c.02 0 .035-.008.047-.023a.112.112 0 0 0 .02-.067v-.156h.097v.313h-.098v-.047a.234.234 0 0 1-.047.043.157.157 0 0 1-.058.011.112.112 0 0 1-.082-.03.18.18 0 0 1-.028-.099ZM11.004 53.285v.192h-.102V53.277c-.004-.011-.004-.02-.007-.023a.03.03 0 0 0-.016-.016c-.008-.004-.012-.004-.024-.004a.056.056 0 0 0-.046.024.103.103 0 0 0-.02.066v.153h-.098v-.313h.098v.047a.138.138 0 0 1 .047-.04.098.098 0 0 1 .055-.015c.039 0 .066.012.082.035.02.02.03.051.03.094ZM11.297 53.063h.18c.05 0 .09.011.12.035.028.023.04.054.04.097 0 .043-.012.078-.04.102a.194.194 0 0 1-.12.035h-.075v.145h-.105Zm.105.074v.117h.063c.02 0 .035-.004.047-.016.011-.008.015-.023.015-.043a.059.059 0 0 0-.015-.043.084.084 0 0 0-.047-.015ZM11.941 53.25a.19.19 0 0 0-.027-.012h-.023a.082.082 0 0 0-.063.024.116.116 0 0 0-.02.07v.145h-.097v-.313h.098v.05a.113.113 0 0 1 .043-.042.164.164 0 0 1 .062-.016c.004 0 .008 0 .012.004h.015ZM12.14 53.23c-.023 0-.038.008-.05.024a.103.103 0 0 0-.02.066c0 .032.008.055.02.07.012.016.027.024.05.024.02 0 .036-.008.047-.023a.116.116 0 0 0 .02-.07.103.103 0 0 0-.02-.067.056.056 0 0 0-.046-.024Zm0-.074c.051 0 .094.016.122.047.031.027.047.067.047.117 0 .051-.016.094-.047.121a.17.17 0 0 1-.121.043.19.19 0 0 1-.13-.043.17.17 0 0 1-.042-.12c0-.051.015-.09.043-.118a.174.174 0 0 1 .129-.047ZM12.383 53.164h.097v.305c0 .043-.007.074-.03.097a.115.115 0 0 1-.087.032h-.047v-.067h.016c.02 0 .031-.004.04-.011.007-.008.01-.024.01-.051Zm0-.121h.097v.082h-.097ZM12.887 53.32v.028h-.23c0 .023.011.039.023.05a.1.1 0 0 0 .062.02c.02 0 .04-.004.063-.008.023-.008.043-.02.066-.031v.078a.472.472 0 0 1-.14.027.19.19 0 0 1-.13-.043c-.03-.027-.046-.07-.046-.12 0-.051.011-.09.043-.118a.174.174 0 0 1 .129-.047c.046 0 .085.016.117.047a.16.16 0 0 1 .043.117Zm-.102-.035a.063.063 0 0 0-.02-.043.048.048 0 0 0-.038-.02c-.02 0-.036.008-.051.016a.13.13 0 0 0-.02.047ZM13.215 53.176v.078c-.016-.008-.027-.016-.043-.02-.012-.004-.027-.004-.043-.004a.082.082 0 0 0-.063.024.092.092 0 0 0-.023.066c0 .032.008.051.023.067.016.02.036.027.063.027.016 0 .031-.004.047-.008a.182.182 0 0 0 .039-.02v.083l-.047.011c-.02.004-.035.004-.05.004a.208.208 0 0 1-.134-.043c-.03-.027-.046-.07-.046-.12 0-.051.015-.09.046-.118a.19.19 0 0 1 .133-.047c.016 0 .035.004.051.004a.22.22 0 0 1 .047.016ZM13.406 53.078v.086h.106v.07h-.106v.133c0 .016.004.024.012.031.004.004.016.004.031.004h.051v.075h-.082c-.043 0-.07-.008-.086-.024-.016-.02-.023-.047-.023-.086v-.133h-.051v-.07h.05v-.086Zm0 0" style="stroke:none;fill-rule:nonzero;fill:#000;fill-opacity:1"/></svg>