<svg xmlns="http://www.w3.org/2000/svg" width="64" height="64"><path d="M9.594 35.64a.571.571 0 0 1-.57-.57v-4.433a.571.571 0 0 1 1.14 0v4.433c0 .317-.258.57-.57.57Zm0 0" style="stroke:none;fill-rule:nonzero;fill:#ef4444;fill-opacity:1"/><path d="M56.46 49.605H9.595a.574.574 0 0 1-.57-.57v-9.851a.571.571 0 0 1 1.14 0v9.28h45.73V2.735h-45.73v9.282a.571.571 0 0 1-1.14 0V2.168c0-.316.257-.57.57-.57H56.46c.316 0 .57.254.57.57v46.867c0 .317-.254.57-.57.57Zm0 0" style="stroke:none;fill-rule:nonzero;fill:#ef4444;fill-opacity:1"/><path d="M9.594 21.031a.574.574 0 0 1-.57-.57v-4.332c0-.313.257-.57.57-.57.312 0 .57.257.57.57v4.332c0 .312-.258.57-.57.57Zm0 0" style="stroke:none;fill-rule:nonzero;fill:#ef4444;fill-opacity:1"/><path d="M11.648 16.7H7.54a.571.571 0 0 1-.57-.571v-4.113c0-.313.254-.567.57-.567h4.11c.316 0 .57.254.57.567v4.113c0 .312-.254.57-.57.57Zm-3.543-1.141h2.977v-2.973H8.105ZM11.648 31.203H7.54a.568.568 0 0 1-.57-.566V20.46c0-.313.254-.57.57-.57h4.11c.316 0 .57.257.57.57v10.176a.568.568 0 0 1-.57.566Zm-3.543-1.137h2.977v-9.039l-2.977.004ZM11.648 39.754H7.54a.571.571 0 0 1-.57-.57V35.07c0-.312.254-.566.57-.566h4.11c.316 0 .57.254.57.566v4.114c0 .312-.254.57-.57.57Zm-3.543-1.14h2.977V35.64H8.105ZM51.598 17.14h-35.32a.568.568 0 0 1-.567-.57V8.348a.57.57 0 0 1 .566-.57h35.32a.57.57 0 0 1 .567.57v8.222c0 .317-.254.57-.566.57Zm-34.75-1.136h34.18V8.918h-34.18Zm0 0" style="stroke:none;fill-rule:nonzero;fill:#ef4444;fill-opacity:1"/><path d="M19.086 19.484a.57.57 0 0 1-.57-.566V16.57a.57.57 0 0 1 1.14 0v2.348a.57.57 0 0 1-.57.566ZM22.059 19.484a.568.568 0 0 1-.57-.566V16.57a.568.568 0 0 1 1.136 0v2.348a.567.567 0 0 1-.566.566ZM25.027 19.484a.568.568 0 0 1-.57-.566V16.57a.568.568 0 0 1 1.137 0v2.348c0 .312-.25.566-.567.566ZM27.996 19.484a.567.567 0 0 1-.566-.566V16.57a.568.568 0 0 1 1.137 0v2.348a.568.568 0 0 1-.57.566ZM30.969 19.484a.568.568 0 0 1-.57-.566V16.57a.568.568 0 0 1 1.136 0v2.348a.567.567 0 0 1-.566.566ZM33.938 19.484a.57.57 0 0 1-.57-.566V16.57a.57.57 0 0 1 1.14 0v2.348a.568.568 0 0 1-.57.566ZM36.906 19.484a.567.567 0 0 1-.566-.566V16.57a.568.568 0 0 1 1.137 0v2.348a.568.568 0 0 1-.57.566ZM39.879 19.484a.57.57 0 0 1-.57-.566V16.57a.57.57 0 0 1 1.14 0v2.348a.57.57 0 0 1-.57.566ZM42.852 19.484a.568.568 0 0 1-.57-.566V16.57a.568.568 0 0 1 1.136 0v2.348a.567.567 0 0 1-.566.566ZM45.82 19.484a.568.568 0 0 1-.57-.566V16.57a.568.568 0 0 1 1.137 0v2.348a.567.567 0 0 1-.567.566ZM48.79 19.484a.567.567 0 0 1-.567-.566V16.57a.568.568 0 0 1 1.137 0v2.348a.568.568 0 0 1-.57.566ZM19.086 8.918a.574.574 0 0 1-.57-.57V6.004a.571.571 0 0 1 1.14 0v2.344c0 .312-.258.57-.57.57ZM22.059 8.918a.571.571 0 0 1-.57-.57V6.004a.568.568 0 1 1 1.136 0v2.344a.57.57 0 0 1-.566.57ZM25.027 8.918a.571.571 0 0 1-.57-.57V6.004a.568.568 0 1 1 1.137 0v2.344c0 .312-.25.57-.567.57ZM27.996 8.918a.57.57 0 0 1-.566-.57V6.004a.568.568 0 1 1 1.136 0v2.344c0 .312-.253.57-.57.57ZM30.969 8.918a.571.571 0 0 1-.57-.57V6.004a.568.568 0 1 1 1.136 0v2.344a.57.57 0 0 1-.566.57ZM33.938 8.918a.574.574 0 0 1-.57-.57V6.004a.571.571 0 0 1 1.14 0v2.344c0 .312-.254.57-.57.57ZM36.906 8.918a.57.57 0 0 1-.566-.57V6.004a.568.568 0 1 1 1.137 0v2.344c0 .312-.254.57-.57.57ZM39.879 8.918a.574.574 0 0 1-.57-.57V6.004a.571.571 0 0 1 1.14 0v2.344c0 .312-.258.57-.57.57ZM42.852 8.918a.571.571 0 0 1-.57-.57V6.004a.568.568 0 1 1 1.136 0v2.344a.57.57 0 0 1-.566.57ZM45.82 8.918a.571.571 0 0 1-.57-.57V6.004a.571.571 0 0 1 1.14 0v2.344a.576.576 0 0 1-.57.57ZM48.79 8.918a.57.57 0 0 1-.567-.57V6.004a.568.568 0 1 1 1.136 0v2.344c0 .312-.254.57-.57.57ZM51.598 27.758h-3.332a.57.57 0 0 1-.567-.57V22.19a.57.57 0 0 1 .567-.57h3.332a.57.57 0 0 1 .566.57v4.997c0 .316-.254.57-.566.57Zm-2.762-1.14h2.191v-3.856h-2.191ZM44.332 27.758H41a.57.57 0 0 1-.566-.57V22.19a.57.57 0 0 1 .566-.57h3.332a.57.57 0 0 1 .566.57v4.997c0 .316-.253.57-.566.57Zm-2.762-1.14h2.192v-3.856H41.57ZM36.559 36.016H33.23a.568.568 0 0 1-.57-.57v-8.95c0-.316.254-.57.57-.57h3.329c.312 0 .57.254.57.57v8.95c0 .316-.258.57-.57.57Zm-2.762-1.137h2.191v-7.816h-2.191Zm0 0" style="stroke:none;fill-rule:nonzero;fill:#ef4444;fill-opacity:1"/><path d="M38.64 28.73H36.56a.57.57 0 0 1 0-1.14h2.082a.571.571 0 0 1 0 1.14ZM38.64 31.54H36.56a.568.568 0 0 1 0-1.138h2.082a.568.568 0 1 1 0 1.137ZM38.64 34.352H36.56a.57.57 0 0 1 0-1.141h2.082a.571.571 0 0 1 0 1.14ZM33.23 28.73h-2.082a.571.571 0 0 1 0-1.14h2.082a.57.57 0 0 1 0 1.14ZM33.23 31.54h-2.082a.568.568 0 1 1 0-1.138h2.082a.568.568 0 0 1 0 1.137ZM33.23 34.352h-2.082a.571.571 0 0 1 0-1.141h2.082a.57.57 0 0 1 0 1.14ZM27.676 23.11h-2.082a.571.571 0 0 1-.57-.57.57.57 0 0 1 .57-.567h2.082a.568.568 0 1 1 0 1.136ZM27.676 25.918h-2.082a.571.571 0 0 1-.57-.57.57.57 0 0 1 .57-.567h2.082a.568.568 0 1 1 0 1.137ZM27.676 28.73h-2.082a.574.574 0 0 1-.57-.57c0-.312.257-.57.57-.57h2.082a.571.571 0 0 1 0 1.14ZM18.5 35.98a2.79 2.79 0 0 1-2.79-2.789 2.79 2.79 0 0 1 2.79-2.789 2.79 2.79 0 0 1 2.79 2.79 2.79 2.79 0 0 1-2.79 2.788Zm0-4.44c-.91 0-1.652.741-1.652 1.651s.742 1.653 1.652 1.653c.91 0 1.652-.742 1.652-1.653 0-.91-.742-1.652-1.652-1.652ZM18.5 27.203a2.794 2.794 0 0 1-2.79-2.793c0-1.535 1.25-2.789 2.79-2.789s2.79 1.254 2.79 2.79c0 1.538-1.25 2.792-2.79 2.792Zm0-4.441a1.653 1.653 0 0 0 0 3.304 1.653 1.653 0 0 0 0-3.305ZM50.504 39.664h-7.535a.571.571 0 0 1-.57-.57v-7.535c0-.313.253-.57.57-.57h7.535a.57.57 0 0 1 .566.57v7.535c0 .316-.254.57-.566.57Zm-6.969-1.14h6.399v-6.399h-6.399Zm0 0" style="stroke:none;fill-rule:nonzero;fill:#ef4444;fill-opacity:1"/><path d="M44.902 40.758a.567.567 0 0 1-.566-.567v-1.097a.568.568 0 0 1 1.137 0v1.097a.568.568 0 0 1-.57.567ZM44.902 32.129a.568.568 0 0 1-.566-.57v-1.094a.57.57 0 0 1 .566-.57c.317 0 .57.257.57.57v1.094c0 .316-.253.57-.57.57ZM46.734 40.758a.567.567 0 0 1-.566-.567v-1.097a.568.568 0 0 1 1.137 0v1.097a.568.568 0 0 1-.57.567ZM46.734 32.129a.568.568 0 0 1-.566-.57v-1.094a.57.57 0 0 1 .566-.57c.317 0 .57.257.57.57v1.094c0 .316-.253.57-.57.57ZM48.566 40.758a.57.57 0 0 1-.57-.567v-1.097a.57.57 0 0 1 1.14 0v1.097a.57.57 0 0 1-.57.567ZM48.566 32.129a.571.571 0 0 1-.57-.57v-1.094c0-.313.258-.57.57-.57.313 0 .57.257.57.57v1.094c0 .316-.257.57-.57.57ZM42.969 34.063H41.87a.568.568 0 0 1 0-1.137h1.098a.568.568 0 0 1 0 1.136ZM51.598 34.063h-1.094a.568.568 0 1 1 0-1.137h1.094a.568.568 0 0 1 0 1.136ZM42.969 35.895H41.87a.568.568 0 0 1 0-1.137h1.098a.568.568 0 0 1 0 1.137ZM51.598 35.895h-1.094a.568.568 0 1 1 0-1.137h1.094a.568.568 0 0 1 0 1.137ZM42.969 37.727H41.87a.568.568 0 0 1 0-1.137h1.098a.568.568 0 0 1 0 1.137ZM51.598 37.727h-1.094a.568.568 0 1 1 0-1.137h1.094a.568.568 0 0 1 0 1.137ZM45.305 37.371a.568.568 0 0 1-.567-.57v-2.95a.568.568 0 0 1 1.137 0v2.95c0 .316-.254.57-.57.57ZM48.164 37.371a.571.571 0 0 1-.57-.57v-2.95a.57.57 0 0 1 1.14 0v2.95c0 .316-.254.57-.57.57ZM48.32 44.43h-4.043a.568.568 0 1 1 0-1.137h4.043c.313 0 .57.254.57.57a.57.57 0 0 1-.57.567ZM32.828 45.766h-12.66a.57.57 0 0 1-.57-.567v-2.672a.57.57 0 0 1 .57-.566h12.66c.317 0 .57.254.57.566V45.2a.568.568 0 0 1-.57.567Zm-12.09-1.137h11.524v-1.531H20.738Zm0 0" style="stroke:none;fill-rule:nonzero;fill:#ef4444;fill-opacity:1"/><path d="M34.281 44.43h-1.453a.568.568 0 0 1 0-1.137h1.453c.313 0 .57.254.57.57a.57.57 0 0 1-.57.567ZM20.168 44.43h-1.176a.568.568 0 1 1 0-1.137h1.176c.312 0 .57.254.57.57a.57.57 0 0 1-.57.567ZM27.75 35.98h-2.227a.568.568 0 0 1-.566-.57v-2.222a.57.57 0 0 1 .566-.57h2.227a.57.57 0 0 1 .566.57v2.222c0 .317-.253.57-.566.57Zm-1.656-1.136h1.086v-1.086h-1.086Zm0 0" style="stroke:none;fill-rule:nonzero;fill:#ef4444;fill-opacity:1"/></svg>