<?xml version="1.0" encoding="UTF-8"?> <svg xmlns="http://www.w3.org/2000/svg" xmlns:xlink="http://www.w3.org/1999/xlink" width="64px" height="64px" viewBox="0 0 64 64" version="1.1"> <g id="surface1"> <path style=" stroke:none;fill-rule:nonzero;fill:rgb(93.72549%,26.666667%,26.666667%);fill-opacity:1;" d="M 49.304688 43.085938 L 14.691406 43.085938 C 14.378906 43.085938 14.125 42.832031 14.125 42.519531 L 14.125 7.90625 C 14.125 7.589844 14.378906 7.335938 14.691406 7.335938 L 49.304688 7.335938 C 49.621094 7.335938 49.875 7.589844 49.875 7.90625 L 49.875 42.519531 C 49.875 42.832031 49.621094 43.089844 49.304688 43.089844 Z M 15.261719 41.949219 L 48.738281 41.949219 L 48.738281 8.472656 L 15.261719 8.472656 Z M 15.261719 41.949219 "/> <path style=" stroke:none;fill-rule:nonzero;fill:rgb(93.72549%,26.666667%,26.666667%);fill-opacity:1;" d="M 39.90625 33.6875 L 24.09375 33.6875 C 23.777344 33.6875 23.523438 33.433594 23.523438 33.121094 L 23.523438 17.304688 C 23.523438 16.992188 23.777344 16.734375 24.09375 16.734375 L 39.90625 16.734375 C 40.222656 16.734375 40.476562 16.992188 40.476562 17.304688 L 40.476562 33.121094 C 40.476562 33.433594 40.222656 33.6875 39.90625 33.6875 Z M 24.660156 32.550781 L 39.339844 32.550781 L 39.339844 17.871094 L 24.660156 17.871094 Z M 24.660156 32.550781 "/> <path style=" stroke:none;fill-rule:nonzero;fill:rgb(93.72549%,26.666667%,26.666667%);fill-opacity:1;" d="M 20.90625 50.632812 C 20.589844 50.632812 20.335938 50.375 20.335938 50.0625 L 20.335938 39.191406 C 20.335938 38.875 20.589844 38.621094 20.90625 38.621094 C 21.21875 38.621094 21.472656 38.875 21.472656 39.191406 L 21.472656 50.0625 C 21.472656 50.375 21.21875 50.632812 20.90625 50.632812 Z M 20.90625 50.632812 "/> <path style=" stroke:none;fill-rule:nonzero;fill:rgb(93.72549%,26.666667%,26.666667%);fill-opacity:1;" d="M 20.90625 11.800781 C 20.589844 11.800781 20.335938 11.546875 20.335938 11.234375 L 20.335938 1.136719 C 20.335938 0.824219 20.589844 0.570312 20.90625 0.570312 C 21.21875 0.570312 21.472656 0.824219 21.472656 1.136719 L 21.472656 11.234375 C 21.472656 11.546875 21.21875 11.800781 20.90625 11.800781 Z M 20.90625 11.800781 "/> <path style=" stroke:none;fill-rule:nonzero;fill:rgb(93.72549%,26.666667%,26.666667%);fill-opacity:1;" d="M 26.453125 50.632812 C 26.140625 50.632812 25.882812 50.375 25.882812 50.0625 L 25.882812 39.191406 C 25.882812 38.875 26.140625 38.621094 26.453125 38.621094 C 26.765625 38.621094 27.023438 38.875 27.023438 39.191406 L 27.023438 50.0625 C 27.023438 50.375 26.765625 50.632812 26.453125 50.632812 Z M 26.453125 50.632812 "/> <path style=" stroke:none;fill-rule:nonzero;fill:rgb(93.72549%,26.666667%,26.666667%);fill-opacity:1;" d="M 26.453125 11.800781 C 26.140625 11.800781 25.882812 11.546875 25.882812 11.234375 L 25.882812 1.136719 C 25.882812 0.824219 26.140625 0.570312 26.453125 0.570312 C 26.765625 0.570312 27.023438 0.824219 27.023438 1.136719 L 27.023438 11.234375 C 27.023438 11.546875 26.765625 11.800781 26.453125 11.800781 Z M 26.453125 11.800781 "/> <path style=" stroke:none;fill-rule:nonzero;fill:rgb(93.72549%,26.666667%,26.666667%);fill-opacity:1;" d="M 32 50.632812 C 31.6875 50.632812 31.429688 50.375 31.429688 50.0625 L 31.429688 39.191406 C 31.429688 38.875 31.6875 38.621094 32 38.621094 C 32.3125 38.621094 32.570312 38.875 32.570312 39.191406 L 32.570312 50.0625 C 32.570312 50.375 32.3125 50.632812 32 50.632812 Z M 32 50.632812 "/> <path style=" stroke:none;fill-rule:nonzero;fill:rgb(93.72549%,26.666667%,26.666667%);fill-opacity:1;" d="M 32 11.800781 C 31.6875 11.800781 31.429688 11.546875 31.429688 11.234375 L 31.429688 1.136719 C 31.429688 0.824219 31.6875 0.570312 32 0.570312 C 32.3125 0.570312 32.570312 0.824219 32.570312 1.136719 L 32.570312 11.234375 C 32.570312 11.546875 32.3125 11.800781 32 11.800781 Z M 32 11.800781 "/> <path style=" stroke:none;fill-rule:nonzero;fill:rgb(93.72549%,26.666667%,26.666667%);fill-opacity:1;" d="M 37.546875 50.632812 C 37.234375 50.632812 36.976562 50.375 36.976562 50.0625 L 36.976562 39.191406 C 36.976562 38.875 37.234375 38.621094 37.546875 38.621094 C 37.859375 38.621094 38.117188 38.875 38.117188 39.191406 L 38.117188 50.0625 C 38.117188 50.375 37.863281 50.632812 37.546875 50.632812 Z M 37.546875 50.632812 "/> <path style=" stroke:none;fill-rule:nonzero;fill:rgb(93.72549%,26.666667%,26.666667%);fill-opacity:1;" d="M 37.546875 11.800781 C 37.234375 11.800781 36.976562 11.546875 36.976562 11.234375 L 36.976562 1.136719 C 36.976562 0.824219 37.234375 0.570312 37.546875 0.570312 C 37.859375 0.570312 38.117188 0.824219 38.117188 1.136719 L 38.117188 11.234375 C 38.117188 11.546875 37.863281 11.800781 37.546875 11.800781 Z M 37.546875 11.800781 "/> <path style=" stroke:none;fill-rule:nonzero;fill:rgb(93.72549%,26.666667%,26.666667%);fill-opacity:1;" d="M 43.09375 50.632812 C 42.78125 50.632812 42.527344 50.375 42.527344 50.0625 L 42.527344 39.191406 C 42.527344 38.875 42.78125 38.621094 43.09375 38.621094 C 43.410156 38.621094 43.664062 38.875 43.664062 39.191406 L 43.664062 50.0625 C 43.664062 50.375 43.410156 50.632812 43.09375 50.632812 Z M 43.09375 50.632812 "/> <path style=" stroke:none;fill-rule:nonzero;fill:rgb(93.72549%,26.666667%,26.666667%);fill-opacity:1;" d="M 43.09375 11.800781 C 42.78125 11.800781 42.527344 11.546875 42.527344 11.234375 L 42.527344 1.136719 C 42.527344 0.824219 42.78125 0.570312 43.09375 0.570312 C 43.410156 0.570312 43.664062 0.824219 43.664062 1.136719 L 43.664062 11.234375 C 43.664062 11.546875 43.410156 11.800781 43.09375 11.800781 Z M 43.09375 11.800781 "/> <path style=" stroke:none;fill-rule:nonzero;fill:rgb(93.72549%,26.666667%,26.666667%);fill-opacity:1;" d="M 18.410156 14.6875 L 7.539062 14.6875 C 7.222656 14.6875 6.96875 14.429688 6.96875 14.117188 C 6.96875 13.804688 7.222656 13.546875 7.539062 13.546875 L 18.410156 13.546875 C 18.722656 13.546875 18.980469 13.804688 18.980469 14.117188 C 18.980469 14.429688 18.722656 14.6875 18.410156 14.6875 Z M 18.410156 14.6875 "/> <path style=" stroke:none;fill-rule:nonzero;fill:rgb(93.72549%,26.666667%,26.666667%);fill-opacity:1;" d="M 56.460938 14.6875 L 46.367188 14.6875 C 46.050781 14.6875 45.796875 14.429688 45.796875 14.117188 C 45.796875 13.804688 46.050781 13.546875 46.367188 13.546875 L 56.460938 13.546875 C 56.777344 13.546875 57.03125 13.804688 57.03125 14.117188 C 57.03125 14.429688 56.777344 14.6875 56.460938 14.6875 Z M 56.460938 14.6875 "/> <path style=" stroke:none;fill-rule:nonzero;fill:rgb(93.72549%,26.666667%,26.666667%);fill-opacity:1;" d="M 18.410156 20.234375 L 7.539062 20.234375 C 7.222656 20.234375 6.96875 19.976562 6.96875 19.664062 C 6.96875 19.351562 7.222656 19.09375 7.539062 19.09375 L 18.410156 19.09375 C 18.722656 19.09375 18.980469 19.351562 18.980469 19.664062 C 18.980469 19.976562 18.722656 20.234375 18.410156 20.234375 Z M 18.410156 20.234375 "/> <path style=" stroke:none;fill-rule:nonzero;fill:rgb(93.72549%,26.666667%,26.666667%);fill-opacity:1;" d="M 56.460938 20.234375 L 46.367188 20.234375 C 46.050781 20.234375 45.796875 19.976562 45.796875 19.664062 C 45.796875 19.351562 46.050781 19.09375 46.367188 19.09375 L 56.460938 19.09375 C 56.777344 19.09375 57.03125 19.351562 57.03125 19.664062 C 57.03125 19.976562 56.777344 20.234375 56.460938 20.234375 Z M 56.460938 20.234375 "/> <path style=" stroke:none;fill-rule:nonzero;fill:rgb(93.72549%,26.666667%,26.666667%);fill-opacity:1;" d="M 18.410156 25.78125 L 7.539062 25.78125 C 7.222656 25.78125 6.96875 25.527344 6.96875 25.210938 C 6.96875 24.898438 7.222656 24.644531 7.539062 24.644531 L 18.410156 24.644531 C 18.722656 24.644531 18.980469 24.898438 18.980469 25.210938 C 18.980469 25.527344 18.722656 25.78125 18.410156 25.78125 Z M 18.410156 25.78125 "/> <path style=" stroke:none;fill-rule:nonzero;fill:rgb(93.72549%,26.666667%,26.666667%);fill-opacity:1;" d="M 56.460938 25.78125 L 46.367188 25.78125 C 46.050781 25.78125 45.796875 25.527344 45.796875 25.210938 C 45.796875 24.898438 46.050781 24.644531 46.367188 24.644531 L 56.460938 24.644531 C 56.777344 24.644531 57.03125 24.898438 57.03125 25.210938 C 57.03125 25.527344 56.777344 25.78125 56.460938 25.78125 Z M 56.460938 25.78125 "/> <path style=" stroke:none;fill-rule:nonzero;fill:rgb(93.72549%,26.666667%,26.666667%);fill-opacity:1;" d="M 18.410156 31.328125 L 7.539062 31.328125 C 7.222656 31.328125 6.96875 31.070312 6.96875 30.757812 C 6.96875 30.445312 7.222656 30.1875 7.539062 30.1875 L 18.410156 30.1875 C 18.722656 30.1875 18.980469 30.445312 18.980469 30.757812 C 18.980469 31.074219 18.722656 31.328125 18.410156 31.328125 Z M 18.410156 31.328125 "/> <path style=" stroke:none;fill-rule:nonzero;fill:rgb(93.72549%,26.666667%,26.666667%);fill-opacity:1;" d="M 56.460938 31.328125 L 46.367188 31.328125 C 46.050781 31.328125 45.796875 31.070312 45.796875 30.757812 C 45.796875 30.445312 46.050781 30.1875 46.367188 30.1875 L 56.460938 30.1875 C 56.777344 30.1875 57.03125 30.445312 57.03125 30.757812 C 57.03125 31.074219 56.777344 31.328125 56.460938 31.328125 Z M 56.460938 31.328125 "/> <path style=" stroke:none;fill-rule:nonzero;fill:rgb(93.72549%,26.666667%,26.666667%);fill-opacity:1;" d="M 18.410156 36.875 L 7.539062 36.875 C 7.222656 36.875 6.96875 36.617188 6.96875 36.304688 C 6.96875 35.992188 7.222656 35.734375 7.539062 35.734375 L 18.410156 35.734375 C 18.722656 35.734375 18.980469 35.992188 18.980469 36.304688 C 18.980469 36.617188 18.722656 36.875 18.410156 36.875 Z M 18.410156 36.875 "/> <path style=" stroke:none;fill-rule:nonzero;fill:rgb(93.72549%,26.666667%,26.666667%);fill-opacity:1;" d="M 56.460938 36.875 L 46.367188 36.875 C 46.050781 36.875 45.796875 36.617188 45.796875 36.304688 C 45.796875 35.992188 46.050781 35.734375 46.367188 35.734375 L 56.460938 35.734375 C 56.777344 35.734375 57.03125 35.992188 57.03125 36.304688 C 57.03125 36.617188 56.777344 36.875 56.460938 36.875 Z M 56.460938 36.875 "/> <path style=" stroke:none;fill-rule:nonzero;fill:rgb(0%,0%,0%);fill-opacity:1;" d="M 6.78125 52.882812 C 6.761719 52.894531 6.742188 52.902344 6.71875 52.90625 C 6.699219 52.914062 6.675781 52.914062 6.652344 52.914062 C 6.585938 52.914062 6.527344 52.894531 6.488281 52.859375 C 6.449219 52.820312 6.429688 52.765625 6.429688 52.699219 C 6.429688 52.632812 6.449219 52.582031 6.488281 52.542969 C 6.527344 52.503906 6.585938 52.484375 6.652344 52.484375 C 6.675781 52.484375 6.699219 52.488281 6.71875 52.492188 C 6.742188 52.496094 6.761719 52.503906 6.78125 52.515625 L 6.78125 52.601562 C 6.761719 52.585938 6.742188 52.578125 6.722656 52.574219 C 6.703125 52.566406 6.683594 52.5625 6.660156 52.5625 C 6.625 52.5625 6.59375 52.574219 6.570312 52.601562 C 6.550781 52.625 6.539062 52.65625 6.539062 52.699219 C 6.539062 52.742188 6.550781 52.777344 6.570312 52.800781 C 6.59375 52.824219 6.625 52.835938 6.660156 52.835938 C 6.683594 52.835938 6.703125 52.832031 6.722656 52.828125 C 6.742188 52.820312 6.761719 52.8125 6.78125 52.796875 Z M 6.78125 52.882812 "/> <path style=" stroke:none;fill-rule:nonzero;fill:rgb(0%,0%,0%);fill-opacity:1;" d="M 7.097656 52.679688 C 7.085938 52.675781 7.078125 52.671875 7.070312 52.671875 C 7.0625 52.667969 7.054688 52.667969 7.042969 52.667969 C 7.019531 52.667969 7 52.675781 6.984375 52.695312 C 6.972656 52.710938 6.964844 52.734375 6.964844 52.765625 L 6.964844 52.90625 L 6.863281 52.90625 L 6.863281 52.59375 L 6.964844 52.59375 L 6.964844 52.648438 C 6.976562 52.625 6.992188 52.613281 7.007812 52.601562 C 7.023438 52.59375 7.042969 52.589844 7.066406 52.589844 C 7.070312 52.589844 7.074219 52.589844 7.078125 52.589844 C 7.082031 52.589844 7.089844 52.589844 7.097656 52.589844 Z M 7.097656 52.679688 "/> <path style=" stroke:none;fill-rule:nonzero;fill:rgb(0%,0%,0%);fill-opacity:1;" d="M 7.457031 52.75 L 7.457031 52.777344 L 7.222656 52.777344 C 7.226562 52.800781 7.234375 52.820312 7.25 52.832031 C 7.265625 52.84375 7.285156 52.847656 7.308594 52.847656 C 7.332031 52.847656 7.351562 52.84375 7.375 52.839844 C 7.394531 52.832031 7.417969 52.824219 7.441406 52.8125 L 7.441406 52.886719 C 7.417969 52.898438 7.394531 52.902344 7.371094 52.910156 C 7.347656 52.914062 7.324219 52.914062 7.300781 52.914062 C 7.246094 52.914062 7.199219 52.902344 7.167969 52.871094 C 7.136719 52.84375 7.121094 52.804688 7.121094 52.75 C 7.121094 52.699219 7.136719 52.660156 7.167969 52.632812 C 7.199219 52.601562 7.242188 52.589844 7.296875 52.589844 C 7.34375 52.589844 7.382812 52.601562 7.414062 52.632812 C 7.441406 52.664062 7.457031 52.703125 7.457031 52.75 Z M 7.355469 52.714844 C 7.355469 52.699219 7.347656 52.683594 7.335938 52.671875 C 7.324219 52.660156 7.3125 52.652344 7.292969 52.652344 C 7.273438 52.652344 7.257812 52.660156 7.246094 52.671875 C 7.234375 52.683594 7.226562 52.695312 7.226562 52.714844 Z M 7.355469 52.714844 "/> <path style=" stroke:none;fill-rule:nonzero;fill:rgb(0%,0%,0%);fill-opacity:1;" d="M 7.671875 52.765625 C 7.648438 52.765625 7.632812 52.769531 7.625 52.777344 C 7.613281 52.785156 7.609375 52.796875 7.609375 52.808594 C 7.609375 52.820312 7.613281 52.832031 7.621094 52.839844 C 7.628906 52.84375 7.640625 52.847656 7.65625 52.847656 C 7.675781 52.847656 7.691406 52.839844 7.703125 52.828125 C 7.714844 52.816406 7.722656 52.796875 7.722656 52.777344 L 7.722656 52.765625 Z M 7.824219 52.730469 L 7.824219 52.90625 L 7.722656 52.90625 L 7.722656 52.859375 C 7.707031 52.878906 7.695312 52.894531 7.675781 52.902344 C 7.660156 52.910156 7.640625 52.914062 7.617188 52.914062 C 7.585938 52.914062 7.558594 52.90625 7.539062 52.886719 C 7.519531 52.867188 7.507812 52.84375 7.507812 52.8125 C 7.507812 52.777344 7.519531 52.75 7.546875 52.734375 C 7.570312 52.714844 7.609375 52.707031 7.664062 52.707031 L 7.722656 52.707031 L 7.722656 52.699219 C 7.722656 52.683594 7.714844 52.671875 7.703125 52.664062 C 7.691406 52.65625 7.671875 52.652344 7.644531 52.652344 C 7.625 52.652344 7.605469 52.65625 7.585938 52.660156 C 7.570312 52.664062 7.550781 52.671875 7.535156 52.679688 L 7.535156 52.605469 C 7.554688 52.597656 7.578125 52.59375 7.601562 52.59375 C 7.621094 52.589844 7.644531 52.589844 7.664062 52.589844 C 7.71875 52.589844 7.761719 52.601562 7.785156 52.621094 C 7.808594 52.644531 7.824219 52.679688 7.824219 52.730469 Z M 7.824219 52.730469 "/> <path style=" stroke:none;fill-rule:nonzero;fill:rgb(0%,0%,0%);fill-opacity:1;" d="M 8.023438 52.507812 L 8.023438 52.59375 L 8.125 52.59375 L 8.125 52.667969 L 8.023438 52.667969 L 8.023438 52.796875 C 8.023438 52.8125 8.027344 52.824219 8.03125 52.828125 C 8.039062 52.832031 8.050781 52.835938 8.066406 52.835938 L 8.117188 52.835938 L 8.117188 52.90625 L 8.03125 52.90625 C 7.992188 52.90625 7.964844 52.898438 7.949219 52.882812 C 7.933594 52.867188 7.925781 52.839844 7.925781 52.796875 L 7.925781 52.667969 L 7.875 52.667969 L 7.875 52.59375 L 7.925781 52.59375 L 7.925781 52.507812 Z M 8.023438 52.507812 "/> <path style=" stroke:none;fill-rule:nonzero;fill:rgb(0%,0%,0%);fill-opacity:1;" d="M 8.5 52.75 L 8.5 52.777344 L 8.265625 52.777344 C 8.269531 52.800781 8.277344 52.820312 8.292969 52.832031 C 8.304688 52.84375 8.324219 52.847656 8.351562 52.847656 C 8.371094 52.847656 8.394531 52.84375 8.414062 52.839844 C 8.4375 52.832031 8.460938 52.824219 8.484375 52.8125 L 8.484375 52.886719 C 8.460938 52.898438 8.4375 52.902344 8.414062 52.910156 C 8.386719 52.914062 8.367188 52.914062 8.34375 52.914062 C 8.285156 52.914062 8.242188 52.902344 8.210938 52.871094 C 8.179688 52.84375 8.164062 52.804688 8.164062 52.75 C 8.164062 52.699219 8.179688 52.660156 8.210938 52.632812 C 8.238281 52.601562 8.28125 52.589844 8.335938 52.589844 C 8.386719 52.589844 8.425781 52.601562 8.453125 52.632812 C 8.484375 52.664062 8.5 52.703125 8.5 52.75 Z M 8.394531 52.714844 C 8.394531 52.699219 8.390625 52.683594 8.378906 52.671875 C 8.367188 52.660156 8.351562 52.652344 8.335938 52.652344 C 8.316406 52.652344 8.300781 52.660156 8.289062 52.671875 C 8.277344 52.683594 8.269531 52.695312 8.265625 52.714844 Z M 8.394531 52.714844 "/> <path style=" stroke:none;fill-rule:nonzero;fill:rgb(0%,0%,0%);fill-opacity:1;" d="M 8.785156 52.640625 L 8.785156 52.476562 L 8.882812 52.476562 L 8.882812 52.90625 L 8.785156 52.90625 L 8.785156 52.863281 C 8.769531 52.878906 8.757812 52.894531 8.738281 52.902344 C 8.722656 52.910156 8.703125 52.914062 8.683594 52.914062 C 8.644531 52.914062 8.613281 52.898438 8.589844 52.871094 C 8.5625 52.839844 8.550781 52.800781 8.550781 52.75 C 8.550781 52.703125 8.5625 52.664062 8.589844 52.632812 C 8.613281 52.605469 8.644531 52.589844 8.683594 52.589844 C 8.703125 52.589844 8.722656 52.59375 8.738281 52.601562 C 8.753906 52.609375 8.769531 52.625 8.785156 52.640625 Z M 8.71875 52.84375 C 8.742188 52.84375 8.757812 52.835938 8.769531 52.820312 C 8.78125 52.804688 8.785156 52.78125 8.785156 52.75 C 8.785156 52.722656 8.78125 52.699219 8.769531 52.683594 C 8.757812 52.667969 8.742188 52.660156 8.71875 52.660156 C 8.699219 52.660156 8.679688 52.667969 8.671875 52.683594 C 8.660156 52.699219 8.652344 52.722656 8.652344 52.75 C 8.652344 52.78125 8.660156 52.804688 8.671875 52.820312 C 8.679688 52.835938 8.699219 52.84375 8.71875 52.84375 Z M 8.71875 52.84375 "/> <path style=" stroke:none;fill-rule:nonzero;fill:rgb(0%,0%,0%);fill-opacity:1;" d="M 9.34375 52.84375 C 9.367188 52.84375 9.382812 52.835938 9.390625 52.820312 C 9.402344 52.804688 9.410156 52.78125 9.410156 52.75 C 9.410156 52.722656 9.402344 52.699219 9.390625 52.683594 C 9.382812 52.667969 9.367188 52.660156 9.34375 52.660156 C 9.324219 52.660156 9.304688 52.667969 9.296875 52.683594 C 9.285156 52.699219 9.277344 52.722656 9.277344 52.75 C 9.277344 52.78125 9.285156 52.804688 9.296875 52.820312 C 9.304688 52.835938 9.324219 52.84375 9.34375 52.84375 Z M 9.277344 52.640625 C 9.292969 52.625 9.304688 52.609375 9.320312 52.601562 C 9.339844 52.59375 9.359375 52.589844 9.378906 52.589844 C 9.417969 52.589844 9.449219 52.605469 9.476562 52.632812 C 9.5 52.664062 9.511719 52.703125 9.511719 52.75 C 9.511719 52.800781 9.5 52.839844 9.476562 52.871094 C 9.449219 52.898438 9.417969 52.914062 9.378906 52.914062 C 9.359375 52.914062 9.339844 52.910156 9.320312 52.902344 C 9.304688 52.894531 9.292969 52.878906 9.277344 52.863281 L 9.277344 52.90625 L 9.179688 52.90625 L 9.179688 52.476562 L 9.277344 52.476562 Z M 9.277344 52.640625 "/> <path style=" stroke:none;fill-rule:nonzero;fill:rgb(0%,0%,0%);fill-opacity:1;" d="M 9.546875 52.59375 L 9.644531 52.59375 L 9.726562 52.808594 L 9.800781 52.59375 L 9.898438 52.59375 L 9.769531 52.9375 C 9.753906 52.972656 9.738281 52.996094 9.722656 53.007812 C 9.703125 53.023438 9.679688 53.03125 9.652344 53.03125 L 9.59375 53.03125 L 9.59375 52.964844 L 9.625 52.964844 C 9.644531 52.964844 9.65625 52.960938 9.664062 52.957031 C 9.671875 52.949219 9.675781 52.941406 9.679688 52.925781 L 9.683594 52.917969 Z M 9.546875 52.59375 "/> <path style=" stroke:none;fill-rule:nonzero;fill:rgb(0%,0%,0%);fill-opacity:1;" d="M 10.445312 52.503906 L 10.445312 52.59375 C 10.425781 52.582031 10.402344 52.574219 10.382812 52.570312 C 10.359375 52.566406 10.339844 52.5625 10.320312 52.5625 C 10.292969 52.5625 10.273438 52.566406 10.261719 52.574219 C 10.25 52.582031 10.242188 52.589844 10.242188 52.605469 C 10.242188 52.617188 10.25 52.625 10.257812 52.632812 C 10.265625 52.636719 10.28125 52.644531 10.300781 52.648438 L 10.347656 52.65625 C 10.394531 52.667969 10.425781 52.679688 10.445312 52.699219 C 10.464844 52.71875 10.472656 52.746094 10.472656 52.78125 C 10.472656 52.824219 10.460938 52.859375 10.433594 52.882812 C 10.40625 52.90625 10.367188 52.914062 10.308594 52.914062 C 10.28125 52.914062 10.257812 52.914062 10.230469 52.90625 C 10.203125 52.902344 10.175781 52.894531 10.152344 52.886719 L 10.152344 52.796875 C 10.175781 52.808594 10.203125 52.820312 10.226562 52.828125 C 10.253906 52.832031 10.277344 52.835938 10.300781 52.835938 C 10.324219 52.835938 10.339844 52.832031 10.351562 52.824219 C 10.363281 52.816406 10.371094 52.808594 10.371094 52.792969 C 10.371094 52.777344 10.367188 52.769531 10.359375 52.761719 C 10.351562 52.757812 10.332031 52.75 10.308594 52.742188 L 10.265625 52.734375 C 10.226562 52.726562 10.195312 52.710938 10.175781 52.691406 C 10.15625 52.671875 10.148438 52.644531 10.148438 52.613281 C 10.148438 52.570312 10.160156 52.539062 10.1875 52.519531 C 10.214844 52.496094 10.253906 52.484375 10.300781 52.484375 C 10.324219 52.484375 10.347656 52.488281 10.371094 52.492188 C 10.394531 52.492188 10.421875 52.5 10.445312 52.503906 Z M 10.445312 52.503906 "/> <path style=" stroke:none;fill-rule:nonzero;fill:rgb(0%,0%,0%);fill-opacity:1;" d="M 10.820312 52.832031 L 10.652344 52.832031 L 10.625 52.90625 L 10.519531 52.90625 L 10.671875 52.492188 L 10.800781 52.492188 L 10.953125 52.90625 L 10.847656 52.90625 Z M 10.679688 52.753906 L 10.792969 52.753906 L 10.738281 52.589844 Z M 10.679688 52.753906 "/> <path style=" stroke:none;fill-rule:nonzero;fill:rgb(0%,0%,0%);fill-opacity:1;" d="M 11.007812 52.492188 L 11.144531 52.492188 L 11.238281 52.714844 L 11.332031 52.492188 L 11.46875 52.492188 L 11.46875 52.90625 L 11.371094 52.90625 L 11.371094 52.605469 L 11.273438 52.828125 L 11.207031 52.828125 L 11.109375 52.605469 L 11.109375 52.90625 L 11.007812 52.90625 Z M 11.007812 52.492188 "/> <path style=" stroke:none;fill-rule:nonzero;fill:rgb(0%,0%,0%);fill-opacity:1;" d="M 11.878906 52.574219 L 11.878906 52.824219 L 11.917969 52.824219 C 11.960938 52.824219 11.996094 52.816406 12.019531 52.792969 C 12.042969 52.773438 12.050781 52.742188 12.050781 52.699219 C 12.050781 52.65625 12.042969 52.625 12.019531 52.605469 C 11.996094 52.582031 11.960938 52.574219 11.917969 52.574219 Z M 11.773438 52.492188 L 11.886719 52.492188 C 11.949219 52.492188 11.996094 52.496094 12.027344 52.507812 C 12.058594 52.515625 12.082031 52.53125 12.105469 52.550781 C 12.125 52.570312 12.140625 52.59375 12.148438 52.617188 C 12.160156 52.640625 12.164062 52.667969 12.164062 52.699219 C 12.164062 52.730469 12.160156 52.757812 12.148438 52.78125 C 12.140625 52.808594 12.125 52.828125 12.105469 52.847656 C 12.082031 52.871094 12.058594 52.882812 12.023438 52.894531 C 11.996094 52.902344 11.949219 52.90625 11.886719 52.90625 L 11.773438 52.90625 Z M 11.773438 52.492188 "/> <path style=" stroke:none;fill-rule:nonzero;fill:rgb(0%,0%,0%);fill-opacity:1;" d="M 12.550781 52.75 L 12.550781 52.777344 L 12.320312 52.777344 C 12.320312 52.800781 12.332031 52.820312 12.34375 52.832031 C 12.359375 52.84375 12.378906 52.847656 12.40625 52.847656 C 12.425781 52.847656 12.445312 52.84375 12.46875 52.839844 C 12.492188 52.832031 12.511719 52.824219 12.535156 52.8125 L 12.535156 52.886719 C 12.511719 52.898438 12.488281 52.902344 12.464844 52.910156 C 12.441406 52.914062 12.417969 52.914062 12.394531 52.914062 C 12.339844 52.914062 12.296875 52.902344 12.265625 52.871094 C 12.234375 52.84375 12.21875 52.804688 12.21875 52.75 C 12.21875 52.699219 12.234375 52.660156 12.261719 52.632812 C 12.292969 52.601562 12.335938 52.589844 12.390625 52.589844 C 12.4375 52.589844 12.476562 52.601562 12.507812 52.632812 C 12.535156 52.664062 12.550781 52.703125 12.550781 52.75 Z M 12.449219 52.714844 C 12.449219 52.699219 12.441406 52.683594 12.433594 52.671875 C 12.421875 52.660156 12.40625 52.652344 12.390625 52.652344 C 12.371094 52.652344 12.355469 52.660156 12.339844 52.671875 C 12.332031 52.683594 12.324219 52.695312 12.320312 52.714844 Z M 12.449219 52.714844 "/> <path style=" stroke:none;fill-rule:nonzero;fill:rgb(0%,0%,0%);fill-opacity:1;" d="M 12.871094 52.605469 L 12.871094 52.679688 C 12.847656 52.671875 12.828125 52.667969 12.808594 52.660156 C 12.789062 52.65625 12.769531 52.652344 12.753906 52.652344 C 12.734375 52.652344 12.71875 52.65625 12.710938 52.660156 C 12.699219 52.667969 12.695312 52.671875 12.695312 52.683594 C 12.695312 52.691406 12.699219 52.699219 12.707031 52.703125 C 12.714844 52.707031 12.726562 52.710938 12.742188 52.710938 L 12.761719 52.714844 C 12.8125 52.722656 12.847656 52.730469 12.863281 52.746094 C 12.882812 52.761719 12.890625 52.785156 12.890625 52.816406 C 12.890625 52.847656 12.878906 52.875 12.855469 52.890625 C 12.828125 52.90625 12.792969 52.914062 12.746094 52.914062 C 12.722656 52.914062 12.703125 52.914062 12.679688 52.910156 C 12.660156 52.90625 12.636719 52.902344 12.613281 52.894531 L 12.613281 52.820312 C 12.632812 52.828125 12.652344 52.835938 12.671875 52.839844 C 12.695312 52.847656 12.714844 52.847656 12.738281 52.847656 C 12.757812 52.847656 12.769531 52.847656 12.78125 52.839844 C 12.792969 52.835938 12.796875 52.828125 12.796875 52.816406 C 12.796875 52.808594 12.792969 52.800781 12.785156 52.796875 C 12.78125 52.792969 12.765625 52.789062 12.746094 52.785156 L 12.726562 52.785156 C 12.683594 52.777344 12.652344 52.769531 12.636719 52.753906 C 12.617188 52.738281 12.609375 52.714844 12.609375 52.683594 C 12.609375 52.652344 12.621094 52.628906 12.640625 52.613281 C 12.664062 52.597656 12.699219 52.589844 12.746094 52.589844 C 12.765625 52.589844 12.785156 52.589844 12.804688 52.59375 C 12.824219 52.59375 12.847656 52.601562 12.871094 52.605469 Z M 12.871094 52.605469 "/> <path style=" stroke:none;fill-rule:nonzero;fill:rgb(0%,0%,0%);fill-opacity:1;" d="M 12.964844 52.59375 L 13.066406 52.59375 L 13.066406 52.90625 L 12.964844 52.90625 Z M 12.964844 52.476562 L 13.066406 52.476562 L 13.066406 52.554688 L 12.964844 52.554688 Z M 12.964844 52.476562 "/> <path style=" stroke:none;fill-rule:nonzero;fill:rgb(0%,0%,0%);fill-opacity:1;" d="M 13.371094 52.855469 C 13.359375 52.871094 13.34375 52.886719 13.328125 52.894531 C 13.3125 52.902344 13.292969 52.90625 13.269531 52.90625 C 13.230469 52.90625 13.199219 52.890625 13.175781 52.863281 C 13.152344 52.832031 13.136719 52.792969 13.136719 52.75 C 13.136719 52.703125 13.152344 52.664062 13.175781 52.632812 C 13.199219 52.605469 13.230469 52.589844 13.269531 52.589844 C 13.292969 52.589844 13.3125 52.59375 13.328125 52.601562 C 13.34375 52.609375 13.359375 52.625 13.371094 52.640625 L 13.371094 52.59375 L 13.472656 52.59375 L 13.472656 52.875 C 13.472656 52.925781 13.457031 52.964844 13.425781 52.988281 C 13.394531 53.015625 13.347656 53.03125 13.289062 53.03125 C 13.269531 53.03125 13.25 53.027344 13.230469 53.023438 C 13.214844 53.023438 13.195312 53.015625 13.175781 53.011719 L 13.175781 52.933594 C 13.195312 52.945312 13.210938 52.953125 13.226562 52.957031 C 13.246094 52.960938 13.261719 52.964844 13.277344 52.964844 C 13.308594 52.964844 13.335938 52.957031 13.351562 52.941406 C 13.363281 52.929688 13.371094 52.90625 13.371094 52.875 Z M 13.308594 52.660156 C 13.285156 52.660156 13.269531 52.667969 13.257812 52.683594 C 13.246094 52.699219 13.242188 52.71875 13.242188 52.75 C 13.242188 52.777344 13.246094 52.796875 13.257812 52.8125 C 13.269531 52.828125 13.285156 52.832031 13.308594 52.832031 C 13.328125 52.832031 13.34375 52.828125 13.355469 52.8125 C 13.367188 52.796875 13.371094 52.777344 13.371094 52.75 C 13.371094 52.71875 13.367188 52.699219 13.355469 52.683594 C 13.34375 52.667969 13.328125 52.660156 13.308594 52.660156 Z M 13.308594 52.660156 "/> <path style=" stroke:none;fill-rule:nonzero;fill:rgb(0%,0%,0%);fill-opacity:1;" d="M 13.878906 52.714844 L 13.878906 52.90625 L 13.78125 52.90625 L 13.78125 52.761719 C 13.78125 52.734375 13.777344 52.714844 13.777344 52.707031 C 13.777344 52.695312 13.777344 52.6875 13.773438 52.683594 C 13.769531 52.675781 13.761719 52.671875 13.757812 52.667969 C 13.75 52.667969 13.742188 52.664062 13.734375 52.664062 C 13.714844 52.664062 13.695312 52.671875 13.683594 52.6875 C 13.671875 52.703125 13.667969 52.726562 13.667969 52.753906 L 13.667969 52.90625 L 13.566406 52.90625 L 13.566406 52.59375 L 13.667969 52.59375 L 13.667969 52.640625 C 13.683594 52.625 13.699219 52.609375 13.714844 52.601562 C 13.730469 52.59375 13.75 52.589844 13.769531 52.589844 C 13.804688 52.589844 13.832031 52.597656 13.851562 52.621094 C 13.871094 52.644531 13.878906 52.675781 13.878906 52.71875 Z M 13.878906 52.714844 "/> <path style=" stroke:none;fill-rule:nonzero;fill:rgb(0%,0%,0%);fill-opacity:1;" d="M 14.214844 52.605469 L 14.214844 52.679688 C 14.195312 52.671875 14.171875 52.667969 14.152344 52.660156 C 14.132812 52.65625 14.117188 52.652344 14.097656 52.652344 C 14.078125 52.652344 14.0625 52.65625 14.054688 52.660156 C 14.046875 52.667969 14.042969 52.671875 14.042969 52.683594 C 14.042969 52.691406 14.046875 52.699219 14.050781 52.703125 C 14.058594 52.707031 14.070312 52.710938 14.089844 52.710938 L 14.109375 52.714844 C 14.160156 52.722656 14.191406 52.730469 14.210938 52.746094 C 14.226562 52.761719 14.238281 52.785156 14.238281 52.816406 C 14.238281 52.847656 14.222656 52.875 14.199219 52.890625 C 14.175781 52.90625 14.140625 52.914062 14.089844 52.914062 C 14.070312 52.914062 14.046875 52.914062 14.027344 52.910156 C 14.003906 52.90625 13.980469 52.902344 13.960938 52.894531 L 13.960938 52.820312 C 13.980469 52.828125 14 52.835938 14.019531 52.839844 C 14.039062 52.847656 14.0625 52.847656 14.082031 52.847656 C 14.101562 52.847656 14.117188 52.847656 14.125 52.839844 C 14.136719 52.835938 14.140625 52.828125 14.140625 52.816406 C 14.140625 52.808594 14.136719 52.800781 14.132812 52.796875 C 14.125 52.792969 14.113281 52.789062 14.09375 52.785156 L 14.074219 52.785156 C 14.03125 52.777344 14 52.769531 13.980469 52.753906 C 13.964844 52.738281 13.953125 52.714844 13.953125 52.683594 C 13.953125 52.652344 13.964844 52.628906 13.988281 52.613281 C 14.011719 52.597656 14.046875 52.589844 14.09375 52.589844 C 14.109375 52.589844 14.128906 52.589844 14.148438 52.59375 C 14.171875 52.59375 14.191406 52.601562 14.214844 52.605469 Z M 14.214844 52.605469 "/> <path style=" stroke:none;fill-rule:nonzero;fill:rgb(0%,0%,0%);fill-opacity:1;" d="M 6.652344 53.042969 L 6.652344 53.109375 L 6.597656 53.109375 C 6.582031 53.109375 6.574219 53.113281 6.566406 53.117188 C 6.5625 53.121094 6.558594 53.128906 6.558594 53.144531 L 6.558594 53.164062 L 6.644531 53.164062 L 6.644531 53.234375 L 6.558594 53.234375 L 6.558594 53.476562 L 6.460938 53.476562 L 6.460938 53.234375 L 6.410156 53.234375 L 6.410156 53.164062 L 6.460938 53.164062 L 6.460938 53.144531 C 6.460938 53.109375 6.46875 53.085938 6.488281 53.070312 C 6.507812 53.050781 6.535156 53.042969 6.574219 53.042969 Z M 6.652344 53.042969 "/> <path style=" stroke:none;fill-rule:nonzero;fill:rgb(0%,0%,0%);fill-opacity:1;" d="M 6.925781 53.25 C 6.917969 53.246094 6.910156 53.242188 6.898438 53.238281 C 6.890625 53.238281 6.882812 53.238281 6.875 53.238281 C 6.847656 53.238281 6.828125 53.246094 6.816406 53.261719 C 6.800781 53.277344 6.792969 53.300781 6.792969 53.332031 L 6.792969 53.476562 L 6.695312 53.476562 L 6.695312 53.164062 L 6.792969 53.164062 L 6.792969 53.214844 C 6.808594 53.195312 6.820312 53.179688 6.835938 53.171875 C 6.855469 53.164062 6.875 53.15625 6.898438 53.15625 C 6.902344 53.15625 6.90625 53.15625 6.910156 53.160156 C 6.914062 53.160156 6.917969 53.160156 6.925781 53.160156 Z M 6.925781 53.25 "/> <path style=" stroke:none;fill-rule:nonzero;fill:rgb(0%,0%,0%);fill-opacity:1;" d="M 7.125 53.230469 C 7.101562 53.230469 7.085938 53.238281 7.074219 53.253906 C 7.0625 53.269531 7.058594 53.289062 7.058594 53.320312 C 7.058594 53.351562 7.0625 53.375 7.074219 53.390625 C 7.085938 53.40625 7.101562 53.414062 7.125 53.414062 C 7.144531 53.414062 7.164062 53.40625 7.175781 53.390625 C 7.183594 53.375 7.191406 53.351562 7.191406 53.320312 C 7.191406 53.289062 7.183594 53.269531 7.175781 53.253906 C 7.164062 53.238281 7.144531 53.230469 7.125 53.230469 Z M 7.125 53.15625 C 7.175781 53.15625 7.21875 53.171875 7.25 53.203125 C 7.277344 53.230469 7.292969 53.269531 7.292969 53.320312 C 7.292969 53.371094 7.277344 53.414062 7.25 53.441406 C 7.21875 53.46875 7.175781 53.484375 7.125 53.484375 C 7.070312 53.484375 7.027344 53.46875 7 53.441406 C 6.96875 53.414062 6.953125 53.371094 6.953125 53.320312 C 6.953125 53.269531 6.96875 53.230469 7 53.203125 C 7.027344 53.171875 7.070312 53.15625 7.125 53.15625 Z M 7.125 53.15625 "/> <path style=" stroke:none;fill-rule:nonzero;fill:rgb(0%,0%,0%);fill-opacity:1;" d="M 7.65625 53.214844 C 7.667969 53.195312 7.683594 53.183594 7.699219 53.171875 C 7.714844 53.164062 7.734375 53.15625 7.757812 53.15625 C 7.792969 53.15625 7.820312 53.167969 7.835938 53.191406 C 7.855469 53.210938 7.867188 53.242188 7.867188 53.285156 L 7.867188 53.476562 L 7.765625 53.476562 L 7.765625 53.308594 C 7.765625 53.304688 7.765625 53.300781 7.765625 53.292969 C 7.765625 53.273438 7.765625 53.257812 7.757812 53.246094 C 7.75 53.238281 7.742188 53.234375 7.726562 53.234375 C 7.707031 53.234375 7.691406 53.242188 7.683594 53.253906 C 7.671875 53.269531 7.667969 53.292969 7.667969 53.324219 L 7.667969 53.476562 L 7.566406 53.476562 L 7.566406 53.3125 C 7.566406 53.277344 7.5625 53.257812 7.558594 53.246094 C 7.550781 53.238281 7.542969 53.234375 7.527344 53.234375 C 7.507812 53.234375 7.492188 53.242188 7.480469 53.253906 C 7.472656 53.269531 7.464844 53.292969 7.464844 53.324219 L 7.464844 53.476562 L 7.367188 53.476562 L 7.367188 53.164062 L 7.464844 53.164062 L 7.464844 53.210938 C 7.476562 53.191406 7.492188 53.179688 7.507812 53.171875 C 7.523438 53.164062 7.542969 53.15625 7.558594 53.15625 C 7.582031 53.15625 7.601562 53.164062 7.617188 53.171875 C 7.632812 53.183594 7.644531 53.199219 7.65625 53.214844 Z M 7.65625 53.214844 "/> <path style=" stroke:none;fill-rule:nonzero;fill:rgb(0%,0%,0%);fill-opacity:1;" d="M 8.265625 53.078125 L 8.265625 53.164062 L 8.367188 53.164062 L 8.367188 53.234375 L 8.265625 53.234375 L 8.265625 53.367188 C 8.265625 53.382812 8.269531 53.390625 8.273438 53.398438 C 8.28125 53.402344 8.292969 53.402344 8.308594 53.402344 L 8.359375 53.402344 L 8.359375 53.476562 L 8.273438 53.476562 C 8.234375 53.476562 8.207031 53.46875 8.191406 53.453125 C 8.175781 53.433594 8.167969 53.40625 8.167969 53.367188 L 8.167969 53.234375 L 8.117188 53.234375 L 8.117188 53.164062 L 8.167969 53.164062 L 8.167969 53.078125 Z M 8.265625 53.078125 "/> <path style=" stroke:none;fill-rule:nonzero;fill:rgb(0%,0%,0%);fill-opacity:1;" d="M 8.742188 53.285156 L 8.742188 53.476562 L 8.640625 53.476562 L 8.640625 53.332031 C 8.640625 53.304688 8.640625 53.285156 8.640625 53.277344 C 8.640625 53.265625 8.636719 53.257812 8.632812 53.253906 C 8.628906 53.246094 8.625 53.242188 8.617188 53.238281 C 8.613281 53.234375 8.605469 53.234375 8.597656 53.234375 C 8.574219 53.234375 8.558594 53.242188 8.546875 53.257812 C 8.535156 53.273438 8.527344 53.292969 8.527344 53.324219 L 8.527344 53.476562 L 8.429688 53.476562 L 8.429688 53.042969 L 8.527344 53.042969 L 8.527344 53.210938 C 8.542969 53.191406 8.558594 53.179688 8.574219 53.171875 C 8.59375 53.160156 8.613281 53.15625 8.632812 53.15625 C 8.667969 53.15625 8.695312 53.167969 8.714844 53.191406 C 8.730469 53.210938 8.742188 53.242188 8.742188 53.285156 Z M 8.742188 53.285156 "/> <path style=" stroke:none;fill-rule:nonzero;fill:rgb(0%,0%,0%);fill-opacity:1;" d="M 9.144531 53.320312 L 9.144531 53.347656 L 8.914062 53.347656 C 8.914062 53.371094 8.925781 53.386719 8.9375 53.398438 C 8.953125 53.410156 8.972656 53.417969 9 53.417969 C 9.019531 53.417969 9.039062 53.414062 9.0625 53.410156 C 9.085938 53.402344 9.105469 53.390625 9.128906 53.378906 L 9.128906 53.457031 C 9.105469 53.464844 9.082031 53.472656 9.058594 53.476562 C 9.035156 53.480469 9.011719 53.484375 8.988281 53.484375 C 8.933594 53.484375 8.890625 53.46875 8.859375 53.441406 C 8.828125 53.414062 8.8125 53.371094 8.8125 53.320312 C 8.8125 53.269531 8.824219 53.230469 8.855469 53.203125 C 8.886719 53.171875 8.929688 53.15625 8.984375 53.15625 C 9.03125 53.15625 9.070312 53.171875 9.101562 53.203125 C 9.128906 53.230469 9.144531 53.269531 9.144531 53.320312 Z M 9.042969 53.285156 C 9.042969 53.269531 9.035156 53.253906 9.023438 53.242188 C 9.015625 53.230469 9 53.222656 8.984375 53.222656 C 8.964844 53.222656 8.949219 53.230469 8.933594 53.238281 C 8.925781 53.25 8.917969 53.265625 8.914062 53.285156 Z M 9.042969 53.285156 "/> <path style=" stroke:none;fill-rule:nonzero;fill:rgb(0%,0%,0%);fill-opacity:1;" d="M 9.421875 53.0625 L 9.542969 53.0625 L 9.695312 53.347656 L 9.695312 53.0625 L 9.796875 53.0625 L 9.796875 53.476562 L 9.675781 53.476562 L 9.523438 53.191406 L 9.523438 53.476562 L 9.421875 53.476562 Z M 9.421875 53.0625 "/> <path style=" stroke:none;fill-rule:nonzero;fill:rgb(0%,0%,0%);fill-opacity:1;" d="M 10.042969 53.230469 C 10.019531 53.230469 10.003906 53.238281 9.992188 53.253906 C 9.980469 53.269531 9.976562 53.289062 9.976562 53.320312 C 9.976562 53.351562 9.980469 53.375 9.992188 53.390625 C 10.003906 53.40625 10.019531 53.414062 10.042969 53.414062 C 10.0625 53.414062 10.082031 53.40625 10.09375 53.390625 C 10.105469 53.375 10.109375 53.351562 10.109375 53.320312 C 10.109375 53.289062 10.105469 53.269531 10.09375 53.253906 C 10.082031 53.238281 10.0625 53.230469 10.042969 53.230469 Z M 10.042969 53.15625 C 10.097656 53.15625 10.136719 53.171875 10.167969 53.203125 C 10.195312 53.230469 10.210938 53.269531 10.210938 53.320312 C 10.210938 53.371094 10.195312 53.414062 10.167969 53.441406 C 10.136719 53.46875 10.097656 53.484375 10.042969 53.484375 C 9.988281 53.484375 9.945312 53.46875 9.917969 53.441406 C 9.886719 53.414062 9.871094 53.371094 9.871094 53.320312 C 9.871094 53.269531 9.886719 53.230469 9.917969 53.203125 C 9.945312 53.171875 9.988281 53.15625 10.042969 53.15625 Z M 10.042969 53.15625 "/> <path style=" stroke:none;fill-rule:nonzero;fill:rgb(0%,0%,0%);fill-opacity:1;" d="M 10.28125 53.355469 L 10.28125 53.164062 L 10.382812 53.164062 L 10.382812 53.308594 C 10.382812 53.335938 10.382812 53.351562 10.382812 53.363281 C 10.382812 53.375 10.386719 53.382812 10.390625 53.386719 C 10.394531 53.394531 10.398438 53.402344 10.40625 53.402344 C 10.414062 53.40625 10.421875 53.410156 10.429688 53.410156 C 10.449219 53.410156 10.464844 53.402344 10.476562 53.386719 C 10.488281 53.371094 10.496094 53.347656 10.496094 53.320312 L 10.496094 53.164062 L 10.59375 53.164062 L 10.59375 53.476562 L 10.496094 53.476562 L 10.496094 53.429688 C 10.480469 53.449219 10.464844 53.460938 10.449219 53.472656 C 10.429688 53.480469 10.410156 53.484375 10.390625 53.484375 C 10.355469 53.484375 10.328125 53.472656 10.308594 53.453125 C 10.292969 53.429688 10.28125 53.394531 10.28125 53.355469 Z M 10.28125 53.355469 "/> <path style=" stroke:none;fill-rule:nonzero;fill:rgb(0%,0%,0%);fill-opacity:1;" d="M 11.003906 53.285156 L 11.003906 53.476562 L 10.902344 53.476562 L 10.902344 53.332031 C 10.902344 53.304688 10.902344 53.285156 10.902344 53.277344 C 10.898438 53.265625 10.898438 53.257812 10.894531 53.253906 C 10.890625 53.246094 10.886719 53.242188 10.878906 53.238281 C 10.871094 53.234375 10.867188 53.234375 10.855469 53.234375 C 10.835938 53.234375 10.820312 53.242188 10.808594 53.257812 C 10.796875 53.273438 10.789062 53.292969 10.789062 53.324219 L 10.789062 53.476562 L 10.691406 53.476562 L 10.691406 53.164062 L 10.789062 53.164062 L 10.789062 53.210938 C 10.804688 53.191406 10.820312 53.179688 10.835938 53.171875 C 10.855469 53.160156 10.871094 53.15625 10.890625 53.15625 C 10.929688 53.15625 10.957031 53.167969 10.972656 53.191406 C 10.992188 53.210938 11.003906 53.242188 11.003906 53.285156 Z M 11.003906 53.285156 "/> <path style=" stroke:none;fill-rule:nonzero;fill:rgb(0%,0%,0%);fill-opacity:1;" d="M 11.296875 53.0625 L 11.476562 53.0625 C 11.527344 53.0625 11.566406 53.074219 11.597656 53.097656 C 11.625 53.121094 11.636719 53.152344 11.636719 53.195312 C 11.636719 53.238281 11.625 53.273438 11.597656 53.296875 C 11.566406 53.320312 11.527344 53.332031 11.476562 53.332031 L 11.402344 53.332031 L 11.402344 53.476562 L 11.296875 53.476562 Z M 11.402344 53.136719 L 11.402344 53.253906 L 11.464844 53.253906 C 11.484375 53.253906 11.5 53.25 11.511719 53.238281 C 11.523438 53.230469 11.527344 53.214844 11.527344 53.195312 C 11.527344 53.179688 11.523438 53.164062 11.511719 53.152344 C 11.5 53.144531 11.484375 53.136719 11.464844 53.136719 Z M 11.402344 53.136719 "/> <path style=" stroke:none;fill-rule:nonzero;fill:rgb(0%,0%,0%);fill-opacity:1;" d="M 11.941406 53.25 C 11.933594 53.246094 11.925781 53.242188 11.914062 53.238281 C 11.90625 53.238281 11.898438 53.238281 11.890625 53.238281 C 11.863281 53.238281 11.84375 53.246094 11.828125 53.261719 C 11.816406 53.277344 11.808594 53.300781 11.808594 53.332031 L 11.808594 53.476562 L 11.710938 53.476562 L 11.710938 53.164062 L 11.808594 53.164062 L 11.808594 53.214844 C 11.820312 53.195312 11.835938 53.179688 11.851562 53.171875 C 11.871094 53.164062 11.890625 53.15625 11.914062 53.15625 C 11.917969 53.15625 11.921875 53.15625 11.925781 53.160156 C 11.925781 53.160156 11.933594 53.160156 11.941406 53.160156 Z M 11.941406 53.25 "/> <path style=" stroke:none;fill-rule:nonzero;fill:rgb(0%,0%,0%);fill-opacity:1;" d="M 12.140625 53.230469 C 12.117188 53.230469 12.101562 53.238281 12.089844 53.253906 C 12.078125 53.269531 12.070312 53.289062 12.070312 53.320312 C 12.070312 53.351562 12.078125 53.375 12.089844 53.390625 C 12.101562 53.40625 12.117188 53.414062 12.140625 53.414062 C 12.160156 53.414062 12.175781 53.40625 12.1875 53.390625 C 12.199219 53.375 12.207031 53.351562 12.207031 53.320312 C 12.207031 53.289062 12.199219 53.269531 12.1875 53.253906 C 12.175781 53.238281 12.160156 53.230469 12.140625 53.230469 Z M 12.140625 53.15625 C 12.191406 53.15625 12.234375 53.171875 12.261719 53.203125 C 12.292969 53.230469 12.308594 53.269531 12.308594 53.320312 C 12.308594 53.371094 12.292969 53.414062 12.261719 53.441406 C 12.234375 53.46875 12.191406 53.484375 12.140625 53.484375 C 12.085938 53.484375 12.042969 53.46875 12.011719 53.441406 C 11.984375 53.414062 11.96875 53.371094 11.96875 53.320312 C 11.96875 53.269531 11.984375 53.230469 12.011719 53.203125 C 12.042969 53.171875 12.085938 53.15625 12.140625 53.15625 Z M 12.140625 53.15625 "/> <path style=" stroke:none;fill-rule:nonzero;fill:rgb(0%,0%,0%);fill-opacity:1;" d="M 12.382812 53.164062 L 12.480469 53.164062 L 12.480469 53.46875 C 12.480469 53.511719 12.472656 53.542969 12.449219 53.566406 C 12.429688 53.585938 12.402344 53.597656 12.363281 53.597656 L 12.316406 53.597656 L 12.316406 53.53125 L 12.332031 53.53125 C 12.351562 53.53125 12.363281 53.527344 12.371094 53.519531 C 12.378906 53.511719 12.382812 53.496094 12.382812 53.46875 Z M 12.382812 53.042969 L 12.480469 53.042969 L 12.480469 53.125 L 12.382812 53.125 Z M 12.382812 53.042969 "/> <path style=" stroke:none;fill-rule:nonzero;fill:rgb(0%,0%,0%);fill-opacity:1;" d="M 12.886719 53.320312 L 12.886719 53.347656 L 12.65625 53.347656 C 12.65625 53.371094 12.667969 53.386719 12.679688 53.398438 C 12.695312 53.410156 12.714844 53.417969 12.742188 53.417969 C 12.761719 53.417969 12.78125 53.414062 12.804688 53.410156 C 12.828125 53.402344 12.847656 53.390625 12.871094 53.378906 L 12.871094 53.457031 C 12.847656 53.464844 12.824219 53.472656 12.800781 53.476562 C 12.777344 53.480469 12.753906 53.484375 12.730469 53.484375 C 12.675781 53.484375 12.632812 53.46875 12.601562 53.441406 C 12.570312 53.414062 12.554688 53.371094 12.554688 53.320312 C 12.554688 53.269531 12.566406 53.230469 12.597656 53.203125 C 12.628906 53.171875 12.671875 53.15625 12.726562 53.15625 C 12.773438 53.15625 12.8125 53.171875 12.84375 53.203125 C 12.871094 53.230469 12.886719 53.269531 12.886719 53.320312 Z M 12.785156 53.285156 C 12.785156 53.269531 12.777344 53.253906 12.765625 53.242188 C 12.757812 53.230469 12.742188 53.222656 12.726562 53.222656 C 12.707031 53.222656 12.691406 53.230469 12.675781 53.238281 C 12.667969 53.25 12.660156 53.265625 12.65625 53.285156 Z M 12.785156 53.285156 "/> <path style=" stroke:none;fill-rule:nonzero;fill:rgb(0%,0%,0%);fill-opacity:1;" d="M 13.214844 53.175781 L 13.214844 53.253906 C 13.199219 53.246094 13.1875 53.238281 13.171875 53.234375 C 13.160156 53.230469 13.144531 53.230469 13.128906 53.230469 C 13.101562 53.230469 13.082031 53.238281 13.066406 53.253906 C 13.050781 53.269531 13.042969 53.292969 13.042969 53.320312 C 13.042969 53.351562 13.050781 53.371094 13.066406 53.386719 C 13.082031 53.40625 13.101562 53.414062 13.128906 53.414062 C 13.144531 53.414062 13.160156 53.410156 13.175781 53.40625 C 13.1875 53.402344 13.203125 53.394531 13.214844 53.386719 L 13.214844 53.46875 C 13.199219 53.472656 13.183594 53.476562 13.167969 53.480469 C 13.148438 53.484375 13.132812 53.484375 13.117188 53.484375 C 13.0625 53.484375 13.019531 53.46875 12.984375 53.441406 C 12.953125 53.414062 12.9375 53.371094 12.9375 53.320312 C 12.9375 53.269531 12.953125 53.230469 12.984375 53.203125 C 13.019531 53.171875 13.0625 53.15625 13.117188 53.15625 C 13.132812 53.15625 13.152344 53.160156 13.167969 53.160156 C 13.183594 53.164062 13.199219 53.167969 13.214844 53.175781 Z M 13.214844 53.175781 "/> <path style=" stroke:none;fill-rule:nonzero;fill:rgb(0%,0%,0%);fill-opacity:1;" d="M 13.40625 53.078125 L 13.40625 53.164062 L 13.511719 53.164062 L 13.511719 53.234375 L 13.40625 53.234375 L 13.40625 53.367188 C 13.40625 53.382812 13.410156 53.390625 13.417969 53.398438 C 13.421875 53.402344 13.433594 53.402344 13.449219 53.402344 L 13.5 53.402344 L 13.5 53.476562 L 13.417969 53.476562 C 13.375 53.476562 13.347656 53.46875 13.332031 53.453125 C 13.316406 53.433594 13.308594 53.40625 13.308594 53.367188 L 13.308594 53.234375 L 13.257812 53.234375 L 13.257812 53.164062 L 13.308594 53.164062 L 13.308594 53.078125 Z M 13.40625 53.078125 "/> </g> </svg>
