<?xml version="1.0" encoding="UTF-8"?> <svg xmlns="http://www.w3.org/2000/svg" xmlns:xlink="http://www.w3.org/1999/xlink" width="64px" height="64px" viewBox="0 0 64 64" version="1.1"> <g id="surface1"> <path style=" stroke:none;fill-rule:nonzero;fill:rgb(93.72549%,26.666667%,26.666667%);fill-opacity:1;" d="M 38.027344 42.496094 C 37.714844 42.496094 37.460938 42.238281 37.460938 41.925781 L 37.460938 37.191406 C 37.460938 36.878906 37.714844 36.625 38.027344 36.625 C 38.34375 36.625 38.597656 36.878906 38.597656 37.191406 L 38.597656 41.925781 C 38.597656 42.238281 38.34375 42.496094 38.027344 42.496094 Z M 38.027344 42.496094 "/> <path style=" stroke:none;fill-rule:nonzero;fill:rgb(93.72549%,26.666667%,26.666667%);fill-opacity:1;" d="M 25.972656 42.496094 C 25.65625 42.496094 25.402344 42.238281 25.402344 41.925781 L 25.402344 37.191406 C 25.402344 36.878906 25.65625 36.625 25.972656 36.625 C 26.285156 36.625 26.539062 36.878906 26.539062 37.191406 L 26.539062 41.925781 C 26.539062 42.238281 26.285156 42.496094 25.972656 42.496094 Z M 25.972656 42.496094 "/> <path style=" stroke:none;fill-rule:nonzero;fill:rgb(93.72549%,26.666667%,26.666667%);fill-opacity:1;" d="M 38.027344 45.835938 L 25.972656 45.835938 C 25.65625 45.835938 25.402344 45.582031 25.402344 45.269531 C 25.402344 44.953125 25.65625 44.699219 25.972656 44.699219 L 38.027344 44.699219 C 38.34375 44.699219 38.597656 44.953125 38.597656 45.269531 C 38.597656 45.582031 38.34375 45.835938 38.03125 45.835938 Z M 38.027344 45.835938 "/> <path style=" stroke:none;fill-rule:nonzero;fill:rgb(93.72549%,26.666667%,26.666667%);fill-opacity:1;" d="M 44.902344 48.53125 L 19.097656 48.53125 C 18.785156 48.53125 18.527344 48.273438 18.527344 47.960938 L 18.527344 47.71875 C 18.527344 46.054688 19.882812 44.699219 21.550781 44.699219 L 42.449219 44.699219 C 44.117188 44.699219 45.472656 46.054688 45.472656 47.71875 L 45.472656 47.960938 C 45.472656 48.273438 45.21875 48.53125 44.902344 48.53125 Z M 19.695312 47.390625 L 44.304688 47.390625 C 44.148438 46.507812 43.375 45.835938 42.449219 45.835938 L 21.546875 45.835938 C 20.621094 45.835938 19.851562 46.507812 19.695312 47.390625 Z M 19.695312 47.390625 "/> <path style=" stroke:none;fill-rule:nonzero;fill:rgb(93.72549%,26.666667%,26.666667%);fill-opacity:1;" d="M 41.449219 45.835938 L 22.550781 45.835938 C 22.238281 45.835938 21.984375 45.582031 21.984375 45.269531 C 21.984375 43.113281 23.738281 41.355469 25.894531 41.355469 L 38.101562 41.355469 C 40.261719 41.355469 42.015625 43.113281 42.015625 45.269531 C 42.015625 45.582031 41.761719 45.835938 41.449219 45.835938 Z M 23.179688 44.699219 L 40.816406 44.699219 C 40.554688 43.441406 39.4375 42.496094 38.101562 42.496094 L 25.894531 42.496094 C 24.558594 42.496094 23.441406 43.441406 23.179688 44.699219 Z M 23.179688 44.699219 "/> <path style=" stroke:none;fill-rule:nonzero;fill:rgb(93.72549%,26.666667%,26.666667%);fill-opacity:1;" d="M 54.011719 37.761719 L 9.984375 37.761719 C 8.324219 37.761719 6.96875 36.40625 6.96875 34.746094 L 6.96875 5.6875 C 6.96875 4.023438 8.324219 2.671875 9.984375 2.671875 L 54.011719 2.671875 C 55.675781 2.671875 57.03125 4.023438 57.03125 5.6875 L 57.03125 34.746094 C 57.03125 36.40625 55.675781 37.761719 54.011719 37.761719 Z M 9.984375 3.808594 C 8.949219 3.808594 8.105469 4.652344 8.105469 5.6875 L 8.105469 34.742188 C 8.105469 35.78125 8.949219 36.625 9.984375 36.625 L 54.011719 36.625 C 55.046875 36.625 55.890625 35.78125 55.890625 34.742188 L 55.890625 5.6875 C 55.890625 4.652344 55.046875 3.808594 54.011719 3.808594 Z M 9.984375 3.808594 "/> <path style=" stroke:none;fill-rule:nonzero;fill:rgb(93.72549%,26.666667%,26.666667%);fill-opacity:1;" d="M 52.808594 34.109375 L 11.191406 34.109375 C 10.875 34.109375 10.621094 33.855469 10.621094 33.542969 L 10.621094 6.890625 C 10.621094 6.578125 10.875 6.324219 11.191406 6.324219 L 52.808594 6.324219 C 53.125 6.324219 53.378906 6.578125 53.378906 6.890625 L 53.378906 33.542969 C 53.378906 33.855469 53.125 34.109375 52.808594 34.109375 Z M 11.757812 32.972656 L 52.242188 32.972656 L 52.242188 7.460938 L 11.757812 7.460938 Z M 11.757812 32.972656 "/> </g> </svg>
