<svg xmlns="http://www.w3.org/2000/svg" width="96" height="20" viewBox="0 0 99 20"><path d="m78.688 14.29-2.41-4.49-1.52 1.84v2.65h-1.274V5.706h1.274v4.156l3.305-4.156h1.472l-2.402 3.016 3.05 5.566Zm4.25 0V5.706h1.273v8.582Zm7.91-7.356v7.355h-1.274V6.934h-2.426V5.707h6.122v1.227Zm0 0" style="stroke:none;fill-rule:nonzero;fill:#8d8d93;fill-opacity:1"/><path d="M24.793 14.438a3.448 3.448 0 0 1-1.969-.56 2.819 2.819 0 0 1-1.152-1.526l1.2-.442c.167.387.437.715.784.95.352.238.766.359 1.188.35.406.02.804-.1 1.133-.343.285-.242.441-.605.421-.98 0-.172-.039-.344-.117-.496a1.47 1.47 0 0 0-.261-.375 1.946 1.946 0 0 0-.454-.301 8.977 8.977 0 0 0-.507-.235c-.137-.05-.336-.125-.594-.21a18.053 18.053 0 0 1-.735-.274 4.973 4.973 0 0 1-.644-.324 2.342 2.342 0 0 1-.602-.453 2.193 2.193 0 0 1-.359-.594 2.122 2.122 0 0 1 .574-2.414c.488-.434 1.156-.652 1.996-.652.703 0 1.282.156 1.735.464.437.293.761.735.91 1.243l-1.176.39a1.359 1.359 0 0 0-.57-.633 1.927 1.927 0 0 0-.996-.238c-.344-.02-.68.074-.961.27a.898.898 0 0 0-.348.761c0 .223.098.438.266.586.164.16.355.29.566.383.195.082.492.192.89.328.247.09.43.16.548.203.117.047.293.121.52.227.183.082.358.18.526.289.149.11.293.223.43.348.145.129.274.28.371.449.098.176.172.36.223.55.062.227.094.462.09.696 0 .8-.274 1.426-.82 1.879-.547.453-1.247.684-2.106.684Zm7.848-.149-2.938-8.582h1.371l1.95 5.984c.105.32.195.649.269.98.07-.331.16-.66.27-.98l1.921-5.984h1.36l-2.93 8.582Zm6.797 0V5.707h5.316V6.91H40.71v2.352h2.61v1.203h-2.61v2.625h4.312v1.2Zm8.828 0V5.707h1.273v7.356h4.188v1.226Zm10.261-7.355v7.355h-1.273V6.934h-2.426V5.707h6.121v1.227Zm5.055 7.355V5.707h5.316V6.91h-4.043v2.352h2.61v1.203h-2.61v2.625h4.313v1.2Zm0 0" style="stroke:none;fill-rule:nonzero;fill:#4a4a55;fill-opacity:1"/><path d="M15.863 4.074c-1.496-2.14-4.445-2.777-6.582-1.414L5.535 5.05a4.295 4.295 0 0 0-1.941 2.884c-.18.996-.024 2.02.445 2.914a4.346 4.346 0 0 0-.644 1.609 4.585 4.585 0 0 0 .785 3.469c1.492 2.14 4.445 2.777 6.578 1.414l3.75-2.39a4.308 4.308 0 0 0 1.941-2.884c.18-.996.02-2.02-.445-2.914.32-.484.539-1.035.64-1.609a4.6 4.6 0 0 0-.78-3.469" style="stroke:none;fill-rule:nonzero;fill:#ff3e00;fill-opacity:1"/><path d="M8.918 16.125a2.97 2.97 0 0 1-3.195-1.184 2.771 2.771 0 0 1-.473-2.086c.023-.12.055-.238.09-.351l.07-.215.192.14c.445.329.941.575 1.468.735l.137.043-.012.137c-.015.199.035.398.153.558a.899.899 0 0 0 .96.36.94.94 0 0 0 .231-.102l3.746-2.394a.777.777 0 0 0 .356-.52.833.833 0 0 0-.145-.629.892.892 0 0 0-.96-.36.813.813 0 0 0-.231.102l-1.43.914a2.703 2.703 0 0 1-.762.332 2.977 2.977 0 0 1-3.195-1.183 2.78 2.78 0 0 1-.473-2.09 2.585 2.585 0 0 1 1.172-1.73l3.746-2.395c.235-.148.492-.262.762-.332a2.97 2.97 0 0 1 3.195 1.184c.43.605.602 1.355.473 2.086a2.582 2.582 0 0 1-.094.351l-.07.215-.191-.14a4.868 4.868 0 0 0-1.465-.735l-.141-.04.016-.14a.861.861 0 0 0-.153-.558.89.89 0 0 0-1.191-.258l-3.75 2.394a.785.785 0 0 0-.352.52c-.039.223.012.45.141.629a.898.898 0 0 0 .965.36.813.813 0 0 0 .23-.102l1.43-.91c.234-.153.492-.266.762-.336a2.98 2.98 0 0 1 3.195 1.183 2.77 2.77 0 0 1 .469 2.086 2.579 2.579 0 0 1-1.168 1.734L9.68 15.793a2.752 2.752 0 0 1-.762.332" style="stroke:none;fill-rule:nonzero;fill:#fff;fill-opacity:1"/></svg>