<svg xmlns="http://www.w3.org/2000/svg" width="208" height="15" viewBox="0 0 204 15"><path d="M113.617 4.313V14.59h-2.863V4.313c0-.176-.031-.352-.098-.52-.008-.012-.011-.027-.02-.04a1.453 1.453 0 0 0-.766-.766 1.511 1.511 0 0 0-.522-.108h-.04a1.499 1.499 0 0 0-.558.11 1.37 1.37 0 0 0-.457.308 1.34 1.34 0 0 0-.305.457c-.07.164-.11.344-.11.523-.003.012-.003.024-.003.035V14.59H105V4.313a1.396 1.396 0 0 0-.11-.56 1.42 1.42 0 0 0-1.285-.874h-.039a1.499 1.499 0 0 0-.558.11 1.37 1.37 0 0 0-.457.308 1.4 1.4 0 0 0-.305.457c-.07.164-.11.344-.11.523 0 .012-.003.024-.003.035V14.59h-2.875V4.313a4.285 4.285 0 0 1 .336-1.68c.222-.524.531-.98.922-1.375a4.32 4.32 0 0 1 4.593-.973c.493.192.946.473 1.336.828A4.224 4.224 0 0 1 109.31 0a4.302 4.302 0 0 1 3.977 2.633c.222.527.331 1.086.331 1.68ZM162.562.199v14.39h-3.078l-5.539-9.472v9.473h-2.879V.2h3.079l5.542 9.484V.199ZM31.727.2h6.593v2.883h-6.593c-.16-.004-.32.023-.473.074l-.09.035a1.446 1.446 0 0 0-.762.762 1.511 1.511 0 0 0-.109.524v.039c0 .199.039.39.11.566.074.176.175.332.308.461a1.431 1.431 0 0 0 .977.418h2.914a4.302 4.302 0 0 1 3.973 2.633c.226.523.335 1.086.335 1.68a4.17 4.17 0 0 1-.336 1.675 4.282 4.282 0 0 1-.922 1.371c-.39.39-.847.7-1.37.926a4.144 4.144 0 0 1-1.68.344h-6.383v-2.883h6.383c.164.004.324-.023.476-.074l.086-.035a1.51 1.51 0 0 0 .457-.305 1.441 1.441 0 0 0 .414-.98v-.04c0-.16-.023-.32-.078-.472-.008-.031-.02-.059-.031-.09a1.51 1.51 0 0 0-.305-.457 1.441 1.441 0 0 0-.98-.414h-2.914a4.14 4.14 0 0 1-1.672-.34 4.436 4.436 0 0 1-1.371-.93c-.391-.39-.7-.851-.926-1.375a4.207 4.207 0 0 1-.34-1.68c0-.597.113-1.156.34-1.675.219-.512.535-.977.926-1.371.39-.39.847-.7 1.37-.926a4.08 4.08 0 0 1 1.673-.344ZM12.215 7.453v5.68A7.31 7.31 0 0 1 9.98 14.44a7.27 7.27 0 0 1-2.566.457 7.303 7.303 0 0 1-3.734-1.016 7.664 7.664 0 0 1-1.504-1.163 7.266 7.266 0 0 1-1.164-1.508A7.512 7.512 0 0 1 0 7.453c0-.68.09-1.336.266-1.965a7.592 7.592 0 0 1 .746-1.77c.32-.55.71-1.058 1.164-1.507A7.48 7.48 0 0 1 3.68 1.055a7.48 7.48 0 0 1 1.765-.75A7.451 7.451 0 0 1 9.98.496a7.39 7.39 0 0 1 2.235 1.309L10.71 4.313a4.796 4.796 0 0 0-1.5-1.036 4.44 4.44 0 0 0-1.797-.379 4.358 4.358 0 0 0-1.766.364 4.63 4.63 0 0 0-2.434 2.422 4.452 4.452 0 0 0-.359 1.77 4.464 4.464 0 0 0 .36 1.788 4.665 4.665 0 0 0 2.433 2.438c.555.242 1.16.363 1.766.36.356 0 .711-.044 1.055-.13.336-.086.66-.207.972-.363V7.453Zm178.277 0v5.68a7.329 7.329 0 0 1-2.238 1.308c-.82.305-1.688.461-2.563.457a7.123 7.123 0 0 1-1.968-.265 7.265 7.265 0 0 1-1.77-.75 7.78 7.78 0 0 1-1.504-1.164 7.266 7.266 0 0 1-1.164-1.508 7.488 7.488 0 0 1-1.012-3.758c0-.68.09-1.336.266-1.965a7.762 7.762 0 0 1 .746-1.77c.32-.55.711-1.058 1.164-1.507.45-.445.957-.836 1.504-1.156a7.44 7.44 0 0 1 1.77-.75 7.43 7.43 0 0 1 4.53.191c.825.305 1.571.742 2.24 1.309l-1.505 2.508a4.813 4.813 0 0 0-1.504-1.036 4.436 4.436 0 0 0-1.793-.379 4.376 4.376 0 0 0-1.77.364 4.62 4.62 0 0 0-2.43 2.422 4.32 4.32 0 0 0-.358 1.77 4.399 4.399 0 0 0 .36 1.788c.23.543.566 1.035.98 1.453.418.418.91.75 1.449.985.558.242 1.16.363 1.77.36.355 0 .706-.044 1.05-.13.336-.086.664-.207.973-.363V7.453ZM25.766.2v8.64a5.735 5.735 0 0 1-3.516 5.297c-.695.301-1.441.454-2.238.454a5.591 5.591 0 0 1-2.239-.453 5.735 5.735 0 0 1-3.05-3.055 5.61 5.61 0 0 1-.453-2.242V.2h2.867v8.64a2.73 2.73 0 0 0 .226 1.113c.149.348.356.652.614.914.261.258.566.465.918.617.351.149.722.223 1.117.223.394 0 .765-.074 1.117-.223.344-.144.652-.355.918-.617.262-.262.465-.566.617-.914.148-.348.223-.719.223-1.113V.2Zm47.476 0h3.29l-4.72 14.39h-2.878L64.234.2H67.5l2.867 9.602Zm61.781 11.508v2.883h-2.875V.2h5.75c.516 0 1.028.07 1.524.206a5.806 5.806 0 0 1 4.016 4.027c.136.489.203.997.203 1.528.004.488-.059.973-.184 1.445-.125.465-.3.91-.531 1.332-.23.422-.516.817-.848 1.164a5.64 5.64 0 0 1-1.121.922l1.594 3.766h-3.059l-1.25-2.902Zm-71.66-5.746v8.629h-2.875v-2.883h-5.754v2.883h-2.863V5.96c0-.796.149-1.542.45-2.241a5.73 5.73 0 0 1 5.29-3.52 5.742 5.742 0 0 1 4.07 1.688c.518.52.932 1.133 1.233 1.832.297.699.45 1.445.45 2.242Zm113.2 0v8.629h-2.88v-2.883h-5.75v2.883h-2.867V5.96c0-.796.153-1.542.454-2.241a5.805 5.805 0 0 1 1.226-1.832A5.687 5.687 0 0 1 168.57.652 5.591 5.591 0 0 1 170.81.2a5.61 5.61 0 0 1 2.242.453c.695.301 1.304.711 1.828 1.235.52.52.93 1.133 1.23 1.832.301.699.453 1.445.453 2.242Zm27.476 0v8.629h-2.875v-2.883h-5.754v2.883h-2.867V5.96c0-.796.152-1.542.453-2.241a5.73 5.73 0 0 1 5.29-3.52 5.742 5.742 0 0 1 4.07 1.688c.519.52.933 1.133 1.234 1.832.297.699.45 1.445.45 2.242ZM46.63 3.082V14.59h-2.867V3.082h-4.32V.199h11.495v2.883Zm44.84 6.344a7.459 7.459 0 0 0 0-3.95 7.311 7.311 0 0 0-.75-1.773 7.359 7.359 0 0 0-1.16-1.504 7.242 7.242 0 0 0-1.504-1.164 7.311 7.311 0 0 0-1.774-.75 7.43 7.43 0 0 0-8.39 3.418 7.323 7.323 0 0 0-1.02 3.75c0 .668.086 1.332.266 1.973.175.633.43 1.222.754 1.777.32.55.714 1.059 1.164 1.508.453.453.96.848 1.507 1.172a7.565 7.565 0 0 0 1.778.75c.64.18 1.3.27 1.969.265a7.19 7.19 0 0 0 1.972-.265 7.229 7.229 0 0 0 1.774-.75 7.636 7.636 0 0 0 1.504-1.172c.449-.45.84-.957 1.16-1.508a7.732 7.732 0 0 0 .75-1.777Zm38.531 0a7.459 7.459 0 0 0 0-3.95 7.468 7.468 0 0 0-3.414-4.44 7.311 7.311 0 0 0-1.773-.75 7.43 7.43 0 0 0-7.227 1.914 7.504 7.504 0 0 0-1.168 1.503 7.35 7.35 0 0 0-1.016 3.75c0 .668.086 1.332.266 1.973.176.633.43 1.222.75 1.777a7.66 7.66 0 0 0 2.676 2.68 7.496 7.496 0 0 0 1.777.75c.64.18 1.3.27 1.969.265a7.19 7.19 0 0 0 1.972-.265 7.293 7.293 0 0 0 1.774-.75 7.636 7.636 0 0 0 1.504-1.172c.45-.45.84-.957 1.16-1.508a7.732 7.732 0 0 0 .75-1.777ZM148.402.199v14.39h-2.875V.2ZM88.875 7.453a4.422 4.422 0 0 0-.36-1.777 4.591 4.591 0 0 0-.976-1.457 4.574 4.574 0 0 0-1.453-.977 4.426 4.426 0 0 0-1.777-.363 4.45 4.45 0 0 0-1.786.363 4.561 4.561 0 0 0-2.434 2.434 4.426 4.426 0 0 0-.362 1.777c-.004.61.12 1.215.363 1.774.23.539.566 1.03.98 1.449.418.418.91.75 1.453.984a4.446 4.446 0 0 0 1.786.36 4.49 4.49 0 0 0 1.777-.36 4.6 4.6 0 0 0 2.43-2.433 4.326 4.326 0 0 0 .359-1.774Zm38.531 0a4.422 4.422 0 0 0-.36-1.777 4.657 4.657 0 0 0-.976-1.457 4.574 4.574 0 0 0-1.453-.977 4.426 4.426 0 0 0-1.777-.363 4.45 4.45 0 0 0-1.785.363 4.561 4.561 0 0 0-2.434 2.434 4.426 4.426 0 0 0-.363 1.777c-.004.61.12 1.215.363 1.774.23.539.567 1.03.98 1.449.419.418.91.75 1.454.984a4.446 4.446 0 0 0 1.785.36 4.49 4.49 0 0 0 1.777-.36 4.6 4.6 0 0 0 2.43-2.433 4.39 4.39 0 0 0 .36-1.774ZM54.734 8.84h5.754V5.96c0-.394-.078-.769-.226-1.12a2.967 2.967 0 0 0-.617-.918 2.942 2.942 0 0 0-.918-.617 2.824 2.824 0 0 0-1.118-.223 2.852 2.852 0 0 0-2.648 1.758 2.792 2.792 0 0 0-.227 1.12Zm113.2 0h5.75V5.96a2.857 2.857 0 0 0-.84-2.038 2.988 2.988 0 0 0-.918-.617 2.838 2.838 0 0 0-1.117-.223c-.395 0-.766.074-1.118.223a2.922 2.922 0 0 0-.918.617 2.91 2.91 0 0 0-.84 2.039Zm27.476 0h5.754V5.96c0-.394-.078-.769-.226-1.12a2.967 2.967 0 0 0-.618-.918 2.988 2.988 0 0 0-.918-.617 2.824 2.824 0 0 0-1.117-.223 2.852 2.852 0 0 0-2.648 1.758 2.792 2.792 0 0 0-.227 1.12Zm-57.512-5.758h-2.875V8.84h2.875a2.883 2.883 0 0 0 2.027-.844 2.91 2.91 0 0 0 .84-2.035c0-.395-.074-.77-.226-1.121a2.956 2.956 0 0 0-.613-.918 3.018 3.018 0 0 0-.914-.617 2.805 2.805 0 0 0-1.114-.223Zm0 0" style="stroke:none;fill-rule:evenodd;fill:#fff;fill-opacity:1"/></svg>