<svg xmlns="http://www.w3.org/2000/svg" width="64" height="14" viewBox="0 0 61 14"><path d="M30.54 3.555c-2.38 0-4.095 1.574-4.095 3.937 0 2.363 1.93 3.938 4.309 3.938 1.437 0 2.707-.578 3.488-1.551l-1.648-.969c-.434.485-1.098.766-1.84.766-1.031 0-1.91-.547-2.234-1.422h6.039c.046-.242.074-.496.074-.766 0-2.36-1.715-3.933-4.094-3.933ZM28.5 6.727c.27-.872 1.008-1.422 2.035-1.422 1.035 0 1.77.55 2.04 1.422Zm25.25-3.172c-2.379 0-4.098 1.574-4.098 3.937 0 2.363 1.934 3.938 4.313 3.938 1.437 0 2.703-.578 3.488-1.551l-1.648-.969c-.434.485-1.098.766-1.84.766-1.031 0-1.91-.547-2.235-1.422h6.04c.046-.242.074-.496.074-.766 0-2.36-1.715-3.933-4.094-3.933Zm-2.04 3.172c.27-.872 1.009-1.422 2.04-1.422 1.031 0 1.77.55 2.035 1.422Zm-8.41.765c0 1.313.845 2.188 2.153 2.188.89 0 1.555-.41 1.899-1.078l1.656.972c-.688 1.156-1.973 1.856-3.555 1.856-2.379 0-4.094-1.575-4.094-3.938 0-2.363 1.715-3.937 4.094-3.937 1.582 0 2.867.699 3.555 1.855l-1.656.973c-.344-.668-1.008-1.078-1.899-1.078-1.308 0-2.152.875-2.152 2.187Zm17.778-6.344v10.063h-1.941V1.148ZM8.102.055l7.964 14H.136Zm19.914 1.093-5.973 10.5-5.973-10.5h2.239l3.734 6.563 3.73-6.563ZM40.71 3.773v2.122a2.304 2.304 0 0 0-.688-.11c-1.253 0-2.156.875-2.156 2.188v3.238h-1.941V3.773h1.941v2.012c0-1.11 1.274-2.012 2.844-2.012Zm0 0" style="stroke:none;fill-rule:nonzero;fill:#fff;fill-opacity:1"/></svg>