<svg xmlns="http://www.w3.org/2000/svg" width="82" height="24" viewBox="0 0 81 24"><path d="m5.55 2.895.18-.852-.28-.129c-.048.016-.09.027-.134.04a.805.805 0 0 1-.304.03.114.114 0 0 1-.035-.007 1.235 1.235 0 0 1-.204-.055.03.03 0 0 0-.015-.008.182.182 0 0 1-.067.012.785.785 0 0 1-.347-.078c-.004-.004-.012-.008-.02-.012a1.842 1.842 0 0 1-.5-.336l-.11-.11a.894.894 0 0 1-.14-.21c-.008-.012-.011-.028-.015-.04a.458.458 0 0 1-.036-.093C3.512 1.016 3.508.98 3.5.945c-.004-.027-.004-.05-.008-.078L3.48.7a.213.213 0 0 1 .047-.094c.059-.066.16-.128.317-.19.004-.005.011-.009.02-.013.093-.035.187-.066.284-.097.094-.028.196-.051.301-.075A8.836 8.836 0 0 1 5.515.058c.176-.019.356-.03.532-.042A9.392 9.392 0 0 1 7.363.03c.418.028.824.121 1.215.27l.04.012c.39.156.816.32 1.277.492.457.172.937.453 1.437.84.098.074.191.152.285.23.54.453 1.028.965 1.461 1.523.067.09.137.18.203.27.301.41.551.86.746 1.332.11.27.196.55.262.836.04.156.078.367.117.625l.035.254c.051.375.082.742.09 1.094v.05c.004.239-.015.414-.058.532a.282.282 0 0 1-.055.101.773.773 0 0 0-.047.121c-.008.04-.016.082-.02.125v.024c-.003.082.028.14.09.172-.015.043-.058.191-.136.441a1.399 1.399 0 0 1-.043.137 12.627 12.627 0 0 1-.281.867 5.065 5.065 0 0 1-.153.902 5.427 5.427 0 0 1-.152.489c-.172.484-.36.933-.563 1.355l-.222.45c-.121.23-.235.44-.34.62a.523.523 0 0 0-.192.04c-.004.003-.007.003-.015.007-.04.02-.035.04.015.055.004 0 .008.004.012.004 0 .074-.066.203-.207.394-.023.032-.047.063-.074.094-.02.016-.035.031-.055.05a3.21 3.21 0 0 0-.262.325 3.85 3.85 0 0 1-.28.344l-.067.058a.499.499 0 0 1-.152.297c-.02.02-.044.035-.067.055a.326.326 0 0 1-.148.059h-.056c-.007 0-.019.007-.023.015a.171.171 0 0 0-.011.074v.016c-.047.07-.098.137-.153.203a5.87 5.87 0 0 1-.449.492l-.039.04c-.172.167-.348.328-.523.488a14.954 14.954 0 0 1-1.586 1.227c-.356.241-.696.429-1.016.566a.522.522 0 0 1-.07.027 2.662 2.662 0 0 1-.535.297c-.16.066-.317.137-.473.215-.02.011-.043.02-.063.031-.027.02-.05.039-.078.055a4.538 4.538 0 0 1-.484.242c-.207.094-.418.18-.629.262-.101.039-.203.074-.305.113-.253.09-.488.164-.695.215-.062.015-.125.03-.187.043-.325.05-.622.082-.895.09h-.047c-.226 0-.531-.043-.91-.133-.082-.02-.164-.04-.242-.063-.07-.02-.14-.047-.211-.074a1.127 1.127 0 0 1-.324-.195 1.3 1.3 0 0 1-.137-.148c-.098-.114-.23-.278-.395-.485-.02-.027-.039-.05-.058-.078a3.014 3.014 0 0 1-.395-.758c-.015-.047-.03-.094-.039-.14a.799.799 0 0 1-.023-.325.26.26 0 0 1 .023-.078c.047-.125.149-.164.305-.125.012.004.02.004.027.008.016.004.028.011.043.02.043.023.102.066.176.128.008.008.016.012.023.02.11.093.22.21.32.347.24.258.528.43.868.516.098.023.191.043.289.055.285.03.621.023 1.02-.024.015 0 .03-.004.046-.004.098-.02.192-.043.29-.066.085-.023.18-.047.273-.07l.305-.082c.343-.094.675-.211.996-.348.105-.047.21-.094.312-.145a2.88 2.88 0 0 0 .27-.148c.062-.035.125-.078.187-.121l.64-.442c.423-.285.794-.539 1.118-.753.137-.094.274-.184.414-.278l.817-.539c.02-.039.043-.07.074-.098a.428.428 0 0 1 .117-.07c.039-.02.078-.035.113-.05.035-.016.07-.032.11-.047l.12-.047c.106-.102.27-.266.5-.489.231-.222.45-.449.665-.671.035-.04.074-.079.11-.118.148-.152.245-.242.284-.27l.035-.136c.024-.094.047-.172.07-.238a.928.928 0 0 0 .052-.297c.136-.137.316-.426.546-.863.23-.438.465-.93.704-1.473.238-.54.41-1.035.511-1.484.067-.329.121-.66.16-.996a8.35 8.35 0 0 0 .051-1.77 6.014 6.014 0 0 0-.031-.277c-.121-.829-.363-1.536-.73-2.13a6.606 6.606 0 0 0-1.368-1.59 5.107 5.107 0 0 0-.777-.5 8.608 8.608 0 0 0-1.035-.48c-.13-.046-.254-.093-.383-.14-.125-.047-.246-.09-.355-.13a3.769 3.769 0 0 0-.196-.062C8.078 1.72 8.04 1.707 8 1.695c-.191-.058-.313-.082-.355-.066a.091.091 0 0 0-.047.039c-.063.074-.16.262-.29.566-.027.07-.058.137-.085.207a52.86 52.86 0 0 0-.754 2c-.29.809-.598 1.668-.93 2.582-.336.91-.644 1.774-.934 2.582-.101.325-.214.668-.332 1.032-.082.246-.156.472-.222.675-.028.09-.059.176-.086.266-.086.266-.125.442-.125.527a2.67 2.67 0 0 0-.211.407 4.454 4.454 0 0 0-.238.758c-.11.48-.235 1.28-.371 2.398l-.106.414c-.07.262-.125.492-.172.68-.02.078-.035.156-.054.234-.067.3-.137.445-.204.426l-.011.015-.09.09a.153.153 0 0 1-.016.07c-.027.055-.09.083-.191.083A.674.674 0 0 1 2 17.66a1.27 1.27 0 0 1-.18-.05c-.039-.012-.078-.028-.117-.044a2.93 2.93 0 0 1-.191-.097 1.068 1.068 0 0 1-.168-.117l-.063-.059a2.773 2.773 0 0 1-.09-.54v-.03c0-.18.067-.508.196-.977.058-.226.125-.484.203-.777a60.853 60.853 0 0 1 .535-1.895c.152-.508.3-.976.434-1.406l.308-.98c.11-.27.266-.762.465-1.477l.047-.176c.137-.445.277-.894.422-1.34a19.805 19.805 0 0 1 .422-1.203c.109-.285.191-.492.246-.613l.035-.07c.082-.223.21-.602.383-1.133.156-.5.363-1.051.61-1.653.019-.043.034-.086.054-.128Zm47.63 21.03c-.028 0-.055 0-.082.005-.024 0-.051 0-.082.004-.032 0-.063.003-.094.003-.004.004-.008.004-.016.004-.09 0-.172-.066-.25-.195-.004-.008-.008-.02-.015-.027a.51.51 0 0 1-.067-.121.83.83 0 0 1-.047-.266v-.035c-.004-.176.035-.465.11-.875.004-.004.004-.012.004-.02.082-.273.148-.554.203-.836 0-.007 0-.02.004-.027.011-.066.023-.133.03-.2a3.77 3.77 0 0 0 .044-.335v-.098c0-.066.023-.203.066-.398.043-.2.063-.34.063-.426.062-.102.113-.227.16-.383.016-.062.031-.125.043-.187.023-.098.039-.2.055-.301.015-.121.023-.234.023-.344 0-.129.043-.258.117-.363.047-.07.114-.137.192-.203 0-.137.027-.309.086-.516.015-.043.023-.086.035-.125.039-.14.054-.234.054-.289.051-.242.168-.668.348-1.277.082-.285.168-.567.258-.848.121-.383.258-.793.406-1.23.262-.774.524-1.532.777-2.27a62.735 62.735 0 0 1 .493-1.367c.062-.172.129-.344.199-.516.07-.172.14-.343.203-.515.098-.27.172-.516.219-.739.074-.351.113-.613.113-.785 0-.07.02-.125.05-.168.013-.011.02-.023.032-.035.031-.039.078-.094.137-.164a6.62 6.62 0 0 0 .062-.074.858.858 0 0 1 .09-.078.396.396 0 0 1 .242-.106c.043 0 .082.012.117.031.043.024.086.047.13.075.097.062.214.14.343.234a5.157 5.157 0 0 1 .293.566c.012.036.02.067.027.102.028.156.016.387-.039.688v.011a1.774 1.774 0 0 1-.129.672c-.023.055-.05.106-.074.16-.05.094-.093.176-.136.235-.004.011-.012.02-.02.03-.066.095-.086.134-.05.118.234-.113.476-.21.722-.297.242-.082.473-.144.695-.183.145-.028.29-.043.434-.051.539-.024.988.07 1.355.285.367.215.645.512.828.89.121.247.204.508.243.782.027.176.043.355.039.535 0 .207-.04.45-.125.734-.055.18-.121.356-.196.528-.039.082-.082.164-.125.246-.129.234-.242.402-.343.504a.14.14 0 0 0-.079.023.436.436 0 0 0-.128.145 3.734 3.734 0 0 0-.203.375 1.71 1.71 0 0 1-.16.175 4.562 4.562 0 0 1-.493.403 5.204 5.204 0 0 1-.879.52c-.293.128-.504.163-.64.113l-.063.015c-.039.008-.059.043-.062.11-.004.011-.004.02-.004.03 0 .009-.008.02-.016.024-.043.04-.172.106-.39.196a7.473 7.473 0 0 1-1.333.394c-.203.04-.39.059-.558.059-.36 0-.614-.07-.77-.207a.76.76 0 0 0-.168.273c-.008.02-.008.043-.008.063 0 .101-.039.297-.117.578-.07.262-.152.515-.25.765-.004.016-.011.032-.02.047a1.35 1.35 0 0 1-.054.133c-.059.129-.117.207-.172.238-.015.012-.035.016-.054.02l-.051.074a.11.11 0 0 0-.016.059c0 .039.02.082.055.133.004.003.008.011.011.015l-.011.297a1.246 1.246 0 0 1-.031.242.907.907 0 0 1-.11.262c0 .105-.015.254-.047.445-.008.059-.02.117-.027.176-.004 0-.004.004-.004.004a2.553 2.553 0 0 1-.156.57c-.008.016-.012.032-.02.043a2.104 2.104 0 0 1-.125.707c-.035.102-.074.16-.117.184a.075.075 0 0 1-.039.012.128.128 0 0 0-.059.043.582.582 0 0 0-.066.23c0 .02-.004.035-.004.05l-.012.138a4.146 4.146 0 0 0-.011.265v.024c-.02.43-.106.765-.258 1.007 0 0 0 .004-.004.004a.817.817 0 0 1-.316.309.507.507 0 0 1-.215.047Zm-11.715-5.753c.047-.004.094-.016.14-.027.028-.012.055-.032.079-.047a.357.357 0 0 0 .148-.25.304.304 0 0 0 .008-.063c.012-.105.015-.273.02-.5v-.25c0-.332.054-.738.163-1.215.055-.234.114-.465.18-.695.23-.79.484-1.66.754-2.605.219-.59.348-1 .395-1.227.007-.047.015-.094.015-.14l.012-.141c0-.012.004-.024.004-.035.012-.047.027-.079.054-.094a.102.102 0 0 1 .06-.016c.01-.012.023-.023.03-.035a.36.36 0 0 0 .051-.074.286.286 0 0 0 .031-.098 1.77 1.77 0 0 0 .012-.203c0-.035.043-.16.129-.375.027-.074.059-.145.086-.215.031-.074.062-.156.098-.238.046-.11.09-.215.136-.32.13-.305.25-.586.371-.852a10.594 10.594 0 0 1 .281-.61c.02-.058.04-.12.063-.183l.059-.16c.023-.059.043-.117.07-.172.012-.023.02-.05.031-.078.024-.063.043-.121.051-.164.004-.024.008-.047.008-.067V7.02c0-.075.078-.258.226-.551.04-.078.079-.153.114-.23.117-.243.222-.489.324-.739.004-.012.012-.023.016-.035l.699-1.488a10.682 10.682 0 0 0 .25-.582c.02-.055.039-.11.054-.165.004-.007.004-.011.008-.02a1.937 1.937 0 0 0 .07-.573V2.55a32.915 32.915 0 0 0-.011-.239 4.18 4.18 0 0 0-.027-.218.684.684 0 0 0-.243-.414l-.41-.41c-.066 0-.14.007-.215.023a.37.37 0 0 0-.191.105h-.07a.406.406 0 0 0-.239.102.367.367 0 0 0-.093.195 1.032 1.032 0 0 0-.008.114v.007c-.004.075-.047.25-.125.52-.024.07-.043.14-.067.21-.043.134-.086.27-.132.407l-.153.457a77.86 77.86 0 0 1-1.504 4.04c-.043.109-.086.218-.132.327-.137.325-.25.57-.34.743 0 .039-.008.078-.02.113-.012.031-.027.062-.043.094-.015.023-.027.046-.039.07a.406.406 0 0 0-.027.137v.015a.877.877 0 0 1-.063.254.843.843 0 0 0-.062.297c-.07.07-.133.191-.192.363-.035.094-.058.18-.074.266a1.142 1.142 0 0 0-.015.2.916.916 0 0 1-.098.398c-.047.093-.098.14-.16.14a8.62 8.62 0 0 0-.157.383c-.02.047-.039.098-.058.148-.004.008-.008.016-.012.028-.11.277-.219.59-.336.937-.027.09-.058.18-.086.27-.086.258-.164.52-.246.777-.02.074-.043.149-.066.223-.067.226-.11.406-.137.539v.027a2.098 2.098 0 0 1-.035.274c-.012.058-.027.117-.043.175-.012.051-.023.102-.04.149a4.534 4.534 0 0 1-.163.457c-.016.07-.028.14-.043.215-.082.43-.121.82-.121 1.168 0 .09.004.18.011.27.008.12.024.241.047.363.024.125.059.238.102.34.047.12.113.23.195.328a.677.677 0 0 0 .64.234Zm-21.453-.93c-.356.309-.77.492-1.239.543-.097.008-.191.016-.289.016a2.649 2.649 0 0 1-2.176-1.152 2.951 2.951 0 0 1-.562-1.305 3.675 3.675 0 0 1-.05-.41 9.092 9.092 0 0 1 .023-1.512c.039-.453.14-.902.312-1.324.094-.243.203-.477.328-.7.375-.68.828-1.289 1.368-1.82.199-.2.414-.387.636-.558a4.55 4.55 0 0 1 .707-.442c.082-.039.168-.078.254-.11.063-.042.13-.081.196-.12a.973.973 0 0 1 .43-.125h.023c.175.007.445.03.812.062a4.206 4.206 0 0 1 .328.05c.2.04.367.09.496.15.028.011.051.023.078.035.196.101.352.242.473.414.195.199.344.394.438.59a2.232 2.232 0 0 1 .2.906 1.72 1.72 0 0 1-.126.394c-.106.25-.277.528-.508.832-.039.055-.078.106-.121.153-.328.41-.727.757-1.168 1.035-.172.11-.348.207-.531.297a3.26 3.26 0 0 1-.797.148c-.14.008-.281.012-.43.004a2.368 2.368 0 0 1-.496-.066 1.69 1.69 0 0 1-.601-.27 1.104 1.104 0 0 0-.122-.043c-.148-.05-.27-.059-.363-.023a.29.29 0 0 0-.156.132c-.024.051-.047.102-.063.157-.062.175-.117.445-.171.808l-.047.34a5.895 5.895 0 0 0-.02.262c-.023.37.004.676.07.914.024.09.059.176.106.254.168.3.398.476.687.531.282.055.512.098.696.125.039.004.074.012.11.016.026.004.054.004.081.004.176 0 .387-.07.633-.215.004-.004.012-.004.016-.008.046-.031.093-.059.14-.09.188-.117.309-.183.367-.207h.004a.881.881 0 0 0 .086-.043.392.392 0 0 0 .078-.062l.32-.32c.028-.028.055-.06.087-.087.078-.078.144-.14.195-.187a.361.361 0 0 1 .113-.067.313.313 0 0 1 .117-.023c.063 0 .121.023.168.063a.418.418 0 0 1 .063.054.68.68 0 0 0 .164.145l.039.023c.02 0 .043 0 .062.008.11.023.13.11.067.266a1.53 1.53 0 0 1-.129.242 3.158 3.158 0 0 1-.36.449c-.023.027-.05.055-.074.082a5.542 5.542 0 0 1-.972.785Zm16.761 0c-.355.309-.77.492-1.238.543-.097.008-.191.016-.289.016a2.649 2.649 0 0 1-2.176-1.152 2.951 2.951 0 0 1-.562-1.305 4.898 4.898 0 0 1-.051-.41 9.092 9.092 0 0 1 .023-1.512c.04-.453.145-.902.313-1.324.094-.243.203-.477.328-.7.375-.68.828-1.289 1.367-1.82.2-.2.414-.387.637-.558a4.55 4.55 0 0 1 .707-.442c.082-.039.168-.078.254-.11.062-.042.129-.081.195-.12a.973.973 0 0 1 .43-.125h.023a23.888 23.888 0 0 1 .832.066c.102.012.207.027.309.047.2.039.367.09.5.148a1.312 1.312 0 0 1 .547.45c.195.199.344.394.437.59.028.054.051.113.075.171a2.2 2.2 0 0 1 .125.734 1.71 1.71 0 0 1-.121.395c-.11.25-.282.528-.512.832-.04.055-.078.106-.121.153-.328.41-.727.757-1.168 1.035-.172.11-.348.207-.532.297a3.26 3.26 0 0 1-.796.148c-.141.008-.282.012-.43.004a2.368 2.368 0 0 1-.496-.066 1.69 1.69 0 0 1-.602-.27 1.417 1.417 0 0 0-.117-.043c-.152-.05-.273-.059-.367-.023a.269.269 0 0 0-.152.132.783.783 0 0 0-.067.157c-.062.175-.117.445-.172.808a10.094 10.094 0 0 0-.066.602c-.02.37.004.676.07.914.028.09.059.176.106.254.168.3.398.476.687.531.281.055.516.098.695.125.04.004.075.012.11.016.027.004.054.004.082.004.176 0 .387-.07.633-.215.004-.004.011-.004.015-.008.047-.031.094-.059.14-.09.188-.117.31-.183.368-.207h.004a.881.881 0 0 0 .086-.043.392.392 0 0 0 .078-.062l.32-.32c.028-.028.055-.06.086-.087.078-.078.145-.14.196-.187a.411.411 0 0 1 .113-.067.313.313 0 0 1 .117-.023c.063 0 .121.023.168.063a.418.418 0 0 1 .063.054.68.68 0 0 0 .164.145c.011.008.027.015.039.023.023 0 .043 0 .062.008.11.023.13.11.067.266a1.53 1.53 0 0 1-.129.242 3.158 3.158 0 0 1-.36.449c-.023.027-.05.055-.074.082a5.542 5.542 0 0 1-.973.785Zm31.559 0a2.24 2.24 0 0 1-1.238.543 2.611 2.611 0 0 1-1.367-.219 2.635 2.635 0 0 1-1.102-.918 2.951 2.951 0 0 1-.563-1.304 4.898 4.898 0 0 1-.05-.41 9.59 9.59 0 0 1 .027-1.512c.035-.453.14-.902.309-1.324.093-.243.203-.477.328-.7.375-.68.832-1.289 1.367-1.82.203-.2.414-.387.64-.558.235-.18.47-.325.704-.442.086-.039.168-.078.254-.11a2.45 2.45 0 0 1 .199-.12c.16-.082.3-.125.426-.125h.027c.176.007.445.03.809.062a2.33 2.33 0 0 1 .902.234c.195.102.355.243.473.415.199.199.343.394.441.59a2.232 2.232 0 0 1 .2.906c-.028.136-.071.27-.126.394-.11.25-.277.528-.512.832a4.702 4.702 0 0 1-1.29 1.188c-.17.11-.346.207-.526.297a3.291 3.291 0 0 1-.8.148 3.853 3.853 0 0 1-.427.004 2.334 2.334 0 0 1-.496-.066 1.659 1.659 0 0 1-.601-.27 1.496 1.496 0 0 0-.121-.043c-.149-.05-.27-.059-.364-.023a.29.29 0 0 0-.156.132c-.027.051-.047.102-.066.157a4.84 4.84 0 0 0-.168.808l-.047.34a5.893 5.893 0 0 0-.02.262c-.023.37 0 .676.07.914.024.09.06.176.102.254.172.3.403.476.692.531.281.055.511.098.695.125.035.004.074.012.11.016.027.004.05.004.078.004.18 0 .39-.07.636-.215.004-.004.008-.004.012-.008.05-.031.098-.059.144-.09a2.975 2.975 0 0 1 .458-.25.392.392 0 0 0 .078-.062l.32-.32c.027-.028.055-.06.082-.087.082-.078.145-.14.2-.187a.361.361 0 0 1 .112-.067.273.273 0 0 1 .285.04.263.263 0 0 1 .06.054.692.692 0 0 0 .167.145c.012.008.024.015.04.023.019 0 .042 0 .062.008.105.023.129.11.066.266-.004.011-.012.023-.015.035-.032.07-.07.14-.114.207a3.462 3.462 0 0 1-.437.531c-.27.281-.594.543-.969.785Zm4.293 0a1.147 1.147 0 0 1-.32-.36.316.316 0 0 1-.028-.085c-.03-.129-.027-.336.016-.613.02-.2.047-.399.074-.598.04-.246.082-.473.13-.68.038-.172.081-.344.12-.515.043-.18.09-.364.137-.563.016-.066.031-.133.05-.2.032-.198.126-.534.278-1.007a23.57 23.57 0 0 1 .613-1.676c.243-.586.48-1.14.72-1.664.194-.433.366-.773.519-1.027.027-.047.058-.098.093-.149a.664.664 0 0 1 .348-.128c.023 0 .043-.004.066-.004.028 0 .055.004.082.004a.8.8 0 0 1 .5.234c.082.07.141.168.157.277.023.145.004.32-.067.535-.129.387-.39.993-.781 1.82l-.46 1.044c-.095.218-.138.351-.13.402 0 .004 0 .008.004.012.016.039.074.027.18-.035.02-.012.035-.02.05-.032.036-.062.075-.125.118-.183.11-.145.254-.301.441-.473.278-.254.563-.492.856-.723l.015-.011c.305-.242.598-.457.867-.649.055-.035.114-.074.168-.113a4.02 4.02 0 0 1 .395-.246 1.928 1.928 0 0 1 .473-.219c.043-.015.082-.027.125-.043.109-.039.191-.07.242-.097 0 0 .004 0 .004-.004a2.23 2.23 0 0 1 .941-.223c.086 0 .172.008.258.02.41.05.668.203.77.464.003.043.015.09.03.133.028.07.075.133.133.176l.141.102c.016 0 .027.003.043.003a.087.087 0 0 1 .074.075l.012.078c0 .097-.062.164-.184.199-.027.008-.054.016-.085.02-.122.02-.266.035-.43.046-.082.008-.164.012-.246.02-.106.008-.207.02-.313.043-.094.02-.187.047-.277.086-.168.066-.371.152-.613.258-.47.273-.938.554-1.407.836-.148.09-.297.18-.445.273a7.01 7.01 0 0 0-1.023.77c-.239.214-.461.437-.676.675-.117.137-.238.301-.356.489-.12.191-.25.398-.382.62a.34.34 0 0 0-.067.087 1.987 1.987 0 0 0-.191.48 16.24 16.24 0 0 0-.246.977c-.04.183-.059.297-.059.34l-.078.246a1.43 1.43 0 0 1-.149.324l-.105.152c-.043.055-.086.11-.129.16-.14.157-.262.243-.363.254h-.02a.42.42 0 0 1-.12-.027c-.118-.05-.263-.16-.438-.328-.016-.02-.035-.04-.055-.059Zm-46.77-.773a.36.36 0 0 0 .086.101c.204.207.426.27.664.184.07-.027.137-.063.2-.098.21-.125.468-.332.77-.625.085-.125.179-.242.277-.355.113-.133.242-.258.375-.367.039-.036.078-.067.117-.098.164-.137.273-.234.332-.293l.047-.047c.105-.121.277-.332.515-.637.27-.351.551-.738.84-1.16.016-.02.027-.039.04-.058.273-.395.472-.723.6-.985.016-.02.032-.035.044-.05.054-.075.113-.184.175-.325.004-.011.008-.023.016-.039.035-.082.078-.172.129-.262.055-.093.113-.187.172-.28.07-.095.133-.192.195-.294.203-.336.293-.601.266-.789-.031-.222-.219-.312-.567-.273-.03.004-.066.008-.097.015a.731.731 0 0 0-.313.188c-.047.039-.093.086-.133.133a7.302 7.302 0 0 0-.473.582c-.155.207-.292.394-.41.566-.273.344-.515.672-.73.98-.02.036-.043.067-.066.102-.207.293-.469.656-.79 1.086-.023.035-.05.07-.073.102-.176.23-.36.457-.551.672-.035.043-.075.082-.11.125-.113.125-.195.218-.257.28a.75.75 0 0 1-.055.06c-.004.003-.008.011-.016.015-.11.105-.207.121-.289.047-.012-.016-.027-.031-.039-.05a2.647 2.647 0 0 1-.242-.4c0-.007 0-.015-.004-.023-.008-.09-.059-.304-.152-.648a10.424 10.424 0 0 1-.254-1.367c-.043-.282-.09-.559-.14-.84a11.96 11.96 0 0 0-.356-1.48c-.114-.34-.23-.579-.36-.712a.397.397 0 0 0-.168-.117.649.649 0 0 0-.215 0l-.078.012-.039.012a1.069 1.069 0 0 0-.281.105c-.035.024-.066.043-.102.07a.656.656 0 0 0-.253.422c-.004.02-.008.035-.008.055-.024.2.008.437.082.719a.056.056 0 0 1 .008.023c.05.152.113.34.183.57.078.243.153.532.219.875a37.081 37.081 0 0 0 .465 2.215c.14.575.289 1.086.441 1.528l.09.254c.102.265.191.457.273.574Zm20.54 1.16c.039.027.082.05.128.066.11.043.239.063.395.063.2-.016.387-.043.559-.082.156-.035.312-.078.464-.137.18-.07.375-.164.582-.285.133-.078.262-.156.387-.242a10.443 10.443 0 0 0 1.278-.89c.359-.302.75-.763 1.175-1.384.067-.09.13-.183.192-.277.37-.563.644-1.07.824-1.52.086-.214.152-.437.2-.668.042-.21.073-.425.097-.64.047-.406.05-.781.02-1.125a3.753 3.753 0 0 0-.063-.375c-.063-.285-.156-.512-.285-.684-.051-.07-.11-.133-.172-.191a1.86 1.86 0 0 0-.317-.238 3.275 3.275 0 0 0-.367-.192c-.183-.2-.34-.324-.465-.379a.333.333 0 0 0-.136-.031h-.024c-.148.004-.402.047-.754.129a4.245 4.245 0 0 0-1.047.387c-.214.113-.449.265-.703.46a6.6 6.6 0 0 0-1.102 1.023 10.92 10.92 0 0 0-.675.853c-.02.027-.04.05-.059.078a9.33 9.33 0 0 0-.402.605c-.254.41-.469.852-.637 1.317-.156.418-.226.707-.21.859 0 .016.003.027.007.043.031.187 0 .285-.105.285a.383.383 0 0 1-.102.14c-.008.008-.015.016-.015.028 0 .031.03.078.093.14l.012.192c0 .02.004.04.004.059 0 .109-.024.226-.067.343-.05.293-.007.598.125.914.086.2.208.403.368.614.101.133.21.261.324.383l.176.14c.113.09.21.16.297.219Zm2.976-2.606c.172-.191.336-.39.492-.593.188-.25.352-.492.492-.723.106-.18.208-.367.293-.559.09-.187.176-.39.262-.605.05-.137.102-.273.149-.41a2.7 2.7 0 0 0 .07-.254 3.63 3.63 0 0 0 .059-.457c.003-.11.007-.219.007-.332 0-.137-.004-.27-.015-.395-.004-.023-.004-.047-.008-.074-.024-.242-.086-.383-.184-.422-.004 0-.004 0-.008-.004a1.024 1.024 0 0 0-.386-.125 1.347 1.347 0 0 0-.352.012c-.125.02-.246.055-.36.11-.105.046-.214.109-.323.187-.09.062-.18.133-.262.207-.531.445-.988 1-1.383 1.664-.39.66-.773 1.414-1.148 2.258-.051.125-.098.25-.137.379-.133.445-.145.812-.031 1.105.144.367.46.496.945.387.16-.04.312-.102.453-.184.29-.16.61-.406.961-.75.14-.136.281-.277.414-.422Zm6.899.286c.039-.004.074-.004.109-.012a3.97 3.97 0 0 0 .523-.113l.211-.059c.426-.121.864-.27 1.317-.45a6.96 6.96 0 0 0 .39-.171 2.87 2.87 0 0 0 .617-.383c.403-.355.735-.777.985-1.25.016-.035.035-.07.05-.105a1.86 1.86 0 0 0 .13-.348 1.394 1.394 0 0 0-.192-1.11c-.137-.242-.383-.34-.742-.296a2.39 2.39 0 0 0-.488.113c-.22.07-.446.176-.688.313a5.866 5.866 0 0 0-1.199.902 3.422 3.422 0 0 0-.313.398c-.09.137-.175.282-.25.426a6.806 6.806 0 0 0-.421.98c-.079.227-.13.43-.16.606-.016.074-.024.148-.032.223-.012.172.016.277.082.316a.16.16 0 0 0 .07.02Zm-36.282-3.54c.094-.042.188-.093.278-.152.101-.062.203-.137.308-.219a2.762 2.762 0 0 0 .625-.699.773.773 0 0 0 .113-.293c0-.02.004-.035.004-.054a.712.712 0 0 0-.222-.516c-.035-.031-.07-.063-.11-.09a.702.702 0 0 0-.265-.117 1.423 1.423 0 0 0-.633.027l-.098.024a1.45 1.45 0 0 0-.418.207c-.078.054-.152.11-.222.168-.239.199-.465.418-.676.66-.078.082-.149.172-.223.258-.113.14-.21.27-.289.386-.113.168-.164.278-.148.32a.03.03 0 0 0 .008.016.18.18 0 0 0 .066.067c.074.054.2.093.367.125.23.043.488.054.774.043.011-.004.02-.004.03-.004a2.42 2.42 0 0 0 .56-.09c.058-.02.113-.04.171-.066Zm16.762 0c.094-.042.188-.093.277-.152.102-.062.203-.137.309-.219.168-.132.32-.285.453-.453.027-.027.047-.058.07-.09.04-.05.07-.101.106-.156a.828.828 0 0 0 .11-.293c.003-.02.003-.035.003-.054a.712.712 0 0 0-.223-.516c-.035-.031-.07-.063-.109-.09a.702.702 0 0 0-.266-.117c-.171-.04-.382-.031-.632.027l-.098.024a1.665 1.665 0 0 0-.418.207c-.078.054-.152.11-.223.168-.238.199-.464.418-.675.66-.075.082-.149.172-.223.258-.113.14-.211.27-.29.386-.112.168-.163.278-.148.32a.215.215 0 0 0 .074.082c.079.055.2.094.368.126.23.043.488.054.773.043.012-.004.024-.004.032-.004a2.42 2.42 0 0 0 .558-.09c.059-.02.117-.04.172-.066Zm31.555 0c.097-.042.191-.093.28-.152.099-.062.204-.137.31-.219.168-.132.32-.285.453-.453a2.143 2.143 0 0 0 .172-.246.845.845 0 0 0 .113-.293v-.054a.683.683 0 0 0-.223-.516c-.035-.031-.07-.063-.11-.09a.652.652 0 0 0-.265-.117 1.406 1.406 0 0 0-.629.027l-.101.024c-.07.023-.145.05-.211.086-.067.03-.133.074-.207.12a4.63 4.63 0 0 0-.219.169 6.355 6.355 0 0 0-.898.918c-.114.14-.211.27-.29.386-.117.168-.164.278-.152.32l.012.016a.18.18 0 0 0 .066.067c.074.054.196.093.367.125.23.043.489.054.774.043.008-.004.02-.004.031-.004.215-.012.399-.043.559-.09.054-.02.113-.04.168-.066Zm0 0" style="stroke:none;fill-rule:evenodd;fill:#ef4444;fill-opacity:1"/></svg>