<?xml version="1.0" encoding="UTF-8"?>
<svg xmlns="http://www.w3.org/2000/svg" xmlns:xlink="http://www.w3.org/1999/xlink" width="64px" height="px" viewBox="0 0 64 64" version="1.1">
<g id="surface1">
<path style=" stroke:none;fill-rule:nonzero;fill:rgb(93.72549%,26.666667%,26.666667%);fill-opacity:1;" d="M 58.558594 35.839844 L 56.960938 35.839844 C 56.660156 25.992188 51.027344 17.753906 42.628906 14.078125 L 53.121094 14.078125 L 53.121094 15.679688 C 53.121094 16.210938 53.550781 16.640625 54.078125 16.640625 C 54.609375 16.640625 55.039062 16.210938 55.039062 15.679688 L 55.039062 10.558594 C 55.039062 10.03125 54.609375 9.601562 54.078125 9.601562 C 53.550781 9.601562 53.121094 10.03125 53.121094 10.558594 L 53.121094 12.160156 L 35.839844 12.160156 L 35.839844 10.558594 C 35.839844 10.03125 35.410156 9.601562 34.878906 9.601562 L 29.761719 9.601562 C 29.230469 9.601562 28.800781 10.03125 28.800781 10.558594 L 28.800781 12.160156 L 11.519531 12.160156 L 11.519531 10.558594 C 11.519531 10.03125 11.089844 9.601562 10.558594 9.601562 C 10.03125 9.601562 9.601562 10.03125 9.601562 10.558594 L 9.601562 15.679688 C 9.601562 16.210938 10.03125 16.640625 10.558594 16.640625 C 11.089844 16.640625 11.519531 16.210938 11.519531 15.679688 L 11.519531 14.078125 L 21.976562 14.078125 C 12.988281 17.914062 7.121094 26.707031 7.039062 36.480469 L 5.441406 36.480469 C 4.910156 36.480469 4.480469 36.910156 4.480469 37.441406 L 4.480469 42.558594 C 4.480469 43.089844 4.910156 43.519531 5.441406 43.519531 L 10.558594 43.519531 C 11.089844 43.519531 11.519531 43.089844 11.519531 42.558594 L 11.519531 37.441406 C 11.519531 36.910156 11.089844 36.480469 10.558594 36.480469 L 8.960938 36.480469 C 9.09375 25.140625 17.550781 15.625 28.800781 14.167969 L 28.800781 15.679688 C 28.800781 16.210938 29.230469 16.640625 29.761719 16.640625 L 31.410156 16.640625 L 21.445312 41.925781 C 21.363281 42.148438 21.363281 42.390625 21.445312 42.609375 L 25.019531 52.332031 L 24.960938 58.554688 C 24.957031 58.808594 25.058594 59.054688 25.238281 59.238281 C 25.417969 59.417969 25.664062 59.519531 25.921875 59.519531 L 38.078125 59.519531 C 38.609375 59.519531 39.039062 59.089844 39.039062 58.558594 L 39.039062 52.363281 L 43.398438 42.667969 C 43.5 42.429688 43.5 42.160156 43.398438 41.921875 L 33.230469 16.640625 L 34.878906 16.640625 C 35.410156 16.640625 35.839844 16.210938 35.839844 15.679688 L 35.839844 14.167969 C 46.71875 15.660156 54.648438 24.601562 55.039062 35.839844 L 53.441406 35.839844 C 52.910156 35.839844 52.480469 36.269531 52.480469 36.800781 L 52.480469 41.921875 C 52.480469 42.449219 52.910156 42.878906 53.441406 42.878906 L 58.558594 42.878906 C 59.089844 42.878906 59.519531 42.449219 59.519531 41.921875 L 59.519531 36.800781 C 59.519531 36.269531 59.089844 35.839844 58.558594 35.839844 Z M 9.601562 41.601562 L 6.398438 41.601562 L 6.398438 38.398438 L 9.601562 38.398438 Z M 26.878906 57.601562 L 26.917969 53.121094 L 37.121094 53.121094 L 37.121094 57.601562 Z M 37.460938 51.199219 L 26.644531 51.199219 L 23.367188 42.292969 L 31.359375 22.007812 L 31.359375 39.359375 C 31.359375 39.890625 31.789062 40.320312 32.320312 40.320312 C 32.851562 40.320312 33.28125 39.890625 33.28125 39.359375 L 33.28125 21.914062 L 41.476562 42.238281 Z M 33.921875 14.71875 L 30.71875 14.71875 L 30.71875 11.519531 L 33.921875 11.519531 Z M 57.601562 40.960938 L 54.398438 40.960938 L 54.398438 37.761719 L 57.601562 37.761719 Z M 57.601562 40.960938 "/>
</g>
</svg>
