<?xml version="1.0" encoding="UTF-8"?> <svg xmlns="http://www.w3.org/2000/svg" xmlns:xlink="http://www.w3.org/1999/xlink" width="82px" height="24px" viewBox="0 0 81 24" version="1.1"> <g id="surface1"> <path style=" stroke:none;fill-rule:evenodd;fill:rgb(93.72549%,26.666667%,26.666667%);fill-opacity:1;" d="M 5.550781 2.894531 L 5.730469 2.042969 L 5.449219 1.914062 C 5.402344 1.929688 5.359375 1.941406 5.316406 1.953125 C 5.195312 1.984375 5.09375 1.996094 5.011719 1.984375 C 5 1.984375 4.988281 1.980469 4.976562 1.976562 C 4.878906 1.957031 4.8125 1.9375 4.773438 1.921875 C 4.769531 1.917969 4.761719 1.914062 4.757812 1.914062 C 4.738281 1.921875 4.714844 1.925781 4.691406 1.925781 C 4.601562 1.933594 4.484375 1.90625 4.34375 1.847656 C 4.339844 1.84375 4.332031 1.839844 4.324219 1.835938 C 4.136719 1.75 3.96875 1.636719 3.824219 1.5 C 3.789062 1.464844 3.75 1.425781 3.714844 1.390625 C 3.648438 1.3125 3.601562 1.242188 3.574219 1.179688 C 3.566406 1.167969 3.5625 1.152344 3.558594 1.140625 C 3.542969 1.109375 3.53125 1.078125 3.523438 1.046875 C 3.511719 1.015625 3.507812 0.980469 3.5 0.945312 C 3.496094 0.917969 3.496094 0.894531 3.492188 0.867188 L 3.480469 0.699219 C 3.488281 0.664062 3.503906 0.632812 3.527344 0.605469 C 3.585938 0.539062 3.6875 0.476562 3.84375 0.414062 C 3.847656 0.410156 3.855469 0.40625 3.863281 0.402344 C 3.957031 0.367188 4.050781 0.335938 4.148438 0.304688 C 4.242188 0.277344 4.34375 0.253906 4.449219 0.230469 C 4.566406 0.203125 4.679688 0.179688 4.796875 0.160156 C 5.035156 0.117188 5.273438 0.0820312 5.515625 0.0585938 C 5.691406 0.0390625 5.871094 0.0273438 6.046875 0.015625 C 6.238281 0.00390625 6.429688 0 6.621094 0 C 6.871094 0 7.117188 0.0078125 7.363281 0.03125 C 7.78125 0.0585938 8.1875 0.152344 8.578125 0.300781 C 8.589844 0.304688 8.605469 0.308594 8.617188 0.3125 C 9.007812 0.46875 9.433594 0.632812 9.894531 0.804688 C 10.351562 0.976562 10.832031 1.257812 11.332031 1.644531 C 11.429688 1.71875 11.523438 1.796875 11.617188 1.875 C 12.15625 2.328125 12.644531 2.839844 13.078125 3.398438 C 13.144531 3.488281 13.214844 3.578125 13.28125 3.667969 C 13.582031 4.078125 13.832031 4.527344 14.027344 5 C 14.136719 5.269531 14.222656 5.550781 14.289062 5.835938 C 14.328125 5.992188 14.367188 6.203125 14.40625 6.460938 C 14.417969 6.546875 14.429688 6.628906 14.441406 6.714844 C 14.492188 7.089844 14.523438 7.457031 14.53125 7.808594 C 14.53125 7.824219 14.53125 7.839844 14.53125 7.859375 C 14.535156 8.097656 14.515625 8.273438 14.472656 8.390625 C 14.460938 8.429688 14.441406 8.464844 14.417969 8.492188 C 14.398438 8.53125 14.382812 8.574219 14.371094 8.613281 C 14.363281 8.652344 14.355469 8.695312 14.351562 8.738281 C 14.351562 8.746094 14.351562 8.753906 14.351562 8.761719 C 14.347656 8.84375 14.378906 8.902344 14.441406 8.933594 C 14.425781 8.976562 14.382812 9.125 14.304688 9.375 C 14.292969 9.421875 14.277344 9.46875 14.261719 9.511719 C 14.226562 9.632812 14.191406 9.75 14.152344 9.871094 C 14.09375 10.058594 14.035156 10.226562 13.980469 10.378906 C 13.957031 10.683594 13.90625 10.984375 13.828125 11.28125 C 13.785156 11.445312 13.734375 11.609375 13.675781 11.769531 C 13.503906 12.253906 13.316406 12.703125 13.113281 13.125 C 13.039062 13.277344 12.964844 13.425781 12.890625 13.574219 C 12.769531 13.804688 12.65625 14.015625 12.550781 14.195312 C 12.484375 14.195312 12.417969 14.210938 12.359375 14.234375 C 12.355469 14.238281 12.351562 14.238281 12.34375 14.242188 C 12.304688 14.261719 12.308594 14.28125 12.359375 14.296875 C 12.363281 14.296875 12.367188 14.300781 12.371094 14.300781 C 12.371094 14.375 12.304688 14.503906 12.164062 14.695312 C 12.140625 14.726562 12.117188 14.757812 12.089844 14.789062 C 12.070312 14.804688 12.054688 14.820312 12.035156 14.839844 C 11.972656 14.90625 11.882812 15.011719 11.773438 15.164062 C 11.660156 15.316406 11.566406 15.429688 11.492188 15.507812 C 11.46875 15.527344 11.449219 15.546875 11.425781 15.566406 C 11.417969 15.628906 11.398438 15.695312 11.363281 15.75 C 11.339844 15.792969 11.308594 15.828125 11.273438 15.863281 C 11.253906 15.882812 11.230469 15.898438 11.207031 15.917969 C 11.152344 15.953125 11.105469 15.972656 11.058594 15.976562 C 11.054688 15.976562 11.046875 15.976562 11.042969 15.976562 L 11.003906 15.976562 C 10.996094 15.976562 10.984375 15.984375 10.980469 15.992188 C 10.972656 16.007812 10.96875 16.03125 10.96875 16.066406 C 10.96875 16.070312 10.96875 16.078125 10.96875 16.082031 C 10.921875 16.152344 10.871094 16.21875 10.816406 16.285156 C 10.699219 16.433594 10.546875 16.597656 10.367188 16.777344 C 10.355469 16.789062 10.339844 16.804688 10.328125 16.816406 C 10.15625 16.984375 9.980469 17.144531 9.804688 17.304688 C 9.652344 17.4375 9.5 17.566406 9.34375 17.695312 C 8.976562 17.996094 8.601562 18.273438 8.21875 18.53125 C 7.863281 18.773438 7.523438 18.960938 7.203125 19.097656 C 7.179688 19.109375 7.15625 19.117188 7.132812 19.125 C 6.964844 19.246094 6.785156 19.34375 6.597656 19.421875 C 6.4375 19.488281 6.28125 19.558594 6.125 19.636719 C 6.105469 19.648438 6.082031 19.65625 6.0625 19.667969 C 6.035156 19.6875 6.011719 19.707031 5.984375 19.722656 C 5.882812 19.785156 5.71875 19.867188 5.5 19.964844 C 5.292969 20.058594 5.082031 20.144531 4.871094 20.226562 C 4.769531 20.265625 4.667969 20.300781 4.566406 20.339844 C 4.3125 20.429688 4.078125 20.503906 3.871094 20.554688 C 3.808594 20.570312 3.746094 20.585938 3.683594 20.597656 C 3.359375 20.648438 3.0625 20.679688 2.789062 20.6875 C 2.773438 20.6875 2.757812 20.6875 2.742188 20.6875 C 2.515625 20.6875 2.210938 20.644531 1.832031 20.554688 C 1.75 20.535156 1.667969 20.515625 1.589844 20.492188 C 1.519531 20.472656 1.449219 20.445312 1.378906 20.417969 C 1.238281 20.359375 1.132812 20.292969 1.054688 20.222656 C 1.039062 20.210938 1.027344 20.199219 1.015625 20.183594 C 0.980469 20.148438 0.949219 20.113281 0.917969 20.074219 C 0.820312 19.960938 0.6875 19.796875 0.523438 19.589844 C 0.503906 19.5625 0.484375 19.539062 0.464844 19.511719 C 0.277344 19.238281 0.144531 18.984375 0.0703125 18.753906 C 0.0546875 18.707031 0.0390625 18.660156 0.03125 18.613281 C 0 18.488281 -0.0078125 18.378906 0.0078125 18.289062 C 0.0117188 18.261719 0.0195312 18.234375 0.03125 18.210938 C 0.078125 18.085938 0.179688 18.046875 0.335938 18.085938 C 0.347656 18.089844 0.355469 18.089844 0.363281 18.09375 C 0.378906 18.097656 0.390625 18.105469 0.40625 18.113281 C 0.449219 18.136719 0.507812 18.179688 0.582031 18.242188 C 0.589844 18.25 0.597656 18.253906 0.605469 18.261719 C 0.714844 18.355469 0.824219 18.472656 0.925781 18.609375 C 1.164062 18.867188 1.453125 19.039062 1.792969 19.125 C 1.890625 19.148438 1.984375 19.167969 2.082031 19.179688 C 2.367188 19.210938 2.703125 19.203125 3.101562 19.15625 C 3.117188 19.15625 3.132812 19.152344 3.148438 19.152344 C 3.246094 19.132812 3.339844 19.109375 3.4375 19.085938 C 3.523438 19.0625 3.617188 19.039062 3.710938 19.015625 C 3.8125 18.988281 3.914062 18.960938 4.015625 18.933594 C 4.359375 18.839844 4.691406 18.722656 5.011719 18.585938 C 5.117188 18.539062 5.222656 18.492188 5.324219 18.441406 C 5.421875 18.394531 5.511719 18.34375 5.59375 18.292969 C 5.65625 18.257812 5.71875 18.214844 5.78125 18.171875 C 5.996094 18.023438 6.207031 17.878906 6.421875 17.730469 C 6.84375 17.445312 7.214844 17.191406 7.539062 16.976562 C 7.675781 16.882812 7.8125 16.792969 7.953125 16.699219 L 8.769531 16.160156 C 8.789062 16.121094 8.8125 16.089844 8.84375 16.0625 C 8.867188 16.042969 8.894531 16.023438 8.925781 16.007812 C 8.9375 16 8.949219 15.996094 8.960938 15.992188 C 9 15.972656 9.039062 15.957031 9.074219 15.941406 C 9.109375 15.925781 9.144531 15.910156 9.183594 15.894531 C 9.226562 15.878906 9.265625 15.863281 9.304688 15.847656 C 9.410156 15.746094 9.574219 15.582031 9.804688 15.359375 C 10.035156 15.136719 10.253906 14.910156 10.46875 14.6875 C 10.503906 14.648438 10.542969 14.609375 10.578125 14.570312 C 10.726562 14.417969 10.824219 14.328125 10.863281 14.300781 C 10.875 14.253906 10.886719 14.210938 10.898438 14.164062 C 10.921875 14.070312 10.945312 13.992188 10.96875 13.925781 C 11 13.832031 11.019531 13.734375 11.019531 13.628906 C 11.15625 13.492188 11.335938 13.203125 11.566406 12.765625 C 11.796875 12.328125 12.03125 11.835938 12.269531 11.292969 C 12.507812 10.753906 12.679688 10.257812 12.78125 9.808594 C 12.847656 9.480469 12.902344 9.148438 12.941406 8.8125 C 13.023438 8.15625 13.039062 7.566406 12.992188 7.042969 C 12.984375 6.949219 12.972656 6.855469 12.960938 6.765625 C 12.839844 5.9375 12.597656 5.230469 12.230469 4.636719 C 11.867188 4.042969 11.410156 3.511719 10.863281 3.046875 C 10.675781 2.894531 10.417969 2.726562 10.085938 2.546875 C 9.753906 2.363281 9.410156 2.207031 9.050781 2.066406 C 8.921875 2.019531 8.796875 1.972656 8.667969 1.925781 C 8.542969 1.878906 8.421875 1.835938 8.3125 1.796875 C 8.246094 1.773438 8.183594 1.753906 8.117188 1.734375 C 8.078125 1.71875 8.039062 1.707031 8 1.695312 C 7.808594 1.636719 7.6875 1.613281 7.644531 1.628906 C 7.625 1.636719 7.609375 1.648438 7.597656 1.667969 C 7.535156 1.742188 7.4375 1.929688 7.308594 2.234375 C 7.28125 2.304688 7.25 2.371094 7.222656 2.441406 C 7.019531 2.941406 6.785156 3.566406 6.511719 4.324219 C 6.5 4.363281 6.484375 4.402344 6.46875 4.441406 C 6.179688 5.25 5.871094 6.109375 5.539062 7.023438 C 5.203125 7.933594 4.894531 8.796875 4.605469 9.605469 C 4.503906 9.929688 4.390625 10.273438 4.273438 10.636719 C 4.191406 10.882812 4.117188 11.109375 4.050781 11.3125 C 4.023438 11.402344 3.992188 11.488281 3.964844 11.578125 C 3.878906 11.84375 3.839844 12.019531 3.839844 12.105469 C 3.757812 12.234375 3.6875 12.371094 3.628906 12.511719 C 3.535156 12.730469 3.457031 12.980469 3.390625 13.269531 C 3.28125 13.75 3.15625 14.550781 3.019531 15.667969 C 2.984375 15.804688 2.949219 15.941406 2.914062 16.082031 C 2.84375 16.34375 2.789062 16.574219 2.742188 16.761719 C 2.722656 16.839844 2.707031 16.917969 2.6875 16.996094 C 2.621094 17.296875 2.550781 17.441406 2.484375 17.421875 L 2.472656 17.4375 L 2.382812 17.527344 C 2.382812 17.550781 2.378906 17.574219 2.367188 17.597656 C 2.339844 17.652344 2.277344 17.679688 2.175781 17.679688 C 2.117188 17.679688 2.058594 17.675781 2 17.660156 C 1.945312 17.648438 1.882812 17.632812 1.820312 17.609375 C 1.78125 17.597656 1.742188 17.582031 1.703125 17.566406 C 1.636719 17.535156 1.574219 17.503906 1.511719 17.46875 C 1.449219 17.433594 1.394531 17.394531 1.34375 17.351562 C 1.324219 17.332031 1.300781 17.3125 1.28125 17.292969 C 1.230469 17.105469 1.203125 16.925781 1.191406 16.753906 C 1.191406 16.742188 1.191406 16.730469 1.191406 16.722656 C 1.191406 16.542969 1.257812 16.214844 1.386719 15.746094 C 1.445312 15.519531 1.511719 15.261719 1.589844 14.96875 C 1.628906 14.828125 1.667969 14.6875 1.703125 14.546875 C 1.832031 14.074219 1.972656 13.582031 2.125 13.074219 C 2.277344 12.566406 2.425781 12.097656 2.558594 11.667969 C 2.695312 11.238281 2.796875 10.910156 2.867188 10.6875 C 2.976562 10.417969 3.132812 9.925781 3.332031 9.210938 C 3.347656 9.152344 3.363281 9.09375 3.378906 9.035156 C 3.515625 8.589844 3.65625 8.140625 3.800781 7.695312 C 3.867188 7.484375 3.9375 7.277344 4.011719 7.066406 C 4.082031 6.863281 4.152344 6.671875 4.222656 6.492188 C 4.332031 6.207031 4.414062 6 4.46875 5.878906 C 4.480469 5.855469 4.492188 5.832031 4.503906 5.808594 C 4.585938 5.585938 4.714844 5.207031 4.886719 4.675781 C 5.042969 4.175781 5.25 3.625 5.496094 3.023438 C 5.515625 2.980469 5.53125 2.9375 5.550781 2.894531 Z M 53.179688 23.925781 C 53.152344 23.925781 53.125 23.925781 53.097656 23.929688 C 53.074219 23.929688 53.046875 23.929688 53.015625 23.933594 C 52.984375 23.933594 52.953125 23.9375 52.921875 23.9375 C 52.917969 23.941406 52.914062 23.941406 52.90625 23.941406 C 52.816406 23.941406 52.734375 23.875 52.65625 23.746094 C 52.652344 23.738281 52.648438 23.726562 52.640625 23.71875 C 52.613281 23.683594 52.59375 23.644531 52.574219 23.597656 C 52.546875 23.527344 52.53125 23.4375 52.527344 23.332031 C 52.527344 23.320312 52.527344 23.308594 52.527344 23.296875 C 52.523438 23.121094 52.5625 22.832031 52.636719 22.421875 C 52.640625 22.417969 52.640625 22.410156 52.640625 22.402344 C 52.722656 22.128906 52.789062 21.847656 52.84375 21.566406 C 52.84375 21.558594 52.84375 21.546875 52.847656 21.539062 C 52.859375 21.472656 52.871094 21.40625 52.878906 21.339844 C 52.902344 21.207031 52.914062 21.09375 52.921875 21.003906 C 52.921875 20.972656 52.921875 20.9375 52.921875 20.90625 C 52.921875 20.839844 52.945312 20.703125 52.988281 20.507812 C 53.03125 20.308594 53.050781 20.167969 53.050781 20.082031 C 53.113281 19.980469 53.164062 19.855469 53.210938 19.699219 C 53.226562 19.636719 53.242188 19.574219 53.253906 19.511719 C 53.277344 19.414062 53.292969 19.3125 53.308594 19.210938 C 53.324219 19.089844 53.332031 18.976562 53.332031 18.867188 C 53.332031 18.738281 53.375 18.609375 53.449219 18.503906 C 53.496094 18.433594 53.5625 18.367188 53.640625 18.300781 C 53.640625 18.164062 53.667969 17.992188 53.726562 17.785156 C 53.742188 17.742188 53.75 17.699219 53.761719 17.660156 C 53.800781 17.519531 53.816406 17.425781 53.816406 17.371094 C 53.867188 17.128906 53.984375 16.703125 54.164062 16.09375 C 54.246094 15.808594 54.332031 15.527344 54.421875 15.246094 C 54.542969 14.863281 54.679688 14.453125 54.828125 14.015625 C 55.089844 13.242188 55.351562 12.484375 55.605469 11.746094 C 55.695312 11.484375 55.789062 11.222656 55.882812 10.960938 C 55.957031 10.753906 56.027344 10.5625 56.097656 10.378906 C 56.160156 10.207031 56.226562 10.035156 56.296875 9.863281 C 56.367188 9.691406 56.4375 9.519531 56.5 9.347656 C 56.597656 9.078125 56.671875 8.832031 56.71875 8.609375 C 56.792969 8.257812 56.832031 7.996094 56.832031 7.824219 C 56.832031 7.753906 56.851562 7.699219 56.882812 7.65625 C 56.894531 7.644531 56.902344 7.632812 56.914062 7.621094 C 56.945312 7.582031 56.992188 7.527344 57.050781 7.457031 C 57.074219 7.429688 57.09375 7.40625 57.113281 7.382812 C 57.140625 7.355469 57.171875 7.328125 57.203125 7.304688 C 57.289062 7.234375 57.371094 7.199219 57.445312 7.199219 C 57.488281 7.199219 57.527344 7.210938 57.5625 7.230469 C 57.605469 7.253906 57.648438 7.277344 57.691406 7.304688 C 57.789062 7.367188 57.90625 7.445312 58.035156 7.539062 C 58.074219 7.605469 58.113281 7.671875 58.148438 7.738281 C 58.226562 7.878906 58.285156 8 58.328125 8.105469 C 58.339844 8.140625 58.347656 8.171875 58.355469 8.207031 C 58.382812 8.363281 58.371094 8.59375 58.316406 8.894531 C 58.316406 8.898438 58.316406 8.902344 58.316406 8.90625 C 58.316406 9.011719 58.308594 9.121094 58.289062 9.226562 C 58.269531 9.347656 58.238281 9.460938 58.195312 9.5625 C 58.191406 9.566406 58.1875 9.574219 58.1875 9.578125 C 58.164062 9.632812 58.136719 9.683594 58.113281 9.738281 C 58.0625 9.832031 58.019531 9.914062 57.976562 9.972656 C 57.972656 9.984375 57.964844 9.992188 57.957031 10.003906 C 57.890625 10.097656 57.871094 10.136719 57.90625 10.121094 C 58.140625 10.007812 58.382812 9.910156 58.628906 9.824219 C 58.871094 9.742188 59.101562 9.679688 59.324219 9.640625 C 59.46875 9.613281 59.613281 9.597656 59.757812 9.589844 C 60.296875 9.566406 60.746094 9.660156 61.113281 9.875 C 61.480469 10.089844 61.757812 10.386719 61.941406 10.765625 C 62.0625 11.011719 62.144531 11.273438 62.183594 11.546875 C 62.210938 11.722656 62.226562 11.902344 62.222656 12.082031 C 62.222656 12.289062 62.183594 12.53125 62.097656 12.816406 C 62.042969 12.996094 61.976562 13.171875 61.902344 13.34375 C 61.863281 13.425781 61.820312 13.507812 61.777344 13.589844 C 61.648438 13.824219 61.535156 13.992188 61.433594 14.09375 C 61.40625 14.09375 61.378906 14.101562 61.355469 14.117188 C 61.3125 14.144531 61.269531 14.191406 61.226562 14.261719 C 61.1875 14.328125 61.148438 14.394531 61.113281 14.460938 C 61.082031 14.519531 61.050781 14.578125 61.023438 14.636719 C 60.972656 14.699219 60.921875 14.757812 60.863281 14.8125 C 60.734375 14.9375 60.570312 15.070312 60.371094 15.214844 C 60.210938 15.332031 60.042969 15.441406 59.871094 15.539062 C 59.75 15.609375 59.621094 15.675781 59.492188 15.734375 C 59.199219 15.863281 58.988281 15.898438 58.851562 15.847656 L 58.789062 15.863281 C 58.75 15.871094 58.730469 15.90625 58.726562 15.972656 C 58.722656 15.984375 58.722656 15.992188 58.722656 16.003906 C 58.722656 16.011719 58.714844 16.023438 58.707031 16.027344 C 58.664062 16.066406 58.535156 16.132812 58.316406 16.222656 C 58.042969 16.335938 57.726562 16.4375 57.371094 16.53125 C 57.242188 16.566406 57.113281 16.59375 56.984375 16.617188 C 56.78125 16.65625 56.59375 16.675781 56.425781 16.675781 C 56.066406 16.675781 55.8125 16.605469 55.65625 16.46875 C 55.644531 16.480469 55.632812 16.492188 55.625 16.503906 C 55.597656 16.535156 55.570312 16.574219 55.542969 16.621094 C 55.515625 16.667969 55.496094 16.707031 55.488281 16.742188 C 55.480469 16.761719 55.480469 16.785156 55.480469 16.804688 C 55.480469 16.90625 55.441406 17.101562 55.363281 17.382812 C 55.292969 17.644531 55.210938 17.898438 55.113281 18.148438 C 55.109375 18.164062 55.101562 18.179688 55.09375 18.195312 C 55.078125 18.242188 55.058594 18.285156 55.039062 18.328125 C 54.980469 18.457031 54.921875 18.535156 54.867188 18.566406 C 54.851562 18.578125 54.832031 18.582031 54.8125 18.585938 L 54.761719 18.660156 C 54.75 18.679688 54.746094 18.699219 54.746094 18.71875 C 54.746094 18.757812 54.765625 18.800781 54.800781 18.851562 C 54.804688 18.855469 54.808594 18.863281 54.8125 18.867188 L 54.800781 19.164062 C 54.796875 19.246094 54.789062 19.328125 54.769531 19.40625 C 54.746094 19.5 54.710938 19.585938 54.660156 19.667969 C 54.660156 19.773438 54.644531 19.921875 54.613281 20.113281 C 54.605469 20.171875 54.59375 20.230469 54.585938 20.289062 C 54.582031 20.289062 54.582031 20.292969 54.582031 20.292969 C 54.539062 20.539062 54.484375 20.730469 54.425781 20.863281 C 54.417969 20.878906 54.414062 20.894531 54.40625 20.90625 C 54.40625 21.113281 54.375 21.316406 54.316406 21.511719 C 54.304688 21.546875 54.292969 21.582031 54.28125 21.613281 C 54.246094 21.714844 54.207031 21.773438 54.164062 21.796875 C 54.152344 21.804688 54.136719 21.808594 54.125 21.808594 C 54.101562 21.816406 54.082031 21.832031 54.066406 21.851562 C 54.035156 21.898438 54.015625 21.972656 54 22.082031 C 54 22.101562 53.996094 22.117188 53.996094 22.132812 C 53.992188 22.179688 53.988281 22.226562 53.984375 22.269531 C 53.976562 22.382812 53.972656 22.472656 53.972656 22.535156 C 53.972656 22.542969 53.972656 22.550781 53.972656 22.558594 C 53.953125 22.988281 53.867188 23.324219 53.714844 23.566406 C 53.714844 23.566406 53.714844 23.570312 53.710938 23.570312 C 53.617188 23.71875 53.511719 23.820312 53.394531 23.878906 C 53.328125 23.910156 53.253906 23.925781 53.179688 23.925781 Z M 41.464844 18.171875 C 41.511719 18.167969 41.558594 18.15625 41.605469 18.144531 C 41.632812 18.132812 41.660156 18.113281 41.683594 18.097656 C 41.765625 18.039062 41.820312 17.949219 41.832031 17.847656 C 41.835938 17.828125 41.839844 17.808594 41.839844 17.785156 C 41.851562 17.679688 41.855469 17.511719 41.859375 17.285156 C 41.859375 17.203125 41.859375 17.121094 41.859375 17.035156 C 41.859375 16.703125 41.914062 16.296875 42.023438 15.820312 C 42.078125 15.585938 42.136719 15.355469 42.203125 15.125 C 42.433594 14.335938 42.6875 13.464844 42.957031 12.519531 C 43.175781 11.929688 43.304688 11.519531 43.351562 11.292969 C 43.359375 11.246094 43.367188 11.199219 43.367188 11.152344 L 43.378906 11.011719 C 43.378906 11 43.382812 10.988281 43.382812 10.976562 C 43.394531 10.929688 43.410156 10.898438 43.4375 10.882812 C 43.453125 10.871094 43.476562 10.867188 43.496094 10.867188 C 43.507812 10.855469 43.519531 10.84375 43.527344 10.832031 C 43.550781 10.804688 43.566406 10.78125 43.578125 10.757812 C 43.59375 10.726562 43.605469 10.695312 43.609375 10.660156 C 43.617188 10.59375 43.621094 10.523438 43.621094 10.457031 C 43.621094 10.421875 43.664062 10.296875 43.75 10.082031 C 43.777344 10.007812 43.808594 9.9375 43.835938 9.867188 C 43.867188 9.792969 43.898438 9.710938 43.933594 9.628906 C 43.980469 9.519531 44.023438 9.414062 44.070312 9.308594 C 44.199219 9.003906 44.320312 8.722656 44.441406 8.457031 C 44.464844 8.394531 44.492188 8.335938 44.519531 8.277344 C 44.601562 8.097656 44.667969 7.953125 44.722656 7.847656 C 44.742188 7.789062 44.761719 7.726562 44.785156 7.664062 C 44.804688 7.609375 44.824219 7.554688 44.84375 7.503906 C 44.867188 7.445312 44.886719 7.386719 44.914062 7.332031 C 44.925781 7.308594 44.933594 7.28125 44.945312 7.253906 C 44.96875 7.191406 44.988281 7.132812 44.996094 7.089844 C 45 7.066406 45.003906 7.042969 45.003906 7.023438 C 45.003906 7.023438 45.003906 7.019531 45.003906 7.019531 C 45.003906 6.945312 45.082031 6.761719 45.230469 6.46875 C 45.269531 6.390625 45.308594 6.316406 45.34375 6.238281 C 45.460938 5.996094 45.566406 5.75 45.667969 5.5 C 45.671875 5.488281 45.679688 5.476562 45.683594 5.464844 C 46 4.792969 46.230469 4.300781 46.382812 3.976562 C 46.414062 3.910156 46.445312 3.839844 46.476562 3.769531 C 46.542969 3.625 46.59375 3.5 46.632812 3.394531 C 46.652344 3.339844 46.671875 3.285156 46.6875 3.230469 C 46.691406 3.222656 46.691406 3.21875 46.695312 3.210938 C 46.71875 3.125 46.738281 3.03125 46.75 2.933594 C 46.761719 2.835938 46.765625 2.734375 46.765625 2.636719 C 46.765625 2.605469 46.765625 2.578125 46.765625 2.550781 C 46.761719 2.464844 46.757812 2.386719 46.753906 2.3125 C 46.746094 2.238281 46.738281 2.167969 46.726562 2.09375 C 46.703125 1.9375 46.621094 1.800781 46.484375 1.679688 L 46.074219 1.269531 C 46.007812 1.269531 45.933594 1.277344 45.859375 1.292969 C 45.78125 1.3125 45.71875 1.34375 45.667969 1.398438 C 45.644531 1.398438 45.621094 1.398438 45.597656 1.398438 C 45.496094 1.410156 45.417969 1.445312 45.359375 1.5 C 45.3125 1.546875 45.28125 1.613281 45.265625 1.695312 C 45.261719 1.730469 45.257812 1.769531 45.257812 1.808594 C 45.257812 1.8125 45.257812 1.816406 45.257812 1.816406 C 45.253906 1.890625 45.210938 2.066406 45.132812 2.335938 C 45.109375 2.40625 45.089844 2.476562 45.066406 2.546875 C 45.023438 2.679688 44.980469 2.816406 44.933594 2.953125 C 44.886719 3.09375 44.835938 3.246094 44.78125 3.410156 C 44.710938 3.617188 44.640625 3.824219 44.566406 4.03125 C 44.363281 4.613281 44.144531 5.207031 43.917969 5.808594 C 43.6875 6.414062 43.472656 6.957031 43.277344 7.449219 C 43.234375 7.558594 43.191406 7.667969 43.144531 7.777344 C 43.007812 8.101562 42.894531 8.347656 42.804688 8.519531 C 42.804688 8.558594 42.796875 8.597656 42.785156 8.632812 C 42.773438 8.664062 42.757812 8.695312 42.742188 8.726562 C 42.726562 8.75 42.714844 8.773438 42.703125 8.796875 C 42.6875 8.839844 42.675781 8.886719 42.675781 8.933594 C 42.675781 8.9375 42.675781 8.941406 42.675781 8.949219 C 42.671875 9.015625 42.652344 9.101562 42.613281 9.203125 C 42.570312 9.316406 42.550781 9.414062 42.550781 9.5 C 42.480469 9.570312 42.417969 9.691406 42.359375 9.863281 C 42.324219 9.957031 42.300781 10.042969 42.285156 10.128906 C 42.273438 10.195312 42.269531 10.261719 42.269531 10.328125 C 42.269531 10.363281 42.265625 10.402344 42.261719 10.4375 C 42.25 10.523438 42.226562 10.609375 42.191406 10.6875 C 42.1875 10.699219 42.179688 10.714844 42.171875 10.726562 C 42.125 10.820312 42.074219 10.867188 42.011719 10.867188 C 41.984375 10.925781 41.933594 11.050781 41.855469 11.25 C 41.835938 11.296875 41.816406 11.347656 41.796875 11.398438 C 41.792969 11.40625 41.789062 11.414062 41.785156 11.425781 C 41.675781 11.703125 41.566406 12.015625 41.449219 12.363281 C 41.421875 12.453125 41.390625 12.542969 41.363281 12.632812 C 41.277344 12.890625 41.199219 13.152344 41.117188 13.410156 C 41.097656 13.484375 41.074219 13.558594 41.050781 13.632812 C 40.984375 13.859375 40.941406 14.039062 40.914062 14.171875 C 40.914062 14.179688 40.914062 14.1875 40.914062 14.199219 C 40.910156 14.277344 40.898438 14.367188 40.878906 14.472656 C 40.867188 14.53125 40.851562 14.589844 40.835938 14.648438 C 40.824219 14.699219 40.8125 14.75 40.796875 14.796875 C 40.75 14.953125 40.695312 15.105469 40.632812 15.253906 C 40.617188 15.324219 40.605469 15.394531 40.589844 15.46875 C 40.507812 15.898438 40.46875 16.289062 40.46875 16.636719 C 40.46875 16.726562 40.472656 16.816406 40.480469 16.90625 C 40.488281 17.027344 40.503906 17.148438 40.527344 17.269531 C 40.550781 17.394531 40.585938 17.507812 40.628906 17.609375 C 40.675781 17.730469 40.742188 17.839844 40.824219 17.9375 C 40.832031 17.949219 40.839844 17.957031 40.847656 17.964844 C 41.011719 18.136719 41.21875 18.207031 41.464844 18.171875 Z M 20.011719 17.242188 C 19.65625 17.550781 19.242188 17.734375 18.773438 17.785156 C 18.675781 17.792969 18.582031 17.800781 18.484375 17.800781 C 18.113281 17.800781 17.746094 17.71875 17.40625 17.566406 C 16.964844 17.367188 16.597656 17.0625 16.308594 16.648438 C 16.019531 16.269531 15.832031 15.835938 15.746094 15.34375 C 15.722656 15.207031 15.703125 15.070312 15.695312 14.933594 C 15.660156 14.511719 15.667969 14.007812 15.71875 13.421875 C 15.757812 12.96875 15.859375 12.519531 16.03125 12.097656 C 16.125 11.855469 16.234375 11.621094 16.359375 11.398438 C 16.734375 10.71875 17.1875 10.109375 17.726562 9.578125 C 17.925781 9.378906 18.140625 9.191406 18.363281 9.019531 C 18.601562 8.839844 18.835938 8.695312 19.070312 8.578125 C 19.152344 8.539062 19.238281 8.5 19.324219 8.46875 C 19.386719 8.425781 19.453125 8.386719 19.519531 8.347656 C 19.679688 8.265625 19.824219 8.222656 19.949219 8.222656 C 19.957031 8.222656 19.964844 8.222656 19.972656 8.222656 C 20.148438 8.230469 20.417969 8.253906 20.785156 8.285156 C 20.792969 8.285156 20.796875 8.285156 20.804688 8.289062 C 20.90625 8.300781 21.011719 8.316406 21.113281 8.335938 C 21.3125 8.375 21.480469 8.425781 21.609375 8.484375 C 21.636719 8.496094 21.660156 8.507812 21.6875 8.519531 C 21.882812 8.621094 22.039062 8.761719 22.160156 8.933594 C 22.355469 9.132812 22.503906 9.328125 22.597656 9.523438 C 22.625 9.578125 22.648438 9.636719 22.667969 9.695312 C 22.726562 9.859375 22.765625 10.027344 22.785156 10.203125 C 22.792969 10.277344 22.796875 10.355469 22.796875 10.429688 C 22.769531 10.566406 22.730469 10.699219 22.671875 10.824219 C 22.566406 11.074219 22.394531 11.351562 22.164062 11.65625 C 22.125 11.710938 22.085938 11.761719 22.042969 11.808594 C 21.714844 12.21875 21.316406 12.566406 20.875 12.84375 C 20.703125 12.953125 20.527344 13.050781 20.34375 13.140625 C 20.085938 13.222656 19.816406 13.273438 19.546875 13.289062 C 19.40625 13.296875 19.265625 13.300781 19.117188 13.292969 C 18.949219 13.289062 18.785156 13.265625 18.621094 13.226562 C 18.394531 13.171875 18.191406 13.082031 18.019531 12.957031 C 17.980469 12.941406 17.941406 12.925781 17.898438 12.914062 C 17.75 12.863281 17.628906 12.855469 17.535156 12.890625 C 17.46875 12.914062 17.414062 12.960938 17.378906 13.023438 C 17.355469 13.074219 17.332031 13.125 17.316406 13.179688 C 17.253906 13.355469 17.199219 13.625 17.144531 13.988281 C 17.128906 14.101562 17.113281 14.214844 17.097656 14.328125 C 17.089844 14.414062 17.082031 14.503906 17.078125 14.589844 C 17.054688 14.960938 17.082031 15.265625 17.148438 15.503906 C 17.171875 15.59375 17.207031 15.679688 17.253906 15.757812 C 17.421875 16.058594 17.652344 16.234375 17.941406 16.289062 C 18.222656 16.34375 18.453125 16.386719 18.636719 16.414062 C 18.675781 16.417969 18.710938 16.425781 18.746094 16.429688 C 18.773438 16.433594 18.800781 16.433594 18.828125 16.433594 C 19.003906 16.433594 19.214844 16.363281 19.460938 16.21875 C 19.464844 16.214844 19.472656 16.214844 19.476562 16.210938 C 19.523438 16.179688 19.570312 16.152344 19.617188 16.121094 C 19.804688 16.003906 19.925781 15.9375 19.984375 15.914062 C 19.984375 15.914062 19.984375 15.914062 19.988281 15.914062 C 20.015625 15.902344 20.046875 15.886719 20.074219 15.871094 C 20.101562 15.855469 20.128906 15.832031 20.152344 15.808594 L 20.472656 15.488281 C 20.5 15.460938 20.527344 15.429688 20.558594 15.402344 C 20.636719 15.324219 20.703125 15.261719 20.753906 15.214844 C 20.785156 15.1875 20.824219 15.164062 20.867188 15.148438 C 20.90625 15.132812 20.945312 15.125 20.984375 15.125 C 21.046875 15.125 21.105469 15.148438 21.152344 15.1875 C 21.175781 15.203125 21.195312 15.222656 21.214844 15.242188 C 21.269531 15.304688 21.324219 15.355469 21.378906 15.386719 C 21.390625 15.394531 21.40625 15.402344 21.417969 15.410156 C 21.4375 15.410156 21.460938 15.410156 21.480469 15.417969 C 21.589844 15.441406 21.609375 15.527344 21.546875 15.683594 C 21.542969 15.695312 21.539062 15.707031 21.53125 15.71875 C 21.5 15.789062 21.460938 15.859375 21.417969 15.925781 C 21.332031 16.0625 21.210938 16.210938 21.058594 16.375 C 21.035156 16.402344 21.007812 16.429688 20.984375 16.457031 C 20.710938 16.738281 20.386719 17 20.011719 17.242188 Z M 36.773438 17.242188 C 36.417969 17.550781 36.003906 17.734375 35.535156 17.785156 C 35.4375 17.792969 35.34375 17.800781 35.246094 17.800781 C 34.875 17.800781 34.507812 17.71875 34.167969 17.566406 C 33.726562 17.367188 33.359375 17.0625 33.070312 16.648438 C 32.78125 16.269531 32.59375 15.835938 32.507812 15.34375 C 32.484375 15.207031 32.46875 15.070312 32.457031 14.933594 C 32.421875 14.511719 32.429688 14.007812 32.480469 13.421875 C 32.519531 12.96875 32.625 12.519531 32.792969 12.097656 C 32.886719 11.855469 32.996094 11.621094 33.121094 11.398438 C 33.496094 10.71875 33.949219 10.109375 34.488281 9.578125 C 34.6875 9.378906 34.902344 9.191406 35.125 9.019531 C 35.363281 8.839844 35.597656 8.695312 35.832031 8.578125 C 35.914062 8.539062 36 8.5 36.085938 8.46875 C 36.148438 8.425781 36.214844 8.386719 36.28125 8.347656 C 36.441406 8.265625 36.585938 8.222656 36.710938 8.222656 C 36.71875 8.222656 36.726562 8.222656 36.734375 8.222656 C 36.910156 8.230469 37.183594 8.253906 37.546875 8.285156 C 37.554688 8.285156 37.558594 8.285156 37.566406 8.289062 C 37.667969 8.300781 37.773438 8.316406 37.875 8.335938 C 38.074219 8.375 38.242188 8.425781 38.375 8.484375 C 38.398438 8.496094 38.421875 8.507812 38.449219 8.519531 C 38.644531 8.621094 38.800781 8.761719 38.921875 8.933594 C 39.117188 9.132812 39.265625 9.328125 39.359375 9.523438 C 39.386719 9.578125 39.410156 9.636719 39.433594 9.695312 C 39.488281 9.859375 39.527344 10.027344 39.546875 10.203125 C 39.554688 10.277344 39.558594 10.355469 39.558594 10.429688 C 39.535156 10.566406 39.492188 10.699219 39.4375 10.824219 C 39.328125 11.074219 39.15625 11.351562 38.925781 11.65625 C 38.886719 11.710938 38.847656 11.761719 38.804688 11.808594 C 38.476562 12.21875 38.078125 12.566406 37.636719 12.84375 C 37.464844 12.953125 37.289062 13.050781 37.105469 13.140625 C 36.847656 13.222656 36.578125 13.273438 36.308594 13.289062 C 36.167969 13.296875 36.027344 13.300781 35.878906 13.292969 C 35.710938 13.289062 35.546875 13.265625 35.382812 13.226562 C 35.15625 13.171875 34.953125 13.082031 34.78125 12.957031 C 34.742188 12.941406 34.703125 12.925781 34.664062 12.914062 C 34.511719 12.863281 34.390625 12.855469 34.296875 12.890625 C 34.230469 12.914062 34.175781 12.960938 34.144531 13.023438 C 34.117188 13.074219 34.09375 13.125 34.078125 13.179688 C 34.015625 13.355469 33.960938 13.625 33.90625 13.988281 C 33.890625 14.101562 33.875 14.214844 33.863281 14.328125 C 33.851562 14.414062 33.84375 14.503906 33.839844 14.589844 C 33.820312 14.960938 33.84375 15.265625 33.910156 15.503906 C 33.9375 15.59375 33.96875 15.679688 34.015625 15.757812 C 34.183594 16.058594 34.414062 16.234375 34.703125 16.289062 C 34.984375 16.34375 35.21875 16.386719 35.398438 16.414062 C 35.4375 16.417969 35.472656 16.425781 35.507812 16.429688 C 35.535156 16.433594 35.5625 16.433594 35.589844 16.433594 C 35.765625 16.433594 35.976562 16.363281 36.222656 16.21875 C 36.226562 16.214844 36.234375 16.214844 36.238281 16.210938 C 36.285156 16.179688 36.332031 16.152344 36.378906 16.121094 C 36.566406 16.003906 36.6875 15.9375 36.746094 15.914062 C 36.746094 15.914062 36.746094 15.914062 36.75 15.914062 C 36.777344 15.902344 36.808594 15.886719 36.835938 15.871094 C 36.863281 15.855469 36.890625 15.832031 36.914062 15.808594 L 37.234375 15.488281 C 37.261719 15.460938 37.289062 15.429688 37.320312 15.402344 C 37.398438 15.324219 37.464844 15.261719 37.515625 15.214844 C 37.550781 15.1875 37.585938 15.164062 37.628906 15.148438 C 37.667969 15.132812 37.707031 15.125 37.746094 15.125 C 37.808594 15.125 37.867188 15.148438 37.914062 15.1875 C 37.9375 15.203125 37.957031 15.222656 37.976562 15.242188 C 38.03125 15.304688 38.085938 15.355469 38.140625 15.386719 C 38.152344 15.394531 38.167969 15.402344 38.179688 15.410156 C 38.203125 15.410156 38.222656 15.410156 38.242188 15.417969 C 38.351562 15.441406 38.371094 15.527344 38.308594 15.683594 C 38.304688 15.695312 38.300781 15.707031 38.292969 15.71875 C 38.261719 15.789062 38.222656 15.859375 38.179688 15.925781 C 38.09375 16.0625 37.972656 16.210938 37.820312 16.375 C 37.796875 16.402344 37.769531 16.429688 37.746094 16.457031 C 37.472656 16.738281 37.148438 17 36.773438 17.242188 Z M 68.332031 17.242188 C 67.972656 17.550781 67.558594 17.734375 67.09375 17.785156 C 66.996094 17.792969 66.898438 17.800781 66.804688 17.800781 C 66.429688 17.800781 66.0625 17.71875 65.726562 17.566406 C 65.28125 17.367188 64.914062 17.0625 64.625 16.648438 C 64.335938 16.269531 64.148438 15.835938 64.0625 15.34375 C 64.039062 15.207031 64.023438 15.070312 64.011719 14.933594 C 63.980469 14.511719 63.988281 14.007812 64.039062 13.421875 C 64.074219 12.96875 64.179688 12.519531 64.347656 12.097656 C 64.441406 11.855469 64.550781 11.621094 64.675781 11.398438 C 65.050781 10.71875 65.507812 10.109375 66.042969 9.578125 C 66.246094 9.378906 66.457031 9.191406 66.683594 9.019531 C 66.917969 8.839844 67.152344 8.695312 67.386719 8.578125 C 67.472656 8.539062 67.554688 8.5 67.640625 8.46875 C 67.703125 8.425781 67.769531 8.386719 67.839844 8.347656 C 68 8.265625 68.140625 8.222656 68.265625 8.222656 C 68.277344 8.222656 68.285156 8.222656 68.292969 8.222656 C 68.46875 8.230469 68.738281 8.253906 69.101562 8.285156 C 69.109375 8.285156 69.117188 8.285156 69.125 8.289062 C 69.226562 8.300781 69.328125 8.316406 69.429688 8.335938 C 69.632812 8.375 69.796875 8.425781 69.929688 8.484375 C 69.957031 8.496094 69.980469 8.507812 70.003906 8.519531 C 70.199219 8.621094 70.359375 8.761719 70.476562 8.933594 C 70.675781 9.132812 70.820312 9.328125 70.917969 9.523438 C 70.945312 9.578125 70.96875 9.636719 70.988281 9.695312 C 71.046875 9.859375 71.085938 10.027344 71.105469 10.203125 C 71.113281 10.277344 71.117188 10.355469 71.117188 10.429688 C 71.089844 10.566406 71.046875 10.699219 70.992188 10.824219 C 70.882812 11.074219 70.714844 11.351562 70.480469 11.65625 C 70.441406 11.710938 70.402344 11.761719 70.363281 11.808594 C 70.03125 12.21875 69.636719 12.566406 69.191406 12.84375 C 69.019531 12.953125 68.84375 13.050781 68.664062 13.140625 C 68.402344 13.222656 68.136719 13.273438 67.863281 13.289062 C 67.726562 13.296875 67.582031 13.300781 67.4375 13.292969 C 67.269531 13.289062 67.101562 13.265625 66.941406 13.226562 C 66.710938 13.171875 66.511719 13.082031 66.339844 12.957031 C 66.300781 12.941406 66.257812 12.925781 66.21875 12.914062 C 66.070312 12.863281 65.949219 12.855469 65.855469 12.890625 C 65.789062 12.914062 65.734375 12.960938 65.699219 13.023438 C 65.671875 13.074219 65.652344 13.125 65.632812 13.179688 C 65.574219 13.355469 65.515625 13.625 65.464844 13.988281 C 65.449219 14.101562 65.433594 14.214844 65.417969 14.328125 C 65.410156 14.414062 65.402344 14.503906 65.398438 14.589844 C 65.375 14.960938 65.398438 15.265625 65.46875 15.503906 C 65.492188 15.59375 65.527344 15.679688 65.570312 15.757812 C 65.742188 16.058594 65.972656 16.234375 66.261719 16.289062 C 66.542969 16.34375 66.773438 16.386719 66.957031 16.414062 C 66.992188 16.417969 67.03125 16.425781 67.066406 16.429688 C 67.09375 16.433594 67.117188 16.433594 67.144531 16.433594 C 67.324219 16.433594 67.535156 16.363281 67.78125 16.21875 C 67.785156 16.214844 67.789062 16.214844 67.792969 16.210938 C 67.84375 16.179688 67.890625 16.152344 67.9375 16.121094 C 68.125 16.003906 68.246094 15.9375 68.304688 15.914062 C 68.335938 15.902344 68.367188 15.886719 68.394531 15.871094 C 68.421875 15.855469 68.449219 15.832031 68.472656 15.808594 L 68.792969 15.488281 C 68.820312 15.460938 68.847656 15.429688 68.875 15.402344 C 68.957031 15.324219 69.019531 15.261719 69.074219 15.214844 C 69.105469 15.1875 69.144531 15.164062 69.1875 15.148438 C 69.222656 15.132812 69.261719 15.125 69.300781 15.125 C 69.363281 15.125 69.425781 15.148438 69.472656 15.1875 C 69.496094 15.203125 69.515625 15.222656 69.53125 15.242188 C 69.585938 15.304688 69.644531 15.355469 69.699219 15.386719 C 69.710938 15.394531 69.722656 15.402344 69.738281 15.410156 C 69.757812 15.410156 69.78125 15.410156 69.800781 15.417969 C 69.90625 15.441406 69.929688 15.527344 69.867188 15.683594 C 69.863281 15.695312 69.855469 15.707031 69.851562 15.71875 C 69.820312 15.789062 69.78125 15.859375 69.738281 15.925781 C 69.648438 16.0625 69.53125 16.210938 69.378906 16.375 C 69.355469 16.402344 69.328125 16.429688 69.300781 16.457031 C 69.03125 16.738281 68.707031 17 68.332031 17.242188 Z M 72.625 17.242188 C 72.472656 17.121094 72.363281 17 72.304688 16.882812 C 72.292969 16.855469 72.28125 16.828125 72.277344 16.796875 C 72.246094 16.667969 72.25 16.460938 72.292969 16.183594 C 72.3125 15.984375 72.339844 15.785156 72.367188 15.585938 C 72.40625 15.339844 72.449219 15.113281 72.496094 14.90625 C 72.535156 14.734375 72.578125 14.5625 72.617188 14.390625 C 72.660156 14.210938 72.707031 14.027344 72.753906 13.828125 C 72.769531 13.761719 72.785156 13.695312 72.804688 13.628906 C 72.835938 13.429688 72.929688 13.09375 73.082031 12.621094 C 73.085938 12.605469 73.089844 12.589844 73.097656 12.570312 C 73.257812 12.074219 73.457031 11.53125 73.695312 10.945312 C 73.9375 10.359375 74.175781 9.804688 74.414062 9.28125 C 74.609375 8.847656 74.78125 8.507812 74.933594 8.253906 C 74.960938 8.207031 74.992188 8.15625 75.027344 8.105469 C 75.128906 8.03125 75.25 7.984375 75.375 7.976562 C 75.398438 7.976562 75.417969 7.972656 75.441406 7.972656 C 75.46875 7.972656 75.496094 7.976562 75.523438 7.976562 C 75.71875 7.996094 75.886719 8.074219 76.023438 8.210938 C 76.105469 8.28125 76.164062 8.378906 76.179688 8.488281 C 76.203125 8.632812 76.183594 8.808594 76.113281 9.023438 C 75.984375 9.410156 75.722656 10.015625 75.332031 10.84375 L 74.871094 11.886719 C 74.777344 12.105469 74.734375 12.238281 74.742188 12.289062 C 74.742188 12.292969 74.742188 12.296875 74.746094 12.300781 C 74.761719 12.339844 74.820312 12.328125 74.925781 12.265625 C 74.945312 12.253906 74.960938 12.246094 74.976562 12.234375 C 75.011719 12.171875 75.050781 12.109375 75.09375 12.050781 C 75.203125 11.90625 75.347656 11.75 75.535156 11.578125 C 75.8125 11.324219 76.097656 11.085938 76.390625 10.855469 C 76.394531 10.851562 76.402344 10.847656 76.40625 10.84375 C 76.710938 10.601562 77.003906 10.386719 77.273438 10.195312 C 77.328125 10.160156 77.386719 10.121094 77.441406 10.082031 C 77.625 9.957031 77.757812 9.875 77.835938 9.835938 C 77.921875 9.78125 78.011719 9.734375 78.101562 9.695312 C 78.167969 9.667969 78.238281 9.640625 78.308594 9.617188 C 78.351562 9.601562 78.390625 9.589844 78.433594 9.574219 C 78.542969 9.535156 78.625 9.503906 78.675781 9.476562 C 78.675781 9.476562 78.679688 9.476562 78.679688 9.472656 C 78.890625 9.371094 79.117188 9.300781 79.351562 9.269531 C 79.441406 9.257812 79.53125 9.25 79.621094 9.25 C 79.707031 9.25 79.792969 9.257812 79.878906 9.269531 C 80.289062 9.320312 80.546875 9.472656 80.648438 9.734375 C 80.652344 9.777344 80.664062 9.824219 80.679688 9.867188 C 80.707031 9.9375 80.753906 10 80.8125 10.042969 L 80.953125 10.144531 C 80.96875 10.144531 80.980469 10.148438 80.996094 10.148438 C 81.039062 10.15625 81.0625 10.183594 81.070312 10.222656 L 81.082031 10.300781 C 81.082031 10.398438 81.019531 10.464844 80.898438 10.5 C 80.871094 10.507812 80.84375 10.515625 80.8125 10.519531 C 80.691406 10.539062 80.546875 10.554688 80.382812 10.566406 C 80.300781 10.574219 80.21875 10.578125 80.136719 10.585938 C 80.03125 10.59375 79.929688 10.605469 79.824219 10.628906 C 79.730469 10.648438 79.636719 10.675781 79.546875 10.714844 C 79.378906 10.78125 79.175781 10.867188 78.933594 10.972656 C 78.464844 11.246094 77.996094 11.527344 77.527344 11.808594 C 77.378906 11.898438 77.230469 11.988281 77.082031 12.082031 C 76.71875 12.304688 76.375 12.566406 76.058594 12.851562 C 75.820312 13.066406 75.597656 13.289062 75.382812 13.527344 C 75.265625 13.664062 75.144531 13.828125 75.027344 14.015625 C 74.90625 14.207031 74.777344 14.414062 74.644531 14.636719 C 74.617188 14.664062 74.59375 14.691406 74.578125 14.722656 C 74.511719 14.828125 74.449219 14.988281 74.386719 15.203125 C 74.332031 15.398438 74.277344 15.59375 74.230469 15.789062 C 74.207031 15.871094 74.1875 15.957031 74.171875 16.042969 C 74.160156 16.089844 74.148438 16.136719 74.140625 16.179688 C 74.101562 16.363281 74.082031 16.476562 74.082031 16.519531 L 74.003906 16.765625 C 73.96875 16.878906 73.917969 16.988281 73.855469 17.089844 C 73.820312 17.140625 73.785156 17.191406 73.75 17.242188 C 73.707031 17.296875 73.664062 17.351562 73.621094 17.402344 C 73.480469 17.558594 73.359375 17.644531 73.257812 17.65625 C 73.25 17.65625 73.242188 17.65625 73.238281 17.65625 C 73.195312 17.652344 73.15625 17.644531 73.117188 17.628906 C 73 17.578125 72.855469 17.46875 72.679688 17.300781 C 72.664062 17.28125 72.644531 17.261719 72.625 17.242188 Z M 25.855469 16.46875 C 25.878906 16.507812 25.90625 16.542969 25.941406 16.570312 C 26.144531 16.777344 26.367188 16.839844 26.605469 16.753906 C 26.675781 16.726562 26.742188 16.691406 26.804688 16.65625 C 27.015625 16.53125 27.273438 16.324219 27.574219 16.03125 C 27.660156 15.90625 27.753906 15.789062 27.851562 15.675781 C 27.964844 15.542969 28.09375 15.417969 28.226562 15.308594 C 28.265625 15.273438 28.304688 15.242188 28.34375 15.210938 C 28.507812 15.074219 28.617188 14.976562 28.675781 14.917969 C 28.691406 14.902344 28.707031 14.886719 28.722656 14.871094 C 28.828125 14.75 29 14.539062 29.238281 14.234375 C 29.507812 13.882812 29.789062 13.496094 30.078125 13.074219 C 30.09375 13.054688 30.105469 13.035156 30.117188 13.015625 C 30.390625 12.621094 30.589844 12.292969 30.71875 12.03125 C 30.734375 12.011719 30.75 11.996094 30.761719 11.980469 C 30.816406 11.90625 30.875 11.796875 30.9375 11.65625 C 30.941406 11.644531 30.945312 11.632812 30.953125 11.617188 C 30.988281 11.535156 31.03125 11.445312 31.082031 11.355469 C 31.136719 11.261719 31.195312 11.167969 31.253906 11.074219 C 31.324219 10.980469 31.386719 10.882812 31.449219 10.78125 C 31.652344 10.445312 31.742188 10.179688 31.714844 9.992188 C 31.683594 9.769531 31.496094 9.679688 31.148438 9.71875 C 31.117188 9.722656 31.082031 9.726562 31.050781 9.734375 C 31.039062 9.734375 31.023438 9.738281 31.011719 9.746094 C 30.925781 9.773438 30.832031 9.832031 30.738281 9.921875 C 30.691406 9.960938 30.644531 10.007812 30.605469 10.054688 C 30.59375 10.066406 30.582031 10.078125 30.574219 10.089844 C 30.417969 10.265625 30.269531 10.449219 30.132812 10.636719 C 29.976562 10.84375 29.839844 11.03125 29.722656 11.203125 C 29.449219 11.546875 29.207031 11.875 28.992188 12.183594 C 28.972656 12.21875 28.949219 12.25 28.925781 12.285156 C 28.71875 12.578125 28.457031 12.941406 28.136719 13.371094 C 28.113281 13.40625 28.085938 13.441406 28.0625 13.472656 C 27.886719 13.703125 27.703125 13.929688 27.511719 14.144531 C 27.476562 14.1875 27.4375 14.226562 27.402344 14.269531 C 27.289062 14.394531 27.207031 14.488281 27.144531 14.550781 C 27.128906 14.570312 27.109375 14.589844 27.089844 14.609375 C 27.085938 14.613281 27.082031 14.621094 27.074219 14.625 C 26.964844 14.730469 26.867188 14.746094 26.785156 14.671875 C 26.773438 14.65625 26.757812 14.640625 26.746094 14.621094 C 26.652344 14.492188 26.570312 14.359375 26.503906 14.222656 C 26.503906 14.214844 26.503906 14.207031 26.5 14.199219 C 26.492188 14.109375 26.441406 13.894531 26.347656 13.550781 C 26.324219 13.460938 26.300781 13.367188 26.28125 13.273438 C 26.207031 12.957031 26.144531 12.59375 26.09375 12.183594 C 26.050781 11.902344 26.003906 11.625 25.953125 11.34375 C 25.855469 10.808594 25.75 10.355469 25.632812 9.976562 C 25.621094 9.941406 25.609375 9.902344 25.597656 9.863281 C 25.484375 9.523438 25.367188 9.285156 25.238281 9.152344 C 25.195312 9.101562 25.136719 9.058594 25.070312 9.035156 C 25.019531 9.023438 24.945312 9.023438 24.855469 9.035156 C 24.828125 9.039062 24.804688 9.042969 24.777344 9.046875 C 24.765625 9.050781 24.75 9.054688 24.738281 9.058594 C 24.683594 9.070312 24.636719 9.085938 24.59375 9.101562 C 24.546875 9.117188 24.5 9.140625 24.457031 9.164062 C 24.421875 9.1875 24.390625 9.207031 24.355469 9.234375 C 24.21875 9.335938 24.128906 9.488281 24.101562 9.65625 C 24.097656 9.675781 24.09375 9.691406 24.09375 9.710938 C 24.070312 9.910156 24.101562 10.148438 24.175781 10.429688 C 24.179688 10.4375 24.183594 10.445312 24.183594 10.453125 C 24.234375 10.605469 24.296875 10.792969 24.367188 11.023438 C 24.445312 11.265625 24.519531 11.554688 24.585938 11.898438 C 24.6875 12.484375 24.820312 13.125 24.980469 13.824219 C 25.003906 13.917969 25.027344 14.015625 25.050781 14.113281 C 25.191406 14.6875 25.339844 15.199219 25.492188 15.640625 C 25.523438 15.726562 25.550781 15.808594 25.582031 15.894531 C 25.683594 16.160156 25.773438 16.351562 25.855469 16.46875 Z M 46.394531 17.628906 C 46.433594 17.65625 46.476562 17.679688 46.523438 17.695312 C 46.632812 17.738281 46.761719 17.757812 46.917969 17.757812 C 47.117188 17.742188 47.304688 17.714844 47.476562 17.675781 C 47.632812 17.640625 47.789062 17.597656 47.941406 17.539062 C 48.121094 17.46875 48.316406 17.375 48.523438 17.253906 C 48.65625 17.175781 48.785156 17.097656 48.910156 17.011719 C 49.148438 16.871094 49.378906 16.722656 49.601562 16.566406 C 49.804688 16.429688 50 16.277344 50.1875 16.121094 C 50.546875 15.820312 50.9375 15.359375 51.363281 14.738281 C 51.429688 14.648438 51.492188 14.554688 51.554688 14.460938 C 51.925781 13.898438 52.199219 13.390625 52.378906 12.941406 C 52.464844 12.726562 52.53125 12.503906 52.578125 12.273438 C 52.621094 12.0625 52.652344 11.847656 52.675781 11.632812 C 52.722656 11.226562 52.726562 10.851562 52.695312 10.507812 C 52.679688 10.378906 52.660156 10.253906 52.632812 10.132812 C 52.570312 9.847656 52.476562 9.621094 52.347656 9.449219 C 52.296875 9.378906 52.238281 9.316406 52.175781 9.257812 C 52.085938 9.171875 51.980469 9.09375 51.859375 9.019531 C 51.742188 8.949219 51.617188 8.882812 51.492188 8.828125 C 51.308594 8.628906 51.152344 8.503906 51.027344 8.449219 C 50.984375 8.429688 50.9375 8.417969 50.890625 8.417969 C 50.882812 8.417969 50.875 8.417969 50.867188 8.417969 C 50.71875 8.421875 50.464844 8.464844 50.113281 8.546875 C 49.738281 8.632812 49.390625 8.761719 49.066406 8.933594 C 48.851562 9.046875 48.617188 9.199219 48.363281 9.394531 C 48.21875 9.503906 48.078125 9.617188 47.941406 9.734375 C 47.738281 9.90625 47.511719 10.132812 47.261719 10.417969 C 47.015625 10.699219 46.789062 10.984375 46.585938 11.269531 C 46.566406 11.296875 46.546875 11.320312 46.527344 11.347656 C 46.351562 11.59375 46.21875 11.796875 46.125 11.953125 C 45.871094 12.363281 45.65625 12.804688 45.488281 13.269531 C 45.332031 13.6875 45.261719 13.976562 45.277344 14.128906 C 45.277344 14.144531 45.28125 14.15625 45.285156 14.171875 C 45.316406 14.359375 45.285156 14.457031 45.179688 14.457031 C 45.179688 14.460938 45.175781 14.46875 45.171875 14.472656 C 45.140625 14.53125 45.109375 14.574219 45.078125 14.597656 C 45.070312 14.605469 45.0625 14.613281 45.0625 14.625 C 45.0625 14.65625 45.09375 14.703125 45.15625 14.765625 L 45.167969 14.957031 C 45.167969 14.976562 45.171875 14.996094 45.171875 15.015625 C 45.171875 15.125 45.148438 15.242188 45.105469 15.359375 C 45.054688 15.652344 45.097656 15.957031 45.230469 16.273438 C 45.316406 16.472656 45.4375 16.675781 45.597656 16.886719 C 45.699219 17.019531 45.808594 17.148438 45.921875 17.269531 C 45.980469 17.316406 46.039062 17.363281 46.097656 17.410156 C 46.210938 17.5 46.308594 17.570312 46.394531 17.628906 Z M 49.371094 15.023438 C 49.542969 14.832031 49.707031 14.632812 49.863281 14.429688 C 50.050781 14.179688 50.214844 13.9375 50.355469 13.707031 C 50.460938 13.527344 50.5625 13.339844 50.648438 13.148438 C 50.738281 12.960938 50.824219 12.757812 50.910156 12.542969 C 50.960938 12.40625 51.011719 12.269531 51.058594 12.132812 C 51.085938 12.050781 51.109375 11.964844 51.128906 11.878906 C 51.15625 11.742188 51.175781 11.589844 51.1875 11.421875 C 51.191406 11.3125 51.195312 11.203125 51.195312 11.089844 C 51.195312 10.953125 51.191406 10.820312 51.179688 10.695312 C 51.175781 10.671875 51.175781 10.648438 51.171875 10.621094 C 51.148438 10.378906 51.085938 10.238281 50.988281 10.199219 C 50.984375 10.199219 50.984375 10.199219 50.980469 10.195312 C 50.863281 10.128906 50.730469 10.085938 50.59375 10.070312 C 50.484375 10.058594 50.367188 10.0625 50.242188 10.082031 C 50.117188 10.101562 49.996094 10.136719 49.882812 10.191406 C 49.777344 10.238281 49.667969 10.300781 49.558594 10.378906 C 49.46875 10.441406 49.378906 10.511719 49.296875 10.585938 C 48.765625 11.03125 48.308594 11.585938 47.914062 12.25 C 47.523438 12.910156 47.140625 13.664062 46.765625 14.507812 C 46.714844 14.632812 46.667969 14.757812 46.628906 14.886719 C 46.496094 15.332031 46.484375 15.699219 46.597656 15.992188 C 46.742188 16.359375 47.058594 16.488281 47.542969 16.378906 C 47.703125 16.339844 47.855469 16.277344 47.996094 16.195312 C 48.285156 16.035156 48.605469 15.789062 48.957031 15.445312 C 49.097656 15.308594 49.238281 15.167969 49.371094 15.023438 Z M 56.269531 15.308594 C 56.308594 15.304688 56.34375 15.304688 56.378906 15.296875 C 56.5 15.28125 56.675781 15.246094 56.902344 15.183594 C 56.972656 15.164062 57.042969 15.144531 57.113281 15.125 C 57.539062 15.003906 57.976562 14.855469 58.429688 14.675781 C 58.5625 14.621094 58.691406 14.566406 58.820312 14.503906 C 59.082031 14.378906 59.285156 14.25 59.4375 14.121094 C 59.839844 13.765625 60.171875 13.34375 60.421875 12.871094 C 60.4375 12.835938 60.457031 12.800781 60.472656 12.765625 C 60.527344 12.652344 60.570312 12.539062 60.601562 12.417969 C 60.695312 12.035156 60.632812 11.664062 60.410156 11.308594 C 60.273438 11.066406 60.027344 10.96875 59.667969 11.011719 C 59.503906 11.03125 59.339844 11.070312 59.179688 11.125 C 58.960938 11.195312 58.734375 11.300781 58.492188 11.4375 C 58.085938 11.667969 57.707031 11.949219 57.363281 12.273438 C 57.339844 12.292969 57.316406 12.316406 57.292969 12.339844 C 57.179688 12.464844 57.074219 12.597656 56.980469 12.738281 C 56.890625 12.875 56.804688 13.019531 56.730469 13.164062 C 56.558594 13.492188 56.417969 13.820312 56.308594 14.144531 C 56.230469 14.371094 56.179688 14.574219 56.148438 14.75 C 56.132812 14.824219 56.125 14.898438 56.117188 14.972656 C 56.105469 15.144531 56.132812 15.25 56.199219 15.289062 C 56.222656 15.300781 56.246094 15.308594 56.269531 15.308594 Z M 19.988281 11.769531 C 20.082031 11.726562 20.175781 11.675781 20.265625 11.617188 C 20.367188 11.554688 20.46875 11.480469 20.574219 11.398438 C 20.742188 11.265625 20.894531 11.113281 21.027344 10.945312 C 21.050781 10.917969 21.074219 10.886719 21.097656 10.855469 C 21.136719 10.804688 21.167969 10.753906 21.199219 10.699219 C 21.265625 10.589844 21.300781 10.492188 21.3125 10.40625 C 21.3125 10.386719 21.316406 10.371094 21.316406 10.351562 C 21.316406 10.15625 21.234375 9.96875 21.09375 9.835938 C 21.058594 9.804688 21.023438 9.773438 20.984375 9.746094 C 20.902344 9.6875 20.8125 9.648438 20.71875 9.628906 C 20.542969 9.589844 20.335938 9.597656 20.085938 9.65625 C 20.054688 9.664062 20.019531 9.671875 19.988281 9.679688 C 19.914062 9.703125 19.84375 9.730469 19.773438 9.765625 C 19.710938 9.796875 19.640625 9.839844 19.570312 9.886719 C 19.492188 9.941406 19.417969 9.996094 19.347656 10.054688 C 19.109375 10.253906 18.882812 10.472656 18.671875 10.714844 C 18.59375 10.796875 18.523438 10.886719 18.449219 10.972656 C 18.335938 11.113281 18.238281 11.242188 18.160156 11.359375 C 18.046875 11.527344 17.996094 11.636719 18.011719 11.679688 C 18.011719 11.683594 18.015625 11.691406 18.019531 11.695312 C 18.035156 11.722656 18.058594 11.746094 18.085938 11.761719 C 18.160156 11.816406 18.285156 11.855469 18.453125 11.886719 C 18.683594 11.929688 18.941406 11.941406 19.226562 11.929688 C 19.238281 11.925781 19.246094 11.925781 19.257812 11.925781 C 19.472656 11.914062 19.660156 11.882812 19.816406 11.835938 C 19.875 11.816406 19.929688 11.796875 19.988281 11.769531 Z M 36.75 11.769531 C 36.84375 11.726562 36.9375 11.675781 37.027344 11.617188 C 37.128906 11.554688 37.230469 11.480469 37.335938 11.398438 C 37.503906 11.265625 37.65625 11.113281 37.789062 10.945312 C 37.816406 10.917969 37.835938 10.886719 37.859375 10.855469 C 37.898438 10.804688 37.929688 10.753906 37.964844 10.699219 C 38.027344 10.589844 38.0625 10.492188 38.074219 10.40625 C 38.078125 10.386719 38.078125 10.371094 38.078125 10.351562 C 38.078125 10.15625 37.996094 9.96875 37.855469 9.835938 C 37.820312 9.804688 37.785156 9.773438 37.746094 9.746094 C 37.664062 9.6875 37.574219 9.648438 37.480469 9.628906 C 37.308594 9.589844 37.097656 9.597656 36.847656 9.65625 C 36.816406 9.664062 36.78125 9.671875 36.75 9.679688 C 36.675781 9.703125 36.605469 9.730469 36.539062 9.765625 C 36.472656 9.796875 36.402344 9.839844 36.332031 9.886719 C 36.253906 9.941406 36.179688 9.996094 36.109375 10.054688 C 35.871094 10.253906 35.644531 10.472656 35.433594 10.714844 C 35.359375 10.796875 35.285156 10.886719 35.210938 10.972656 C 35.097656 11.113281 35 11.242188 34.921875 11.359375 C 34.808594 11.527344 34.757812 11.636719 34.773438 11.679688 C 34.773438 11.683594 34.777344 11.691406 34.78125 11.695312 C 34.800781 11.722656 34.820312 11.746094 34.847656 11.761719 C 34.925781 11.816406 35.046875 11.855469 35.214844 11.886719 C 35.445312 11.929688 35.703125 11.941406 35.988281 11.929688 C 36 11.925781 36.011719 11.925781 36.019531 11.925781 C 36.234375 11.914062 36.421875 11.882812 36.578125 11.835938 C 36.636719 11.816406 36.695312 11.796875 36.75 11.769531 Z M 68.304688 11.769531 C 68.402344 11.726562 68.496094 11.675781 68.585938 11.617188 C 68.683594 11.554688 68.789062 11.480469 68.894531 11.398438 C 69.0625 11.265625 69.214844 11.113281 69.347656 10.945312 C 69.371094 10.917969 69.394531 10.886719 69.417969 10.855469 C 69.453125 10.804688 69.488281 10.753906 69.519531 10.699219 C 69.582031 10.589844 69.621094 10.492188 69.632812 10.40625 C 69.632812 10.386719 69.632812 10.371094 69.632812 10.351562 C 69.636719 10.15625 69.554688 9.96875 69.410156 9.835938 C 69.375 9.804688 69.339844 9.773438 69.300781 9.746094 C 69.222656 9.6875 69.132812 9.648438 69.035156 9.628906 C 68.863281 9.589844 68.652344 9.597656 68.40625 9.65625 C 68.371094 9.664062 68.339844 9.671875 68.304688 9.679688 C 68.234375 9.703125 68.160156 9.730469 68.09375 9.765625 C 68.027344 9.796875 67.960938 9.839844 67.886719 9.886719 C 67.8125 9.941406 67.738281 9.996094 67.667969 10.054688 C 67.429688 10.253906 67.203125 10.472656 66.988281 10.714844 C 66.914062 10.796875 66.839844 10.886719 66.769531 10.972656 C 66.65625 11.113281 66.558594 11.242188 66.480469 11.359375 C 66.363281 11.527344 66.316406 11.636719 66.328125 11.679688 C 66.332031 11.683594 66.335938 11.691406 66.339844 11.695312 C 66.355469 11.722656 66.378906 11.746094 66.40625 11.761719 C 66.480469 11.816406 66.601562 11.855469 66.773438 11.886719 C 67.003906 11.929688 67.261719 11.941406 67.546875 11.929688 C 67.554688 11.925781 67.566406 11.925781 67.578125 11.925781 C 67.792969 11.914062 67.976562 11.882812 68.136719 11.835938 C 68.191406 11.816406 68.25 11.796875 68.304688 11.769531 Z M 68.304688 11.769531 "/> </g> </svg>
